<svg xmlns="http://www.w3.org/2000/svg" width="404" height="184.181" viewBox="0 0 404 184.181">
  <g id="img-contact" transform="translate(-133.59 -490.851)">
    <g id="Group-20" transform="translate(170.328 674.964) rotate(180)">
      <rect id="Rectangle" width="36.657" height="36.657" transform="translate(0 0)" fill="#404143"/>
      <g id="Group" transform="translate(5.189 5.022)">
        <ellipse id="Oval" cx="2.846" cy="2.929" rx="2.846" ry="2.929" transform="translate(0 0)" fill="#191a1b"/>
        <ellipse id="Oval-2" data-name="Oval" cx="2.929" cy="2.929" rx="2.929" ry="2.929" transform="translate(20.588 0)" fill="#191a1b"/>
        <ellipse id="Oval-3" data-name="Oval" cx="2.846" cy="2.929" rx="2.846" ry="2.929" transform="translate(10.378 0)" fill="#191a1b"/>
        <ellipse id="Oval-4" data-name="Oval" cx="2.846" cy="2.846" rx="2.846" ry="2.846" transform="translate(0 10.378)" fill="#191a1b"/>
        <ellipse id="Oval-5" data-name="Oval" cx="2.929" cy="2.846" rx="2.929" ry="2.846" transform="translate(20.588 10.378)" fill="#191a1b"/>
        <ellipse id="Oval-6" data-name="Oval" cx="2.846" cy="2.846" rx="2.846" ry="2.846" transform="translate(10.378 10.378)" fill="#191a1b"/>
        <ellipse id="Oval-7" data-name="Oval" cx="2.846" cy="2.846" rx="2.846" ry="2.846" transform="translate(0 20.756)" fill="#191a1b"/>
        <ellipse id="Oval-8" data-name="Oval" cx="2.929" cy="2.846" rx="2.929" ry="2.846" transform="translate(20.588 20.756)" fill="#191a1b"/>
        <ellipse id="Oval-9" data-name="Oval" cx="2.846" cy="2.846" rx="2.846" ry="2.846" transform="translate(10.378 20.756)" fill="#191a1b"/>
      </g>
    </g>
    <g id="Group-19" transform="translate(133.671 601.65)">
      <rect id="Rectangle-2" data-name="Rectangle" width="36.657" height="36.657" transform="translate(0 0)" fill="#b7b7b8"/>
      <ellipse id="Oval-10" data-name="Oval" cx="13.726" cy="13.726" rx="13.726" ry="13.726" transform="translate(4.519 4.687)" fill="#101011"/>
      <ellipse id="Oval-11" data-name="Oval" cx="8.034" cy="8.034" rx="8.034" ry="8.034" transform="translate(10.21 10.378)" fill="#838485"/>
      <ellipse id="Oval-" cx="2.846" cy="2.929" rx="2.846" ry="2.929" transform="translate(15.399 15.399)" fill="#171719"/>
    </g>
    <g id="Group-18" transform="translate(170.328 564.984) rotate(90)">
      <rect id="Rectangle-3" data-name="Rectangle" width="36.657" height="36.657" transform="translate(0.009 0)" fill="#191a1b"/>
      <path id="Path" d="M36.683,36.683A36.683,36.683,0,0,1,0,0H36.683" transform="translate(0 0.055)" fill="#171719" fill-rule="evenodd"/>
      <path id="Path-2" data-name="Path" d="M18.341,18.341A18.341,18.341,0,0,0,0,0V18.341" transform="translate(36.683 18.397) rotate(180)" fill="#191a1b" fill-rule="evenodd"/>
    </g>
    <g id="Group-17" transform="translate(170.328 528.301) rotate(90)">
      <rect id="Rectangle-4" data-name="Rectangle" width="36.657" height="36.657" transform="translate(0.034 0)" fill="#191a1b"/>
      <path id="Path-3" data-name="Path" d="M36.683,36.683A36.683,36.683,0,0,1,0,0H36.683" transform="translate(36.683 36.738) rotate(180)" fill="#838485" fill-rule="evenodd"/>
      <path id="Path-4" data-name="Path" d="M18.341,0A18.341,18.341,0,0,1,0,18.341V0" transform="translate(0 18.397)" fill="#b7b7b8" fill-rule="evenodd"/>
    </g>
    <g id="Group-16" transform="translate(133.59 491.618)">
      <rect id="Rectangle-5" data-name="Rectangle" width="36.657" height="36.657" transform="translate(0.081 0.06)" fill="#404143"/>
      <path id="Path-5" data-name="Path" d="M36.683,36.683A36.683,36.683,0,0,1,0,0H36.683" transform="translate(36.683 36.683) rotate(180)" fill="#b7b7b8" fill-rule="evenodd"/>
      <path id="Path-6" data-name="Path" d="M18.341,0A18.341,18.341,0,0,1,0,18.341V0" transform="translate(18.341 36.683) rotate(180)" fill="#838485" fill-rule="evenodd"/>
    </g>
    <g id="Group-15" transform="translate(170.272 638.307)">
      <rect id="Rectangle-6" data-name="Rectangle" width="36.657" height="36.657" transform="translate(0.055 0)" fill="#b7b7b8"/>
      <path id="Combined-Shape" d="M36.683,36.683A36.683,36.683,0,0,0,0,0,36.683,36.683,0,0,0,36.683,36.683Z" transform="translate(36.683 36.725) rotate(180)" fill="#838485" fill-rule="evenodd"/>
    </g>
    <g id="Group-14" transform="translate(170.272 601.65)">
      <rect id="Rectangle-7" data-name="Rectangle" width="36.657" height="36.657" transform="translate(0.055 0)" fill="#171719"/>
      <path id="Path-7" data-name="Path" d="M18.341,0A18.341,18.341,0,0,1,0,18.341V0" transform="translate(36.683 18.358) rotate(180)" fill="#838485" fill-rule="evenodd"/>
      <path id="Path-8" data-name="Path" d="M18.341,18.341A18.341,18.341,0,0,0,0,0V18.341" transform="translate(0 0.017)" fill="#191a1b" fill-rule="evenodd"/>
    </g>
    <g id="Group-13" transform="translate(170.272 564.992)">
      <rect id="Rectangle-8" data-name="Rectangle" width="36.657" height="36.657" transform="translate(0.055 0)" fill="#171719"/>
      <path id="Path-9" data-name="Path" d="M18.341,18.341A18.341,18.341,0,0,0,0,0V18.341" transform="translate(36.683 36.674) rotate(180)" fill="#838485" fill-rule="evenodd"/>
      <path id="Path-10" data-name="Path" d="M18.341-1600A18.341,18.341,0,0,1,0-1581.658V-1600" transform="translate(0 1618.333)" fill="#191a1b" fill-rule="evenodd"/>
    </g>
    <g id="Group-12" transform="translate(170.328 528.335)">
      <rect id="Rectangle-9" data-name="Rectangle" width="36.657" height="36.657" transform="translate(0 0)" fill="#404143"/>
      <rect id="Rectangle-10" data-name="Rectangle" width="18.245" height="18.245" transform="translate(0 0)" fill="#171719"/>
      <rect id="Rectangle-11" data-name="Rectangle" width="18.412" height="18.245" transform="translate(18.245 0)" fill="#191a1b"/>
      <rect id="Rectangle-12" data-name="Rectangle" width="18.412" height="18.412" transform="translate(18.245 18.245)" fill="#838485"/>
    </g>
    <g id="Group-11" transform="translate(170.328 491.678)">
      <rect id="Rectangle-13" data-name="Rectangle" width="36.657" height="36.657" transform="translate(0)" fill="#101011"/>
      <g id="Group-2" data-name="Group" transform="translate(5.022 5.022)">
        <ellipse id="Oval-12" data-name="Oval" cx="2.929" cy="2.929" rx="2.929" ry="2.929" transform="translate(0 0)" fill="#838485"/>
        <ellipse id="Oval--2" data-name="Oval-" cx="2.846" cy="2.929" rx="2.846" ry="2.929" transform="translate(20.756 0)" fill="#838485"/>
        <ellipse id="Oval--3" data-name="Oval-" cx="2.846" cy="2.929" rx="2.846" ry="2.929" transform="translate(10.378 0)" fill="#838485"/>
        <ellipse id="Oval-13" data-name="Oval" cx="2.929" cy="2.846" rx="2.929" ry="2.846" transform="translate(0 10.378)" fill="#838485"/>
        <ellipse id="Oval--4" data-name="Oval-" cx="2.846" cy="2.846" rx="2.846" ry="2.846" transform="translate(20.756 10.378)" fill="#838485"/>
        <ellipse id="Oval-14" data-name="Oval" cx="2.846" cy="2.846" rx="2.846" ry="2.846" transform="translate(10.378 10.378)" fill="#838485"/>
        <ellipse id="Oval--5" data-name="Oval-" cx="2.929" cy="2.846" rx="2.929" ry="2.846" transform="translate(0 20.756)" fill="#838485"/>
        <ellipse id="Oval--6" data-name="Oval-" cx="2.846" cy="2.846" rx="2.846" ry="2.846" transform="translate(20.756 20.756)" fill="#838485"/>
        <ellipse id="Oval--7" data-name="Oval-" cx="2.846" cy="2.846" rx="2.846" ry="2.846" transform="translate(10.378 20.756)" fill="#838485"/>
      </g>
    </g>
    <g id="Group-10" transform="translate(243.642 675.032) rotate(180)">
      <rect id="Rectangle-14" data-name="Rectangle" width="36.657" height="36.657" transform="translate(0 0.068)" fill="#838485"/>
      <path id="Combined-Shape-2" data-name="Combined-Shape" d="M36.683,0A36.683,36.683,0,0,1,0,36.683,36.683,36.683,0,0,1,36.683,0Z" transform="translate(0.004)" fill="#b7b7b8" fill-rule="evenodd"/>
    </g>
    <g id="Group-9" transform="translate(206.955 601.65)">
      <rect id="Rectangle-15" data-name="Rectangle" width="36.657" height="36.657" transform="translate(0.03 0)" fill="#101011"/>
      <path id="Path-11" data-name="Path" d="M36.683,0A36.683,36.683,0,0,0,0,36.683H36.683" transform="translate(36.683 36.7) rotate(180)" fill="#171719" fill-rule="evenodd"/>
      <path id="Path-12" data-name="Path" d="M18.341-800A18.341,18.341,0,0,1,0-781.659V-800" transform="translate(0 800.017)" fill="#838485" fill-rule="evenodd"/>
    </g>
    <g id="Group-8" transform="translate(206.985 564.992)">
      <rect id="Rectangle-16" data-name="Rectangle" width="36.657" height="36.657" transform="translate(0 0)" fill="#191a1b"/>
      <ellipse id="Oval-15" data-name="Oval" cx="13.809" cy="13.809" rx="13.809" ry="13.809" transform="translate(4.519 4.519)" fill="#b7b7b8"/>
      <ellipse id="Oval-16" data-name="Oval" cx="8.034" cy="8.034" rx="8.034" ry="8.034" transform="translate(10.21 10.378)" fill="#101011"/>
      <ellipse id="Oval--8" data-name="Oval-" cx="2.929" cy="2.929" rx="2.929" ry="2.929" transform="translate(15.399 15.399)" fill="#838485"/>
    </g>
    <g id="Group-7" transform="translate(206.955 528.301)">
      <rect id="Rectangle-17" data-name="Rectangle" width="36.657" height="36.657" transform="translate(36.687 36.691) rotate(180)" fill="#b7b7b8"/>
      <path id="Combined-Shape-3" data-name="Combined-Shape" d="M36.683-1600A36.683,36.683,0,0,1,0-1563.317,36.683,36.683,0,0,1,36.683-1600Z" transform="translate(0 1600)" fill="#101011" fill-rule="evenodd"/>
    </g>
    <g id="Group-6" transform="translate(206.955 491.618)">
      <rect id="Rectangle-18" data-name="Rectangle" width="36.657" height="36.657" transform="translate(36.687 36.717) rotate(180)" fill="#171719"/>
      <path id="Combined-Shape-4" data-name="Combined-Shape" d="M36.683,36.683A36.683,36.683,0,0,0,0,0,36.683,36.683,0,0,0,36.683,36.683Z" transform="translate(36.683 36.683) rotate(180)" fill="#b7b7b8" fill-rule="evenodd"/>
    </g>
    <g id="Group-5" transform="translate(243.642 638.307)">
      <rect id="Rectangle-19" data-name="Rectangle" width="36.657" height="36.657" transform="translate(0 0)" fill="#191a1b"/>
      <path id="Path-13" data-name="Path" d="M18.341,0A18.341,18.341,0,0,1,0,18.341V0" transform="translate(36.678 36.725) rotate(180)" fill="#b7b7b8" fill-rule="evenodd"/>
      <path id="Path-14" data-name="Path" d="M18.341,18.341A18.341,18.341,0,0,0,0,0V18.341" transform="translate(36.678 18.384) rotate(180)" fill="#b7b7b8" fill-rule="evenodd"/>
    </g>
    <g id="Group-4" transform="translate(243.642 601.65)">
      <rect id="Rectangle-20" data-name="Rectangle" width="36.657" height="36.657" transform="translate(0 0)" fill="#b7b7b8"/>
      <rect id="Rectangle-21" data-name="Rectangle" width="18.245" height="18.245" transform="translate(18.412 18.412)" fill="#101011"/>
      <rect id="Rectangle-22" data-name="Rectangle" width="18.245" height="18.412" transform="translate(18.412 0)" fill="#838485"/>
      <rect id="Rectangle-23" data-name="Rectangle" width="18.412" height="18.245" transform="translate(0 18.412)" fill="#171719"/>
    </g>
    <g id="Group-3" transform="translate(243.642 564.992)">
      <rect id="Rectangle-24" data-name="Rectangle" width="36.657" height="36.657" transform="translate(0 0)" fill="#404143"/>
      <g id="Group-3-2" data-name="Group" transform="translate(5.189 5.189)">
        <g id="Oval-17" data-name="Oval" transform="translate(0 0)">
          <ellipse id="Ellipse_6120" data-name="Ellipse 6120" cx="2.846" cy="2.846" rx="2.846" ry="2.846" fill="#171719"/>
          <ellipse id="Ellipse_6121" data-name="Ellipse 6121" cx="2.846" cy="2.846" rx="2.846" ry="2.846" transform="translate(20.588)" fill="#171719"/>
          <ellipse id="Ellipse_6122" data-name="Ellipse 6122" cx="2.929" cy="2.846" rx="2.929" ry="2.846" transform="translate(10.21)" fill="#171719"/>
          <ellipse id="Ellipse_6123" data-name="Ellipse 6123" cx="2.846" cy="2.929" rx="2.846" ry="2.929" transform="translate(0 10.21)" fill="#171719"/>
          <ellipse id="Ellipse_6124" data-name="Ellipse 6124" cx="2.846" cy="2.929" rx="2.846" ry="2.929" transform="translate(20.588 10.21)" fill="#171719"/>
          <ellipse id="Ellipse_6125" data-name="Ellipse 6125" cx="2.929" cy="2.929" rx="2.929" ry="2.929" transform="translate(10.21 10.21)" fill="#171719"/>
          <ellipse id="Ellipse_6126" data-name="Ellipse 6126" cx="2.846" cy="2.846" rx="2.846" ry="2.846" transform="translate(0 20.588)" fill="#171719"/>
          <ellipse id="Ellipse_6127" data-name="Ellipse 6127" cx="2.846" cy="2.846" rx="2.846" ry="2.846" transform="translate(20.588 20.588)" fill="#171719"/>
          <ellipse id="Ellipse_6128" data-name="Ellipse 6128" cx="2.929" cy="2.846" rx="2.929" ry="2.846" transform="translate(10.21 20.588)" fill="#171719"/>
        </g>
      </g>
    </g>
    <g id="Group-2-2" data-name="Group-2" transform="translate(243.638 528.301)">
      <rect id="Rectangle-25" data-name="Rectangle" width="36.657" height="36.657" transform="translate(0.004 0.034)" fill="#838485"/>
      <path id="Combined-Shape-5" data-name="Combined-Shape" d="M36.683,36.683A36.683,36.683,0,0,0,0,0,36.683,36.683,0,0,0,36.683,36.683Z" transform="translate(36.683 36.683) rotate(180)" fill="#191a1b" fill-rule="evenodd"/>
    </g>
    <g id="Group-1" transform="translate(243.638 491.618)">
      <rect id="Rectangle-26" data-name="Rectangle" width="36.657" height="36.657" transform="translate(0.004 0.06)" fill="#101011"/>
      <path id="Combined-Shape-6" data-name="Combined-Shape" d="M36.683,0A36.683,36.683,0,0,1,0,36.683,36.683,36.683,0,0,1,36.683,0Z" transform="translate(36.683 36.683) rotate(180)" fill="#404143" fill-rule="evenodd"/>
    </g>
    <g id="Group-35" transform="translate(280.321 638.223)">
      <rect id="Rectangle-27" data-name="Rectangle" width="36.804" height="36.636" transform="translate(0 0)" fill="#9e9e9f"/>
      <ellipse id="Oval-18" data-name="Oval" cx="13.718" cy="13.718" rx="13.718" ry="13.718" transform="translate(4.684 4.684)" fill="#5b5c5d"/>
      <ellipse id="Oval-19" data-name="Oval" cx="8.03" cy="8.03" rx="8.03" ry="8.03" transform="translate(10.372 10.372)" fill="#dfdfe0"/>
      <ellipse id="Oval--9" data-name="Oval-" cx="2.844" cy="2.844" rx="2.844" ry="2.844" transform="translate(15.558 15.558)" fill="#404143"/>
    </g>
    <g id="Group-34" transform="translate(317.124 601.587) rotate(90)">
      <rect id="Rectangle-28" data-name="Rectangle" width="36.636" height="36.804" transform="translate(0 0)" fill="#2b2c2e"/>
      <g id="Group-4-2" data-name="Group" transform="translate(5.186 5.186)">
        <ellipse id="Oval-20" data-name="Oval" cx="2.844" cy="2.844" rx="2.844" ry="2.844" transform="translate(0 0)" fill="#9e9e9f"/>
        <ellipse id="Oval--10" data-name="Oval-" cx="2.844" cy="2.844" rx="2.844" ry="2.844" transform="translate(20.577 0)" fill="#9e9e9f"/>
        <ellipse id="Oval--11" data-name="Oval-" cx="2.928" cy="2.844" rx="2.928" ry="2.844" transform="translate(10.205 0)" fill="#9e9e9f"/>
        <ellipse id="Oval-21" data-name="Oval" cx="2.844" cy="2.844" rx="2.844" ry="2.844" transform="translate(0 10.372)" fill="#9e9e9f"/>
        <ellipse id="Oval--12" data-name="Oval-" cx="2.844" cy="2.844" rx="2.844" ry="2.844" transform="translate(20.577 10.372)" fill="#9e9e9f"/>
        <ellipse id="Oval-22" data-name="Oval" cx="2.928" cy="2.844" rx="2.928" ry="2.844" transform="translate(10.205 10.372)" fill="#9e9e9f"/>
        <ellipse id="Oval--13" data-name="Oval-" cx="2.844" cy="2.928" rx="2.844" ry="2.928" transform="translate(0 20.577)" fill="#9e9e9f"/>
        <ellipse id="Oval--14" data-name="Oval-" cx="2.844" cy="2.928" rx="2.844" ry="2.928" transform="translate(20.577 20.577)" fill="#9e9e9f"/>
        <ellipse id="Oval--15" data-name="Oval-" cx="2.928" cy="2.928" rx="2.928" ry="2.928" transform="translate(10.205 20.577)" fill="#9e9e9f"/>
      </g>
    </g>
    <g id="Group-33" transform="translate(317.124 601.604) rotate(180)">
      <rect id="Rectangle-29" data-name="Rectangle" width="36.804" height="36.636" transform="translate(0 0.017)" fill="#1c1d1f"/>
      <path id="Combined-Shape-7" data-name="Combined-Shape" d="M36.662,0A36.662,36.662,0,0,1,0,36.662,36.662,36.662,0,0,1,36.662,0Z" transform="translate(0.059 0)" fill="#dfdfe0" fill-rule="evenodd"/>
    </g>
    <g id="Group-32" transform="translate(317.124 564.95) rotate(180)">
      <rect id="Rectangle-30" data-name="Rectangle" width="36.804" height="36.636" transform="translate(0 0)" fill="#5b5c5d"/>
      <path id="Path-15" data-name="Path" d="M18.331,18.331A18.331,18.331,0,0,0,0,0V18.331" transform="translate(36.721 36.67) rotate(180)" fill="#2b2c2e" fill-rule="evenodd"/>
      <path id="Path-16" data-name="Path" d="M18.331,0A18.331,18.331,0,0,1,0,18.331V0" transform="translate(0.059 18.339)" fill="#1c1d1f" fill-rule="evenodd"/>
    </g>
    <g id="Group-31" transform="translate(317.124 528.314) rotate(180)">
      <rect id="Rectangle-31" data-name="Rectangle" width="36.804" height="36.636" transform="translate(0 0)" fill="#dfdfe0"/>
      <path id="Path-17" data-name="Path" d="M18.331,0A18.331,18.331,0,0,1,0,18.331V0" transform="translate(36.721 18.365) rotate(180)" fill="#2b2c2e" fill-rule="evenodd"/>
      <path id="Path-18" data-name="Path" d="M18.331,18.331A18.331,18.331,0,0,0,0,0V18.331" transform="translate(0.059 0.034)" fill="#1c1d1f" fill-rule="evenodd"/>
    </g>
    <g id="Group-5-2" data-name="Group-5" transform="translate(390.733 637.456)">
      <rect id="Rectangle-32" data-name="Rectangle" width="36.804" height="36.636" transform="translate(0 0)" fill="#5b5c5d"/>
      <path id="Path-19" data-name="Path" d="M18.331,0A18.331,18.331,0,0,1,0,18.331V0" transform="translate(36.731 36.704) rotate(180)" fill="#dfdfe0" fill-rule="evenodd"/>
      <path id="Path-20" data-name="Path" d="M18.331,18.331A18.331,18.331,0,0,0,0,0V18.331" transform="translate(36.731 18.373) rotate(180)" fill="#dfdfe0" fill-rule="evenodd"/>
    </g>
    <g id="Group-4-3" data-name="Group-4" transform="translate(390.733 600.819)">
      <rect id="Rectangle-33" data-name="Rectangle" width="36.804" height="36.636" transform="translate(0 0)" fill="#dfdfe0"/>
      <rect id="Rectangle-34" data-name="Rectangle" width="18.402" height="18.235" transform="translate(18.402 18.402)" fill="#1c1d1f"/>
      <rect id="Rectangle-35" data-name="Rectangle" width="18.402" height="18.402" transform="translate(18.402 0)" fill="#2b2c2e"/>
      <rect id="Rectangle-36" data-name="Rectangle" width="18.402" height="18.235" transform="translate(0 18.402)" fill="#9e9e9f"/>
    </g>
    <g id="Group-3-3" data-name="Group-3" transform="translate(390.733 564.183)">
      <rect id="Rectangle-37" data-name="Rectangle" width="36.804" height="36.636" transform="translate(0 0)" fill="#0e0f10"/>
      <g id="Group-5-3" data-name="Group" transform="translate(5.186 5.186)">
        <g id="Oval-23" data-name="Oval" transform="translate(0 0)">
          <ellipse id="Ellipse_6129" data-name="Ellipse 6129" cx="2.844" cy="2.844" rx="2.844" ry="2.844" transform="translate(0)" fill="#9e9e9f"/>
          <ellipse id="Ellipse_6130" data-name="Ellipse 6130" cx="2.928" cy="2.844" rx="2.928" ry="2.844" transform="translate(20.577)" fill="#9e9e9f"/>
          <ellipse id="Ellipse_6131" data-name="Ellipse 6131" cx="2.844" cy="2.844" rx="2.844" ry="2.844" transform="translate(10.372)" fill="#9e9e9f"/>
          <ellipse id="Ellipse_6132" data-name="Ellipse 6132" cx="2.844" cy="2.928" rx="2.844" ry="2.928" transform="translate(0 10.205)" fill="#9e9e9f"/>
          <ellipse id="Ellipse_6133" data-name="Ellipse 6133" cx="2.928" cy="2.928" rx="2.928" ry="2.928" transform="translate(20.577 10.205)" fill="#9e9e9f"/>
          <ellipse id="Ellipse_6134" data-name="Ellipse 6134" cx="2.844" cy="2.928" rx="2.844" ry="2.928" transform="translate(10.372 10.205)" fill="#9e9e9f"/>
          <ellipse id="Ellipse_6135" data-name="Ellipse 6135" cx="2.844" cy="2.844" rx="2.844" ry="2.844" transform="translate(0 20.577)" fill="#9e9e9f"/>
          <ellipse id="Ellipse_6136" data-name="Ellipse 6136" cx="2.928" cy="2.844" rx="2.928" ry="2.844" transform="translate(20.577 20.577)" fill="#9e9e9f"/>
          <ellipse id="Ellipse_6137" data-name="Ellipse 6137" cx="2.844" cy="2.844" rx="2.844" ry="2.844" transform="translate(10.372 20.577)" fill="#9e9e9f"/>
        </g>
      </g>
    </g>
    <g id="Group-2-3" data-name="Group-2" transform="translate(390.733 527.512)">
      <rect id="Rectangle-38" data-name="Rectangle" width="36.804" height="36.636" transform="translate(0 0.034)" fill="#2b2c2e"/>
      <path id="Combined-Shape-8" data-name="Combined-Shape" d="M36.662,36.662A36.662,36.662,0,0,0,0,0,36.662,36.662,0,0,0,36.662,36.662Z" transform="translate(36.731 36.662) rotate(180)" fill="#5b5c5d" fill-rule="evenodd"/>
    </g>
    <g id="Group-1-2" data-name="Group-1" transform="translate(390.733 490.851)">
      <rect id="Rectangle-39" data-name="Rectangle" width="36.804" height="36.636" transform="translate(0 0.06)" fill="#1c1d1f"/>
      <path id="Combined-Shape-9" data-name="Combined-Shape" d="M36.662,0A36.662,36.662,0,0,1,0,36.662,36.662,36.662,0,0,1,36.662,0Z" transform="translate(36.731 36.662) rotate(180)" fill="#0e0f10" fill-rule="evenodd"/>
    </g>
    <g id="Group-35-2" data-name="Group-35" transform="translate(427.548 637.545)">
      <rect id="Rectangle-40" data-name="Rectangle" width="36.659" height="36.659" transform="translate(0 0)" fill="#dadada"/>
      <ellipse id="Oval-24" data-name="Oval" cx="13.81" cy="13.726" rx="13.81" ry="13.726" transform="translate(4.52 4.687)" fill="#404143"/>
      <ellipse id="Oval-25" data-name="Oval" cx="8.035" cy="8.035" rx="8.035" ry="8.035" transform="translate(10.211 10.378)" fill="#0c0c0d"/>
      <ellipse id="Oval--16" data-name="Oval-" cx="2.929" cy="2.846" rx="2.929" ry="2.846" transform="translate(15.4 15.567)" fill="#121214"/>
    </g>
    <g id="Group-34-2" data-name="Group-34" transform="translate(464.207 600.886) rotate(90)">
      <rect id="Rectangle-41" data-name="Rectangle" width="36.659" height="36.659" transform="translate(0 0)" fill="#121214"/>
      <g id="Group-6-2" data-name="Group" transform="translate(5.189 5.189)">
        <ellipse id="Oval-26" data-name="Oval" cx="2.846" cy="2.846" rx="2.846" ry="2.846" transform="translate(0 0)" fill="#dadada"/>
        <ellipse id="Oval--17" data-name="Oval-" cx="2.846" cy="2.846" rx="2.846" ry="2.846" transform="translate(20.589 0)" fill="#dadada"/>
        <ellipse id="Oval--18" data-name="Oval-" cx="2.929" cy="2.846" rx="2.929" ry="2.846" transform="translate(10.211 0)" fill="#dadada"/>
        <ellipse id="Oval-27" data-name="Oval" cx="2.846" cy="2.929" rx="2.846" ry="2.929" transform="translate(0 10.211)" fill="#dadada"/>
        <ellipse id="Oval--19" data-name="Oval-" cx="2.846" cy="2.929" rx="2.846" ry="2.929" transform="translate(20.589 10.211)" fill="#dadada"/>
        <ellipse id="Oval-28" data-name="Oval" cx="2.929" cy="2.929" rx="2.929" ry="2.929" transform="translate(10.211 10.211)" fill="#dadada"/>
        <ellipse id="Oval--20" data-name="Oval-" cx="2.846" cy="2.846" rx="2.846" ry="2.846" transform="translate(0 20.589)" fill="#dadada"/>
        <ellipse id="Oval--21" data-name="Oval-" cx="2.846" cy="2.846" rx="2.846" ry="2.846" transform="translate(20.589 20.589)" fill="#dadada"/>
        <ellipse id="Oval--22" data-name="Oval-" cx="2.929" cy="2.846" rx="2.929" ry="2.846" transform="translate(10.211 20.589)" fill="#dadada"/>
      </g>
    </g>
    <g id="Group-33-2" data-name="Group-33" transform="translate(464.221 600.903) rotate(180)">
      <rect id="Rectangle-42" data-name="Rectangle" width="36.659" height="36.659" transform="translate(0.014 0.017)" fill="#1e1f21"/>
      <path id="Combined-Shape-10" data-name="Combined-Shape" d="M36.684,0A36.684,36.684,0,0,1,0,36.684,36.684,36.684,0,0,1,36.684,0Z" transform="translate(0 0)" fill="#3b3c3e" fill-rule="evenodd"/>
    </g>
    <g id="Group-32-2" data-name="Group-32" transform="translate(464.221 564.228) rotate(180)">
      <rect id="Rectangle-43" data-name="Rectangle" width="36.659" height="36.659" transform="translate(0.014 0)" fill="#0c0c0d"/>
      <path id="Path-21" data-name="Path" d="M18.342,18.342A18.342,18.342,0,0,0,0,0V18.342" transform="translate(36.684 36.693) rotate(180)" fill="#121214" fill-rule="evenodd"/>
      <path id="Path-22" data-name="Path" d="M18.342,0A18.342,18.342,0,0,1,0,18.342V0" transform="translate(0 18.351)" fill="#1e1f21" fill-rule="evenodd"/>
    </g>
    <g id="Group-31-2" data-name="Group-31" transform="translate(464.221 527.569) rotate(180)">
      <rect id="Rectangle-44" data-name="Rectangle" width="36.659" height="36.659" transform="translate(0.014 0)" fill="#3b3c3e"/>
      <path id="Path-23" data-name="Path" d="M18.342,0A18.342,18.342,0,0,1,0,18.342V0" transform="translate(36.684 18.376) rotate(180)" fill="#121214" fill-rule="evenodd"/>
      <path id="Path-24" data-name="Path" d="M18.342,18.342A18.342,18.342,0,0,0,0,0V18.342" transform="translate(0 0.034)" fill="#1e1f21" fill-rule="evenodd"/>
    </g>
    <g id="Group-30" transform="translate(500.905 674.271) rotate(180)">
      <rect id="Rectangle-45" data-name="Rectangle" width="36.659" height="36.659" transform="translate(0.04 0.068)" fill="#3b3c3e"/>
      <path id="Combined-Shape-11" data-name="Combined-Shape" d="M36.684,0A36.684,36.684,0,0,1,0,36.684,36.684,36.684,0,0,1,36.684,0Z" transform="translate(36.684 36.684) rotate(180)" fill="#121214" fill-rule="evenodd"/>
    </g>
    <g id="Group-29" transform="translate(500.905 600.886) rotate(90)">
      <rect id="Rectangle-46" data-name="Rectangle" width="36.659" height="36.659" transform="translate(0 0.04)" fill="#404143"/>
      <path id="Combined-Shape-12" data-name="Combined-Shape" d="M36.684,0A36.684,36.684,0,0,1,0,36.684,36.684,36.684,0,0,1,36.684,0Z" transform="translate(36.701 36.684) rotate(180)" fill="#0c0c0d" fill-rule="evenodd"/>
    </g>
    <g id="Group-28" transform="translate(464.207 564.228)">
      <rect id="Rectangle-47" data-name="Rectangle" width="36.659" height="36.659" transform="translate(0 0)" fill="#121214"/>
      <rect id="Rectangle-48" data-name="Rectangle" width="18.413" height="18.246" transform="translate(0 18.413)" fill="#dadada"/>
      <rect id="Rectangle-49" data-name="Rectangle" width="18.246" height="18.246" transform="translate(18.413 18.413)" fill="#3b3c3e"/>
      <rect id="Rectangle-50" data-name="Rectangle" width="18.413" height="18.413" transform="translate(0 0)" fill="#404143"/>
    </g>
    <g id="Group-27" transform="translate(500.866 564.228) rotate(180)">
      <rect id="Rectangle-51" data-name="Rectangle" width="36.659" height="36.659" transform="translate(0 0)" fill="#dadada"/>
      <g id="Group-7-2" data-name="Group" transform="translate(5.189 5.189)">
        <ellipse id="Oval-29" data-name="Oval" cx="2.846" cy="2.846" rx="2.846" ry="2.846" transform="translate(0 0)" fill="#3b3c3e"/>
        <ellipse id="Oval--23" data-name="Oval-" cx="2.846" cy="2.846" rx="2.846" ry="2.846" transform="translate(20.589 0)" fill="#3b3c3e"/>
        <ellipse id="Oval--24" data-name="Oval-" cx="2.846" cy="2.846" rx="2.846" ry="2.846" transform="translate(10.211 0)" fill="#3b3c3e"/>
        <ellipse id="Oval-30" data-name="Oval" cx="2.846" cy="2.846" rx="2.846" ry="2.846" transform="translate(0 10.378)" fill="#3b3c3e"/>
        <ellipse id="Oval--25" data-name="Oval-" cx="2.846" cy="2.846" rx="2.846" ry="2.846" transform="translate(20.589 10.378)" fill="#3b3c3e"/>
        <ellipse id="Oval-31" data-name="Oval" cx="2.846" cy="2.846" rx="2.846" ry="2.846" transform="translate(10.211 10.378)" fill="#3b3c3e"/>
        <ellipse id="Oval--26" data-name="Oval-" cx="2.846" cy="2.846" rx="2.846" ry="2.846" transform="translate(0 20.589)" fill="#3b3c3e"/>
        <ellipse id="Oval--27" data-name="Oval-" cx="2.846" cy="2.846" rx="2.846" ry="2.846" transform="translate(20.589 20.589)" fill="#3b3c3e"/>
        <ellipse id="Oval--28" data-name="Oval-" cx="2.846" cy="2.846" rx="2.846" ry="2.846" transform="translate(10.211 20.589)" fill="#3b3c3e"/>
      </g>
    </g>
    <g id="Group-26" transform="translate(464.207 490.91)">
      <rect id="Rectangle-52" data-name="Rectangle" width="36.659" height="36.659" transform="translate(0)" fill="#121214"/>
      <ellipse id="Oval-32" data-name="Oval" cx="13.81" cy="13.726" rx="13.81" ry="13.726" transform="translate(4.52 4.52)" fill="#dadada"/>
      <ellipse id="Oval-33" data-name="Oval" cx="8.035" cy="8.035" rx="8.035" ry="8.035" transform="translate(10.378 10.211)" fill="#0c0c0d"/>
      <ellipse id="Oval--29" data-name="Oval-" cx="2.846" cy="2.846" rx="2.846" ry="2.846" transform="translate(15.567 15.4)" fill="#404143"/>
    </g>
    <g id="Group-25" transform="translate(537.59 637.545) rotate(90)">
      <rect id="Rectangle-53" data-name="Rectangle" width="36.659" height="36.659" transform="translate(0 0.065)" fill="#1e1f21"/>
      <path id="Combined-Shape-13" data-name="Combined-Shape" d="M36.684,0A36.684,36.684,0,0,1,0,36.684,36.684,36.684,0,0,1,36.684,0Z" transform="translate(0.043 0)" fill="#dadada" fill-rule="evenodd"/>
    </g>
    <g id="Group-24" transform="translate(500.866 600.886)">
      <rect id="Rectangle-54" data-name="Rectangle" width="36.659" height="36.659" transform="translate(0 0)" fill="#0c0c0d"/>
      <path id="Path-25" data-name="Path" d="M36.684,36.684A36.684,36.684,0,0,1,0,0H36.684" transform="translate(36.724 36.701) rotate(180)" fill="#404143" fill-rule="evenodd"/>
      <path id="Path-26" data-name="Path" d="M18.342,18.342A18.342,18.342,0,0,0,0,0V18.342" transform="translate(0.04 18.359)" fill="#0c0c0d" fill-rule="evenodd"/>
    </g>
    <g id="Group-23" transform="translate(537.59 600.903) rotate(180)">
      <rect id="Rectangle-55" data-name="Rectangle" width="36.659" height="36.659" transform="translate(0.065 0.017)" fill="#121214"/>
      <path id="Path-27" data-name="Path" d="M36.684,0A36.684,36.684,0,0,0,0,36.684H36.684" transform="translate(0 0)" fill="#3b3c3e" fill-rule="evenodd"/>
      <path id="Path-28" data-name="Path" d="M18.342,0A18.342,18.342,0,0,1,0,18.342V0" transform="translate(36.684 36.684) rotate(180)" fill="#0c0c0d" fill-rule="evenodd"/>
    </g>
    <g id="Group-22" transform="translate(537.59 564.228) rotate(180)">
      <rect id="Rectangle-56" data-name="Rectangle" width="36.659" height="36.659" transform="translate(0.065 0)" fill="#1e1f21"/>
      <path id="Combined-Shape-14" data-name="Combined-Shape" d="M36.684,0A36.684,36.684,0,0,1,0,36.684,36.684,36.684,0,0,1,36.684,0Z" transform="translate(0 0.009)" fill="#3b3c3e" fill-rule="evenodd"/>
    </g>
    <g id="Group-21" transform="translate(500.866 490.851)">
      <rect id="Rectangle-57" data-name="Rectangle" width="36.659" height="36.659" transform="translate(0 0.06)" fill="#404143"/>
      <path id="Combined-Shape-15" data-name="Combined-Shape" d="M36.684,36.684A36.684,36.684,0,0,0,0,0,36.684,36.684,0,0,0,36.684,36.684Z" transform="translate(0.04)" fill="#1e1f21" fill-rule="evenodd"/>
    </g>
    <g id="Group-10-2" data-name="Group-10" transform="translate(353.966 674.86) rotate(180)">
      <rect id="Rectangle-58" data-name="Rectangle" width="36.842" height="36.842" transform="translate(0 0)" fill="#9e9e9f"/>
      <path id="Combined-Shape-16" data-name="Combined-Shape" d="M36.8,0A36.8,36.8,0,0,1,0,36.8,36.8,36.8,0,0,1,36.8,0Z" transform="translate(0.032 0.016)" fill="#d8d8d9" fill-rule="evenodd"/>
    </g>
    <g id="Group-9-2" data-name="Group-9" transform="translate(317.125 601.246)">
      <rect id="Rectangle-59" data-name="Rectangle" width="36.842" height="36.742" transform="translate(0 0.03)" fill="#464748"/>
      <path id="Path-29" data-name="Path" d="M36.8,0A36.8,36.8,0,0,0,0,36.8H36.8" transform="translate(36.81 36.799) rotate(180)" fill="#060707" fill-rule="evenodd"/>
      <path id="Path-30" data-name="Path" d="M18.4-800A18.4,18.4,0,0,1,0-781.6V-800" transform="translate(0.011 800)" fill="#9e9e9f" fill-rule="evenodd"/>
    </g>
    <g id="Group-8-2" data-name="Group-8" transform="translate(317.125 564.434)">
      <rect id="Rectangle-60" data-name="Rectangle" width="36.842" height="36.842" transform="translate(0 0)" fill="#262729"/>
      <ellipse id="Oval-34" data-name="Oval" cx="13.816" cy="13.816" rx="13.816" ry="13.816" transform="translate(4.605 4.605)" fill="#d8d8d9"/>
      <ellipse id="Oval-35" data-name="Oval" cx="8.059" cy="8.009" rx="8.059" ry="8.009" transform="translate(10.312 10.412)" fill="#464748"/>
      <ellipse id="Oval--30" data-name="Oval-" cx="2.903" cy="2.903" rx="2.903" ry="2.903" transform="translate(15.518 15.518)" fill="#9e9e9f"/>
    </g>
    <g id="Group-7-3" data-name="Group-7" transform="translate(317.125 527.649)">
      <rect id="Rectangle-61" data-name="Rectangle" width="36.842" height="36.742" transform="translate(36.842 36.785) rotate(180)" fill="#d8d8d9"/>
      <path id="Combined-Shape-17" data-name="Combined-Shape" d="M36.8-1600A36.8,36.8,0,0,1,0-1563.2,36.8,36.8,0,0,1,36.8-1600Z" transform="translate(0.011 1600)" fill="#464748" fill-rule="evenodd"/>
    </g>
    <g id="Group-6-3" data-name="Group-6" transform="translate(317.125 490.851)">
      <rect id="Rectangle-62" data-name="Rectangle" width="36.842" height="36.842" transform="translate(36.842 36.842) rotate(180)" fill="#060707"/>
      <path id="Combined-Shape-18" data-name="Combined-Shape" d="M36.8,36.8A36.8,36.8,0,0,0,0,0,36.8,36.8,0,0,0,36.8,36.8Z" transform="translate(36.81 36.799) rotate(180)" fill="#d8d8d9" fill-rule="evenodd"/>
    </g>
    <g id="Group-5-4" data-name="Group-5" transform="translate(353.966 638.018)">
      <rect id="Rectangle-63" data-name="Rectangle" width="36.742" height="36.842" transform="translate(0 0)" fill="#464748"/>
      <path id="Path-31" data-name="Path" d="M18.4,0A18.4,18.4,0,0,1,0,18.4V0" transform="translate(36.767 36.826) rotate(180)" fill="#060707" fill-rule="evenodd"/>
      <path id="Path-32" data-name="Path" d="M18.4,18.4A18.4,18.4,0,0,0,0,0V18.4" transform="translate(36.767 18.427) rotate(180)" fill="#060707" fill-rule="evenodd"/>
    </g>
    <g id="Group-4-4" data-name="Group-4" transform="translate(353.966 601.276)">
      <rect id="Rectangle-64" data-name="Rectangle" width="36.742" height="36.742" transform="translate(0 0)" fill="#d8d8d9"/>
      <rect id="Rectangle-65" data-name="Rectangle" width="18.421" height="18.421" transform="translate(18.321 18.321)" fill="#464748"/>
      <rect id="Rectangle-66" data-name="Rectangle" width="18.421" height="18.321" transform="translate(18.321 0)" fill="#9e9e9f"/>
      <rect id="Rectangle-67" data-name="Rectangle" width="18.321" height="18.421" transform="translate(0 18.321)" fill="#060707"/>
    </g>
    <g id="Group-3-4" data-name="Group-3" transform="translate(353.966 564.434)">
      <rect id="Rectangle-68" data-name="Rectangle" width="36.742" height="36.842" transform="translate(0 0)" fill="#060707"/>
      <g id="Group-8-3" data-name="Group" transform="translate(5.106 5.206)">
        <g id="Oval-36" data-name="Oval" transform="translate(0 0)">
          <ellipse id="Ellipse_6156" data-name="Ellipse 6156" cx="2.903" cy="2.853" rx="2.903" ry="2.853" fill="#262729"/>
          <ellipse id="Ellipse_6157" data-name="Ellipse 6157" cx="2.903" cy="2.853" rx="2.903" ry="2.853" transform="translate(20.724)" fill="#262729"/>
          <circle id="Ellipse_6158" data-name="Ellipse 6158" cx="2.853" cy="2.853" r="2.853" transform="translate(10.412)" fill="#262729"/>
          <ellipse id="Ellipse_6159" data-name="Ellipse 6159" cx="2.903" cy="2.903" rx="2.903" ry="2.903" transform="translate(0 10.312)" fill="#262729"/>
          <ellipse id="Ellipse_6160" data-name="Ellipse 6160" cx="2.903" cy="2.903" rx="2.903" ry="2.903" transform="translate(20.724 10.312)" fill="#262729"/>
          <ellipse id="Ellipse_6161" data-name="Ellipse 6161" cx="2.853" cy="2.903" rx="2.853" ry="2.903" transform="translate(10.412 10.312)" fill="#262729"/>
          <ellipse id="Ellipse_6162" data-name="Ellipse 6162" cx="2.903" cy="2.853" rx="2.903" ry="2.853" transform="translate(0 20.724)" fill="#262729"/>
          <ellipse id="Ellipse_6163" data-name="Ellipse 6163" cx="2.903" cy="2.853" rx="2.903" ry="2.853" transform="translate(20.724 20.724)" fill="#262729"/>
          <circle id="Ellipse_6164" data-name="Ellipse 6164" cx="2.853" cy="2.853" r="2.853" transform="translate(10.412 20.724)" fill="#262729"/>
        </g>
      </g>
    </g>
    <g id="Group-2-4" data-name="Group-2" transform="translate(353.934 527.649)">
      <rect id="Rectangle-69" data-name="Rectangle" width="36.742" height="36.742" transform="translate(0.032 0.043)" fill="#9e9e9f"/>
      <path id="Combined-Shape-19" data-name="Combined-Shape" d="M36.8,36.8A36.8,36.8,0,0,0,0,0,36.8,36.8,0,0,0,36.8,36.8Z" transform="translate(36.799 36.799) rotate(180)" fill="#d8d8d9" fill-rule="evenodd"/>
    </g>
    <g id="Group-1-3" data-name="Group-1" transform="translate(353.934 490.851)">
      <rect id="Rectangle-70" data-name="Rectangle" width="36.742" height="36.842" transform="translate(0.032 0)" fill="#464748"/>
      <path id="Combined-Shape-20" data-name="Combined-Shape" d="M36.8,0A36.8,36.8,0,0,1,0,36.8,36.8,36.8,0,0,1,36.8,0Z" transform="translate(36.799 36.799) rotate(180)" fill="#262729" fill-rule="evenodd"/>
    </g>
    <g id="Group-20-2" data-name="Group-20" transform="translate(170.328 674.964) rotate(180)">
      <rect id="Rectangle-71" data-name="Rectangle" width="36.657" height="36.657" transform="translate(0 0)" fill="#f3664a"/>
      <g id="Group-9-3" data-name="Group" transform="translate(5.189 5.022)">
        <ellipse id="Oval-37" data-name="Oval" cx="2.846" cy="2.929" rx="2.846" ry="2.929" transform="translate(0 0)" fill="#c03727"/>
        <ellipse id="Oval-38" data-name="Oval" cx="2.929" cy="2.929" rx="2.929" ry="2.929" transform="translate(20.588 0)" fill="#c03727"/>
        <ellipse id="Oval-39" data-name="Oval" cx="2.846" cy="2.929" rx="2.846" ry="2.929" transform="translate(10.378 0)" fill="#c03727"/>
        <ellipse id="Oval-40" data-name="Oval" cx="2.846" cy="2.846" rx="2.846" ry="2.846" transform="translate(0 10.378)" fill="#c03727"/>
        <ellipse id="Oval-41" data-name="Oval" cx="2.929" cy="2.846" rx="2.929" ry="2.846" transform="translate(20.588 10.378)" fill="#c03727"/>
        <ellipse id="Oval-42" data-name="Oval" cx="2.846" cy="2.846" rx="2.846" ry="2.846" transform="translate(10.378 10.378)" fill="#c03727"/>
        <ellipse id="Oval-43" data-name="Oval" cx="2.846" cy="2.846" rx="2.846" ry="2.846" transform="translate(0 20.756)" fill="#c03727"/>
        <ellipse id="Oval-44" data-name="Oval" cx="2.929" cy="2.846" rx="2.929" ry="2.846" transform="translate(20.588 20.756)" fill="#c03727"/>
        <ellipse id="Oval-45" data-name="Oval" cx="2.846" cy="2.846" rx="2.846" ry="2.846" transform="translate(10.378 20.756)" fill="#c03727"/>
      </g>
    </g>
    <g id="Group-10-3" data-name="Group-10" transform="translate(243.642 675.032) rotate(180)">
      <rect id="Rectangle-72" data-name="Rectangle" width="36.657" height="36.657" transform="translate(0 0.068)" fill="#e0b434"/>
      <path id="Combined-Shape-21" data-name="Combined-Shape" d="M36.683,0A36.683,36.683,0,0,1,0,36.683,36.683,36.683,0,0,1,36.683,0Z" transform="translate(0.004)" fill="#dad6c7" fill-rule="evenodd"/>
    </g>
    <g id="Group-5-5" data-name="Group-5" transform="translate(243.642 638.307)">
      <rect id="Rectangle-73" data-name="Rectangle" width="36.657" height="36.657" transform="translate(0 0)" fill="#c03727"/>
      <path id="Path-33" data-name="Path" d="M18.341,0A18.341,18.341,0,0,1,0,18.341V0" transform="translate(36.678 36.725) rotate(180)" fill="#dad6c7" fill-rule="evenodd"/>
      <path id="Path-34" data-name="Path" d="M18.341,18.341A18.341,18.341,0,0,0,0,0V18.341" transform="translate(36.678 18.384) rotate(180)" fill="#dad6c7" fill-rule="evenodd"/>
    </g>
    <g id="Group-5-6" data-name="Group-5" transform="translate(390.733 637.456)">
      <rect id="Rectangle-74" data-name="Rectangle" width="36.804" height="36.636" transform="translate(0 0)" fill="#ee8821"/>
      <path id="Path-35" data-name="Path" d="M18.331,0A18.331,18.331,0,0,1,0,18.331V0" transform="translate(36.731 36.704) rotate(180)" fill="#f6f0b1" fill-rule="evenodd"/>
      <path id="Path-36" data-name="Path" d="M18.331,18.331A18.331,18.331,0,0,0,0,0V18.331" transform="translate(36.731 18.373) rotate(180)" fill="#f6f0b1" fill-rule="evenodd"/>
    </g>
    <g id="Group-30-2" data-name="Group-30" transform="translate(500.905 674.271) rotate(180)">
      <rect id="Rectangle-75" data-name="Rectangle" width="36.659" height="36.659" transform="translate(0.04 0.068)" fill="#f85765"/>
      <path id="Combined-Shape-22" data-name="Combined-Shape" d="M36.684,0A36.684,36.684,0,0,1,0,36.684,36.684,36.684,0,0,1,36.684,0Z" transform="translate(36.684 36.684) rotate(180)" fill="#693192" fill-rule="evenodd"/>
    </g>
    <g id="Group-25-2" data-name="Group-25" transform="translate(537.59 637.545) rotate(90)">
      <rect id="Rectangle-76" data-name="Rectangle" width="36.659" height="36.659" transform="translate(0 0.065)" fill="#ee248c"/>
      <path id="Combined-Shape-23" data-name="Combined-Shape" d="M36.684,0A36.684,36.684,0,0,1,0,36.684,36.684,36.684,0,0,1,36.684,0Z" transform="translate(0.043 0)" fill="#f4eacb" fill-rule="evenodd"/>
    </g>
    <g id="Group-10-4" data-name="Group-10" transform="translate(353.966 674.86) rotate(180)">
      <rect id="Rectangle-77" data-name="Rectangle" width="36.842" height="36.842" transform="translate(0 0)" fill="#f6c05c"/>
      <path id="Combined-Shape-24" data-name="Combined-Shape" d="M36.8,0A36.8,36.8,0,0,1,0,36.8,36.8,36.8,0,0,1,36.8,0Z" transform="translate(0.032 0.016)" fill="#f4e7d7" fill-rule="evenodd"/>
    </g>
    <g id="Group-4-5" data-name="Group-4" transform="translate(243.642 601.65)">
      <rect id="Rectangle-78" data-name="Rectangle" width="36.657" height="36.657" transform="translate(0 0)" fill="#dad6c7"/>
      <rect id="Rectangle-79" data-name="Rectangle" width="18.245" height="18.245" transform="translate(18.412 18.412)" fill="#533f39"/>
      <rect id="Rectangle-80" data-name="Rectangle" width="18.245" height="18.412" transform="translate(18.412 0)" fill="#e0b434"/>
      <rect id="Rectangle-81" data-name="Rectangle" width="18.412" height="18.245" transform="translate(0 18.412)" fill="#1f6786"/>
    </g>
    <g id="Group-9-4" data-name="Group-9" transform="translate(317.125 601.246)">
      <rect id="Rectangle-82" data-name="Rectangle" width="36.842" height="36.742" transform="translate(0 0.03)" fill="#779ab8"/>
      <path id="Path-37" data-name="Path" d="M36.8,0A36.8,36.8,0,0,0,0,36.8H36.8" transform="translate(36.81 36.799) rotate(180)" fill="#131d1c" fill-rule="evenodd"/>
      <path id="Path-38" data-name="Path" d="M18.4-800A18.4,18.4,0,0,1,0-781.6V-800" transform="translate(0.011 800)" fill="#f6c05c" fill-rule="evenodd"/>
    </g>
    <g id="Group-4-6" data-name="Group-4" transform="translate(353.966 601.276)">
      <rect id="Rectangle-83" data-name="Rectangle" width="36.742" height="36.742" transform="translate(0 0)" fill="#f4e7d7"/>
      <rect id="Rectangle-84" data-name="Rectangle" width="18.421" height="18.421" transform="translate(18.321 18.321)" fill="#779ab8"/>
      <rect id="Rectangle-85" data-name="Rectangle" width="18.421" height="18.321" transform="translate(18.321 0)" fill="#f6c05c"/>
      <rect id="Rectangle-86" data-name="Rectangle" width="18.321" height="18.421" transform="translate(0 18.321)" fill="#131d1c"/>
    </g>
  </g>
</svg>
