<svg xmlns="http://www.w3.org/2000/svg" xmlns:xlink="http://www.w3.org/1999/xlink" width="571" height="312" viewBox="0 0 571 312">
  <defs>
    <clipPath id="clip-path">
      <rect id="Image_15" data-name="Image 15" width="571" height="312" rx="16" transform="translate(635 187)" fill="#1e1f21" opacity="0.605"/>
    </clipPath>
  </defs>
  <g id="mdx-port" transform="translate(-635 -187)" clip-path="url(#clip-path)">
    <g id="Group_12783" data-name="Group 12783" transform="translate(635 187)">
      <rect id="Rectangle_3968" data-name="Rectangle 3968" width="571" height="321" transform="translate(0)" fill="#0c6ffb"/>
      <g id="bg-hero" transform="translate(0)">
        <rect id="Rectangle_3998" data-name="Rectangle 3998" width="571" height="321" transform="translate(0)" fill="none"/>
        <g id="Group_12618" data-name="Group 12618" transform="translate(331.609 81.649)" opacity="0.05">
          <path id="Path_997" data-name="Path 997" d="M1416.433,3036.418H1372.62l-43.118,43.127,43.813,43.813,43.119-43.127v-43.812m7.568-7.568v54.515l-50.692,50.692-54.518-54.515,50.692-50.692Z" transform="translate(-1184.61 -3027.586)" fill="#fff"/>
          <path id="Path_998" data-name="Path 998" d="M925.785,3032.23H881.668v44.1l62.671,62.656,5.353,5.353-5.353,5.341-62.671,62.671v44.115h44.117l62.671-62.671,5.353-5.353,5.353,5.353,62.656,62.671h44.1v-44.1L925.782,3032.227m3.135-7.568,184.568,184.568v54.814h-54.8l-64.874-64.889-64.874,64.889H874.1v-54.811l64.889-64.874L874.1,3079.483v-54.82Z" transform="translate(-874.1 -3024.66)" fill="#fff"/>
        </g>
      </g>
      <rect id="Rectangle_2863" data-name="Rectangle 2863" width="571" height="46" transform="translate(0)" fill="none"/>
      <path id="Path_923" data-name="Path 923" d="M16.25.192V14.825H11.331V7.6L8.125,10.72,4.918,7.6v7.224H0V.192H4.918L8.125,3.955,11.331.192Z" transform="translate(25.081 15.273)" fill="#fff"/>
      <path id="Path_924" data-name="Path 924" d="M291.93,11.233v3.449h-3.589l-4.023-3.914-3.936,3.914h-3.546V11.233l4.027-3.827-4.024-3.959,0-3.447h3.546Z" transform="translate(-216.688 15.441)" fill="#fff"/>
      <path id="Path_925" data-name="Path 925" d="M349.942,0v3.49l-3.2,2.963-3.437-3.344L346.394,0Z" transform="translate(-274.741 15.441)" fill="#fff"/>
      <path id="Path_926" data-name="Path 926" d="M159.64,4.258V0H145.078V14.681H159.64V10.324l3.219-3.083Zm-7.7,7.4h-3.284v-8.7h3.284c2.767.01,5.035,1.978,5.029,4.359s-2.269,4.332-5.029,4.342" transform="translate(-101.62 15.441)" fill="#fff"/>
      <rect id="Rectangle_3896" data-name="Rectangle 3896" width="50.161" height="14.682" transform="translate(25.081 15.441)" fill="none"/>
      <line id="Line_720" data-name="Line 720" x2="20.073" transform="translate(525.855 16.929)" fill="none" stroke="#fff" stroke-linecap="round" stroke-width="3"/>
      <line id="Line_721" data-name="Line 721" x2="2.388" transform="translate(526.859 21.902)" fill="none" stroke="#fff" stroke-linecap="round" stroke-width="3"/>
      <line id="Line_723" data-name="Line 723" x1="0.048" transform="translate(545.928 21.902)" fill="none" stroke="#fff" stroke-linecap="round" stroke-width="3"/>
      <line id="Line_722" data-name="Line 722" x2="15.39" transform="translate(530.539 26.544)" fill="none" stroke="#fff" stroke-linecap="round" stroke-width="3"/>
      <path id="Path_951" data-name="Path 951" d="M-41.31-8.525v1.867h.554V-9.8h-.41l-1.262,2.226L-43.69-9.8h-.41v3.142h.554V-8.525l1.118,1.912Zm1.537,1.867h2.127V-7.17h-1.541V-8h1.483v-.507h-1.483v-.781h1.523V-9.8h-2.109Zm2.956,0h.572V-8.884l1.816,2.226h.491V-9.8h-.572v2.231L-36.326-9.8h-.491Zm5.985-1.225a.721.721,0,0,1-.775.776.721.721,0,0,1-.775-.776V-9.8h-.586v1.9a1.269,1.269,0,0,0,1.361,1.3,1.269,1.269,0,0,0,1.361-1.3V-9.8h-.586Z" transform="translate(574.872 29.934)" fill="#fff"/>
      <path id="Path_15269" data-name="Path 15269" d="M3.121,49.125H8.676V33.97h.772l4.929,10.337h5.3L24.6,33.97h.772V49.125H30.93V23.744H22.8l-5.518,11h-.772l-5.518-11H3.121ZM45.24,23.744H35.124V49.125H45.24c7.467,0,13.059-5.444,13.059-12.691S52.707,23.744,45.24,23.744ZM45.092,42.5H40.678V30.365h4.414c4.267,0,7.467,2.612,7.467,6.069S49.359,42.5,45.092,42.5Zm37.373-18.76H75.477l-5.3,8.2h-.7l-5.334-8.2H57.673l8.019,12.47-8.35,12.911h6.952L69.7,40.848h.772l5.481,8.277h6.437L74.226,36.508Zm27,11.992a6.072,6.072,0,0,0,3.163-5.407,6.621,6.621,0,0,0-6.952-6.584H92.067V49.125h14.089c4.193,0,7.394-2.832,7.394-6.916A7.159,7.159,0,0,0,109.466,35.735Zm-5.187-5.371c1.692,0,2.648.478,2.648,1.471s-.993,1.471-2.648,1.471H97.621V30.365Zm.515,12.139H97.621V38.972h7.173c1.913,0,3.016.589,3.016,1.766S106.707,42.5,104.794,42.5Zm16.259-7.688V30.365H115.9v18.76h5.15V41.842q0-3.862,6.511-3.862V30.071C124.842,30.071,122.561,31.873,121.053,34.816Zm23.064-4.451v3.2a7.028,7.028,0,0,0-6.18-3.642c-5.076,0-8.865,4.23-8.865,9.822s3.789,9.822,8.865,9.822a7.028,7.028,0,0,0,6.18-3.642v3.2h5.15V30.365Zm-4.856,12.8c-2.8,0-4.856-1.471-4.856-3.421s2.06-3.421,4.856-3.421,4.856,1.471,4.856,3.421S142.057,43.166,139.261,43.166Zm25.382-13.243a7.226,7.226,0,0,0-6.548,4.12V30.365h-5.15v18.76h5.15V39.12c0-1.692,1.729-2.8,4.3-2.8,2.428,0,4.01,1.067,4.01,2.722V49.125h5.15V36.8A6.5,6.5,0,0,0,164.643,29.923Zm24.315-7.283V33.565a7.028,7.028,0,0,0-6.18-3.642c-5.076,0-8.865,4.23-8.865,9.822s3.789,9.822,8.865,9.822a7.028,7.028,0,0,0,6.18-3.642v3.2h5.15V22.64ZM184.1,43.166c-2.8,0-4.856-1.471-4.856-3.421s2.06-3.421,4.856-3.421,4.856,1.471,4.856,3.421S186.9,43.166,184.1,43.166Zm27.037-.662V23.744h-5.554V49.125h16.995V42.5Zm27.993-12.139v3.2a7.028,7.028,0,0,0-6.18-3.642c-5.076,0-8.865,4.23-8.865,9.822s3.789,9.822,8.865,9.822a7.028,7.028,0,0,0,6.18-3.642v3.2h5.15V30.365Zm-4.856,12.8c-2.8,0-4.856-1.471-4.856-3.421s2.06-3.421,4.856-3.421,4.856,1.471,4.856,3.421S237.072,43.166,234.276,43.166Zm26.117-12.8V40.628c0,1.508-1.619,2.538-3.973,2.538-2.207,0-3.678-.993-3.678-2.465V30.365h-5.15v12.36c0,4.12,2.648,6.842,6.584,6.842,2.649,0,4.782-1.4,6.217-4.12v3.678h5.15V30.365Zm20.526-.441a7.226,7.226,0,0,0-6.548,4.12V30.365h-5.15v18.76h5.15V39.12c0-1.692,1.729-2.8,4.3-2.8,2.428,0,4.01,1.067,4.01,2.722V49.125h5.15V36.8A6.5,6.5,0,0,0,280.92,29.923Zm19.349,19.643a9.831,9.831,0,0,0,10.079-8.35h-5.591a5.256,5.256,0,0,1-4.488,1.95c-2.8,0-4.856-1.471-4.856-3.421s2.06-3.421,4.856-3.421a5.256,5.256,0,0,1,4.488,1.95h5.591a9.831,9.831,0,0,0-10.079-8.35c-5.812,0-10.189,4.23-10.189,9.822S294.456,49.566,300.268,49.566Zm24.278-19.643c-2.8,0-5.039,1.471-6.548,4.3V22.64h-5.15V49.125H318V39.12c0-1.692,1.729-2.8,4.3-2.8,2.428,0,4.01,1.067,4.01,2.722V49.125h5.15V36.8A6.5,6.5,0,0,0,324.546,29.923ZM12.575,65.237H15.26V58.983H12.023c-4.414,0-6.658,2.1-6.658,6.29V67.15H1.76V73.4h3.6V85.91h5.15V73.4H15.26V67.15H10.515v-.221C10.515,65.752,11.14,65.237,12.575,65.237ZM26.553,86.351c5.812,0,10.189-4.23,10.189-9.822s-4.377-9.822-10.189-9.822-10.189,4.23-10.189,9.822S20.741,86.351,26.553,86.351Zm0-6.4c-2.8,0-4.856-1.471-4.856-3.421s2.06-3.421,4.856-3.421,4.856,1.471,4.856,3.421S29.349,79.951,26.553,79.951ZM44.5,71.6V67.15h-5.15V85.91H44.5V78.626q0-3.862,6.511-3.862V66.855C48.293,66.855,46.012,68.658,44.5,71.6ZM69.959,86.351A9.831,9.831,0,0,0,80.038,78H74.447a5.256,5.256,0,0,1-4.488,1.95c-2.8,0-4.856-1.471-4.856-3.421s2.06-3.421,4.856-3.421a5.256,5.256,0,0,1,4.488,1.95h5.591a9.831,9.831,0,0,0-10.079-8.35c-5.812,0-10.189,4.23-10.189,9.822S64.147,86.351,69.959,86.351ZM87.689,71.6V67.15h-5.15V85.91h5.15V78.626q0-3.862,6.511-3.862V66.855C91.478,66.855,89.2,68.658,87.689,71.6Zm28.287,5.076a9.8,9.8,0,0,0-10.189-9.969c-5.812,0-10.189,4.23-10.189,9.822s4.377,9.822,10.189,9.822a10.117,10.117,0,0,0,9.932-6.695h-5.481a7.28,7.28,0,0,1-4.267,1.1c-2.5,0-4.3-.956-5.04-2.538h14.9A7.1,7.1,0,0,0,115.977,76.677ZM105.787,72.3c2.281,0,4.193.92,4.929,2.5h-9.785C101.7,73.256,103.507,72.3,105.787,72.3Zm26.853-5.15v3.2a7.028,7.028,0,0,0-6.18-3.642c-5.076,0-8.865,4.23-8.865,9.822s3.789,9.822,8.865,9.822a7.028,7.028,0,0,0,6.18-3.642v3.2h5.15V67.15Zm-4.856,12.8c-2.8,0-4.856-1.471-4.856-3.421s2.06-3.421,4.856-3.421,4.856,1.471,4.856,3.421S130.58,79.951,127.785,79.951ZM153.939,73.4V67.15h-5.113V61.632l-5.15,1.471V67.15h-3.421V73.4h3.421V79.62c0,4.193,2.244,6.29,6.658,6.29h3.237V79.583h-2.612c-1.471,0-2.134-.478-2.134-1.545V73.4Zm5.407-8.019c2.281,0,4.01-1.508,4.01-3.495s-1.729-3.495-4.01-3.495-4.01,1.508-4.01,3.495S157.065,65.384,159.346,65.384ZM156.771,85.91h5.15V67.15h-5.15Zm13.463,0h6.916l6.658-18.76h-5.959l-4.157,11.587h-.552L168.984,67.15h-5.407Zm33.621-9.233a9.8,9.8,0,0,0-10.189-9.969c-5.812,0-10.189,4.23-10.189,9.822s4.377,9.822,10.189,9.822a10.117,10.117,0,0,0,9.932-6.695h-5.481a7.28,7.28,0,0,1-4.267,1.1c-2.5,0-4.3-.956-5.04-2.538h14.9A7.1,7.1,0,0,0,203.855,76.677ZM193.666,72.3c2.281,0,4.193.92,4.929,2.5h-9.785C189.583,73.256,191.385,72.3,193.666,72.3Zm20.452,14.052c4.745,0,8.792-2.244,8.792-6.437,0-3.936-3.936-5.113-7.063-5.444-3.237-.331-5.223-.662-5.223-1.361,0-.662,1.361-1.067,3.384-1.067,1.95,0,3.531.625,3.531,1.435h5.076c0-3.715-3.678-6.768-8.571-6.768-4.451,0-8.46,2.06-8.46,6.18,0,3.789,3.678,5.26,7.173,5.628,2.906.294,5.113.552,5.113,1.324,0,.7-1.471,1.177-3.678,1.177s-3.862-.736-3.862-1.729h-5.04C205.29,83.151,209.042,86.351,214.118,86.351Z" transform="translate(49.137 92.58)" fill="#fff"/>
      <g id="creativity" transform="translate(448.384 167.845)">
        <path id="Path_963" data-name="Path 963" d="M600.6,78.393,589.818,63.105l-18.431-3.184L581.737,0l62.105,10.727-10.35,59.921-18.018-3.112Z" transform="translate(-571.387 0)" fill="#52489f"/>
        <path id="Path_969" data-name="Path 969" d="M4.62-10.064a3.623,3.623,0,0,1-2.669-1.073A3.653,3.653,0,0,1,.888-13.816a3.619,3.619,0,0,1,1.063-2.669A3.584,3.584,0,0,1,4.62-17.568a3.321,3.321,0,0,1,2.638,1.174l-.662.642a2.452,2.452,0,0,0-1.976-.933,2.71,2.71,0,0,0-2,.8,2.8,2.8,0,0,0-.793,2.067,2.8,2.8,0,0,0,.793,2.067,2.71,2.71,0,0,0,2,.8A2.811,2.811,0,0,0,6.8-12l.672.652a3.485,3.485,0,0,1-1.254.948A3.822,3.822,0,0,1,4.62-10.064Zm4.3-.161H8V-15.14h.883v.8h.04A1.332,1.332,0,0,1,9.5-15a1.6,1.6,0,0,1,.858-.276,1.729,1.729,0,0,1,.682.12l-.281.893a1.529,1.529,0,0,0-.542-.07,1.2,1.2,0,0,0-.908.421,1.409,1.409,0,0,0-.386.983Zm4.133.161a2.351,2.351,0,0,1-1.786-.742,2.621,2.621,0,0,1-.7-1.876,2.67,2.67,0,0,1,.682-1.871A2.258,2.258,0,0,1,13-15.3a2.244,2.244,0,0,1,1.741.707,2.828,2.828,0,0,1,.647,1.981l-.01.1H11.512a1.6,1.6,0,0,0,.482,1.164,1.541,1.541,0,0,0,1.1.441,1.536,1.536,0,0,0,1.384-.883l.823.4a2.452,2.452,0,0,1-.918.973A2.539,2.539,0,0,1,13.057-10.064Zm-1.475-3.21H14.4a1.224,1.224,0,0,0-.416-.848,1.457,1.457,0,0,0-1.008-.336,1.338,1.338,0,0,0-.9.321A1.533,1.533,0,0,0,11.582-13.274ZM16.8-11.729a.737.737,0,0,0,.306.6,1.126,1.126,0,0,0,.717.241,1.471,1.471,0,0,0,1.038-.431,1.351,1.351,0,0,0,.456-1.013,1.9,1.9,0,0,0-1.2-.341,1.564,1.564,0,0,0-.938.271A.8.8,0,0,0,16.8-11.729ZM17.993-15.3a2.288,2.288,0,0,1,1.615.547,1.941,1.941,0,0,1,.592,1.5v3.03h-.883v-.682h-.04a1.761,1.761,0,0,1-1.525.843,1.982,1.982,0,0,1-1.359-.482,1.538,1.538,0,0,1-.547-1.2,1.462,1.462,0,0,1,.577-1.214,2.431,2.431,0,0,1,1.54-.451,2.725,2.725,0,0,1,1.354.3v-.211a1.05,1.05,0,0,0-.381-.818,1.307,1.307,0,0,0-.893-.336,1.414,1.414,0,0,0-1.224.652l-.813-.512A2.266,2.266,0,0,1,17.993-15.3ZM22.8-10.144a1.4,1.4,0,0,1-1-.371,1.377,1.377,0,0,1-.406-1.033V-14.3h-.863v-.843h.863v-1.5h.923v1.5h1.2v.843h-1.2v2.448a.9.9,0,0,0,.191.667.62.62,0,0,0,.431.176.928.928,0,0,0,.216-.025,1.119,1.119,0,0,0,.2-.065l.291.823A2.479,2.479,0,0,1,22.8-10.144Zm2.709-6.691a.629.629,0,0,1-.191.461.629.629,0,0,1-.461.191.629.629,0,0,1-.461-.191.629.629,0,0,1-.191-.461.629.629,0,0,1,.191-.461.629.629,0,0,1,.461-.191.629.629,0,0,1,.461.191A.629.629,0,0,1,25.507-16.836Zm-.191,1.7v4.916h-.923V-15.14Zm3.391,4.916h-.923L25.8-15.14h1l1.445,3.812h.02l1.465-3.812h.983Zm3.612-6.611a.629.629,0,0,1-.191.461.629.629,0,0,1-.461.191.629.629,0,0,1-.461-.191.629.629,0,0,1-.191-.461.629.629,0,0,1,.191-.461.629.629,0,0,1,.461-.191.629.629,0,0,1,.461.191A.629.629,0,0,1,32.319-16.836Zm-.191,1.7v4.916h-.923V-15.14Zm2.859,5a1.4,1.4,0,0,1-1-.371,1.377,1.377,0,0,1-.406-1.033V-14.3H32.72v-.843h.863v-1.5h.923v1.5h1.2v.843h-1.2v2.448a.9.9,0,0,0,.191.667.62.62,0,0,0,.431.176.928.928,0,0,0,.216-.025,1.119,1.119,0,0,0,.2-.065l.291.823A2.479,2.479,0,0,1,34.987-10.144Zm5.909-5-3.08,7.083h-.953l1.144-2.478-2.027-4.6h1l1.465,3.531h.02l1.425-3.531Z" transform="translate(14.616 48.872)" fill="#f4f4f4"/>
      </g>
      <path id="Path_15272" data-name="Path 15272" d="M3.344,0H107.656A3.344,3.344,0,0,1,111,3.344v14.63a3.344,3.344,0,0,1-3.344,3.344H3.344A3.344,3.344,0,0,1,0,17.974V3.344A3.344,3.344,0,0,1,3.344,0Z" transform="translate(147.975 209.004)" fill="#181818"/>
      <path id="Path_15273" data-name="Path 15273" d="M1.746-7.132c-.321,0-.776-.14-.776-.863l-.762.06A1.372,1.372,0,0,0,1.753-6.457,1.4,1.4,0,0,0,3.271-7.941v-3.21H2.462v3.2C2.462-7.246,2.027-7.132,1.746-7.132Zm4.561-.007c-1,0-1.471-.722-1.471-1.705s.475-1.705,1.471-1.705,1.471.722,1.471,1.705S7.3-7.139,6.308-7.139Zm0,.682A2.183,2.183,0,0,0,8.6-8.844a2.183,2.183,0,0,0-2.294-2.388A2.183,2.183,0,0,0,4.014-8.844,2.183,2.183,0,0,0,6.308-6.457Zm3.083-4.7v4.615H10.2v-4.615Zm2.669,4.615V-9.881l2.408,3.344h.863v-4.615h-.8v3.344l-2.428-3.344h-.849v4.615Zm8.093-.6c-1,0-1.471-.722-1.471-1.705s.475-1.705,1.471-1.705,1.471.722,1.471,1.705S21.149-7.139,20.152-7.139Zm0,.682a2.183,2.183,0,0,0,2.294-2.388,2.183,2.183,0,0,0-2.294-2.388,2.183,2.183,0,0,0-2.294,2.388A2.183,2.183,0,0,0,20.152-6.457Zm3.036-4.7v2.936a1.711,1.711,0,0,0,1.919,1.759,1.712,1.712,0,0,0,1.913-1.759v-2.936h-.8v2.929a1.009,1.009,0,0,1-1.11,1.083A1.006,1.006,0,0,1,24-8.222v-2.929Zm8.434,1.391c0-1.043-.676-1.391-1.619-1.391H28.031v4.615h.809V-8.356h1.043l.9,1.819h.89v-.047L30.7-8.456A1.247,1.247,0,0,0,31.622-9.761ZM28.84-10.47H30c.5,0,.8.247.8.716s-.308.716-.8.716H28.84ZM36.1-6.457A1.8,1.8,0,0,0,38.15-8.075l-.762-.114a1.159,1.159,0,0,1-1.271,1.05c-.8,0-1.371-.609-1.371-1.712s.535-1.7,1.344-1.7a1.119,1.119,0,0,1,1.237,1l.769-.127c-.107-1.157-.943-1.558-2.02-1.558-1.311,0-2.154.816-2.154,2.381A2.1,2.1,0,0,0,36.11-6.457Zm4.809-.682c-1,0-1.471-.722-1.471-1.705s.475-1.705,1.471-1.705,1.471.722,1.471,1.705S41.909-7.139,40.912-7.139Zm0,.682a2.183,2.183,0,0,0,2.294-2.388,2.183,2.183,0,0,0-2.294-2.388,2.183,2.183,0,0,0-2.294,2.388A2.183,2.183,0,0,0,40.912-6.457Zm7.35-3.592h.02v3.511h.8v-4.615H47.9L46.557-7.447l-1.364-3.705H44v4.615h.8v-3.511L46.1-6.53h.876Zm6.146,0h.02v3.511h.8v-4.615H54.048L52.7-7.447l-1.364-3.705h-1.2v4.615h.8v-3.511l1.3,3.518h.876Zm1.833-1.1v2.936a1.711,1.711,0,0,0,1.92,1.759,1.712,1.712,0,0,0,1.913-1.759v-2.936h-.8v2.929a1.009,1.009,0,0,1-1.11,1.083,1.006,1.006,0,0,1-1.11-1.083v-2.929Zm5.645,4.615V-9.881l2.408,3.344h.863v-4.615h-.8v3.344l-2.428-3.344h-.849v4.615Zm4.327-4.615v4.615h.809v-4.615Zm3.8,4.615V-10.47h1.532v-.682H67.671v.682H69.2v3.933Zm3.7-2.481-1.137-2.134h-.923l.04.08a.579.579,0,0,0,.047.067l1.578,2.789v1.679h.809V-8.216l1.665-2.916v-.02h-.923L73.731-9.018Z" transform="translate(157.886 228.5)" fill="#fff"/>
      <path id="Path_999" data-name="Path 999" d="M8.691.665A8.356,8.356,0,0,0,6.574,0,6.206,6.206,0,0,0,6.3.563a7.772,7.772,0,0,0-2.346,0A6.017,6.017,0,0,0,3.683,0,8.329,8.329,0,0,0,1.565.667,8.877,8.877,0,0,0,.044,6.611a8.463,8.463,0,0,0,2.6,1.33A6.456,6.456,0,0,0,3.2,7.026,5.467,5.467,0,0,1,2.32,6.6c.073-.054.145-.111.215-.17a5.983,5.983,0,0,0,5.19,0c.07.059.142.115.215.17a5.453,5.453,0,0,1-.877.427,6.428,6.428,0,0,0,.556.916,8.446,8.446,0,0,0,2.6-1.331A8.869,8.869,0,0,0,8.691.665ZM3.426,5.414A1,1,0,0,1,2.5,4.365a.991.991,0,0,1,.922-1.05.984.984,0,0,1,.922,1.05A.989.989,0,0,1,3.426,5.414Zm3.409,0a1,1,0,0,1-.922-1.049.991.991,0,0,1,.922-1.05.984.984,0,0,1,.922,1.05A.99.99,0,0,1,6.834,5.414Z" transform="translate(238.683 215.693)" fill="#fff"/>
      <path id="Path_15270" data-name="Path 15270" d="M3.344,0H84.438a3.344,3.344,0,0,1,3.344,3.344v14.63a3.344,3.344,0,0,1-3.344,3.344H3.344A3.344,3.344,0,0,1,0,17.974V3.344A3.344,3.344,0,0,1,3.344,0Z" transform="translate(50.161 209.004)" fill="#fecd00"/>
      <path id="Path_15271" data-name="Path 15271" d="M-79.214-7.132c-.321,0-.776-.14-.776-.863l-.762.06a1.372,1.372,0,0,0,1.545,1.478,1.4,1.4,0,0,0,1.518-1.485v-3.21H-78.5v3.2C-78.5-7.246-78.933-7.132-79.214-7.132Zm4.561-.007c-1,0-1.471-.722-1.471-1.705s.475-1.705,1.471-1.705,1.471.722,1.471,1.705S-73.656-7.139-74.652-7.139Zm0,.682a2.183,2.183,0,0,0,2.294-2.388,2.183,2.183,0,0,0-2.294-2.388,2.183,2.183,0,0,0-2.294,2.388A2.183,2.183,0,0,0-74.652-6.457Zm3.083-4.7v4.615h.809v-4.615ZM-68.9-6.537V-9.881l2.408,3.344h.863v-4.615h-.8v3.344l-2.428-3.344H-69.7v4.615Zm6.066-4.615v4.615h2.856v-.682h-2.047v-3.933Zm4.26,3.431h1.9l.441,1.184h.863l-1.766-4.642h-.97l-1.766,4.642h.849Zm.976-2.6.729,1.94H-58.36l.729-1.94Zm2.6-.829v2.936a1.711,1.711,0,0,0,1.919,1.759,1.712,1.712,0,0,0,1.913-1.759v-2.936h-.8v2.929a1.009,1.009,0,0,1-1.11,1.083,1.006,1.006,0,0,1-1.11-1.083v-2.929Zm5.645,4.615V-9.881l2.408,3.344h.863v-4.615h-.8v3.344L-49.3-11.152h-.849v4.615Zm6.253.08a1.8,1.8,0,0,0,2.047-1.619l-.762-.114a1.159,1.159,0,0,1-1.271,1.05c-.8,0-1.371-.609-1.371-1.712s.535-1.7,1.344-1.7a1.119,1.119,0,0,1,1.237,1l.769-.127c-.107-1.157-.943-1.558-2.02-1.558-1.311,0-2.154.816-2.154,2.381a2.1,2.1,0,0,0,2.187,2.394Zm6.782-.08v-4.615h-.809v1.833h-2.388v-1.833h-.8v4.615h.8v-2.1h2.388v2.1Zm3.6,0V-7.895h.983A1.6,1.6,0,0,0-30.1-9.547a1.52,1.52,0,0,0-1.632-1.605H-33.52v4.615Zm.95-3.933a.811.811,0,0,1,.843.923.887.887,0,0,1-.843.97h-.95V-10.47Zm2.869,2.749h1.9l.441,1.184h.863l-1.766-4.642h-.97L-30.19-6.537h.849Zm.976-2.6.729,1.94h-1.491l.729-1.94Zm6.327.562c0-1.043-.676-1.391-1.619-1.391H-25.18v4.615h.809V-8.356h1.043l.9,1.819h.89v-.047l-.97-1.873A1.247,1.247,0,0,0-21.589-9.761Zm-2.782-.709h1.164c.5,0,.8.247.8.716s-.308.716-.8.716h-1.164Zm5.478,3.933V-10.47h1.532v-.682h-3.872v.682H-19.7v3.933Zm3.7-2.481-1.137-2.134h-.923l.04.08a.578.578,0,0,0,.047.067l1.578,2.789v1.679h.809V-8.216l1.665-2.916v-.02h-.923l-1.137,2.134Z" transform="translate(141.049 228.5)" fill="#181818"/>
      <g id="mentorship" transform="translate(50.161 268.715)">
        <path id="Path_955" data-name="Path 955" d="M491.634,339.521l5.141,13.563-13.562,5.141-22.141-9.972L451.1,370.4l-13.566,5.143-5.141-13.563,9.971-22.145-22.143-9.967L415.079,316.3l13.566-5.142Z" transform="translate(-415.079 -294.158)" fill="#eae5df"/>
        <path id="Path_956" data-name="Path 956" d="M552.519,259.3l5.114,13.491-7.787,17.3-18.6-8.377,7.787-17.3Z" transform="translate(-493.159 -259.298)" fill="#eae5df"/>
        <path id="Path_968" data-name="Path 968" d="M.923,7.263H0V.08H.923l2.5,4.374h.04L5.959.08h.923V7.263H5.959V3L6,1.8h-.04L3.712,5.738H3.17L.923,1.8H.883L.923,3Zm9.26.161A2.351,2.351,0,0,1,8.4,6.681a2.621,2.621,0,0,1-.7-1.876,2.67,2.67,0,0,1,.682-1.871,2.258,2.258,0,0,1,1.746-.747,2.244,2.244,0,0,1,1.741.707,2.828,2.828,0,0,1,.647,1.981l-.01.1H8.638A1.6,1.6,0,0,0,9.119,6.14,1.555,1.555,0,0,0,11.607,5.7l.823.4a2.452,2.452,0,0,1-.918.973A2.539,2.539,0,0,1,10.183,7.424ZM8.708,4.214h2.819a1.224,1.224,0,0,0-.416-.848A1.457,1.457,0,0,0,10.1,3.03a1.338,1.338,0,0,0-.9.321A1.533,1.533,0,0,0,8.708,4.214Zm4.444-1.866h.883V3.03h.04a1.641,1.641,0,0,1,.647-.6,1.855,1.855,0,0,1,.908-.241A1.816,1.816,0,0,1,17.02,2.7a2.062,2.062,0,0,1,.487,1.47v3.09h-.923V4.234a1.085,1.085,0,0,0-1.214-1.2,1.154,1.154,0,0,0-.923.446,1.617,1.617,0,0,0-.371,1.068V7.263h-.923Zm6.691,5a1.4,1.4,0,0,1-1-.371,1.377,1.377,0,0,1-.406-1.033V3.19h-.863V2.348h.863V.843h.923v1.5h1.2V3.19h-1.2V5.638a.9.9,0,0,0,.191.667.62.62,0,0,0,.431.176.928.928,0,0,0,.216-.025,1.119,1.119,0,0,0,.2-.065l.291.823A2.479,2.479,0,0,1,19.844,7.344Zm1.033-2.538a2.6,2.6,0,0,1,.712-1.876,2.428,2.428,0,0,1,1.816-.742,2.4,2.4,0,0,1,1.806.742,2.581,2.581,0,0,1,.722,1.876,2.559,2.559,0,0,1-.722,1.876,2.4,2.4,0,0,1-1.806.742,2.428,2.428,0,0,1-1.816-.742A2.6,2.6,0,0,1,20.877,4.805Zm.923,0a1.8,1.8,0,0,0,.461,1.284,1.576,1.576,0,0,0,2.287,0,1.8,1.8,0,0,0,.461-1.284,1.786,1.786,0,0,0-.461-1.274,1.555,1.555,0,0,0-2.287,0A1.786,1.786,0,0,0,21.8,4.805Zm5.5,2.458h-.923V2.348h.883v.8h.04a1.332,1.332,0,0,1,.577-.667,1.6,1.6,0,0,1,.858-.276,1.729,1.729,0,0,1,.682.12l-.281.893a1.529,1.529,0,0,0-.542-.07,1.2,1.2,0,0,0-.908.421,1.409,1.409,0,0,0-.386.983ZM33.187,5.9a1.333,1.333,0,0,1-.562,1.083,2.22,2.22,0,0,1-1.415.441,2.246,2.246,0,0,1-1.3-.386,2.13,2.13,0,0,1-.8-1.018l.823-.351a1.527,1.527,0,0,0,.527.687,1.28,1.28,0,0,0,.757.246,1.336,1.336,0,0,0,.737-.191.541.541,0,0,0,.3-.451q0-.472-.722-.692l-.843-.211Q29.244,4.7,29.244,3.672a1.279,1.279,0,0,1,.547-1.078,2.507,2.507,0,0,1,2.578-.1,1.69,1.69,0,0,1,.737.833l-.823.341a1.036,1.036,0,0,0-.456-.487,1.431,1.431,0,0,0-.707-.176,1.186,1.186,0,0,0-.647.181.52.52,0,0,0-.286.441q0,.421.793.6l.742.191Q33.187,4.785,33.187,5.9ZM33.8.08h.923V2.348l-.04.682h.04a1.641,1.641,0,0,1,.647-.6,1.855,1.855,0,0,1,.908-.241,1.816,1.816,0,0,1,1.389.517,2.062,2.062,0,0,1,.487,1.47v3.09H37.23V4.354q0-1.324-1.174-1.324a1.187,1.187,0,0,0-.948.466,1.655,1.655,0,0,0-.386,1.088V7.263H33.8Zm6.441.572a.629.629,0,0,1-.191.461.654.654,0,0,1-.923,0,.629.629,0,0,1-.191-.461.629.629,0,0,1,.191-.461.654.654,0,0,1,.923,0A.629.629,0,0,1,40.239.652Zm-.191,1.7V7.263h-.923V2.348ZM43.47,6.581a1.439,1.439,0,0,0,1.114-.5,1.81,1.81,0,0,0,.451-1.274,1.833,1.833,0,0,0-.451-1.274,1.5,1.5,0,0,0-2.237,0A1.858,1.858,0,0,0,41.9,4.805a1.872,1.872,0,0,0,.441,1.284A1.463,1.463,0,0,0,43.47,6.581Zm.15.843a2.12,2.12,0,0,1-.988-.231,1.729,1.729,0,0,1-.687-.612H41.9l.04.682V9.43h-.923V2.348H41.9V3.03h.04a1.729,1.729,0,0,1,.687-.612,2.182,2.182,0,0,1,2.633.532,2.685,2.685,0,0,1,.692,1.856,2.662,2.662,0,0,1-.692,1.856A2.111,2.111,0,0,1,43.62,7.424Z" transform="translate(23.768 29.135) rotate(24.19)" fill="#52489f"/>
      </g>
    </g>
  </g>
</svg>
