<svg xmlns="http://www.w3.org/2000/svg" xmlns:xlink="http://www.w3.org/1999/xlink" width="511" height="656" viewBox="0 0 511 656">
  <defs>
    <clipPath id="clip-path">
      <rect id="vertigo-looking-down-at-dawson-estate-in-singapor-2022-11-14-06-24-17-utc" width="511" height="656" rx="4" transform="translate(0 380)" fill="#262626"/>
    </clipPath>
  </defs>
  <g id="bg-price-card" transform="translate(0 -380)" clip-path="url(#clip-path)">
    <path id="Book-open" d="M64.635,22.144C42.818.8,21.409.4,0,0L1.792,94.286c21.418.4,42.828.8,64.635,22.144,21.02-20.551,42.429-20.153,63.839-19.755L128.474,2.389C107.055,1.991,85.646,1.593,64.635,22.144Z" transform="translate(324.029 866.333) rotate(-30)" fill="#fff" opacity="0.05"/>
    <path id="Book-open-2" data-name="Book-open" d="M19.423,6.655C12.867.239,6.434.12,0,0L.539,28.334c6.436.12,12.87.239,19.423,6.655,6.317-6.176,12.75-6.056,19.184-5.936L38.607.718C32.171.6,25.737.479,19.423,6.655Z" transform="translate(240.5 909.421) rotate(-30)" fill="#fff" opacity="0.05"/>
    <path id="Book-open-3" data-name="Book-open" d="M10.982,3.762C7.275.135,3.638.068,0,0L.3,16.02c3.639.068,7.277.135,10.982,3.762,3.572-3.492,7.209-3.424,10.847-3.356l-.3-16.02C18.19.338,14.552.271,10.982,3.762Z" transform="translate(43.13 505.97) rotate(-30)" fill="#fff" opacity="0.05"/>
    <path id="Book-open-4" data-name="Book-open" d="M16.3,5.585C10.8.2,5.4.1,0,0L.452,23.781c5.4.1,10.8.2,16.3,5.585,5.3-5.184,10.7-5.083,16.1-4.983L32.4.6C27,.5,21.6.4,16.3,5.585Z" transform="translate(221.656 842.941) rotate(-30)" fill="#fff" opacity="0.05"/>
    <path id="Book-open-5" data-name="Book-open" d="M7.92,2.713C5.247.1,2.623.049,0,0L.22,11.553c2.625.049,5.248.1,7.92,2.713,2.576-2.518,5.2-2.469,7.822-2.421L15.743.293C13.118.244,10.495.2,7.92,2.713Z" transform="translate(226.708 422.701) rotate(-30)" fill="#fff" opacity="0.05"/>
    <path id="Book-open-6" data-name="Book-open" d="M10.463,3.585C6.931.129,3.466.064,0,0L.29,15.262c3.467.064,6.933.129,10.463,3.585,3.4-3.327,6.868-3.262,10.334-3.2L20.8.387C17.329.322,13.864.258,10.463,3.585Z" transform="translate(377.59 531.532) rotate(-30)" fill="#fff" opacity="0.05"/>
  </g>
</svg>
