<svg id="charge" xmlns="http://www.w3.org/2000/svg" width="82.628" height="33.781" viewBox="0 0 82.628 33.781">
  <path id="Path_14467" data-name="Path 14467" d="M14.92-12.372H10.907a3.476,3.476,0,0,0-.563-1.512A2.362,2.362,0,0,0,8.3-14.791a2.7,2.7,0,0,0-2.707,1.965A8.216,8.216,0,0,0,5.2-10.05,7.554,7.554,0,0,0,5.589-7.4,2.613,2.613,0,0,0,8.228-5.529a2.326,2.326,0,0,0,1.951-.742,3.694,3.694,0,0,0,.7-1.924h4a6.552,6.552,0,0,1-1.292,3.38,6.279,6.279,0,0,1-5.455,2.57q-3.614,0-5.318-2.144a8.674,8.674,0,0,1-1.7-5.565,8.8,8.8,0,0,1,1.883-6.005A6.553,6.553,0,0,1,8.186-18.1a7.821,7.821,0,0,1,4.61,1.264Q14.59-15.574,14.92-12.372Zm14.653.811v8.795h-4v-9.111a4.007,4.007,0,0,0-.412-1.951,2.07,2.07,0,0,0-2.034-1.044,2.8,2.8,0,0,0-2.357,1.038,4.748,4.748,0,0,0-.8,2.961v8.108h-3.9V-22.953h3.9v7.159a4.8,4.8,0,0,1,1.972-1.821A5.573,5.573,0,0,1,24.3-18.13a6.394,6.394,0,0,1,2.522.481,4.41,4.41,0,0,1,1.862,1.47,3.907,3.907,0,0,1,.756,1.725A21.235,21.235,0,0,1,29.573-11.561Zm2.643-4.562Q33.768-18.1,37.547-18.1a9.473,9.473,0,0,1,4.37.976,3.746,3.746,0,0,1,1.91,3.683v6.871q0,.715.027,1.731A2.177,2.177,0,0,0,44.089-3.8a1.4,1.4,0,0,0,.577.453v.577h-4.26a4.362,4.362,0,0,1-.247-.852q-.069-.4-.11-.907a8.047,8.047,0,0,1-1.869,1.5,5.622,5.622,0,0,1-2.858.728,4.914,4.914,0,0,1-3.36-1.161,4.142,4.142,0,0,1-1.326-3.291,4.272,4.272,0,0,1,2.13-4,9.457,9.457,0,0,1,3.435-.962l1.333-.165a6.113,6.113,0,0,0,1.553-.344,1.177,1.177,0,0,0,.838-1.113,1.321,1.321,0,0,0-.639-1.271,3.992,3.992,0,0,0-1.876-.35,2.444,2.444,0,0,0-1.965.687,2.856,2.856,0,0,0-.55,1.374H31.116A5.748,5.748,0,0,1,32.216-16.123ZM35.129-5.6a2.046,2.046,0,0,0,1.347.453A3.989,3.989,0,0,0,38.8-5.886a3.165,3.165,0,0,0,1.106-2.707V-10.05a4.256,4.256,0,0,1-.749.378,6.263,6.263,0,0,1-1.038.268l-.879.165a5.679,5.679,0,0,0-1.773.536,1.8,1.8,0,0,0-.907,1.663A1.72,1.72,0,0,0,35.129-5.6Zm18.13-8.534a3.248,3.248,0,0,0-3.174,1.539,5.987,5.987,0,0,0-.453,2.666v7.159H45.687V-17.745h3.738v2.611A8.28,8.28,0,0,1,51-17.182a4.3,4.3,0,0,1,2.858-.921q.11,0,.186.007t.337.021v4.013q-.371-.041-.66-.055T53.259-14.131ZM59.337-.142a3.31,3.31,0,0,0,2.13.536A2.861,2.861,0,0,0,64.3-1.021a7.169,7.169,0,0,0,.467-3.051v-.962a4.776,4.776,0,0,1-1.209,1.443,4.863,4.863,0,0,1-3.037.893,5.747,5.747,0,0,1-4.61-2.027,8.2,8.2,0,0,1-1.725-5.49,9.254,9.254,0,0,1,1.663-5.614A5.493,5.493,0,0,1,60.56-18.1a5.159,5.159,0,0,1,1.965.344,4.706,4.706,0,0,1,2.309,2.171v-2.157H68.64V-3.536a7.958,7.958,0,0,1-.976,4.37q-1.677,2.528-6.431,2.528a8.763,8.763,0,0,1-4.686-1.127,4.157,4.157,0,0,1-2.006-3.367H58.8A1.764,1.764,0,0,0,59.337-.142Zm-.66-7.737a2.866,2.866,0,0,0,2.858,1.9A3.026,3.026,0,0,0,63.858-7.02a4.8,4.8,0,0,0,.948-3.3,5.057,5.057,0,0,0-.9-3.243,2.942,2.942,0,0,0-2.412-1.113,2.842,2.842,0,0,0-2.845,1.938,6.871,6.871,0,0,0-.412,2.542A5.8,5.8,0,0,0,58.677-7.878Zm24.863.715a4.968,4.968,0,0,1-1.388,2.707,6.8,6.8,0,0,1-5.387,2.185,7.6,7.6,0,0,1-5.043-1.841Q69.538-5.955,69.537-10.1a8.327,8.327,0,0,1,1.972-5.964,6.742,6.742,0,0,1,5.119-2.075,7.85,7.85,0,0,1,3.367.7,5.9,5.9,0,0,1,2.474,2.212,7.548,7.548,0,0,1,1.141,3.092,19.968,19.968,0,0,1,.124,2.968H73.481A3.722,3.722,0,0,0,74.9-6.009a3.334,3.334,0,0,0,1.951.563,2.808,2.808,0,0,0,1.965-.687,3.263,3.263,0,0,0,.728-1.031Zm-3.875-4.59a3.409,3.409,0,0,0-.941-2.357,2.923,2.923,0,0,0-2.1-.8,2.66,2.66,0,0,0-2.109.852,4.253,4.253,0,0,0-.941,2.309Z" transform="translate(-1.109 22.953)" fill="#85938c"/>
  <path id="Path_14466" data-name="Path 14466" d="M1.554-12.715a3.607,3.607,0,0,1,3.007-1.116,5.343,5.343,0,0,1,2.465.55A2.113,2.113,0,0,1,8.1-11.2v3.876q0,.4.016.977a1.228,1.228,0,0,0,.132.589.792.792,0,0,0,.326.256v.326h-2.4a2.46,2.46,0,0,1-.14-.481Q6-5.886,5.972-6.173a4.539,4.539,0,0,1-1.054.845,3.171,3.171,0,0,1-1.612.411,2.772,2.772,0,0,1-1.9-.655A2.336,2.336,0,0,1,.663-7.429a2.41,2.41,0,0,1,1.2-2.256A5.334,5.334,0,0,1,3.8-10.227l.752-.093a3.448,3.448,0,0,0,.876-.194.664.664,0,0,0,.473-.628.745.745,0,0,0-.36-.717,2.252,2.252,0,0,0-1.058-.2,1.378,1.378,0,0,0-1.108.388,1.611,1.611,0,0,0-.31.775H.934A3.242,3.242,0,0,1,1.554-12.715ZM3.2-6.777a1.154,1.154,0,0,0,.76.256A2.25,2.25,0,0,0,5.271-6.94a1.785,1.785,0,0,0,.624-1.527v-.822a2.4,2.4,0,0,1-.422.213,3.533,3.533,0,0,1-.585.151l-.5.093a3.2,3.2,0,0,0-1,.3,1.013,1.013,0,0,0-.512.938A.97.97,0,0,0,3.2-6.777Zm9.939-9.9v1.8q-.186-.023-.624-.035a.718.718,0,0,0-.6.194.7.7,0,0,0-.167.453v.713h1.449v1.558H11.741v6.813H9.54v-6.813H8.308v-1.558H9.517v-.543a2.855,2.855,0,0,1,.457-1.868q.481-.76,2.318-.76.209,0,.38.012Zm4.684,5.085a1.832,1.832,0,0,0-1.791.868,3.377,3.377,0,0,0-.256,1.5v4.038H13.55v-8.449h2.108v1.473a4.671,4.671,0,0,1,.891-1.155,2.427,2.427,0,0,1,1.612-.519q.062,0,.1,0l.19.012v2.263q-.209-.023-.372-.031T17.821-11.591Zm3.312-2.039v8.449h-2.24v-8.449Zm0-3.046v2.039h-2.24v-2.039Zm8.56,6.077H27.429a1.96,1.96,0,0,0-.318-.853,1.332,1.332,0,0,0-1.155-.512,1.521,1.521,0,0,0-1.527,1.108,4.634,4.634,0,0,0-.217,1.566,4.261,4.261,0,0,0,.217,1.5,1.474,1.474,0,0,0,1.488,1.054,1.312,1.312,0,0,0,1.1-.419,2.083,2.083,0,0,0,.4-1.085h2.256a3.7,3.7,0,0,1-.729,1.907,3.542,3.542,0,0,1-3.077,1.449,3.6,3.6,0,0,1-3-1.209A4.893,4.893,0,0,1,21.9-9.235a4.965,4.965,0,0,1,1.062-3.387,3.7,3.7,0,0,1,2.93-1.209,4.412,4.412,0,0,1,2.6.713A3.317,3.317,0,0,1,29.693-10.6Zm.948-2.116a3.607,3.607,0,0,1,3.007-1.116,5.343,5.343,0,0,1,2.465.55A2.113,2.113,0,0,1,37.19-11.2v3.876q0,.4.015.977a1.228,1.228,0,0,0,.132.589.792.792,0,0,0,.326.256v.326h-2.4a2.461,2.461,0,0,1-.14-.481q-.039-.225-.062-.512A4.539,4.539,0,0,1,34-5.328a3.171,3.171,0,0,1-1.612.411,2.772,2.772,0,0,1-1.9-.655,2.336,2.336,0,0,1-.748-1.856,2.41,2.41,0,0,1,1.2-2.256,5.334,5.334,0,0,1,1.938-.543l.752-.093a3.448,3.448,0,0,0,.876-.194.664.664,0,0,0,.473-.628.745.745,0,0,0-.36-.717,2.252,2.252,0,0,0-1.058-.2,1.378,1.378,0,0,0-1.108.388,1.611,1.611,0,0,0-.31.775H30.02A3.242,3.242,0,0,1,30.641-12.715Zm1.643,5.937a1.154,1.154,0,0,0,.76.256,2.25,2.25,0,0,0,1.314-.419,1.785,1.785,0,0,0,.624-1.527v-.822a2.4,2.4,0,0,1-.422.213,3.533,3.533,0,0,1-.585.151l-.5.093a3.2,3.2,0,0,0-1,.3,1.013,1.013,0,0,0-.512.938A.97.97,0,0,0,32.284-6.777Z" transform="translate(12.61 38.667)" fill="#85938c"/>
  <path id="Path_14468" data-name="Path 14468" d="M5.293-6.263A23.1,23.1,0,0,1,2.309-4.074,5.424,5.424,0,0,0,.32.1c0,1.591,1.293,2.785,2.089,4.078.3.3.8.1,1.094.2,1.194.4,2.188-.5,3.78-.3A3.134,3.134,0,0,0,10.565,1.5c.2-1.194.2-2.387.5-3.481.1-.6-.1-.995-.6-.995-1.393,0-1.989-.7-2.288-2.089C7.979-6.064,5.89-6.86,5.293-6.263Z" transform="translate(-0.32 29.297)" fill="#85938c"/>
</svg>
