<svg xmlns="http://www.w3.org/2000/svg" width="15.997" height="16" viewBox="0 0 15.997 16">
  <g id="chigisoft-icon" transform="translate(-0.084)">
    <path id="Path_1437" data-name="Path 1437" d="M206.808,206.98a.87.87,0,0,0,.423-.107.894.894,0,0,1-1.33-.779.893.893,0,0,1,.814-.89h0a.561.561,0,0,1,.076,0,.881.881,0,0,1,.436.114.87.87,0,0,0-.423-.107.561.561,0,0,0-.076,0h0a.886.886,0,0,0-.353,1.656A.859.859,0,0,0,206.808,206.98Z" transform="translate(-198.704 -198.092)" fill="#fff"/>
    <g id="Group_1306" data-name="Group 1306" transform="translate(0.084)">
      <path id="Path_1451" data-name="Path 1451" d="M10.611,16H6.593A5.989,5.989,0,0,1,.6,10.011V5.993A5.989,5.989,0,0,1,6.589,0h4.018A5.989,5.989,0,0,1,16.6,5.989v4.018A5.984,5.984,0,0,1,10.611,16Z" transform="translate(-0.6)"/>
      <path id="Path_1452" data-name="Path 1452" d="M45.128,43.444h4.94a6.74,6.74,0,1,1,0-1.375h-4.94a1.347,1.347,0,0,0-1.327-1.115h-.9A1.347,1.347,0,0,0,41.553,42.3v.9A1.347,1.347,0,0,0,42.9,44.553h.9A1.347,1.347,0,0,0,45.128,43.444Z" transform="translate(-35.353 -34.753)" fill="#fff"/>
      <path id="Path_1453" data-name="Path 1453" d="M207.774,206.187a.885.885,0,0,1-1.32.772.875.875,0,0,1-.454-.772.888.888,0,0,1,.807-.883h0a.564.564,0,0,1,.076,0A.891.891,0,0,1,207.774,206.187Z" transform="translate(-198.885 -198.188)" fill="#fff"/>
    </g>
  </g>
</svg>
