<svg xmlns="http://www.w3.org/2000/svg" width="141.36" height="25.597" viewBox="0 0 141.36 25.597">
  <g id="chigisoft-logo-b" transform="translate(0 0)">
    <path id="Path_14412" data-name="Path 14412" d="M16.006,0H9.59A9.579,9.579,0,0,0,0,9.59v6.416A9.594,9.594,0,0,0,9.59,25.6h6.416a9.594,9.594,0,0,0,9.59-9.59V9.59A9.579,9.579,0,0,0,16.006,0ZM13.535,9.93H12.084A2.154,2.154,0,0,0,9.93,12.084v1.451a2.167,2.167,0,0,0,2.154,2.154h1.451a2.183,2.183,0,0,0,2.131-1.768h7.913a10.792,10.792,0,1,1,0-2.2H15.644A2.14,2.14,0,0,0,13.535,9.93Zm.68,2.857a1.422,1.422,0,0,1-1.428,1.428,1.453,1.453,0,0,1-.68-.181,1.421,1.421,0,0,1,.567-2.653h.136A1.413,1.413,0,0,1,14.215,12.787Z" transform="translate(0 0)" fill="#1e1f21"/>
    <path id="Path_14413" data-name="Path 14413" d="M134.2,38.609a6.413,6.413,0,0,1-2.494-2.426,7.35,7.35,0,0,1,0-7.074,6.413,6.413,0,0,1,2.494-2.426,7.8,7.8,0,0,1,6.688-.249,6.083,6.083,0,0,1,2.313,1.836L142,29.382a1.581,1.581,0,0,1-2.04.113,3.454,3.454,0,0,0-2.04-.635,3.53,3.53,0,0,0-1.836.476,3.163,3.163,0,0,0-1.247,1.315,4.731,4.731,0,0,0,0,3.945,3.035,3.035,0,0,0,1.247,1.315,3.7,3.7,0,0,0,1.836.476,3.454,3.454,0,0,0,2.04-.635,1.61,1.61,0,0,1,2.04.113l1.2,1.111a6.082,6.082,0,0,1-2.313,1.836,7.364,7.364,0,0,1-3.129.635A7.044,7.044,0,0,1,134.2,38.609Z" transform="translate(-101.141 -19.95)" fill="#1e1f21"/>
    <path id="Path_14414" data-name="Path 14414" d="M206.538,27V38.449a1.655,1.655,0,0,1-1.632,1.7h-1.95V35.026h-4.874v3.423a1.655,1.655,0,0,1-1.632,1.7H194.5V28.7a1.67,1.67,0,0,1,1.632-1.7h1.95v4.942h4.874V28.7a1.669,1.669,0,0,1,1.632-1.7Z" transform="translate(-150.402 -20.879)" fill="#1e1f21"/>
    <path id="Path_14415" data-name="Path 14415" d="M260.181,27v1.655L256.6,30.718v-2.04A1.65,1.65,0,0,1,258.232,27Z" transform="translate(-198.423 -20.879)" fill="#1e1f21"/>
    <path id="Path_14416" data-name="Path 14416" d="M260.182,36.9v9.2a1.655,1.655,0,0,1-1.632,1.7H256.6V38.963Z" transform="translate(-198.424 -28.534)" fill="#1e1f21"/>
    <path id="Path_14417" data-name="Path 14417" d="M346.68,26.923v1.655L343.1,30.641V28.6a1.655,1.655,0,0,1,1.632-1.7h0Z" transform="translate(-265.31 -20.801)" fill="#1e1f21"/>
    <path id="Path_14418" data-name="Path 14418" d="M346.682,36.9v9.2a1.655,1.655,0,0,1-1.632,1.7H343.1V38.963Z" transform="translate(-265.312 -28.534)" fill="#1e1f21"/>
    <path id="Path_14419" data-name="Path 14419" d="M290.665,33.35h1.519v5.441a8.3,8.3,0,0,1-2.494,1.247,9.828,9.828,0,0,1-2.811.431,7.334,7.334,0,0,1-3.582-.862,6.413,6.413,0,0,1-2.494-2.426,7.35,7.35,0,0,1,0-7.074,6.472,6.472,0,0,1,2.517-2.426,7.729,7.729,0,0,1,3.628-.884,8,8,0,0,1,3.174.612,6.062,6.062,0,0,1,2.358,1.791l-1.224,1.156a1.578,1.578,0,0,1-2,.159,3.972,3.972,0,0,0-2.131-.635,3.484,3.484,0,0,0-2.607,1.02,3.755,3.755,0,0,0-1,2.721,3.919,3.919,0,0,0,.453,1.95,3.428,3.428,0,0,0,1.27,1.338,3.554,3.554,0,0,0,1.859.476,4.285,4.285,0,0,0,1.927-.431v-1.9a1.641,1.641,0,0,1,1.632-1.7Z" transform="translate(-216.437 -20.722)" fill="#1e1f21"/>
    <path id="Path_14420" data-name="Path 14420" d="M370.258,39.153A7.574,7.574,0,0,1,367.9,38.11L368.376,37a1.6,1.6,0,0,1,2.063-.907c.2.068.408.159.612.227a7.21,7.21,0,0,0,2.2.363c1.383,0,2.063-.363,2.063-1.066a.9.9,0,0,0-.589-.839,11.211,11.211,0,0,0-1.882-.567,14.288,14.288,0,0,1-2.381-.68,4.273,4.273,0,0,1-1.655-1.179,3.291,3.291,0,0,1-.68-2.177A3.931,3.931,0,0,1,368.762,28a4.308,4.308,0,0,1,1.882-1.542,7.527,7.527,0,0,1,3.083-.567,9.915,9.915,0,0,1,2.449.295,7.259,7.259,0,0,1,2.131.862L377.83,28.2a1.616,1.616,0,0,1-2.04.952,6.067,6.067,0,0,0-2.109-.363,2.86,2.86,0,0,0-1.564.34.952.952,0,0,0-.476.862.831.831,0,0,0,.567.794,9.157,9.157,0,0,0,1.859.544,15.2,15.2,0,0,1,2.4.68,4.465,4.465,0,0,1,1.655,1.156,3.216,3.216,0,0,1,.7,2.177,3.734,3.734,0,0,1-.635,2.131,4.469,4.469,0,0,1-1.882,1.542,7.49,7.49,0,0,1-3.061.567A13.243,13.243,0,0,1,370.258,39.153Z" transform="translate(-284.49 -20.018)" fill="#1e1f21"/>
    <path id="Path_14421" data-name="Path 14421" d="M426.72,38.61a6.525,6.525,0,0,1-2.517-2.449,7.262,7.262,0,0,1,0-7.028,6.529,6.529,0,0,1,2.517-2.449,7.791,7.791,0,0,1,7.21,0,6.526,6.526,0,0,1,2.517,2.449,7.262,7.262,0,0,1,0,7.028,6.529,6.529,0,0,1-2.517,2.449A7.791,7.791,0,0,1,426.72,38.61Zm5.351-2.675a3.256,3.256,0,0,0,1.224-1.315,4,4,0,0,0,.453-1.972,3.863,3.863,0,0,0-.453-1.95,3.256,3.256,0,0,0-1.224-1.315,3.4,3.4,0,0,0-3.469,0,3.256,3.256,0,0,0-1.224,1.315,3.918,3.918,0,0,0-.453,1.95,4,4,0,0,0,.453,1.972,3.256,3.256,0,0,0,1.224,1.315A3.4,3.4,0,0,0,432.071,35.934Z" transform="translate(-327.326 -19.951)" fill="#1e1f21"/>
    <path id="Path_14422" data-name="Path 14422" d="M496.08,29.879v2.9h5.577V33.96a1.655,1.655,0,0,1-1.632,1.7H496.08V40.15h-1.95a1.655,1.655,0,0,1-1.632-1.7h0V27h9.908v1.179a1.655,1.655,0,0,1-1.632,1.7Z" transform="translate(-380.838 -20.879)" fill="#1e1f21"/>
    <path id="Path_14423" data-name="Path 14423" d="M549.177,29.947H545.3V27h11.336v1.247a1.67,1.67,0,0,1-1.632,1.7h-2.222v10.2h-1.95a1.655,1.655,0,0,1-1.632-1.7h0v-8.5Z" transform="translate(-421.67 -20.879)" fill="#1e1f21"/>
    <path id="Path_14424" data-name="Path 14424" d="M604.9,27.34h-.7V27h1.791v.34h-.7v1.882H604.9Z" transform="translate(-467.216 -20.879)" fill="#1e1f21"/>
    <path id="Path_14425" data-name="Path 14425" d="M615.327,29.222V27.748l-.68,1.224h-.181l-.68-1.2v1.451H613.4V27h.317l.839,1.474L615.372,27h.318v2.222Z" transform="translate(-474.33 -20.879)" fill="#1e1f21"/>
  </g>
</svg>
