<svg xmlns="http://www.w3.org/2000/svg" width="83" height="114.754" viewBox="0 0 83 114.754">
  <g id="ctv-purple" transform="translate(-580.731 -1272.246)">
    <path id="cc" d="M29.5,0l11,4L50,13.5,54.5,21l11,3,8,4L81,34.5l2,4v7L77.5,53l-29,14L37,76.5l-9,15,11,5L32.5,104l-13,10L17,111.5l-5-22L13.5,88h4L24,90l4-9.5L38.5,68l10-7,25-11L77,46.5l1-7L73.5,34l-9-5L57,27l2,8.5v5L55.5,46l-2,1-7-3L33,30.5l-2-3v-5L36.5,19h9l1.5.5-1-3L37.5,8l-4-2h-7l-6,3L13,16.5,4.5,28,1,25.5l4-7L16.5,6l6-4ZM38,24l-2,2,1,2L52,41l2-1L51,25ZM20,94v5l1-2Zm7,3-3,5,1,2,6-5Z" transform="translate(579.731 1272.579)" fill="#cf6cfb"/>
    <path id="rgba_206_107_250_0.95_" data-name="rgba(206,107,250,0.95)" d="M43.5,6l2,3Z" transform="translate(579.731 1272.292)" fill="rgba(206,107,250,0.95)"/>
    <path id="rgba_206_107_250_0.95_2" data-name="rgba(206,107,250,0.95)" d="M36.5,34l7,8Z" transform="translate(579.731 1272.494)" fill="rgba(206,107,250,0.95)"/>
    <path id="rgba_206_107_250_0.95_3" data-name="rgba(206,107,250,0.95)" d="M74.5,48l-1,2Z" transform="translate(579.731 1272.571)" fill="rgba(206,107,250,0.95)"/>
    <path id="rgba_206_107_250_0.95_4" data-name="rgba(206,107,250,0.95)" d="M40.5,66l-1,2Z" transform="translate(579.731 1272.691)" fill="rgba(206,107,250,0.95)"/>
    <path id="rgba_206_107_250_0.95_5" data-name="rgba(206,107,250,0.95)" d="M42.5,71l-2,3Z" transform="translate(579.731 1272.728)" fill="rgba(206,107,250,0.95)"/>
    <path id="rgba_206_107_250_0.95_6" data-name="rgba(206,107,250,0.95)" d="M33.5,73l-1,2Z" transform="translate(579.731 1272.738)" fill="rgba(206,107,250,0.95)"/>
    <path id="rgba_206_107_250_0.95_7" data-name="rgba(206,107,250,0.95)" d="M30.5,98l-2,3Z" transform="translate(579.731 1272.909)" fill="rgba(206,107,250,0.95)"/>
    <path id="rgba_206_107_250_0.95_8" data-name="rgba(206,107,250,0.95)" d="M38.5,98l-2,3Z" transform="translate(579.731 1272.909)" fill="rgba(206,107,250,0.95)"/>
    <path id="rgba_206_107_250_0.95_9" data-name="rgba(206,107,250,0.95)" d="M31.5,104l-1,2Z" transform="translate(579.731 1272.946)" fill="rgba(206,107,250,0.95)"/>
    <path id="rgba_206_107_250_0.95_10" data-name="rgba(206,107,250,0.95)" d="M25.5,109l-1,2Z" transform="translate(579.731 1272.98)" fill="rgba(206,107,250,0.95)"/>
    <path id="rgba_206_107_250_0.95_11" data-name="rgba(206,107,250,0.95)" d="M17.5,112l1,2Z" transform="translate(579.731 1273)" fill="rgba(206,107,250,0.95)"/>
    <path id="rgba_206_107_250_0.95_12" data-name="rgba(206,107,250,0.95)" d="M22.5,112l-1,2Z" transform="translate(579.731 1273)" fill="rgba(206,107,250,0.95)"/>
    <path id="rgba_206_107_253_0.25_" data-name="rgba(206,107,253,0.25)" d="M17.5,4l-1,2Z" transform="translate(579.731 1272.275)" fill="rgba(206,107,253,0.25)"/>
    <path id="rgba_206_107_253_0.25_2" data-name="rgba(206,107,253,0.25)" d="M43.5,5l5,6Z" transform="translate(579.731 1272.294)" fill="rgba(206,107,253,0.25)"/>
    <path id="rgba_206_107_253_0.25_3" data-name="rgba(206,107,253,0.25)" d="M27.5,6l2.5.5L27.5,7Z" transform="translate(579.731 1272.286)" fill="rgba(206,107,253,0.25)"/>
    <path id="rgba_206_107_253_0.25_4" data-name="rgba(206,107,253,0.25)" d="M36.5,8l1,2Z" transform="translate(579.731 1272.302)" fill="rgba(206,107,253,0.25)"/>
    <path id="rgba_206_107_253_0.25_5" data-name="rgba(206,107,253,0.25)" d="M21.5,9l-4,5Z" transform="translate(579.731 1272.318)" fill="rgba(206,107,253,0.25)"/>
    <path id="rgba_206_107_253_0.25_6" data-name="rgba(206,107,253,0.25)" d="M40.5,11l1,2Z" transform="translate(579.731 1272.322)" fill="rgba(206,107,253,0.25)"/>
    <path id="rgba_206_107_253_0.25_7" data-name="rgba(206,107,253,0.25)" d="M9.5,12l-3,4Z" transform="translate(579.731 1272.335)" fill="rgba(206,107,253,0.25)"/>
    <path id="rgba_206_107_253_0.25_8" data-name="rgba(206,107,253,0.25)" d="M15.5,15l-3,4Z" transform="translate(579.731 1272.355)" fill="rgba(206,107,253,0.25)"/>
    <path id="rgba_206_107_253_0.25_9" data-name="rgba(206,107,253,0.25)" d="M51.5,15l1,2Z" transform="translate(579.731 1272.349)" fill="rgba(206,107,253,0.25)"/>
    <path id="rgba_206_107_253_0.25_10" data-name="rgba(206,107,253,0.25)" d="M44.5,16l1,2Z" transform="translate(579.731 1272.356)" fill="rgba(206,107,253,0.25)"/>
    <path id="rgba_206_107_253_0.25_11" data-name="rgba(206,107,253,0.25)" d="M38.5,18l3.5.5-3.5.5Z" transform="translate(579.731 1272.366)" fill="rgba(206,107,253,0.25)"/>
    <path id="rgba_206_107_253_0.25_12" data-name="rgba(206,107,253,0.25)" d="M3.5,20l-1,2Z" transform="translate(579.731 1272.383)" fill="rgba(206,107,253,0.25)"/>
    <path id="rgba_206_107_253_0.25_13" data-name="rgba(206,107,253,0.25)" d="M10.5,21l-1,2Z" transform="translate(579.731 1272.389)" fill="rgba(206,107,253,0.25)"/>
    <path id="rgba_206_107_253_0.25_14" data-name="rgba(206,107,253,0.25)" d="M37.5,26l1,2Z" transform="translate(579.731 1272.423)" fill="rgba(206,107,253,0.25)"/>
    <path id="rgba_206_107_253_0.25_15" data-name="rgba(206,107,253,0.25)" d="M75.5,28l1,2Z" transform="translate(579.731 1272.436)" fill="rgba(206,107,253,0.25)"/>
    <path id="rgba_206_107_253_0.25_16" data-name="rgba(206,107,253,0.25)" d="M31.5,29l1,2Z" transform="translate(579.731 1272.443)" fill="rgba(206,107,253,0.25)"/>
    <path id="rgba_206_107_253_0.25_17" data-name="rgba(206,107,253,0.25)" d="M40.5,30l6,7Z" transform="translate(579.731 1272.464)" fill="rgba(206,107,253,0.25)"/>
    <path id="rgba_206_107_253_0.25_18" data-name="rgba(206,107,253,0.25)" d="M69.5,32l1,2Z" transform="translate(579.731 1272.463)" fill="rgba(206,107,253,0.25)"/>
    <path id="rgba_206_107_253_0.25_19" data-name="rgba(206,107,253,0.25)" d="M34.5,33l9,10Z" transform="translate(579.731 1272.493)" fill="rgba(206,107,253,0.25)"/>
    <path id="rgba_206_107_253_0.25_20" data-name="rgba(206,107,253,0.25)" d="M72.5,34l4,5Z" transform="translate(579.731 1272.485)" fill="rgba(206,107,253,0.25)"/>
    <path id="rgba_206_107_253_0.25_21" data-name="rgba(206,107,253,0.25)" d="M81.5,34l1,2Z" transform="translate(579.731 1272.477)" fill="rgba(206,107,253,0.25)"/>
    <path id="rgba_206_107_253_0.25_22" data-name="rgba(206,107,253,0.25)" d="M59.5,37l.5,2.5H59Z" transform="translate(579.731 1272.498)" fill="rgba(206,107,253,0.25)"/>
    <path id="rgba_206_107_253_0.25_23" data-name="rgba(206,107,253,0.25)" d="M49.5,38l1,2Z" transform="translate(579.731 1272.503)" fill="rgba(206,107,253,0.25)"/>
    <path id="rgba_206_107_253_0.25_24" data-name="rgba(206,107,253,0.25)" d="M77.5,41l.5,2.5H77Z" transform="translate(579.731 1272.525)" fill="rgba(206,107,253,0.25)"/>
    <path id="rgba_206_107_253_0.25_25" data-name="rgba(206,107,253,0.25)" d="M46.5,44l1,2Z" transform="translate(579.731 1272.544)" fill="rgba(206,107,253,0.25)"/>
    <path id="rgba_206_107_253_0.25_26" data-name="rgba(206,107,253,0.25)" d="M57.5,45l-1,2L55,46.5Z" transform="translate(579.731 1272.55)" fill="rgba(206,107,253,0.25)"/>
    <path id="rgba_206_107_253_0.25_27" data-name="rgba(206,107,253,0.25)" d="M76.5,45l-3,4Z" transform="translate(579.731 1272.556)" fill="rgba(206,107,253,0.25)"/>
    <path id="rgba_206_107_253_0.25_28" data-name="rgba(206,107,253,0.25)" d="M82.5,48l-1,2Z" transform="translate(579.731 1272.571)" fill="rgba(206,107,253,0.25)"/>
    <path id="rgba_206_107_253_0.25_29" data-name="rgba(206,107,253,0.25)" d="M77.5,53l-1,2Z" transform="translate(579.731 1272.604)" fill="rgba(206,107,253,0.25)"/>
    <path id="rgba_206_107_253_0.25_30" data-name="rgba(206,107,253,0.25)" d="M46.5,61l-1,2Z" transform="translate(579.731 1272.658)" fill="rgba(206,107,253,0.25)"/>
    <path id="rgba_206_107_253_0.25_31" data-name="rgba(206,107,253,0.25)" d="M43.5,63l-1,2Z" transform="translate(579.731 1272.671)" fill="rgba(206,107,253,0.25)"/>
    <path id="rgba_206_107_253_0.25_32" data-name="rgba(206,107,253,0.25)" d="M40.5,65l-4,5Z" transform="translate(579.731 1272.693)" fill="rgba(206,107,253,0.25)"/>
    <path id="rgba_206_107_253_0.25_33" data-name="rgba(206,107,253,0.25)" d="M49.5,67l-1,2Z" transform="translate(579.731 1272.698)" fill="rgba(206,107,253,0.25)"/>
    <path id="rgba_206_107_253_0.25_34" data-name="rgba(206,107,253,0.25)" d="M46.5,69l-1,2Z" transform="translate(579.731 1272.711)" fill="rgba(206,107,253,0.25)"/>
    <path id="rgba_206_107_253_0.25_35" data-name="rgba(206,107,253,0.25)" d="M43.5,71l-6,7Z" transform="translate(579.731 1272.74)" fill="rgba(206,107,253,0.25)"/>
    <path id="rgba_206_107_253_0.25_36" data-name="rgba(206,107,253,0.25)" d="M33.5,72l-2,3Z" transform="translate(579.731 1272.734)" fill="rgba(206,107,253,0.25)"/>
    <path id="rgba_206_107_253_0.25_37" data-name="rgba(206,107,253,0.25)" d="M29.5,77l-1,2Z" transform="translate(579.731 1272.765)" fill="rgba(206,107,253,0.25)"/>
    <path id="rgba_206_107_253_0.25_38" data-name="rgba(206,107,253,0.25)" d="M35.5,80l-1,2Z" transform="translate(579.731 1272.785)" fill="rgba(206,107,253,0.25)"/>
    <path id="rgba_206_107_253_0.25_39" data-name="rgba(206,107,253,0.25)" d="M26.5,82l-1,2Z" transform="translate(579.731 1272.799)" fill="rgba(206,107,253,0.25)"/>
    <path id="rgba_206_107_253_0.25_40" data-name="rgba(206,107,253,0.25)" d="M33.5,83l-1,2Z" transform="translate(579.731 1272.805)" fill="rgba(206,107,253,0.25)"/>
    <path id="rgba_206_107_253_0.25_41" data-name="rgba(206,107,253,0.25)" d="M11.5,89l.5,2.5H11Z" transform="translate(579.731 1272.847)" fill="rgba(206,107,253,0.25)"/>
    <path id="rgba_206_107_253_0.25_42" data-name="rgba(206,107,253,0.25)" d="M19,95l2,.5-2,1Z" transform="translate(579.731 1272.884)" fill="rgba(206,107,253,0.25)"/>
    <path id="rgba_206_107_253_0.25_43" data-name="rgba(206,107,253,0.25)" d="M39.5,96l.5,2.5-5,4,4-4Z" transform="translate(579.731 1272.906)" fill="rgba(206,107,253,0.25)"/>
    <path id="rgba_206_107_253_0.25_44" data-name="rgba(206,107,253,0.25)" d="M29.5,98l-3,4-1-2,1,1Z" transform="translate(579.731 1272.912)" fill="rgba(206,107,253,0.25)"/>
    <path id="rgba_206_107_253_0.25_45" data-name="rgba(206,107,253,0.25)" d="M32.5,104l-3,4Z" transform="translate(579.731 1272.952)" fill="rgba(206,107,253,0.25)"/>
    <path id="rgba_206_107_253_0.25_46" data-name="rgba(206,107,253,0.25)" d="M26.5,109l-4,5Z" transform="translate(579.731 1272.989)" fill="rgba(206,107,253,0.25)"/>
    <path id="rgba_0_0_0_0_" data-name="rgba(0,0,0,0)" d="M37.5,25h8L50,26l3,9.5V40l-4.5-2L39,28.5Z" transform="translate(579.731 1272.454)" fill="rgba(0,0,0,0)"/>
    <path id="rgba_0_0_0_0_2" data-name="rgba(0,0,0,0)" d="M26,98l3,.5-4,3Z" transform="translate(579.731 1272.911)" fill="rgba(0,0,0,0)"/>
    <path id="rgba_206_107_250_0.73_" data-name="rgba(206,107,250,0.73)" d="M26.5,0,29,.5,26.5,1Z" transform="translate(579.731 1272.246)" fill="rgba(206,107,250,0.73)"/>
    <path id="rgba_206_107_250_0.73_2" data-name="rgba(206,107,250,0.73)" d="M31.5,0,34,.5,31.5,1Z" transform="translate(579.731 1272.246)" fill="rgba(206,107,250,0.73)"/>
    <path id="rgba_206_107_250_0.73_3" data-name="rgba(206,107,250,0.73)" d="M19.5,3l-1,2Z" transform="translate(579.731 1272.269)" fill="rgba(206,107,250,0.73)"/>
    <path id="rgba_206_107_250_0.73_4" data-name="rgba(206,107,250,0.73)" d="M41.5,4l1,2Z" transform="translate(579.731 1272.275)" fill="rgba(206,107,250,0.73)"/>
    <path id="rgba_206_107_250_0.73_5" data-name="rgba(206,107,250,0.73)" d="M15.5,6l-5,6Z" transform="translate(579.731 1272.3)" fill="rgba(206,107,250,0.73)"/>
    <path id="rgba_206_107_250_0.73_6" data-name="rgba(206,107,250,0.73)" d="M38.5,9l1,2Z" transform="translate(579.731 1272.309)" fill="rgba(206,107,250,0.73)"/>
    <path id="rgba_206_107_250_0.73_7" data-name="rgba(206,107,250,0.73)" d="M46.5,9l3,4Z" transform="translate(579.731 1272.315)" fill="rgba(206,107,250,0.73)"/>
    <path id="rgba_206_107_250_0.73_8" data-name="rgba(206,107,250,0.73)" d="M19.5,10l-5,6Z" transform="translate(579.731 1272.327)" fill="rgba(206,107,250,0.73)"/>
    <path id="rgba_206_107_250_0.73_9" data-name="rgba(206,107,250,0.73)" d="M42.5,13l2,3Z" transform="translate(579.731 1272.339)" fill="rgba(206,107,250,0.73)"/>
    <path id="rgba_206_107_250_0.73_10" data-name="rgba(206,107,250,0.73)" d="M7.5,15l-2,3Z" transform="translate(579.731 1272.352)" fill="rgba(206,107,250,0.73)"/>
    <path id="rgba_206_107_250_0.73_11" data-name="rgba(206,107,250,0.73)" d="M11.5,19l-1,2Z" transform="translate(579.731 1272.376)" fill="rgba(206,107,250,0.73)"/>
    <path id="rgba_206_107_250_0.73_12" data-name="rgba(206,107,250,0.73)" d="M53.5,19l1,2Z" transform="translate(579.731 1272.376)" fill="rgba(206,107,250,0.73)"/>
    <path id="rgba_206_107_250_0.73_13" data-name="rgba(206,107,250,0.73)" d="M32.5,20l-1,2Z" transform="translate(579.731 1272.383)" fill="rgba(206,107,250,0.73)"/>
    <path id="rgba_206_107_250_0.73_14" data-name="rgba(206,107,250,0.73)" d="M30.5,23l.5,3.5H30Z" transform="translate(579.731 1272.407)" fill="rgba(206,107,250,0.73)"/>
    <path id="rgba_206_107_250_0.73_15" data-name="rgba(206,107,250,0.73)" d="M38.5,24l3.5.5-3.5.5Z" transform="translate(579.731 1272.407)" fill="rgba(206,107,250,0.73)"/>
    <path id="rgba_206_107_250_0.73_16" data-name="rgba(206,107,250,0.73)" d="M7.5,25l-1,2Z" transform="translate(579.731 1272.416)" fill="rgba(206,107,250,0.73)"/>
    <path id="rgba_206_107_250_0.73_17" data-name="rgba(206,107,250,0.73)" d="M48.5,25,51,26.5,49.5,26Z" transform="translate(579.731 1272.415)" fill="rgba(206,107,250,0.73)"/>
    <path id="rgba_206_107_250_0.73_18" data-name="rgba(206,107,250,0.73)" d="M1.5,26l1,2Z" transform="translate(579.731 1272.423)" fill="rgba(206,107,250,0.73)"/>
    <path id="rgba_206_107_250_0.73_19" data-name="rgba(206,107,250,0.73)" d="M37.5,27l2,3Z" transform="translate(579.731 1272.433)" fill="rgba(206,107,250,0.73)"/>
    <path id="rgba_206_107_250_0.73_20" data-name="rgba(206,107,250,0.73)" d="M57,27l2,.5-2,1Z" transform="translate(579.731 1272.428)" fill="rgba(206,107,250,0.73)"/>
    <path id="rgba_206_107_250_0.73_21" data-name="rgba(206,107,250,0.73)" d="M77.5,30l3,4Z" transform="translate(579.731 1272.456)" fill="rgba(206,107,250,0.73)"/>
    <path id="rgba_206_107_250_0.73_22" data-name="rgba(206,107,250,0.73)" d="M33.5,31l2,3Z" transform="translate(579.731 1272.459)" fill="rgba(206,107,250,0.73)"/>
    <path id="rgba_206_107_250_0.73_23" data-name="rgba(206,107,250,0.73)" d="M74.5,35l1,2Z" transform="translate(579.731 1272.483)" fill="rgba(206,107,250,0.73)"/>
    <path id="rgba_206_107_250_0.73_24" data-name="rgba(206,107,250,0.73)" d="M47.5,37l1,2Z" transform="translate(579.731 1272.497)" fill="rgba(206,107,250,0.73)"/>
    <path id="rgba_206_107_250_0.73_25" data-name="rgba(206,107,250,0.73)" d="M53.5,37l.5,2.5H53Z" transform="translate(579.731 1272.498)" fill="rgba(206,107,250,0.73)"/>
    <path id="rgba_206_107_250_0.73_26" data-name="rgba(206,107,250,0.73)" d="M83.5,39l.5,5.5H83Z" transform="translate(579.731 1272.52)" fill="rgba(206,107,250,0.73)"/>
    <path id="rgba_206_107_250_0.73_27" data-name="rgba(206,107,250,0.73)" d="M44.5,42l1,2Z" transform="translate(579.731 1272.53)" fill="rgba(206,107,250,0.73)"/>
    <path id="rgba_206_107_250_0.73_28" data-name="rgba(206,107,250,0.73)" d="M57.5,44l-1,2Z" transform="translate(579.731 1272.544)" fill="rgba(206,107,250,0.73)"/>
    <path id="rgba_206_107_250_0.73_29" data-name="rgba(206,107,250,0.73)" d="M76.5,46l-1,2Z" transform="translate(579.731 1272.557)" fill="rgba(206,107,250,0.73)"/>
    <path id="rgba_206_107_250_0.73_30" data-name="rgba(206,107,250,0.73)" d="M80.5,50l-2,3Z" transform="translate(579.731 1272.587)" fill="rgba(206,107,250,0.73)"/>
    <path id="rgba_206_107_250_0.73_31" data-name="rgba(206,107,250,0.73)" d="M35.5,70l-1,2Z" transform="translate(579.731 1272.718)" fill="rgba(206,107,250,0.73)"/>
    <path id="rgba_206_107_250_0.73_32" data-name="rgba(206,107,250,0.73)" d="M39.5,74l-1,2Z" transform="translate(579.731 1272.745)" fill="rgba(206,107,250,0.73)"/>
    <path id="rgba_206_107_250_0.73_33" data-name="rgba(206,107,250,0.73)" d="M31.5,75l-1,2Z" transform="translate(579.731 1272.752)" fill="rgba(206,107,250,0.73)"/>
    <path id="rgba_206_107_250_0.73_34" data-name="rgba(206,107,250,0.73)" d="M36.5,78l-1,2Z" transform="translate(579.731 1272.772)" fill="rgba(206,107,250,0.73)"/>
    <path id="rgba_206_107_250_0.73_35" data-name="rgba(206,107,250,0.73)" d="M13.5,87l2.5.5L12.5,89Z" transform="translate(579.731 1272.832)" fill="rgba(206,107,250,0.73)"/>
    <path id="rgba_206_107_250_0.73_36" data-name="rgba(206,107,250,0.73)" d="M37.5,94l1,2Z" transform="translate(579.731 1272.879)" fill="rgba(206,107,250,0.73)"/>
    <path id="rgba_206_107_250_0.73_37" data-name="rgba(206,107,250,0.73)" d="M20.5,96l-1,2Z" transform="translate(579.731 1272.892)" fill="rgba(206,107,250,0.73)"/>
    <path id="rgba_206_107_250_0.73_38" data-name="rgba(206,107,250,0.73)" d="M35.5,101l-2,3Z" transform="translate(579.731 1272.929)" fill="rgba(206,107,250,0.73)"/>
    <path id="rgba_206_107_250_0.73_39" data-name="rgba(206,107,250,0.73)" d="M29.5,106l-2,3Z" transform="translate(579.731 1272.963)" fill="rgba(206,107,250,0.73)"/>
  </g>
</svg>
