<svg id="flitaa-logo-w" xmlns="http://www.w3.org/2000/svg" width="80.054" height="25.597" viewBox="0 0 80.054 25.597">
  <g id="_2787931415712" transform="translate(0 0)">
    <g id="Group_6128" data-name="Group 6128" transform="translate(0)">
      <path id="Path_9555" data-name="Path 9555" d="M9.163,1.517a5.152,5.152,0,0,1,7.287,0L24.1,9.163a5.152,5.152,0,0,1,0,7.287L16.45,24.1a5.153,5.153,0,0,1-7.287,0L1.517,16.449a5.153,5.153,0,0,1,0-7.287L9.163,1.517Z" transform="translate(-0.008 -0.007)" fill="#fff"/>
      <g id="Group_6127" data-name="Group 6127" transform="translate(6.226 6.096)">
        <path id="Path_9556" data-name="Path 9556" d="M1157.742,1127.16h.02a6.575,6.575,0,0,1,6.051,4.057,6.559,6.559,0,0,1,.5,2.495v.041a6.561,6.561,0,0,1-.5,2.495,6.5,6.5,0,0,1-.284.6h-11.575a6.373,6.373,0,0,1-.283-.6,6.574,6.574,0,0,1-.5-2.495v-.041a6.574,6.574,0,0,1,1.925-4.627,6.583,6.583,0,0,1,1-.817,6.578,6.578,0,0,1,3.631-1.108Z" transform="translate(-1151.17 -1127.16)" fill="#1e1f21"/>
      </g>
      <path id="Path_9557" data-name="Path 9557" d="M2372.18,1291.851H2370.8a4.62,4.62,0,0,0-4.348-4.583v-1.258A5.725,5.725,0,0,1,2372.18,1291.851Z" transform="translate(-2353.652 -1279.055)" fill="#fff"/>
    </g>
    <g id="Group_6129" data-name="Group 6129" transform="translate(29.806 5.028)">
      <path id="Path_9558" data-name="Path 9558" d="M5518.741,931.938c-.18-.014-.508-.021-.979-.021a2.285,2.285,0,0,0-1.365.4,1.387,1.387,0,0,0-.552,1.208v.208h2.75v2.333h-2.75V945h-2.979v-8.937h-1.459l.833-2.333h.626v-.25a3.726,3.726,0,0,1,1-2.739,3.811,3.811,0,0,1,2.835-1.01l2.04.021ZM5519.783,945V930l2.958,1.042V945Zm4.916,0V933.73h2.958V945Zm9.1-14.1v2.833h2.312v2.333H5533.8V945h-2.979v-8.937h-1.771l.832-2.333h.938v-3.875Zm11.6,12.416a4.337,4.337,0,0,1-1.5,1.479,4.11,4.11,0,0,1-2.042.479,5.07,5.07,0,0,1-2.678-.74,5.366,5.366,0,0,1-1.948-2.094,6.42,6.42,0,0,1-.729-3.083,6.492,6.492,0,0,1,.709-3.083,5.223,5.223,0,0,1,1.938-2.073,5.153,5.153,0,0,1,2.708-.74,4.529,4.529,0,0,1,2.032.448,3.69,3.69,0,0,1,1.468,1.3h.063V933.73l2.979,1.042V945h-2.937v-1.687h-.062Zm-2.958-.646a2.811,2.811,0,0,0,1.531-.427,2.959,2.959,0,0,0,1.063-1.177,3.685,3.685,0,0,0,.386-1.708,3.378,3.378,0,0,0-.844-2.364,2.924,2.924,0,0,0-4.271,0,3.377,3.377,0,0,0-.843,2.364,3.673,3.673,0,0,0,.386,1.708,2.957,2.957,0,0,0,1.062,1.177A2.813,2.813,0,0,0,5542.448,942.667Zm16.208.646a4.345,4.345,0,0,1-1.5,1.479,4.115,4.115,0,0,1-2.042.479,5.062,5.062,0,0,1-2.677-.74,5.354,5.354,0,0,1-1.949-2.094,6.977,6.977,0,0,1-.021-6.166,5.226,5.226,0,0,1,1.938-2.073,5.148,5.148,0,0,1,2.708-.74,4.52,4.52,0,0,1,2.03.448,3.692,3.692,0,0,1,1.469,1.3h.063V933.73l2.979,1.042V945h-2.938v-1.687h-.062Zm-2.958-.646a2.808,2.808,0,0,0,1.53-.427,2.968,2.968,0,0,0,1.063-1.177,3.7,3.7,0,0,0,.386-1.708,3.378,3.378,0,0,0-.845-2.364,2.924,2.924,0,0,0-4.271,0,3.377,3.377,0,0,0-.843,2.364,3.685,3.685,0,0,0,.386,1.708,2.945,2.945,0,0,0,1.063,1.177A2.806,2.806,0,0,0,5555.7,942.667Z" transform="translate(-5511.408 -929.73)" fill="#fff"/>
      <path id="Path_9559" data-name="Path 9559" d="M7939.707,933.083a1.574,1.574,0,0,1-1.168-.49,1.687,1.687,0,0,1,0-2.354,1.635,1.635,0,0,1,2.333,0,1.684,1.684,0,0,1,0,2.354A1.568,1.568,0,0,1,7939.707,933.083Z" transform="translate(-7924.936 -929.75)" fill="#fff"/>
    </g>
  </g>
</svg>
