<svg id="hh-logo-w" xmlns="http://www.w3.org/2000/svg" width="92.882" height="25.597" viewBox="0 0 92.882 25.597">
  <path id="Path_14381" data-name="Path 14381" d="M24.99,7.68V20.15H.05V7.68H8.258v6.235L12.519,7.68l4.254,6.235V7.68Z" transform="translate(-0.046 -7.02)" fill="#fff"/>
  <path id="Path_14382" data-name="Path 14382" d="M24.94,183.22v9.839H16.723v-6.235H8.208v6.235H0V183.22Z" transform="translate(0 -167.463)" fill="#fff"/>
  <path id="Path_14383" data-name="Path 14383" d="M360.8,9.08h2.064V20.321H360.8V15.731h-7.369v4.591H351.37V9.08h2.064v4.59H360.8Z" transform="translate(-321.152 -8.299)" fill="#fff"/>
  <path id="Path_14384" data-name="Path 14384" d="M508.7,34.49h2.045v6.9a2.158,2.158,0,0,1-2.154,2.155H503.7a2.064,2.064,0,0,1-1.53-.632,2.088,2.088,0,0,1-.624-1.523v-6.9h2.045v6.9a.1.1,0,0,0,.109.109h4.887a.1.1,0,0,0,.109-.11Z" transform="translate(-458.413 -31.524)" fill="#fff"/>
  <path id="Path_14385" data-name="Path 14385" d="M635.1,36.685v.39h-2.045v-.39a.1.1,0,0,0-.109-.109h-4.883a.1.1,0,0,0-.109.109v1.25c0,.063.036.094.109.094h4.888a2.145,2.145,0,0,1,2.154,2.15v1.249a2.092,2.092,0,0,1-.624,1.523,2.07,2.07,0,0,1-1.53.632h-4.888a2.158,2.158,0,0,1-2.154-2.155v-.385h2.045v.39a.1.1,0,0,0,.109.109h4.888a.1.1,0,0,0,.109-.11V40.183c0-.062-.037-.094-.109-.094h-4.888a2.158,2.158,0,0,1-2.159-2.154v-1.25a2.159,2.159,0,0,1,2.154-2.15h4.887a2.064,2.064,0,0,1,1.53.633A2.087,2.087,0,0,1,635.1,36.685Z" transform="translate(-572.072 -31.565)" fill="#fff"/>
  <path id="Path_14386" data-name="Path 14386" d="M758.571,2.966a2.175,2.175,0,0,1,2.155,2.15v6.9H758.68v-6.9a.1.1,0,0,0-.109-.109h-4.887a.1.1,0,0,0-.109.109v6.9H751.53V0h2.045V2.966Z" transform="translate(-686.897)" fill="#fff"/>
  <path id="Path_14387" data-name="Path 14387" d="M360.8,166.79h2.064v11.241H360.8v-4.59h-7.369v4.59H351.37V166.79h2.064v4.59H360.8Z" transform="translate(-321.152 -152.446)" fill="#fff"/>
  <path id="Path_14388" data-name="Path 14388" d="M506.964,192.2h4.887a2.159,2.159,0,0,1,2.155,2.155V199.1a2.158,2.158,0,0,1-2.155,2.154h-4.887a2.158,2.158,0,0,1-2.154-2.154v-4.746A2.159,2.159,0,0,1,506.964,192.2Zm4.887,2.047h-4.887a.1.1,0,0,0-.109.109V199.1a.1.1,0,0,0,.109.109h4.887a.1.1,0,0,0,.11-.109v-4.747a.1.1,0,0,0-.11-.108Z" transform="translate(-461.396 -175.67)" fill="#fff"/>
  <path id="Path_14389" data-name="Path 14389" d="M642.224,192.2a2.161,2.161,0,0,1,2.155,2.155v6.9h-2.027v-6.9c0-.073-.041-.109-.125-.109h-3.406c-.063,0-.094.036-.094.109v6.9h-2.064v-6.9c0-.073-.031-.109-.094-.109H633.15a.1.1,0,0,0-.109.109v6.9H631V192.2Z" transform="translate(-576.733 -175.67)" fill="#fff"/>
  <path id="Path_14390" data-name="Path 14390" d="M807.988,192.2a2.16,2.16,0,0,1,2.155,2.155v3.4h-7.151V199.1a.1.1,0,0,0,.109.109h7.042v2.045H803.1a2.158,2.158,0,0,1-2.154-2.154v-4.746A2.159,2.159,0,0,1,803.1,192.2Zm-5,3.5H808.1v-1.342a.1.1,0,0,0-.109-.109H803.1a.1.1,0,0,0-.109.109Z" transform="translate(-732.067 -175.67)" fill="#fff"/>
  <path id="Path_14391" data-name="Path 14391" d="M931.6,194.355v.39h-2.045v-.39a.1.1,0,0,0-.109-.109H924.56a.1.1,0,0,0-.109.109V195.6c0,.063.037.094.109.094h4.887a2.145,2.145,0,0,1,2.15,2.154v1.25a2.145,2.145,0,0,1-2.15,2.154H924.56a2.158,2.158,0,0,1-2.15-2.154v-.39h2.045v.39a.1.1,0,0,0,.109.109h4.887a.1.1,0,0,0,.109-.109v-1.25c0-.062-.037-.093-.109-.093H924.56a2.159,2.159,0,0,1-2.15-2.155v-1.249a2.159,2.159,0,0,1,2.15-2.155h4.887a2.15,2.15,0,0,1,2.15,2.155Z" transform="translate(-843.081 -175.67)" fill="#fff"/>
  <path id="Path_14392" data-name="Path 14392" d="M1045.68,192H1047v.148h-.583v1.168h-.148v-1.172h-.585Z" transform="translate(-955.75 -175.488)" fill="#fff"/>
  <path id="Path_14393" data-name="Path 14393" d="M1063.311,192.6l.546-.651h.2v1.316h-.148v-1.147l-.6.715-.6-.715v1.147h-.148v-1.312h.2Z" transform="translate(-971.178 -175.442)" fill="#fff"/>
</svg>
