<svg xmlns="http://www.w3.org/2000/svg" width="41.186" height="24.59" viewBox="0 0 41.186 24.59">
  <g id="hop-logo-w" transform="translate(0)">
    <g id="rccg-logo-w" transform="translate(5.441 14.319)">
      <ellipse id="Ellipse_212" data-name="Ellipse 212" cx="2.203" cy="2.202" rx="2.203" ry="2.202" transform="translate(0)" fill="#fff"/>
      <path id="Path_14742" data-name="Path 14742" d="M2.738-1023.376a2.132,2.132,0,0,0-.626.108,2.08,2.08,0,0,0-.69.394,2.123,2.123,0,0,0-.419.5,2.293,2.293,0,0,0-.136.269l-.026.07a2.086,2.086,0,0,0-.121.9c0,.023.006.051.007.062s0,.037.008.058.007.043.008.05c0,.029.023.113.036.162a2.06,2.06,0,0,0,.279.617,1.909,1.909,0,0,0,.254.307,1.955,1.955,0,0,0,.543.392,2.017,2.017,0,0,0,.812.211,2.071,2.071,0,0,0,.453-.03,2.032,2.032,0,0,0,.932-.427,2.713,2.713,0,0,0,.3-.3,2.086,2.086,0,0,0,.347-.623,2.307,2.307,0,0,0,.079-.306c0-.008,0-.029.008-.047.006-.034.006-.036.016-.136a2.094,2.094,0,0,0-.027-.547,2.051,2.051,0,0,0-.226-.627,2.184,2.184,0,0,0-.21-.307,2.08,2.08,0,0,0-.54-.461c-.052-.031-.171-.093-.217-.112a1.847,1.847,0,0,0-.174-.066,1.985,1.985,0,0,0-.529-.1A1.413,1.413,0,0,0,2.738-1023.376Zm.165.033a2.043,2.043,0,0,1,.655.158,2.2,2.2,0,0,1,.406.234,2.084,2.084,0,0,1,.484.51,2.008,2.008,0,0,1,.332.955,2.874,2.874,0,0,1,0,.322,2,2,0,0,1-.2.725,2,2,0,0,1-.488.636,2.021,2.021,0,0,1-1.17.493,2.75,2.75,0,0,1-.319,0,2.01,2.01,0,0,1-.554-.125,2.036,2.036,0,0,1-1.06-.923,2.057,2.057,0,0,1-.185-.464,2.078,2.078,0,0,1-.046-.764,2.026,2.026,0,0,1,.63-1.218,2.011,2.011,0,0,1,.732-.437,2.042,2.042,0,0,1,.5-.1C2.683-1023.348,2.832-1023.348,2.9-1023.343Z" transform="translate(-0.558 1023.549)" fill="#ed3337"/>
      <path id="Path_14743" data-name="Path 14743" d="M30.873-994.814c-.073.005-.1.008-.159.016a1.941,1.941,0,0,0-1.253.734,1.923,1.923,0,0,0-.382.893,1.643,1.643,0,0,0-.018.17,1.93,1.93,0,0,0,.014.38c.009.06.009.062.018.108a1.925,1.925,0,0,0,.547,1.009,1.926,1.926,0,0,0,.419.314,2.056,2.056,0,0,0,.456.181,2.195,2.195,0,0,0,.264.048l.07.006a2.632,2.632,0,0,0,.284,0l.072-.006c.031,0,.131-.018.176-.027a1.946,1.946,0,0,0,1.473-1.368,2.065,2.065,0,0,0,.062-.314c0-.013,0-.044.006-.068a2.661,2.661,0,0,0,0-.288c0-.024-.005-.056-.006-.07s0-.042-.008-.062-.006-.043-.008-.052a1.908,1.908,0,0,0-.056-.235,1.946,1.946,0,0,0-.687-.982,1.926,1.926,0,0,0-1.173-.39C30.948-994.817,30.9-994.815,30.873-994.814Zm.281.032a1.892,1.892,0,0,1,.78.243,1.916,1.916,0,0,1,.867,1.054,1.946,1.946,0,0,1,.075.305,1.753,1.753,0,0,1,.021.346,1.287,1.287,0,0,1-.015.207,1.911,1.911,0,0,1-.921,1.385,1.913,1.913,0,0,1-1.334.23,1.925,1.925,0,0,1-.771-.343,1.914,1.914,0,0,1-.7-1.019,1.93,1.93,0,0,1-.058-.3,2.237,2.237,0,0,1,0-.436c.01-.073.01-.075.02-.129a1.9,1.9,0,0,1,.526-.991,1.908,1.908,0,0,1,1.232-.557A2.576,2.576,0,0,1,31.155-994.782Z" transform="translate(-28.789 995.106)" fill="#ed3337"/>
      <path id="Path_14744" data-name="Path 14744" d="M478.083-949.8H478v.273h.167v-.057h-.094v-.053h.089v-.057h-.089v-.049h.094v-.031a.263.263,0,0,0,0-.03Z" transform="translate(-475.934 950.274)" fill="#05a859"/>
      <path id="Path_14745" data-name="Path 14745" d="M533.529-948.985c0,.009-.005.039-.009.068s-.009.073-.012.1-.007.056-.007.069v.024l.035,0a.448.448,0,0,0,.142,0,.109.109,0,0,0,.064-.054.134.134,0,0,0-.065-.2,1.029,1.029,0,0,0-.14-.025S533.53-948.993,533.529-948.985Zm.122.067a.058.058,0,0,1,.035.063.093.093,0,0,1-.01.046c-.013.026-.03.035-.067.035a.144.144,0,0,1-.031,0,.2.2,0,0,1,0-.043c0-.022.007-.054.008-.069,0-.044,0-.044.025-.042A.123.123,0,0,1,533.651-948.918Z" transform="translate(-531.212 949.475)" fill="#05a859"/>
      <path id="Path_14746" data-name="Path 14746" d="M382.141-944.891l-.033.008,0,.068c0,.037,0,.079,0,.094s0,.025,0,.02l-.037-.065-.042-.076-.009-.017-.028.006c-.047.01-.044.005-.041.05.009.126.017.229.02.233s.01,0,.034,0,.031-.008.029-.016,0-.025,0-.045c0-.043-.01-.107-.013-.117s.005-.009.009,0,.021.042.043.081c.044.079.037.073.073.064l.015,0,0-.068c0-.037,0-.079.006-.092l0-.024.03.083.031.084a.624.624,0,0,0,.066-.016s-.1-.26-.1-.26Z" transform="translate(-380.256 945.392)" fill="#05a859"/>
      <path id="Path_14747" data-name="Path 14747" d="M315.075-918.968a.482.482,0,0,0-.074.035c0,.005.1.243.105.247a.372.372,0,0,0,.075-.027c.04-.017.074-.031.076-.031l0,0s-.021-.052-.023-.054a.343.343,0,0,0-.045.017c-.033.014-.045.017-.047.013a.145.145,0,0,1-.015-.041l.038-.017.04-.018a.064.064,0,0,0-.008-.028l-.011-.025-.042.018-.041.018-.006-.015c-.015-.035-.018-.031.028-.05l.044-.019a.146.146,0,0,0-.021-.053Z" transform="translate(-313.588 919.597)" fill="#05a859"/>
      <path id="Path_14748" data-name="Path 14748" d="M641.615-917.474a.15.15,0,0,0-.106.088.154.154,0,0,0-.009.062.1.1,0,0,0,.014.064.143.143,0,0,0,.117.072l.029,0,.013-.035c.007-.019.013-.035.013-.036a.066.066,0,0,0-.024,0c-.024.006-.024.006-.048-.006a.064.064,0,0,1-.033-.028.087.087,0,0,1,.059-.123.079.079,0,0,1,.078.044l.005.013.014-.038.015-.037-.014-.012a.148.148,0,0,0-.07-.034l-.026,0A.108.108,0,0,0,641.615-917.474Z" transform="translate(-638.779 918.08)" fill="#05a859"/>
      <path id="Path_14749" data-name="Path 14749" d="M690.893-894.856l-.07.109-.046.071c0,.005,0,.01.025.026l.031.019a.3.3,0,0,0,.033-.047l.03-.047.021.014c.05.032.063.041.063.044a.488.488,0,0,1-.028.047c-.016.024-.028.045-.028.046a.171.171,0,0,0,.029.021c.024.015.03.018.034.013s.145-.221.145-.224a.317.317,0,0,0-.054-.038s-.016.012-.035.043l-.029.045-.042-.027a.334.334,0,0,1-.043-.03.512.512,0,0,1,.028-.047l.028-.044-.029-.019-.031-.019A.475.475,0,0,0,690.893-894.856Z" transform="translate(-687.859 895.595)" fill="#05a859"/>
      <path id="Path_14750" data-name="Path 14750" d="M259.264-890.858a.812.812,0,0,0-.068.046.138.138,0,0,0,.016.03l.07.111.056.089a1.108,1.108,0,0,0,.142-.086.145.145,0,0,0-.015-.026c-.014-.023-.015-.023-.024-.017s-.07.043-.072.043a.1.1,0,0,1-.015-.02l-.012-.021.037-.023.039-.024a.181.181,0,0,0-.029-.047.318.318,0,0,0-.04.023c-.04.025-.037.025-.055-.007l-.008-.014.039-.024.04-.026a.174.174,0,0,0-.03-.049Z" transform="translate(-258.007 891.612)" fill="#05a859"/>
      <path id="Path_14751" data-name="Path 14751" d="M752.852-842.664l-.093.1-.059.062.024.025.024.024.037-.039a.493.493,0,0,1,.039-.039.344.344,0,0,1-.011.061l-.014.061.03.028.03.028,0-.015c0-.008.006-.037.01-.063.007-.048.007-.049.017-.048.055.007.064,0,.09-.02a.081.081,0,0,0,.016-.1.3.3,0,0,0-.055-.062c-.026-.024-.048-.044-.05-.044A.285.285,0,0,0,752.852-842.664Zm.067.068c.018.02.019.032,0,.051s-.033.019-.055,0l-.016-.014.01-.012a.265.265,0,0,1,.041-.042A.081.081,0,0,1,752.919-842.6Z" transform="translate(-749.535 843.597)" fill="#05a859"/>
      <path id="Path_14752" data-name="Path 14752" d="M193.142-840.774a.306.306,0,0,0-.105.074l-.037.036.074.079.094.1.02.021.041-.038a.238.238,0,0,0,.082-.111.084.084,0,0,0,0-.05A.145.145,0,0,0,193.142-840.774Zm.046.068a.1.1,0,0,1,.057.082.122.122,0,0,1-.033.057l-.012.011-.055-.057-.055-.057.014-.012A.082.082,0,0,1,193.188-840.706Z" transform="translate(-192.076 841.681)" fill="#05a859"/>
      <path id="Path_14753" data-name="Path 14753" d="M184.679-840.655a1.353,1.353,0,0,0-.316.06,1.315,1.315,0,0,0-.809.735,1.376,1.376,0,0,0-.082.267,1.363,1.363,0,0,0,0,.489,1.32,1.32,0,0,0,.211.5,1.48,1.48,0,0,0,.258.276,1.3,1.3,0,0,0,.688.279,1.6,1.6,0,0,0,.3,0,1.311,1.311,0,0,0,.6-.236,1.316,1.316,0,0,0,.536-.9,1.841,1.841,0,0,0,0-.331,1.328,1.328,0,0,0-.276-.647,1.737,1.737,0,0,0-.2-.2,1.3,1.3,0,0,0-.672-.285A2.085,2.085,0,0,0,184.679-840.655Zm.155.03a1.268,1.268,0,0,1,.837.384,1.272,1.272,0,0,1,.309,1.267,1.343,1.343,0,0,1-.139.3,1.29,1.29,0,0,1-.711.545,1.188,1.188,0,0,1-.251.05,1.271,1.271,0,0,1-1.016-.359,1.273,1.273,0,0,1-.348-1.227,1.292,1.292,0,0,1,.744-.866,1.277,1.277,0,0,1,.372-.094A1.017,1.017,0,0,1,184.834-840.625Z" transform="translate(-182.553 841.572)" fill="#05a859"/>
      <path id="Path_14754" data-name="Path 14754" d="M217.569-807.881a1.193,1.193,0,0,0-.495.16,1.261,1.261,0,0,0-.328.289,1.2,1.2,0,0,0-.232.529,1.028,1.028,0,0,0-.014.193,1.057,1.057,0,0,0,.06.372,1.181,1.181,0,0,0,1,.8,1.819,1.819,0,0,0,.236,0,1.18,1.18,0,0,0,1.006-.831,1.143,1.143,0,0,0,.048-.394.906.906,0,0,0-.02-.167,1.179,1.179,0,0,0-.606-.815A1.169,1.169,0,0,0,217.569-807.881Zm0,.594.017.009.024-.007a.123.123,0,0,1,.1,0l.024.012.019-.009a.089.089,0,0,1,.053-.008.106.106,0,0,1,.061.016l.027.014.026-.014a.087.087,0,0,1,.052-.013.093.093,0,0,1,.071.028l.012.012-.03.071c-.082.191-.106.249-.106.254s.011.005.045.006l.086,0,.041,0-.02.014c-.048.032-.036.039.054.032a.512.512,0,0,1,.073,0c.006,0,0,.005-.008.021s-.017.026-.008.035.038.008.089,0,.075-.008.075,0a.1.1,0,0,1-.015.022c-.02.024-.026.036-.023.044s.01.007.137,0l.042,0-.019.02a.094.094,0,0,0-.019.025s0,.006.01.009.019,0,.054,0l.074-.01.03,0-.017.019a.082.082,0,0,0-.017.024c0,.022.076.014.19-.021a.161.161,0,0,1,.034-.008s-.1.1-.155.15a.789.789,0,0,1-.507.253.416.416,0,0,1-.243-.078l-.034-.021-.012.021a.448.448,0,0,1-.119.143c-.017.012-.023.019-.042.058l-.022.044-.018-.043c-.017-.041-.019-.043-.037-.053a.239.239,0,0,1-.04-.029.514.514,0,0,1-.083-.118l-.011-.023-.02.017a.376.376,0,0,1-.147.078.39.39,0,0,1-.16,0,1.066,1.066,0,0,1-.451-.268c-.063-.055-.157-.144-.155-.145l.041.008.081.017c.114.022.141.013.083-.028a.1.1,0,0,1-.024-.02.227.227,0,0,1,.107.011c.059.013.084.017.089.011s0-.017-.022-.039l-.015-.019h.018a.429.429,0,0,1,.063.01.454.454,0,0,0,.059.01c.027,0,.028-.02,0-.057s-.021-.025.042-.016a.187.187,0,0,0,.1,0c.007-.008,0-.021-.014-.042s-.012-.018-.01-.019a.356.356,0,0,1,.046,0,.849.849,0,0,0,.146.013c.006,0,.01-.005.01-.008s-.026-.027-.046-.037-.013-.008-.013-.009a.126.126,0,0,1,.035-.007l.078-.01.044-.006s-.025-.058-.086-.192a1.058,1.058,0,0,1-.048-.118.049.049,0,0,1,.025-.041.121.121,0,0,1,.085.008l.028.01.027-.014a.068.068,0,0,1,.051-.012A.116.116,0,0,1,217.564-807.287Z" transform="translate(-215.468 808.934)" fill="#3e4095"/>
      <path id="Path_14755" data-name="Path 14755" d="M152.278-793.9l-.053.064-.025.031.035.028.142.116a.337.337,0,0,0,.035.026s.017-.012.034-.033l.051-.065.023-.029-.019-.015-.023-.018s-.016.011-.033.033a.335.335,0,0,1-.032.037.114.114,0,0,1-.035-.029.272.272,0,0,1,.026-.037l.027-.033-.02-.017c-.011-.01-.021-.017-.024-.016a.316.316,0,0,0-.047.054l-.011.013-.019-.015a.083.083,0,0,1-.019-.018.576.576,0,0,1,.052-.066c.006-.007.005-.008-.01-.021S152.309-793.94,152.278-793.9Z" transform="translate(-151.43 795.023)" fill="#05a859"/>
      <path id="Path_14756" data-name="Path 14756" d="M797.739-791.753l-.069.056-.043.035-.038.031s0,.01.017.034l.023.029.058-.047.108-.087.05-.04-.024-.029-.024-.029Z" transform="translate(-794.241 792.9)" fill="#05a859"/>
      <path id="Path_14757" data-name="Path 14757" d="M819.964-749.962a.1.1,0,0,0-.043.034.127.127,0,0,0,0,.085c.007.028.008.035,0,.044a.032.032,0,0,1-.041.012c-.018-.01-.025-.027-.023-.061v-.029h-.032l-.032,0,0,.033a.116.116,0,0,0,.107.121.1.1,0,0,0,.075-.038c.015-.02.016-.04,0-.09s-.009-.044.006-.053.048.022.048.056c0,.015,0,.016.01.013l.028,0,.018,0,0-.016a.14.14,0,0,0-.064-.1A.136.136,0,0,0,819.964-749.962Z" transform="translate(-816.374 751.232)" fill="#05a859"/>
      <path id="Path_14758" data-name="Path 14758" d="M115.192-734.934c-.02.011-.03.025-.064.09l-.028.055.121.062.124.062a.334.334,0,0,0,.031-.059.443.443,0,0,0-.048-.026c-.056-.028-.057-.027.028-.031l.052,0,.018-.036c.013-.025.016-.036.012-.036l-.066.008-.062.008a.1.1,0,0,1,0-.016.071.071,0,0,0-.045-.076A.089.089,0,0,0,115.192-734.934Zm.057.073a.039.039,0,0,1,.016.018.082.082,0,0,1-.015.049.118.118,0,0,1-.037-.014l-.033-.016.007-.013C115.2-734.869,115.223-734.876,115.249-734.861Z" transform="translate(-114.481 736.269)" fill="#05a859"/>
      <path id="Path_14759" data-name="Path 14759" d="M850.473-706.6a.108.108,0,0,0-.026.014.256.256,0,0,0,.013.027c.007.013.011.026.009.028l-.094.046-.093.044a.19.19,0,0,0,.013.033c.012.027.015.031.023.029l.1-.043.089-.04a.111.111,0,0,1,.015.025l.014.027.03-.011.028-.013-.008-.015-.041-.088a.647.647,0,0,0-.038-.074A.137.137,0,0,0,850.473-706.6Z" transform="translate(-846.732 708.047)" fill="#05a859"/>
      <path id="Path_14760" data-name="Path 14760" d="M83.622-643.924l-.022.08s.262.081.264.079l.023-.08.022-.079-.027-.009a.069.069,0,0,0-.029-.006.289.289,0,0,0-.014.043.431.431,0,0,1-.013.044.051.051,0,0,1-.025,0l-.023-.006.012-.041a.291.291,0,0,0,.01-.045.075.075,0,0,0-.026-.011l-.025-.007-.008.027c0,.015-.01.034-.012.043l0,.017-.024-.006c-.013,0-.024-.009-.024-.011s.006-.022.012-.044.012-.042.012-.043a.208.208,0,0,0-.052-.016A.513.513,0,0,0,83.622-643.924Z" transform="translate(-83.109 645.692)" fill="#05a859"/>
      <path id="Path_14761" data-name="Path 14761" d="M866.547-643.9l-.116.037-.122.038-.009,0,.01.033a.083.083,0,0,0,.015.034l.1-.028.127-.038a.092.092,0,0,0,.035-.016.257.257,0,0,0-.01-.033c-.007-.021-.011-.029-.017-.03A.015.015,0,0,0,866.547-643.9Z" transform="translate(-862.685 645.597)" fill="#05a859"/>
      <path id="Path_14762" data-name="Path 14762" d="M875.26-595.993s0,.018,0,.03c0,.035,0,.037.022.037.034,0,.034,0,.042.055,0,.027.007.051.007.054s-.01.01-.022.016l-.023.011,0,.027c.005.051-.009.052.128-.017l.13-.068c.009-.006.009-.006,0-.052l-.007-.045-.019,0-.14-.027-.125-.024S875.258-596,875.26-595.993Zm.189.092a.292.292,0,0,1,.058.012s0,0,0,0a.5.5,0,0,0-.058.024l-.056.024s-.007-.013-.01-.048S875.369-595.914,875.449-595.9Z" transform="translate(-871.608 597.883)" fill="#05a859"/>
      <path id="Path_14763" data-name="Path 14763" d="M73.7-576.98c0,.011,0,.027,0,.036l0,.017.015,0,.034,0,.038,0,.02,0,0,.049a.254.254,0,0,1-.006.052.13.13,0,0,1-.042,0l-.051,0h-.013l0,.027c0,.016,0,.031,0,.036s.005.01.091.016l.1.009a.6.6,0,0,0,.076,0,.2.2,0,0,0,0-.036v-.034l-.047,0-.055,0c-.008,0-.008,0,0-.086,0-.006,0-.012,0-.013a.6.6,0,0,1,.107,0c.006,0,.007,0,.009-.033a.215.215,0,0,0,0-.037l-.024,0-.107-.009-.114-.01-.028,0Z" transform="translate(-73.234 578.96)" fill="#05a859"/>
      <path id="Path_14764" data-name="Path 14764" d="M880.141-516.066a.339.339,0,0,0,0,.035,1.051,1.051,0,0,0,.135.009.252.252,0,0,1,.05,0,.054.054,0,0,1-.02.011c-.011,0-.055.03-.1.057l-.078.048,0,.034a.159.159,0,0,0,0,.036s.05.006.168.014l.086.006.021,0,0-.034a.191.191,0,0,0,0-.035s-.134-.013-.163-.014h-.024l.022-.01a2.039,2.039,0,0,0,.173-.107.21.21,0,0,0,0-.036l0-.033-.014,0c-.012,0-.075-.007-.23-.017l-.033,0Z" transform="translate(-876.454 518.303)" fill="#05a859"/>
      <path id="Path_14765" data-name="Path 14765" d="M74.516-495l-.016,0,0,.071c0,.039.006.082.007.1l0,.026h.025c.035,0,.037,0,.034-.034a.077.077,0,0,1,0-.029s.151-.015.183-.015a.061.061,0,0,0,.027,0,.292.292,0,0,0-.007-.068s-.128,0-.183.009l-.027,0,0-.031,0-.031h-.015Z" transform="translate(-74.046 497.289)" fill="#05a859"/>
      <path id="Path_14766" data-name="Path 14766" d="M101.376-398.85c-.022.01-.024.033-.006.071s.016.048-.028.015c-.025-.019-.033-.022-.047-.022a.035.035,0,0,0-.016.068.107.107,0,0,0,.053,0c.033,0,.038,0,.038,0s-.011.013-.026.021c-.038.021-.047.031-.047.05a.039.039,0,0,0,.062.029.138.138,0,0,0,.028-.069.019.019,0,0,1,.007-.013c.009-.007.012,0,.02.037s.03.062.064.048a.033.033,0,0,0,.019-.042c-.005-.012-.018-.022-.053-.043-.012-.007-.022-.015-.02-.017a.089.089,0,0,1,.039,0,.129.129,0,0,0,.052,0,.03.03,0,0,0,.019-.041c-.007-.02-.016-.027-.035-.027s-.022,0-.051.024-.035.023-.037.021a.076.076,0,0,1,.011-.035c.021-.046.018-.068-.011-.076A.037.037,0,0,0,101.376-398.85Z" transform="translate(-100.695 401.529)" fill="#05a859"/>
      <path id="Path_14767" data-name="Path 14767" d="M855.3-395.144a.04.04,0,0,0-.012.022.185.185,0,0,0,.014.042.377.377,0,0,1,.014.035c0,.008-.015,0-.032-.013a.113.113,0,0,0-.059-.032.04.04,0,0,0-.029.059c.009.014.028.018.072.015s.047,0,.012.022-.058.043-.049.065a.036.036,0,0,0,.037.022c.025,0,.036-.013.048-.061,0-.018.009-.027.013-.027s.007,0,.018.043.019.044.042.044.041-.014.041-.035-.01-.027-.049-.05-.037-.026.009-.024.077,0,.077-.034a.039.039,0,0,0-.03-.039c-.016,0-.028,0-.061.028s-.035.023-.035.014a.259.259,0,0,1,.015-.037c.013-.029.014-.034.01-.048A.04.04,0,0,0,855.3-395.144Z" transform="translate(-851.619 397.844)" fill="#05a859"/>
      <path id="Path_14768" data-name="Path 14768" d="M156.306-299.674a.155.155,0,0,0-.107.173.156.156,0,0,0,.059.084.081.081,0,0,0,.026.013l.033-.024.028-.022-.017,0a.085.085,0,0,1-.062-.061.091.091,0,0,1,.052-.087.089.089,0,0,1,.067,0,.084.084,0,0,1,.04.076c0,.012,0,.012.028-.011a.105.105,0,0,0,.031-.03.159.159,0,0,0-.015-.035.136.136,0,0,0-.066-.067A.175.175,0,0,0,156.306-299.674Z" transform="translate(-155.419 302.748)" fill="#05a859"/>
      <path id="Path_14769" data-name="Path 14769" d="M789.345-298.784a.144.144,0,0,0-.056.029.76.76,0,0,0-.092.107.542.542,0,0,0,.048.043c.125.1.157.13.16.13a.763.763,0,0,0,.091-.117.13.13,0,0,0,.006-.1.161.161,0,0,0-.092-.084A.1.1,0,0,0,789.345-298.784Zm.044.075a.119.119,0,0,1,.05.05.055.055,0,0,1,0,.03.146.146,0,0,1-.036.061.729.729,0,0,1-.062-.048l-.059-.049s.035-.039.05-.046A.053.053,0,0,1,789.389-298.709Z" transform="translate(-785.885 301.861)" fill="#05a859"/>
      <path id="Path_14770" data-name="Path 14770" d="M186.094-264.7c-.052.055-.094.1-.094.1l.025.026.026.024.038-.04a.258.258,0,0,1,.041-.039l.039.035.036.033-.04.041-.04.041.026.024a.122.122,0,0,0,.03.023s.046-.045.1-.1l.093-.1-.025-.026-.025-.025-.039.039-.039.039-.035-.033a.25.25,0,0,1-.035-.038.278.278,0,0,1,.037-.042l.037-.037-.028-.024-.028-.025Z" transform="translate(-185.105 268.008)" fill="#05a859"/>
      <path id="Path_14771" data-name="Path 14771" d="M748.709-245.8a.161.161,0,0,0-.1.087.115.115,0,0,0-.011.06.1.1,0,0,0,.011.058.144.144,0,0,0,.168.076.149.149,0,0,0,.056-.259A.155.155,0,0,0,748.709-245.8Zm.07.074a.092.092,0,0,1,.044.087.078.078,0,0,1-.071.061.094.094,0,0,1-.086-.089A.071.071,0,0,1,748.779-245.729Z" transform="translate(-745.451 249.093)" fill="#05a859"/>
      <path id="Path_14772" data-name="Path 14772" d="M253.266-217.922c-.055.085-.061.1-.064.126s.018.067.062.1a.113.113,0,0,0,.126.015c.016-.01.026-.022.074-.094l.057-.089s-.009-.013-.028-.024-.03-.018-.034-.013c-.028.045-.093.141-.1.15s-.043.02-.068,0a.054.054,0,0,1-.015-.024.365.365,0,0,1,.053-.1.448.448,0,0,0,.048-.079.219.219,0,0,0-.057-.037A.754.754,0,0,0,253.266-217.922Z" transform="translate(-252.037 221.387)" fill="#05a859"/>
      <path id="Path_14773" data-name="Path 14773" d="M682.492-198.408a.173.173,0,0,0-.115.09.132.132,0,0,0-.009.09.146.146,0,0,0,.152.111.2.2,0,0,0,.1-.048.112.112,0,0,0,.038-.092.113.113,0,0,0-.015-.066l-.015-.032-.058.035-.063.038s0,.006,0,.019c.018.034.016.034.052.012a.108.108,0,0,1,.034-.017.072.072,0,0,1,0,.022.046.046,0,0,1-.013.035.081.081,0,0,1-.094.028.13.13,0,0,1-.055-.079.075.075,0,0,1,.089-.082l.017,0,.017-.026a.147.147,0,0,0,.017-.029C682.574-198.405,682.521-198.413,682.492-198.408Z" transform="translate(-679.48 201.877)" fill="#05a859"/>
      <path id="Path_14774" data-name="Path 14774" d="M311.4-182.977l-.057.125c-.026.056-.047.1-.046.1s.057.026.06.026,0,0,.006-.008a.478.478,0,0,1,.042-.084s0,.007.007.055c.006.069,0,.063.042.081a.2.2,0,0,0,.036.015s-.012-.1-.017-.12,0-.009.018-.009a.063.063,0,0,0,.053-.023.086.086,0,0,0,.025-.06.075.075,0,0,0-.033-.065.906.906,0,0,0-.123-.059A.079.079,0,0,0,311.4-182.977Zm.073.065c.021.012.027.024.022.043s-.015.028-.032.028-.042-.008-.042-.015a.318.318,0,0,1,.031-.067Z" transform="translate(-309.897 186.53)" fill="#05a859"/>
      <path id="Path_14775" data-name="Path 14775" d="M607.476-163.477l-.08.026s.079.257.081.259a.263.263,0,0,0,.064-.018.235.235,0,0,0-.013-.053c-.009-.028-.015-.051-.015-.052l.043-.014a.188.188,0,0,0,.042-.015.108.108,0,0,0-.019-.05.321.321,0,0,0-.042.012.174.174,0,0,1-.04.01.088.088,0,0,1-.01-.047.364.364,0,0,1,.045-.016l.042-.013-.006-.021C607.556-163.507,607.566-163.505,607.476-163.477Z" transform="translate(-604.812 167.107)" fill="#05a859"/>
      <path id="Path_14776" data-name="Path 14776" d="M377.3-154.586a.147.147,0,0,0-.106.125.1.1,0,0,0,0,.055.135.135,0,0,0,.074.092.16.16,0,0,0,.077.014l.017,0,.011-.035a.31.31,0,0,0,.01-.036.044.044,0,0,0-.016,0,.082.082,0,0,1-.082-.013.092.092,0,0,1-.023-.052.109.109,0,0,1,.029-.067.074.074,0,0,1,.12.023c0,.007,0,.007,0,0a.332.332,0,0,1,.011-.039l.011-.032-.009-.008A.164.164,0,0,0,377.3-154.586Z" transform="translate(-375.532 158.235)" fill="#05a859"/>
      <path id="Path_14777" data-name="Path 14777" d="M436.428-147.181s-.007.044-.013.088-.014.1-.018.128-.007.049-.006.05a.6.6,0,0,0,.07.008s.005-.026.01-.057.01-.055.013-.054l.05.007c.052.006.048,0,.039.063s-.007.058,0,.058l.037,0,.031,0v-.012a.138.138,0,0,1,0-.02s0-.03.008-.057c.006-.044.019-.137.024-.172l0-.013-.024,0-.036,0c-.007,0-.013,0-.013,0s-.012.084-.015.094,0,.009-.013.009a.715.715,0,0,1-.088-.013.319.319,0,0,1,0-.051.272.272,0,0,0,0-.052.2.2,0,0,0-.035-.007C436.43-147.189,436.429-147.188,436.428-147.181Z" transform="translate(-434.492 150.863)" fill="#05a859"/>
      <path id="Path_14778" data-name="Path 14778" d="M538.383-146.741a.152.152,0,0,0-.1.109.144.144,0,0,0,.08.158.117.117,0,0,0,.062.011.115.115,0,0,0,.062-.011.154.154,0,0,0,.074-.072.1.1,0,0,0,.013-.061.113.113,0,0,0-.011-.057.139.139,0,0,0-.125-.084A.142.142,0,0,0,538.383-146.741Zm.07.059a.065.065,0,0,1,.04.041.079.079,0,0,1-.072.119.086.086,0,0,1-.043-.145A.066.066,0,0,1,538.453-146.682Z" transform="translate(-535.973 150.425)" fill="#05a859"/>
    </g>
    <path id="rgba_0_0_0_0_" data-name="rgba(0,0,0,0)" d="M1753,1095h1.5l.012.024h.144l.006.024h.072v.036h.066l.006.024h.06v.024h.048v.024c.024-.008.032,0,.024.024h.048v.024c.024-.008.032,0,.024.024h.036c-.008.024,0,.032.024.024v.036h.024v.024h.024v.024h.024c-.008.024,0,.032.024.024v.048l.024.006v.054h.036v.072l.024.006v.084l.024.012v.377h-.024v.1l-.024.006v.048h-.036v.084h-.024c.008.024,0,.032-.024.024v.048h-.024v.024h-.024v.024h-.024c.008.024,0,.032-.024.024v.036h-.036v.024c-.024-.008-.032,0-.024.024h-.048v.024c-.024-.008-.032,0-.024.024h-.048v.024h-.06l-.006.024h-.066l-.006.024h-.066c0,.024,0,.036-.006.036h-.12l-.012.024H1753Z" transform="translate(-1732.958 -1081.88)" fill="rgba(0,0,0,0)"/>
    <path id="rgba_0_0_0_0_2" data-name="rgba(0,0,0,0)" d="M2243.622,1127h.024v.048h.024v.054l.024.006v.066l.024.006v.048h.036v.084h.024v.048l.024.006v.066l.024.006v.054h.024v.048h.024v.066l.024.006v.06h.024v.072h.036v.048h.024v.084H2244v.048h.024v.066l.024.006v.054l.024.006v.048h.024v.072h.036v.048h.024v.084h.024v.048h.024v.066l.023.006v.06h.024v.072h.024v.048h.024v.06h.036v.066l.024.006v.048h.024v.06h-1.5c-.007,0-.009-.012-.006-.036h.024v-.048h.024v-.072h.036v-.048h.024v-.078l.024-.006v-.048h.024v-.084h.024v-.048h.024v-.066l.024-.006v-.048h.024v-.06h.036v-.072h.024v-.048h.024V1128l.024-.006v-.048h.024v-.066l.024-.006v-.06h.024v-.072h.025v-.048h.035v-.06h.024v-.072h.024v-.048h.024v-.078l.024-.006v-.048h.024v-.066l.024-.006v-.06h.036v-.072h.024v-.048h.024v-.048h.024Z" transform="translate(-2216.962 -1113.497)" fill="rgba(0,0,0,0)"/>
    <path id="rgba_0_168_89_1_" data-name="rgba(0,168,89,1)" d="M1140,117h.072v.024h.072v.024h.084v.036h.066l.006.024h.078l.006.024h.066l.006.024h.066l.006.006v1.911h3.854l.006.024h-.024v.048h-.024v.048h-.024v.054l-.024.006v.048h-.036v.048h-.024v.048h-.024v.06h-.024v.048h-.024v.048h-.024v.054l-.006.006H1140Z" transform="translate(-1127.306 -115.598)" fill="#05a859"/>
    <path id="rgba_0_168_89_1_2" data-name="rgba(0,168,89,1)" d="M1221,496h.318l.006.006v2.223h3.476v-2.223l.006-.006h.33v5.362l-.006.006h-.33v-2.84h-3.476v2.834l-.006.006H1221Z" transform="translate(-1207.335 -490.057)" fill="#05a859"/>
    <path id="rgba_0_168_89_1_3" data-name="rgba(0,168,89,1)" d="M1631.522,665h.557l.012.024h.144l.012.024h.1l.006.024h.072v.024h.072v.024h.084v.036h.048v.024h.048v.024h.06v.024h.042l.006.024h.048v.024c.024-.008.032,0,.024.024h.048c-.009.026,0,.034.036.024v.036c.024-.008.032,0,.024.024h.048v.024h.024v.024h.024v.024c.024-.008.032,0,.024.024h.036c-.008.024,0,.032.024.024v.036h.024v.024h.024v.024h.024v.024h.024v.024h.024v.024c.024-.008.032,0,.024.024h.036v.06h.024v.024h.024c-.008.024,0,.032.024.024v.042l.024.006v.048h.024c-.008.024,0,.032.024.024v.054l.024.006v.048h.036v.072l.024.006v.078h.024v.072l.024.006v.1l.024.012v.192l.024.012v.246l-.024.006v.192l-.024.012v.1l-.024.006v.072h-.024v.072l-.024.006v.072q0,.011-.036.006v.042l-.024.006v.048h-.024c.008.024,0,.032-.024.024v.054l-.024.006v.048h-.024c.008.024,0,.032-.024.024v.048c-.026-.009-.034,0-.024.036h-.036v.024h-.024c.008.024,0,.032-.024.024v.048h-.024v.024h-.024v.024h-.024q.012.036-.024.024v.036c-.024-.008-.032,0-.024.024-.032-.01-.044,0-.036.024h-.048v.024h-.024v.024h-.024v.024c-.024-.008-.032,0-.024.024h-.06v.024h-.024v.036c-.024-.008-.032,0-.024.024h-.042l-.006.024h-.048v.024q-.036-.012-.024.024h-.06v.024h-.048v.024h-.072v.036h-.06l-.006.024h-.066l-.006.024h-.066l-.006.024h-.1l-.012.024h-.144l-.012.024h-.557l-.006-.024h-.132l-.012-.024h-.1l-.006-.024h-.072v-.024h-.084v-.024h-.048v-.036h-.048v-.024h-.048v-.024h-.06v-.024h-.042l-.006-.024h-.048v-.024c-.024.008-.032,0-.024-.024h-.06v-.036h-.024v-.024c-.024.008-.032,0-.024-.024h-.048v-.024h-.024v-.024c-.024.008-.032,0-.024-.024h-.036v-.024h-.024c.008-.024,0-.032-.024-.024v-.036h-.024v-.024h-.024V667.8h-.024v-.024h-.024v-.024c-.024.008-.032,0-.024-.024h-.036c.008-.024,0-.032-.024-.024v-.06h-.024c.008-.024,0-.032-.024-.024v-.048h-.024q.012-.036-.024-.024V667.5h-.024c.01-.033,0-.045-.024-.036v-.048h-.036v-.048l-.024-.006V667.3h-.024v-.06l-.024-.006v-.084l-.024-.012v-.1l-.024-.012v-.108l-.024-.012v-.461l.024-.006v-.108l.024-.012v-.1l.024-.006v-.072h.024v-.084h.024v-.042l.024-.006v-.048h.036v-.06h.024v-.042l.024-.006v-.048h.024c-.008-.024,0-.032.024-.024v-.048c.026.009.034,0,.024-.036h.024v-.024c.024.008.032,0,.024-.024h.036v-.048h.024v-.024h.024v-.024h.024c-.008-.024,0-.032.024-.024V665.5h.024v-.024h.024v-.024c.024.008.032,0,.024-.024h.06v-.024h.024v-.024h.024c-.008-.024,0-.032.024-.024v-.036h.048V665.3c.033.011.045,0,.036-.024h.048v-.024c.024.008.032,0,.024-.024h.048V665.2h.048v-.024h.054l.006-.024h.048v-.036h.072l.006-.024h.078v-.024h.072l.006-.024h.1l.012-.024h.132Zm.179.252v.024h-.216l-.012.024h-.084l-.012.024h-.084v.036h-.072v.024h-.084v.024h-.048v.024h-.048c.008.024,0,.032-.024.024v.024h-.048c.008.024,0,.032-.036.024v.036h-.048c.008.024,0,.032-.024.024v.024h-.024v.024h-.048c.008.024,0,.032-.024.024v.024h-.036c.008.024,0,.032-.024.024v.024h-.024v.036c-.024-.008-.032,0-.024.024h-.024v.024h-.024v.048c-.024-.008-.032,0-.024.024h-.036v.024h-.024v.06c-.024-.008-.032,0-.024.024h-.024v.048l-.024.012v.036h-.024v.06l-.024.012v.06l-.024.012v.06c-.024,0-.036,0-.036.012v.1l-.024.012v.192h-.024v.228l.024.012v.168l.024.012v.084c.024,0,.036,0,.036.012v.1h.024v.048h.024v.06h.024v.048h.024v.048h.024v.048c.024-.008.032,0,.024.024h.024v.06h.036c-.008.024,0,.032.024.024v.024h.024v.024h.024v.024h.024v.06c.024-.008.032,0,.024.024h.024v.024h.06c-.008.024,0,.032.024.024v.024h.024v.024h.024v.024h.048c-.008.024,0,.032.024.024v.036c.032-.008.044,0,.036.024h.048l.012.024h.036v.024h.048v.024h.06v.024h.048v.024h.072l.012.024h.072c0,.024,0,.036.012.036h.108l.012.024h.192v.024h.24l.012-.024h.192l.012-.024h.084v-.036h.108v-.024h.048v-.024h.072v-.024h.06v-.024h.048q-.012-.036.024-.024v-.024h.048l.012-.024h.036v-.036h.036q-.012-.036.024-.024V667.8h.048c-.008-.024,0-.032.024-.024v-.024h.024v-.024h.024v-.024h.024v-.024h.036v-.036c.024.008.032,0,.024-.024h.024V667.6h.024v-.048c.024.008.032,0,.024-.024h.024V667.5h.024v-.06h.036c-.008-.024,0-.032.024-.024v-.048h.024v-.048h.024v-.06h.024v-.048h.024v-.072h.024v-.1l.024-.012v-.144c0-.008.012-.012.036-.012v-.4l-.036-.012v-.108l-.024-.012v-.1l-.024-.012v-.06l-.024-.012v-.048h-.024v-.084c-.024.008-.032,0-.024-.024h-.024v-.048h-.024v-.06h-.036c.008-.024,0-.032-.024-.024v-.048c-.024.008-.032,0-.024-.024h-.024v-.024h-.024v-.024h-.024v-.024h-.024v-.036h-.036c.008-.024,0-.032-.024-.024v-.024h-.024v-.024h-.024v-.024h-.024v-.024h-.024v-.024h-.048c.008-.024,0-.032-.036-.024V665.5h-.048c.008-.024,0-.032-.024-.024v-.024h-.048v-.024h-.048v-.024h-.06v-.024h-.048v-.024h-.072v-.036h-.072l-.012-.024h-.108l-.012-.024h-.192l-.012-.024Z" transform="translate(-1611.432 -657.032)" fill="#05a859"/>
    <path id="rgba_0_168_89_1_4" data-name="rgba(0,168,89,1)" d="M2228.971,665h.486l.006.024h.09l.011.024h.1v.024h.048v.024h.042l.006.024h.048v.036c.033-.01.045,0,.036.024h.048v.024h.024v.024h.024v.024h.024v.024c.023-.008.031,0,.023.024h.036c-.008.024,0,.032.024.024v.036h.024c-.007.024,0,.032.025.024v.048h.023c-.008.024,0,.032.024.024v.048c.026-.009.034,0,.024.036-.024-.008-.032,0-.024.024h-.048v.024h-.049v.024H2230l-.006.024h-.048v.024h-.072v-.042l-.025-.006v-.048h-.036c.008-.024,0-.032-.024-.024V665.5h-.024v-.024h-.024v-.024h-.024v-.024h-.024v-.024h-.024v-.024c-.024.008-.032,0-.024-.024h-.06v-.036h-.048l-.006-.024h-.066l-.006-.024h-.168l-.012-.024h-.174l-.006.024h-.144l-.006.024h-.066l-.006.024h-.06v.036c-.024-.008-.032,0-.024.024h-.048v.024h-.023v.024h-.024v.024c-.024-.008-.032,0-.024.024h-.036c.008.024,0,.032-.024.024v.06h-.024v.048l-.024.006v.09l-.024.006v.2h.024v.1l.024.006v.048h.024c-.008.024,0,.032.024.024v.06h.036v.024h.024v.024h.024v.024c.023-.008.031,0,.023.024h.048v.024c.024-.008.032,0,.024.024h.06v.036c.024-.008.031,0,.024.024h.048v.024h.048l.006.024h.072l.006.024h.072v.024h.072l.006.024h.072l.006.024h.072v.036h.083v.024h.048l.006.024h.066v.024h.06v.024h.072v.024h.042l.006.024h.048v.036h.06v.024h.042l.006.024h.048v.024c.023-.008.031,0,.023.024h.06v.024h.024v.024h.025c-.009.024,0,.032.023.024v.036h.048c-.008.024,0,.032.024.024v.048h.036v.024h.024c-.008.024,0,.032.024.024v.048l.024.006v.054h.024v.048l.024.006v.1l.024.012v.342h-.024v.1l-.024.006v.066l-.024.006v.054l-.024.006v.048h-.024v.024c-.024-.008-.032,0-.024.024h-.036v.048h-.024c.008.024,0,.032-.024.024v.036c-.024-.008-.032,0-.024.024h-.048v.024h-.024v.024c-.024-.008-.032,0-.024.024h-.059v.024c-.024-.008-.032,0-.024.024h-.048v.036h-.084v.024h-.048l-.006.024h-.066l-.006.024h-.1l-.012.024h-.108l-.012.024h-.558l-.006-.024h-.12l-.012-.024h-.084l-.012-.024h-.072l-.006-.024h-.048v-.024h-.072v-.036h-.06v-.024c-.024.008-.032,0-.024-.024h-.048v-.024c-.024.008-.032,0-.024-.024h-.048c.009-.026,0-.034-.036-.024.008-.024,0-.032-.024-.024v-.036h-.024v-.024h-.024v-.024h-.024c.008-.024,0-.032-.024-.024v-.048c-.024.008-.032,0-.024-.024h-.036v-.06h-.024c.008-.024,0-.032-.024-.024v-.048h.048v-.024h.06v-.024h.042l.006-.024h.048c-.008-.024,0-.032.024-.024v-.036h.083v.054l.024.006v.048h.024v.024h.024c-.008.024,0,.032.024.024v.048c.026-.009.034,0,.024.036.033-.01.045,0,.036.024h.048v.024h.024v.024c.024-.008.032,0,.024.024h.048v.024h.06v.024h.048l.006.024h.066c0,.024,0,.036.006.036h.1l.006.024h.191l.012.024h.222l.006-.024h.168l.012-.024h.09v-.036h.06l.006-.024h.066v-.024c.024.008.032,0,.024-.024h.048v-.024c.033.01.045,0,.036-.024h.048v-.024h.024c-.008-.024,0-.032.024-.024-.01-.033,0-.045.024-.036V667.8c.023.008.031,0,.023-.024h.036v-.048l.024-.006v-.1l.024-.012V667.4l-.024-.006v-.12l-.024-.006v-.048h-.036v-.048h-.023v-.024h-.024c.008-.024,0-.032-.024-.024v-.036h-.024v-.024h-.023v-.024c-.025.008-.033,0-.025-.024h-.06v-.024h-.048v-.024h-.048v-.024h-.048v-.024h-.06v-.036h-.048v-.024h-.072v-.024h-.06v-.024h-.072v-.024h-.072l-.006-.024h-.078v-.024h-.072l-.006-.024h-.078v-.036h-.048v-.024h-.066l-.006-.024h-.048v-.024h-.06v-.024h-.048v-.024c-.023.008-.032,0-.023-.024h-.048V666.5h-.06v-.024h-.024v-.024c-.024.008-.032,0-.024-.024h-.048V666.4h-.024v-.024c-.024.008-.032,0-.024-.024h-.036c.008-.024,0-.032-.024-.024v-.036h-.024v-.048h-.024c.008-.024,0-.032-.024-.024v-.048h-.024c.008-.024,0-.032-.024-.024v-.078l-.024-.006v-.072c-.024,0-.036,0-.036-.006v-.377h.036v-.072l.024-.006v-.078h.024v-.048h.024c-.008-.024,0-.032.024-.024v-.06h.024V665.3h.024v-.024c.024.008.032,0,.024-.024h.036v-.024c.024.008.032,0,.024-.024h.048v-.024c.024.008.032,0,.024-.024h.048v-.036c.024.008.032,0,.024-.024h.078l.006-.024h.048v-.024h.078l.012-.024h.107Z" transform="translate(-2202.264 -657.032)" fill="#05a859"/>
    <path id="rgba_0_168_89_1_5" data-name="rgba(0,168,89,1)" d="M2461.355,665h.557l.012.024h.144l.012.024h.084l.006.024h.078l.006.024h.066l.006.024h.06v.036h.048v.024h.048v.024h.048v.024h.06v.024c.024-.008.032,0,.024.024h.048v.024h.024c-.008.024,0,.032.024.024v.036c.024-.008.031,0,.024.024h.06v.024h.024v.024h.024v.024h.024c-.009.024,0,.032.024.024v.06h.024v.024c.024-.008.032,0,.024.024h.036c-.008.024,0,.032.024.024v.048h.024c-.008.024,0,.032.024.024v.06h.024v.048h.024v.048h.024v.048h.024v.06h.036v.072l.024.006v.1l.024.012v.108l.024.012v.192l.024.012v.2h-2.954l-.006.006v.282l.024.006v.132l.024.012v.12l.024.012v.072l.024.006v.072h.036v.048h.024v.048h.024v.06h.024v.042l.024.006v.048h.024c-.008.024,0,.032.024.024v.036h.036v.048h.024v.024h.024v.024h.024v.024h.024v.024c.024-.008.032,0,.024.024h.048v.036h.036v.024c.024-.008.032,0,.024.024h.048v.024c.023-.008.031,0,.023.024h.048l.006.024h.078v.024h.048l.006.024h.066c0,.024,0,.036.006.036h.12l.012.024h.191l.012.024h.222l.006-.024h.216l.012-.024h.1c.007,0,.01-.012.006-.036h.072l.006-.024h.078v-.024h.048v-.024h.072v-.024c.033.01.044,0,.036-.024h.048v-.024c.024.008.032,0,.024-.024h.048v-.036h.024v-.024c.024.008.032,0,.024-.024h.036v-.024h.048c-.008-.024,0-.032.023-.024v-.048h.024c-.008-.024,0-.032.024-.024v-.036h.024v-.024c.024.008.032,0,.024-.024h.036v-.048h.024c-.008-.024,0-.032.024-.024v-.06h.024v-.024c.024.008.031,0,.024-.024h.048v.024h.054l.006.024h.048v.036h.042l.006.024h.048v.072h-.024c.008.024,0,.032-.024.024v.06h-.024v.024h-.024c.008.024,0,.032-.024.024v.048H2463v.024c-.024-.008-.032,0-.024.024h-.036c.008.024,0,.032-.024.024v.036h-.024v.024h-.024v.024h-.024v.024h-.024v.024c-.024-.008-.032,0-.024.024h-.036v.024h-.024c.008.024,0,.032-.024.024v.036h-.049v.024c-.023-.008-.032,0-.023.024h-.048v.024c-.033-.01-.045,0-.036.024h-.048v.024h-.042l-.006.024h-.048v.036h-.084v.024h-.048l-.006.024h-.1l-.012.024h-.084l-.012.024h-.12l-.012.024h-.605l-.006-.024h-.144l-.012-.024h-.084l-.012-.024H2461l-.006-.024h-.066l-.006-.024h-.048v-.036h-.047v-.024h-.054l-.007-.024h-.048v-.024c-.024.008-.032,0-.024-.024h-.048v-.024c-.024.008-.032,0-.024-.024h-.036v-.036h-.048v-.024h-.024v-.024h-.024v-.024h-.024v-.024c-.024.008-.032,0-.024-.024h-.036v-.024h-.024c.008-.024,0-.032-.024-.024v-.06h-.024V667.8h-.024c.008-.024,0-.032-.024-.024v-.048h-.024c.008-.024,0-.032-.024-.024v-.06h-.036V667.6h-.024v-.048h-.024V667.5h-.024v-.084h-.024v-.048h-.024v-.1l-.024-.006v-.09l-.024-.012v-.12l-.036-.012v-.677h.036v-.126l.024-.012v-.084l.024-.012v-.072l.024-.006v-.048h.024v-.084h.024v-.048h.024v-.042l.024-.006v-.048h.036c-.008-.024,0-.032.024-.024v-.06h.024v-.024h.024c-.008-.024,0-.032.024-.024v-.048h.024v-.024h.024c-.008-.024,0-.032.024-.024V665.5h.036v-.024h.024v-.024h.024v-.024h.024v-.024h.024v-.024h.024c-.008-.024,0-.032.024-.024v-.036c.033.01.045,0,.036-.024h.047v-.024c.024.008.032,0,.024-.024h.048v-.024c.023.008.032,0,.023-.024h.061v-.024h.042l.006-.024h.048v-.036h.048V665.1h.084v-.024h.072l.006-.024h.1l.012-.024h.108Zm.156.252v.024h-.192l-.012.024h-.084l-.012.024h-.084v.036h-.048v.024H2461v.024h-.048c.008.024,0,.032-.025.024v.024h-.048c.008.024,0,.032-.024.024v.024h-.06v.036c-.024-.008-.032,0-.024.024h-.023v.024h-.024v.024h-.048c.008.024,0,.032-.024.024v.048c-.024-.008-.032,0-.024.024h-.036v.036c-.024-.008-.031,0-.024.024h-.024v.048c-.024-.008-.031,0-.024.024h-.024v.048l-.024.012v.048h-.024v.048h-.036v.048h-.024v.084l-.024.012v.108h-.024v.132h2.577v-.144l-.024-.012v-.084l-.024-.012v-.1l-.024-.012v-.048h-.024v-.06h-.024v-.048h-.036v-.048c-.024.008-.032,0-.024-.024h-.024v-.048c-.024.008-.032,0-.024-.036-.024.008-.032,0-.024-.024h-.023v-.024h-.025v-.024h-.024v-.024h-.036c.008-.024,0-.032-.024-.024v-.024h-.024v-.024h-.024V665.5h-.048c.008-.024,0-.032-.024-.024v-.024h-.06c.008-.024,0-.032-.024-.024v-.024h-.048v-.024h-.06l-.012-.024h-.06v-.036h-.084l-.012-.024h-.1l-.012-.024h-.192l-.012-.024Z" transform="translate(-2431.483 -657.032)" fill="#05a859"/>
    <path id="rgba_0_168_89_1_6" data-name="rgba(0,168,89,1)" d="M1987,671h.306l.006.006v2.061l.024.012v.216l.024.012v.12l.024.012v.09h.036v.084h.024v.048h.024v.042l.024.006v.048h.024c-.008.024,0,.032.024.024v.036h.024v.048h.06v.024h.024v.024c.024-.008.032,0,.024.024h.048v.024h.048v.024h.06v.036h.1l.006.024h.168l.012.024h.222l.005-.024h.168l.012-.024h.1c.007,0,.009-.012.006-.036h.072v-.024h.048v-.024c.024.008.032,0,.024-.024h.06v-.024h.024v-.024h.024v-.024h.024c-.008-.024,0-.032.024-.024v-.06c.024.008.032,0,.024-.024h.036v-.048l.024-.006v-.066h.024v-.06l.024-.006v-.084l.024-.012v-.12l.024-.012V673.1l.024-.012v-2.085l.006-.006h.305v2.246l-.024.012v.168l-.024.012v.09h-.036v.1l-.024.006v.072h-.024v.048h-.024v.06h-.024v.042l-.024.006v.048h-.024v.024c-.024-.008-.032,0-.024.024h-.036v.06h-.024v.024c-.024-.008-.032,0-.024.024h-.048v.024h-.024v.024c-.024-.008-.032,0-.024.024h-.054l-.006.024h-.048v.036h-.048v.024h-.048v.024h-.084v.024h-.072l-.006.024h-.12l-.012.024h-.557l-.006-.024h-.132l-.012-.024h-.072l-.006-.024h-.072v-.024h-.054l-.006-.024h-.048v-.036h-.047v-.024c-.024.008-.032,0-.024-.024h-.048c.009-.026,0-.034-.036-.024v-.024h-.024v-.024h-.024c.008-.024,0-.032-.024-.024v-.036h-.024c.008-.024,0-.032-.024-.024v-.048h-.024c.008-.024,0-.032-.024-.024v-.048h-.036c.008-.024,0-.032-.024-.024v-.084h-.024v-.048h-.024v-.072l-.024-.006v-.072l-.024-.012v-.12l-.024-.012v-.132l-.036-.012Z" transform="translate(-1964.152 -662.96)" fill="#05a859"/>
    <path id="rgba_0_168_89_1_7" data-name="rgba(0,168,89,1)" d="M91.189,1611h.539v.246l.006.006h.192l.012.024h.288l.012.024h.276l.012.036h.24l.012.024h.24l.012.024h.216l.012.024h.228l.012.024h.216l.012.024h.192l.012.024h.192l.012.024h.192l.012.036h.192l.012.024h.168l.012.024h.168l.012.024h.168l.012.024h.168l.012.024h.168l.012.024h.132l.012.024h.168l.012.036h.144l.012.024h.144l.012.024h.144l.006.024h.114l.012.024h.144l.012.024h.144l.012.024h.114c0,.024,0,.036.006.036h.144l.012.024h.12l.012.024h.12l.012.024h.108l.012.024h.12l.006.024h.114l.012.024h.12l.012.024h.12c.007,0,.009.012.006.036h.114l.006.024h.1l.012.024h.12l.006.024h.09l.012.024h.12l.006.024h.09l.012.024h.12l.012.023h.09c0,.024,0,.036.006.036h.1l.006.024h.09l.012.024h.1l.012.024h.1l.006.024h.09l.012.024h.1l.012.024h.09q0,.036.006.036h.1l.006.024h.09l.012.024h.1l.006.024h.072l.006.024h.1l.012.024h.084l.006.024h.072l.006.024h.1q.011,0,.006.036h.072v.024h.1l.006.024h.072l.006.024h.072l.012.024h.084l.012.024h.072l.006.024h.072l.006.024h.1c.007,0,.009.012.006.036h.066l.006.024h.072v.024h.078l.006.024h.072v.024h.072v.024h.078l.006.024h.072v.036h.078l.006.024h.072v.024h.072v.024h.078l.006.024h.072v.024h.048v.024h.078l.006.024h.072v.036h.084v.024h.048v.024h.072l.006.024h.078v.024h.048v.024h.066l.006.024h.078l.006.024h.048v.036h.072v.024h.06l.006.024h.066v.024h.048l.006.024h.054v.024h.072v.024h.048v.036h.048l.006.024h.078v.024h.048v.024h.048v.024h.084v.024h.048v.024h.048v.024h.06v.036h.048v.024h.072v.024h.048l.006.024h.054v.024h.048v.024h.048v.024h.048v.024h.06v.036h.048v.024H104v.024h.06v.024h.042l.006.024h.048v.024c.024-.008.032,0,.024.024h.048v.036h.06v.024h.048v.024h.042l.006.024h.048v.024c.033-.01.045,0,.036.024h.048v.024h.048v.024h.048v.036c.033-.01.045,0,.036.024h.048v.024h.048v.024c.024-.008.032,0,.024.024h.048l.006.024h.054c-.008.024,0,.032.024.024v.036h.048v.024c.024-.008.032,0,.024.024h.048v.024c.033-.01.045,0,.036.024h.048v.024c.024-.008.032,0,.024.024h.048c-.008.024,0,.032.024.024v.036h.06v.024c.024-.008.032,0,.024.024h.048v.024h.024v.024c.024-.008.032,0,.024.024h.06V1615h.024c-.008.024,0,.032.024.024v.036h.048v.024c.024-.008.032,0,.024.024-.024-.008-.032,0-.024.024h-.048v.024h-.048v.024h-.054l-.006.024h-.048v.036h-.048v.024h-.048v.024h-.06v.024c-.024-.008-.032,0-.024.024h-.048v.024h-.048v.024c-.033-.01-.045,0-.036.024h-.048v.036c-.024-.008-.032,0-.024.024H104.9v.024h-.024v.024c-.024-.008-.032,0-.024.024h-.06v.024h-.024v.024c-.024-.008-.032,0-.024.024H104.7v.036h-.024v.024c-.024-.008-.032,0-.024.024-.033-.01-.045,0-.036.024h-.048v.024h-.024v.024h-.024q.012.036-.024.024v.036q-.036-.012-.024.024h-.036v.024h-.024v.024h-.024v.024h-.024v.024h-.024v.024h-.024c.008.024,0,.032-.024.024v.036c-.024-.008-.032,0-.024.024h-.036v.024h-.024v.024h-.024v.024h-.024v.024h-.024v.024h-.024c.008.024,0,.032-.024.024v.036c-.024-.008-.032,0-.024.024h-.036q.012.036-.024.024.012-.036-.024-.024v-.06h-.024v-.024h-.024v-.024h-.024v-.024c-.024.008-.032,0-.024-.024h-.036v-.024h-.024v-.024H103.8c.008-.024,0-.032-.024-.024V1616h-.024v-.024h-.024v-.024c-.024.008-.032,0-.024-.024h-.06v-.024h-.024v-.024H103.6v-.024c-.024.008-.032,0-.024-.024h-.048v-.036H103.5v-.024c-.024.008-.032,0-.024-.024-.033.01-.045,0-.036-.024h-.048v-.024c-.024.008-.032,0-.024-.024h-.048c.008-.024,0-.032-.024-.024v-.036h-.06v-.024c-.024.008-.032,0-.024-.024h-.048v-.024c-.024.008-.032,0-.024-.024h-.048v-.024c-.033.01-.045,0-.036-.024h-.048c.008-.024,0-.032-.024-.024v-.036h-.048v-.024h-.048v-.024c-.033.01-.045,0-.036-.024H102.8v-.024h-.042l-.006-.024h-.048v-.024c-.024.008-.032,0-.024-.024h-.06v-.036h-.042l-.006-.024h-.048v-.024c-.024.008-.032,0-.024-.024h-.06v-.024H102.4v-.024h-.042l-.006-.024H102.3v-.036h-.06V1615h-.048v-.024h-.048v-.024H102.1v-.024h-.06v-.024h-.048v-.024h-.048v-.024h-.06v-.036h-.048v-.024h-.048v-.024h-.048v-.024h-.06v-.024h-.048v-.024h-.066l-.006-.024h-.048v-.024h-.06v-.036H101.4v-.024h-.048v-.024h-.084v-.024h-.048v-.024h-.048v-.024h-.048v-.024h-.084v-.036h-.048v-.024h-.048v-.024h-.084v-.024h-.048v-.024h-.066l-.006-.024h-.054l-.006-.024h-.048v-.024h-.072v-.036h-.06l-.006-.024h-.066v-.024h-.048v-.024H100.3v-.024h-.048v-.024h-.072l-.006-.024H100.1v-.036h-.048l-.006-.024h-.066v-.024h-.06v-.024h-.072v-.024h-.072l-.006-.024h-.078v-.024H99.64v-.024h-.072v-.036h-.084v-.024h-.072v-.024h-.048v-.024h-.078l-.006-.024h-.072v-.024H99.13l-.006-.024h-.072v-.024H98.98v-.036H98.9l-.006-.024h-.072v-.024h-.078l-.006-.024h-.072v-.024H98.6v-.024h-.078l-.006-.024h-.072v-.036h-.072l-.006-.024h-.072l-.006-.024h-.072l-.006-.024h-.072l-.012-.024h-.084l-.012-.024h-.072l-.006-.024h-.072v-.024h-.072v-.036h-.1l-.006-.024h-.072l-.006-.024h-.072l-.012-.024h-.084l-.006-.024h-.078l-.012-.024h-.084l-.006-.024h-.072l-.006-.024h-.1c-.007,0-.009-.012-.006-.036h-.072l-.006-.024h-.1l-.006-.024h-.072l-.006-.024h-.1l-.006-.024h-.09l-.006-.024h-.078l-.012-.024h-.084l-.012-.036h-.1l-.006-.024h-.09l-.006-.024h-.078l-.012-.024h-.084l-.012-.024h-.1l-.006-.024h-.09l-.012-.024h-.1l-.012-.024h-.084l-.012-.036h-.1l-.006-.024h-.09l-.012-.024h-.12l-.006-.024h-.1l-.006-.024h-.09l-.012-.024h-.1l-.012-.024H94.9l-.012-.024h-.1q-.011,0-.006-.036H94.7l-.012-.024h-.12l-.012-.024h-.12l-.006-.024h-.09l-.012-.024H94.2l-.012-.024h-.108l-.012-.024h-.1l-.012-.036h-.12l-.012-.023h-.108l-.012-.024h-.12l-.012-.024h-.12l-.006-.024h-.114l-.012-.024h-.144l-.012-.024h-.12l-.012-.024h-.108l-.012-.036h-.144l-.012-.024h-.12l-.012-.024H92.5l-.012-.024h-.144l-.012-.024H92.19l-.012-.024h-.144l-.012-.024h-.144l-.012-.024h-.132c-.007,0-.009-.012-.006-.036h-.15l-.012-.024H91.4l-.012-.024h-.168l-.012-.024h-.144l-.012-.024h-.192l-.012-.024h-.168l-.012-.024H90.5l-.012-.036H90.3l-.012-.024h-.192l-.012-.024h-.192l-.012-.024h-.216l-.012-.024h-.216l-.012-.024h-.216l-.012-.024h-.252l-.012-.024h-.24l-.012-.036h-.264l-.012-.024h-.3l-.012-.024h-.324l-.012-.024h-.336l-.012-.024h-.372l-.012-.024h-.479l-.012-.024h-.6l-.012-.024H84.866l-.012-.036h-1.1c0,.024,0,.036-.006.036H82.72l-.012.024h-.575l-.012.024h-.456l-.012.024h-.372l-.012.024H81l.006-.024h.216l.012-.024h.216l.012-.024h.252l.012-.024h.24l.012-.036h.264l.012-.024h.276l.012-.024h.288l.012-.024h.324l.012-.024h.348l.012-.024h.372l.012-.024h.444l.012-.036h.551l.012-.024h.174v.024h.048l.006-.024h.827l.012-.024h2.5l.006.024h.863l.012.024h.575l.012.036h.491l.012.024h.4l.012.024h.306Z" transform="translate(-81 -1591.697)" fill="#05a859"/>
    <path id="rgba_254_254_254_1_" data-name="rgba(254,254,254,1)" d="M1140,1.753c.024-.008.032,0,.024.024h.066l.006.024h.048v.036h.06v.024h.048v.024h.072v.024h.06l.006.024h.066v.024h.048l.006.024h.054V2h.072v.036h.048v.024h.048v.024h.078l.006.024h.048v.024h.066l.006.024h.06v.024h.072v.024h.048v.036h.06l.006.024h.066v.024h.048l.006.024h.078V2.34h.048v.024h.072l.006.024h.078v.036h.048v.024h.066l.006.024h.06V2.5h.072V2.52h.048l.006.024h.078v.024h.048v.024h.072v.036h.084v.024h.048v.024h.066l.006.024h.06v.024h.066l.006.024h.072v.024h.06V2.8h.072v.036h.048v.024h.078l.006.024h.066l.006.024h.048v.024h.078l.006.024h.072v.024h.048v.036h.084v.024h.072v.024h.048v.024h.078l.006.024h.066l.006.024h.06v.024h.066l.006.024h.072v.036h.06l.006.024h.066l.006.024h.066l.006.024h.078v.024h.048l.006.024h.066v.024h.084v.024h.048v.036h.072l.006.024h.072l.006.024h.066l.006.024h.048v.024h.078l.006.024h.072v.024h.06V3.6h.072v.024h.072l.006.024h.078V3.67h.048v.024h.066l.012.024h.072l.006.024h.072v.024h.048V3.8h.078l.006.024h.072V3.85h.084v.024h.048V3.9h.072v.024h.078l.006.024h.072v.036h.048v.024h.078l.006.024h.066l.006.024h.066l.006.024h.06V4.1h.066l.006.024h.072v.024h.084v.036h.072v.024h.048v.024h.078l.006.024h.072v.024h.084v.024h.048v.024h.072v.024h.084v.036h.072v.024h.048v.024h.078l.006.024h.072v.024h.078l.006.024h.072v.024h.048v.036h.078l.006.024h.072v.024h.072v.024h.084v.024h.048v.024h.072v.024h.078l.006.024h.072v.036h.048V4.8h.078l.006.024h.072v.024h.084v.024h.072v.024h.048v.024h.078l.006.024h.072v.036h.072V5h.06v.024h.066l.006.024h.072v.024h.078l.006.024h.072V5.12h.06v.036h.072V5.18h.072l.006.024h.078v.024h.048v.024h.072l.006.024h.078V5.3h.072l.006.024h.078v.036h.048v.024h.066l.012.024h.072l.006.024h.072v.024h.048v.024h.078l.006.024h.072v.024h.072v.036h.084v.024h.048v.024h.066l.012.024h.072l.006.024h.072v.024h.048l.006.024h.078v.036h.072l.006.024h.072l.006.024h.066l.006.024h.048v.024h.078l.006.024h.072v.024h.072v.024h.06v.036h.066l.006.024h.072v.024h.084v.024h.048v.024h.078l.006.024h.072V6.09h.072v.024h.06V6.15h.072v.024h.072l.006.024h.078v.024h.048l.006.024h.066l.006.024h.072l.006.024h.072V6.33h.048v.024h.078l.006.024h.072V6.4h.084v.024h.048V6.45h.072v.024h.078l.006.024h.072v.036h.048v.024h.078l.006.024h.066l.006.024h.048V6.63h.078l.006.024h.072v.024h.084V6.7h.048v.036h.072l.006.024h.072l.006.024h.048v.024h.066l.012.024h.072l.006.024h.072v.024h.048v.036h.078l.006.024h.066l.006.024h.048v.024h.078l.006.024h.072v.024h.072v.024h.06v.024h.072v.036h.084v.024h.048v.024h.072l.006.024h.078v.024h.048l.006.024h.066l.006.024h.078v.024h.048v.036h.072l.006.024h.078v.024h.048V7.4h.066l.006.024h.078l.006.024h.048v.024h.072V7.5h.084v.024h.048v.024h.072l.006.024h.078V7.6h.048l.006.024h.066l.006.024h.078v.024h.048v.036h.072v.024h.06v.024h.066l.006.024h.066l.006.024h.06v.024h.072v.024h.048v.036h.078l.006.024h.066l.006.024h.048V7.96h.084v.024h.048v.024h.072l.006.024h.078v.024h.048v.036h.084v.024h.048v.024h.072l.006.024h.078v.024h.048l.006.024h.066v.024h.048v.024h.084v.036h.048v.024h.078l.006.024h.066l.006.024h.048v.024h.084v.024h.048v.024h.072v.036h.048V8.5h.084v.024h.048v.024h.084v.024h.048l.006.024h.066v.024h.048v.024h.084v.036h.048V8.7h.066l.006.024h.06V8.75h.072v.024h.048l.006.024h.078v.024h.048l.006.024h.066v.036h.06l.006.024h.066V8.93h-2.367l-.006-.024h-.072V8.882h-.084V8.846h-.048V8.822h-.072l-.006-.024h-.072l-.006-.024h-.048V8.75h-.078l-.006-.024h-.072V8.7h-.072V8.678h-.06V8.642h-.066l-.006-.024h-.072V8.595h-.06l-.006-.024h-.066l-.006-.024h-.066V8.523h-.084V8.5h-.048V8.475h-.072V8.439h-.078l-.006-.024h-.048V8.391h-.066l-.012-.024h-.072l-.006-.024h-.072V8.319h-.048V8.295h-.084V8.259h-.066l-.006-.024h-.06V8.211h-.066l-.006-.024h-.072V8.163h-.06V8.139h-.072V8.115h-.072l-.006-.024h-.078V8.055h-.048V8.031h-.072l-.006-.024h-.072l-.006-.024h-.048V7.96h-.066l-.012-.024h-.072l-.006-.024h-.072V7.888h-.048V7.852h-.084V7.828h-.072V7.8h-.06l-.006-.024h-.066l-.006-.024h-.066V7.732h-.084V7.708h-.048V7.672h-.072l-.006-.024h-.072l-.006-.024h-.048V7.6h-.066l-.012-.024h-.072l-.006-.024h-.072V7.528h-.048V7.5h-.084V7.468h-.072V7.444h-.048V7.42h-.078l-.006-.024h-.072V7.372h-.084V7.348h-.048l-.006-.024h-.066q0-.036-.006-.036h-.078V7.265h-.048V7.241h-.072l-.006-.024h-.072l-.006-.024h-.066L1152,7.169h-.048V7.145h-.078l-.006-.024h-.072V7.085h-.048V7.061h-.078l-.006-.024h-.072V7.013h-.084V6.989h-.048V6.965h-.072V6.941h-.084V6.917h-.048V6.881h-.072l-.006-.024h-.072l-.006-.024h-.066l-.006-.024h-.048V6.785h-.078l-.006-.024h-.072V6.737h-.048V6.7h-.078l-.006-.024h-.072V6.653h-.084V6.63h-.048V6.606h-.072V6.582h-.084V6.558h-.048V6.534h-.072V6.5h-.084V6.474h-.072V6.45h-.048V6.426h-.078l-.006-.024h-.072V6.378h-.048V6.354h-.078l-.006-.024h-.072V6.294h-.072V6.27h-.06V6.246h-.072l-.006-.024h-.078V6.2h-.048l-.006-.024h-.066l-.006-.024h-.078V6.114h-.072V6.09h-.048V6.066h-.084V6.042h-.072V6.018h-.048V5.995h-.078l-.006-.024h-.072V5.947h-.072V5.911h-.06V5.887h-.066l-.006-.024h-.072V5.839h-.06l-.006-.024h-.066l-.006-.024h-.072l-.006-.024h-.072V5.743h-.048V5.707h-.078l-.006-.024h-.072V5.659h-.048V5.635h-.078l-.006-.024h-.066l-.006-.024h-.066l-.006-.024h-.06V5.527h-.066L1147.5,5.5h-.072V5.479h-.06l-.006-.024h-.066l-.006-.024h-.066l-.006-.024h-.078V5.383h-.048V5.359h-.084V5.324h-.072V5.3h-.048V5.276h-.078l-.006-.024h-.066l-.006-.024h-.066l-.006-.024h-.06V5.18h-.066l-.006-.024h-.072V5.12h-.06V5.1h-.072V5.072h-.072l-.006-.024h-.078V5.024h-.048L1146.12,5h-.066l-.006-.024h-.078V4.94h-.048V4.916h-.084V4.892h-.072V4.868h-.072V4.844h-.06V4.82h-.066l-.006-.024h-.066l-.006-.024h-.06V4.736h-.072V4.712h-.072l-.006-.024h-.078V4.665h-.048l-.006-.024h-.066l-.006-.024H1145V4.593h-.048V4.569h-.072V4.533h-.084V4.509h-.072V4.485h-.048V4.461h-.078l-.006-.024h-.066l-.006-.024h-.06V4.389h-.072V4.353h-.072l-.006-.024h-.078V4.305h-.048V4.281h-.072l-.006-.024h-.078V4.233h-.048l-.006-.024h-.066V4.185h-.084V4.149h-.066l-.006-.024h-.048V4.1h-.078l-.006-.024h-.072V4.053h-.048V4.03h-.078l-.006-.024h-.072V3.982h-.084V3.946h-.048V3.922h-.072l-.006-.024h-.072l-.006-.024h-.048V3.85h-.066l-.012-.024h-.072l-.006-.024h-.072V3.766h-.048l-.006-.024h-.078l-.006-.024h-.066V3.694h-.048V3.67h-.078l-.006-.024h-.072V3.622h-.084V3.6h-.048V3.562h-.072l-.006-.024h-.078V3.514h-.048l-.006-.024h-.066l-.006-.024h-.078V3.442h-.048V3.418h-.072V3.383h-.084V3.359h-.072V3.335h-.048V3.311h-.078l-.006-.024h-.072V3.263h-.048V3.239h-.078l-.006-.024h-.072V3.179h-.078l-.006-.024h-.048V3.131h-.072l-.006-.024h-.078V3.083h-.048V3.059h-.066l-.012-.024h-.072l-.006-.024h-.072V2.975h-.048V2.951h-.078l-.006-.024h-.066l-.006-.024h-.048V2.879h-.078l-.006-.024h-.072V2.831h-.084V2.8h-.048l-.006-.024h-.066V2.747L1140,2.741Z" transform="translate(-1127.306 -1.729)" fill="#fff"/>
    <path id="rgba_254_254_254_1_2" data-name="rgba(254,254,254,1)" d="M2728.906,991h.737l.012.024h.192l.012.024H2730l.006.024h.1l.006.024h.09l.012.024h.1c.007,0,.009.012.006.036h.072v.024h.065l.006.024h.06v.024h.072v.024h.048l.006.024h.054v.024h.072v.024h.048v.036h.048v.024c.033-.01.044,0,.036.024h.048v.024H2731l.006.024h.048v.024c.033-.01.045,0,.036.024h.048v.036h.048v.024c.024-.008.032,0,.024.024h.048v.024h.036v.024c.024-.008.032,0,.024.024h.048v.024h.024c-.008.024,0,.032.024.024v.06h-.024v.048h-.024c.008.024,0,.032-.023.024v.048h-.024c.008.024,0,.032-.024.024v.06h-.036c.008.024,0,.032-.023.024v.048h-.024v.024h-.024c.008.024,0,.032-.024.024v.06h-.024c.008.024,0,.032-.024.024v.048c-.024-.008-.032,0-.024.024h-.036v.048h-.024c.01.033,0,.044-.024.036v.048h-.024c.008.024,0,.032-.024.024v.048h-.024v.024c-.024-.008-.032,0-.024.024h-.036v.06h-.023c.007.024,0,.032-.024.024v.048h-.024v.024c-.024-.008-.032,0-.024.024h-.048v-.024c-.023.008-.032,0-.023-.024h-.06v-.024h-.048v-.024c-.023.008-.032,0-.023-.024h-.048l-.006-.024h-.054V992.5c-.024.008-.032,0-.024-.024h-.047v-.024h-.048v-.024h-.06V992.4h-.047v-.024h-.048v-.024h-.048v-.024h-.06v-.036h-.048l-.006-.024h-.066l-.006-.024h-.072l-.006-.024h-.072V992.2h-.072l-.006-.024h-.1l-.012-.024h-.144l-.012-.024h-.425l-.006.024h-.12l-.006.024h-.066l-.006.024h-.065l-.007.024h-.06v.024h-.023v.024h-.024c.008.024,0,.032-.024.024v.036h-.024v.024h-.024c.008.024,0,.032-.024.024v.042l-.024.006v.048h-.036v.084l-.024.006v.2h.024v.1h.036v.06h.024c-.008.024,0,.032.024.024v.048h.024v.024c.024-.008.032,0,.024.024h.048v.024c.023-.008.032,0,.023.024h.06v.036h.048v.024h.048v.024h.048v.024h.078l.006.024h.072v.024h.078l.006.024h.072v.036h.071l.006.024h.1l.006.024h.072l.006.024h.1l.012.024h.084l.006.024h.078l.011.024h.084l.012.024h.079v.036h.089l.012.024h.072l.006.024h.072v.024h.072v.024h.084v.024h.048v.024h.072v.036h.06l.006.024h.066v.024h.048v.024h.06v.024h.047v.024h.042l.006.024h.048c-.009.024,0,.032.023.024v.036h.06v.024c.024-.008.032,0,.024.024H2731v.024h.024v.024c.024-.008.032,0,.024.024h.06v.024h.024c-.008.024,0,.032.024.024v.036h.024v.024h.024v.024h.024v.024c.023-.008.032,0,.023.024h.036c-.008.024,0,.032.024.024v.06h.024v.024h.023c-.008.024,0,.032.024.024v.048h.024v.048h.023v.054l.024.006v.048h.036v.048h.024v.072l.024.006v.072l.023.012v.12l.024.012v.24l.024.012v.15l-.024.006v.264l-.024.012v.12l-.023.012v.084l-.024.012v.072l-.024.006v.072h-.036v.048l-.024.006v.054h-.023v.042l-.024.006v.048h-.024c.008.024,0,.032-.023.024v.048h-.024c.01.033,0,.045-.024.036v.048h-.036v.024h-.023v.024h-.024c.008.024,0,.032-.024.024v.048h-.024v.036h-.024v.024c-.024-.008-.032,0-.024.024h-.06v.024h-.024v.024H2731v.024h-.024c.008.024,0,.032-.024.024v.036h-.048v.024c-.033-.01-.045,0-.036.024h-.042l-.006.024h-.048v.024c-.024-.008-.032,0-.024.024h-.047v.024h-.054l-.006.024h-.048v.036h-.072v.024h-.06l-.006.024h-.065l-.006.024h-.065l-.006.024h-.1l-.012.024h-.084l-.012.024h-.12l-.012.024h-.192l-.012.036h-.629c0-.024,0-.036-.006-.036h-.228l-.012-.024h-.131l-.012-.024h-.12l-.006-.024h-.09l-.012-.024h-.1l-.006-.024h-.072v-.024h-.078l-.006-.024h-.072v-.036h-.078l-.006-.024h-.072v-.024H2728v-.024h-.084v-.024h-.048v-.024h-.048v-.024h-.048v-.024h-.06v-.036h-.042l-.006-.024h-.048v-.024c-.023.008-.032,0-.023-.024h-.054l-.006-.024h-.048v-.024c-.024.008-.033,0-.024-.024h-.047V996.4c-.024.008-.032,0-.024-.024h-.06v-.024c-.023.008-.032,0-.023-.024h-.048v-.024h-.024v-.024c-.024.008-.032,0-.024-.024h-.06c.007-.024,0-.032-.024-.024V996.2h-.024v-.024h-.024v-.024c-.024.008-.032,0-.024-.024H2727v-.072h.024c-.008-.024,0-.032.024-.024-.01-.033,0-.045.024-.036v-.048h.024v-.024h.024V995.9c.024.008.032,0,.024-.024h.036c-.008-.024,0-.032.024-.024v-.06h.024v-.024h.024v-.024h.024v-.024h.024c-.008-.024,0-.032.023-.024v-.048h.037v-.036h.023v-.024h.024v-.024h.024c-.008-.024,0-.032.023-.024v-.048h.024v-.024h.024c-.008-.024,0-.032.024-.024v-.036h.036c-.008-.024,0-.032.024-.024v-.048h.023v-.024h.024v-.024h.024c-.008-.024,0-.032.024-.024-.01-.033,0-.045.024-.036v-.048h.06v.024h.024c-.008.024,0,.032.024.024v.036h.048v.024h.024v.024c.024-.008.032,0,.024.024h.06v.024H2728v.024c.024-.008.032,0,.024.024h.048v.036h.048v.024c.032-.01.045,0,.036.024h.048v.024c.024-.008.032,0,.024.024h.048v.024h.048v.024h.06v.024h.048v.036h.048l.006.024h.054v.024h.048v.024h.048v.024h.072l.006.024h.078v.024h.072l.006.024h.1c0,.024,0,.036.006.036h.107l.013.024h.192l.012.024h.354l.005-.024h.168l.012-.024h.1v-.036h.047l.006-.024h.066v-.024c.024.008.032,0,.024-.024h.06v-.024h.024V995.7h.024v-.024h.024c-.008-.024,0-.032.024-.024-.011-.033,0-.045.023-.036v-.048h.024v-.048h.037v-.072l.023-.006v-.234h-.023v-.1h-.037v-.048c-.026.009-.035,0-.024-.036h-.023V995h-.024v-.024h-.024v-.024c-.024.008-.032,0-.024-.024h-.048v-.024c-.033.01-.044,0-.036-.024h-.042l-.006-.024h-.048v-.036h-.047V994.8h-.06l-.006-.024h-.065v-.024h-.048l-.005-.024h-.072l-.006-.024h-.072l-.007-.024h-.1v-.036h-.072l-.006-.024h-.084l-.012-.024h-.1l-.006-.024h-.072l-.006-.024h-.1l-.012-.024h-.084l-.012-.024h-.1l-.006-.024h-.072v-.036h-.078l-.006-.024h-.072v-.024h-.072v-.024h-.078l-.006-.024h-.072v-.024h-.084v-.024h-.047v-.024h-.072v-.036h-.06v-.024h-.048v-.024h-.042l-.006-.024h-.048v-.024c-.024.008-.032,0-.024-.024h-.06c.008-.024,0-.032-.024-.024v-.036h-.048v-.024c-.024.008-.032,0-.024-.024h-.06v-.024h-.024v-.024h-.024v-.024h-.024v-.024h-.024c.008-.024,0-.032-.024-.024v-.036h-.023v-.024c-.024.008-.032,0-.024-.024h-.036c.008-.024,0-.032-.024-.024v-.048h-.024v-.024h-.024c.008-.024,0-.032-.023-.024v-.06h-.024v-.048h-.024v-.048h-.023v-.06h-.037v-.048h-.023v-.072l-.024-.006v-.1l-.024-.012v-.108l-.024-.012v-.324l-.024-.006v-.048l.024-.006v-.3l.024-.012v-.084l.024-.012v-.1l.024-.006v-.072h.023v-.084h.037v-.048h.023v-.048h.024v-.06h.024c-.008-.024,0-.032.023-.024v-.042l.024-.006v-.048h.024v-.024c.024.008.032,0,.024-.024h.036v-.06h.024v-.024h.023v-.024h.024v-.024h.024v-.024h.024v-.024h.024c-.008-.024,0-.032.024-.024V991.5h.036v-.024h.024v-.024c.024.008.032,0,.024-.024h.048v-.024h.024v-.024c.024.008.032,0,.024-.024h.06v-.036c.024.008.032,0,.024-.024h.048v-.024h.048v-.024h.06v-.024h.048V991.2h.048v-.024h.047v-.024h.084v-.036h.072l.006-.024h.072l.012-.024h.084l.012-.024h.1l.012-.024h.156Z" transform="translate(-2695.283 -979.126)" fill="#fff"/>
    <path id="rgba_254_254_254_1_3" data-name="rgba(254,254,254,1)" d="M1652.348,993h1.169l.006.024h.024v.048l.024.006v.054l.024.006v.066h.036v.048h.024v.048l.024.006v.078h.024v.048h.024v.048h.024v.084h.024v.042l.024.006v.048h.036v.084h.024v.048h.024v.048h.024v.078l.024.006v.048h.024v.066l.024.006v.06h.036v.048h.024v.072h.024v.048h.024v.06l.024.006v.066h.024v.048l.024.006v.054h.024v.072h.036v.048l.024.006v.054l.024.006v.066h.024v.048h.024v.048h.024v.078l.024.006v.048h.024v.072h.036v.06h.024v.048h.024v.072h.024v.06h.024v.048h.024v.066l.024.006v.06h.024v.048h.036v.072h.024v.06h.024v.048l.024.006v.066h.024v.048h.024v.084h.024v.048h.036v.048h.024v.084h.024v.048h.024v.048h.024v.078l.024.006v.048h.024v.048h.024v.084h.036v.048h.024v.048h.024v.072h.024v.06l.024.006v.066h.024v.048l.024.006v.054h.024v.072h.036v.048l.024.006v.054l.024.006v.066h.024v.048h.024v.048h.024v.084h.024v.048h.036v.048h.024v.084h.024v.048h.024v.048h.024v.078l.024.006v.048h.024v.066l.024.006v.06h.036v.048h.024v.072h.024v.06h.024v.048h.024v.066l.024.006v.048h.024v.06h.024v.072h.036v.048h.024v.06l.024.006v.066h.024v.048l.024.006v.078h.024v.042l.024.006v.048h.036v.084H1656v.048h.024v.048c.024-.008.032,0,.024.024H1654.7v-.048l-.024-.006V998.8h-.024v-.06l-.024-.006v-.066h-.036v-.048h-.024v-.084h-.024v-.048h-.024v-.072h-.024v-.06h-.024v-.048h-.024v-.066l-.024-.006v-.06h-.036V998.1h-.024v-.048h-.024v-.084h-.024v-.048l-.024-.006v-.066l-.024-.006v-.054h-.024v-.048h-.024v-.072h-.036v-.048h-.024q0-.036-.006-.036h-2.463v.036l-.024.006v.066h-.036v.048h-.024v.078l-.024.006v.048h-.024v.066l-.024.006v.06h-.024v.048h-.024v.072h-.036v.048h-.024v.084h-.024v.048h-.024v.066l-.024.006v.06h-.024v.072h-.024v.048l-.024.006v.078h-.036v.048h-.024v.072h-.024v.06h-.024v.042l-.024.006v.048h-2.577v-.024h-.024c.008-.024,0-.032-.024-.024v-.048h-.036c.008-.024,0-.032-.024-.024v-.06h-.024c.008-.024,0-.032-.024-.024v-.048h-.024c.008-.024,0-.032-.024-.024V998.6q-.04.013-.024-.036h-.036v-.048h-.024c.008-.024,0-.032-.024-.024v-.048h-.024c.008-.024,0-.032-.024-.024v-.06h-.024c.008-.024,0-.032-.024-.024v-.048c-.024.008-.032,0-.024-.024h-.036v-.048h-.024c.01-.033,0-.045-.024-.036v-.048h-.024c.008-.024,0-.032-.024-.024v-.048h-.024q.012-.036-.024-.024v-.06c-.024.008-.032,0-.024-.024h-.036V997.9h-.024c.008-.024,0-.032-.024-.024v-.048h-.024c.01-.033,0-.045-.024-.036v-.048h-.024v-.024c-.024.008-.032,0-.024-.024h-.036v-.048h-.024c.008-.024,0-.032-.024-.024v-.06h-.024c.008-.024,0-.032-.024-.024v-.048h-.024c.008-.024,0-.032-.024-.024v-.048c-.027.009-.035,0-.024-.036h-.036v-.048h-.024c.008-.024,0-.032-.024-.024v-.048h-.024c.008-.024,0-.032-.024-.024v-.06h-.024c.008-.024,0-.032-.024-.024v-.048c-.024.008-.032,0-.024-.024h-.036v-.048h-1.043v1.881H1645v-5.871h3.009l.006.024h.192l.012.024h.144c.007,0,.009.012.006.036h.09l.012.024h.1l.006.024h.072v.024h.078l.006.024h.072v.024h.048v.024h.048v.024h.06v.036H1649l.006.024h.048v.024c.024-.008.032,0,.024.024h.06v.024c.024-.008.032,0,.024.024h.048c-.008.024,0,.032.024.024v.036h.024v.024c.024-.008.032,0,.024.024.032-.01.044,0,.036.024h.048v.024h.024v.024h.024c-.008.024,0,.032.024.024v.06h.024v.024c.024-.008.032,0,.024.024h.036v.024h.024c-.008.024,0,.032.024.024v.048h.024c-.008.024,0,.032.024.024v.06h.024v.048h.024v.048h.024v.06h.036v.048h.024v.048h.024v.072l.024.006v.072l.024.012v.084l.024.012v.144l.024.012v.24l.036.012v.258c-.024,0-.036,0-.036.006v.24l-.024.012v.144l-.024.012v.084l-.024.012v.072l-.024.006v.066l-.024.006v.048h-.024v.06h-.036v.048h-.024v.042l-.024.006v.048h-.024c.01.033,0,.045-.024.036v.048h-.024c.008.024,0,.032-.024.024v.048c-.024-.008-.032,0-.024.024h-.036v.036h-.024v.024h-.024v.024h-.024v.024h-.024v.024h-.024v.024h-.024v.024c-.024-.008-.032,0-.024.024h-.036v.036h-.024v.024c-.024-.008-.032,0-.024.024h-.048v.024h-.024v.024c-.024-.008-.032,0-.024.024h-.06v.024c-.024-.008-.032,0-.024.024H1649v.036c-.023-.008-.032,0-.023.024h-.048v.024h-.06v.024h-.048v.024h-.048v.024h-.078l-.006.024h-.048v.06h.024v.048c.024-.008.032,0,.024.024h.036v.048h.024c-.008.024,0,.032.024.024v.06h.024c-.008.024,0,.032.024.024v.048h.024c-.008.024,0,.032.024.024v.048c.027-.009.035,0,.024.036h.036c-.008.024,0,.032.024.024v.048h.024c-.008.024,0,.032.023.024v.048h.024c-.01.033,0,.045.024.036v.048h.024c-.008.024,0,.032.024.024v.048h.036c-.008.024,0,.032.024.024v.06h.024c-.008.024,0,.032.024.024v.048h.024v.024h.024c-.008.024,0,.032.024.024v.048h.036c-.01.033,0,.045.024.036v.048h.024c-.008.024,0,.032.024.024v.048h.024c-.008.024,0,.032.024.024v.06h.024c-.008.024,0,.032.024.024v.048h.036c-.008.024,0,.032.024.024v.048h.024c-.01.033,0,.045.024.036v.048h.024v.024h.024c-.008.024,0,.032.024.024v.048c.024-.008.032,0,.024.024h.036v.06h.024c-.008.024,0,.032.024.024v.048h.024c-.008.024,0,.032.024.024v.06h.024c-.008.024,0,.032.024.024v.048c.033-.01.045,0,.036.024h.048v-.048h.024V998.6l.024-.006v-.078h.024v-.048h.024v-.048h.024v-.084h.036v-.048h.024v-.072h.024v-.06h.024V998.1h.024v-.066l.024-.006v-.054l.024-.006v-.048h.024v-.072h.036v-.06h.024v-.048l.024-.006v-.066h.024v-.048l.024-.006v-.054h.024v-.072h.024v-.048h.036v-.084h.024v-.048h.024v-.048h.024v-.078l.024-.006v-.048h.024v-.048h.024V997h.024v-.048h.036v-.048h.024v-.072h.024v-.06h.024v-.048h.024v-.066l.024-.006V996.6l.024-.006v-.048h.024v-.072h.036v-.06l.024-.006v-.066h.024v-.048h.024v-.048h.024v-.084h.024v-.042l.024-.006v-.048h.036v-.084h.024v-.048h.024v-.048h.024v-.078l.024-.006v-.048h.024v-.048h.024v-.084h.024v-.048h.036V995.5h.024v-.06h.024V995.4h.024v-.066l.024-.006v-.048h.024v-.06h.024v-.072h.024V995.1h.036v-.06l.024-.006v-.066h.024v-.048l.024-.006v-.054l.024-.006v-.066h.024v-.048h.024v-.084h.036v-.048h.024v-.048h.024v-.084h.024v-.048h.024v-.048h.024v-.066l.024-.006v-.054l.024-.006V994.2h.036v-.072h.024v-.06h.024v-.048h.024v-.066l.024-.006v-.054l.024-.006v-.048h.024v-.072h.024v-.048h.036v-.084h.024v-.048h.024v-.048h.024v-.084h.024v-.048h.024v-.048h.024v-.084h.036v-.048h.024v-.048h.024V993.1l.024-.006v-.048h.024Z" transform="translate(-1626.252 -981.102)" fill="#fff"/>
    <path id="rgba_254_254_254_1_4" data-name="rgba(254,254,254,1)" d="M2588,997h1.277l.006.006v5.865h-1.277l-.005-.006Z" transform="translate(-2557.948 -985.054)" fill="#fff"/>
    <path id="rgba_254_254_254_1_5" data-name="rgba(254,254,254,1)" d="M3146,997h4.417l.006.006v1.12h-.024l-.006.024h-3.11v1.2h2.757v1.126h-2.757v1.246h3.165v1.15H3146Z" transform="translate(-3109.261 -985.054)" fill="#fff"/>
    <path id="rgba_254_254_254_1_6" data-name="rgba(254,254,254,1)" d="M1208.587,1119h.114l.012.024h.144l.012.024h.078v.024h.048v.024c.024-.008.032,0,.024.024h.048c-.008.024,0,.032.024.024v.036h.036v.024h.024v.024h.024v.024h.024c-.008.024,0,.032.024.024v.048l.024.006v.054h.024v.048l.024.006v.114c.024,0,.036,0,.036.006v.21h-.036v.09l-.024.006v.048h-.024v.054l-.024.006v.048h-.024v.024h-.024q.012.036-.024.024v.048h-.06v.036h-.024v.024c-.024-.008-.032,0-.024.024h-.048v.024h-.048v.024h-.06l-.006.024h-.09l-.006.024h-.282v-.024h-.066l-.006-.024h-.066l-.006-.024h-.06v-.024c-.024.008-.032,0-.024-.024h-.048c.008-.024,0-.032-.024-.024v-.036h-.024v-.024c-.024.008-.032,0-.024-.024h-.036c.008-.024,0-.032-.024-.024v-.048l-.024-.006v-.054h-.024v-.048h-.024v-.072l-.024-.006v-.305h.024v-.09l.024-.006v-.054l.024-.006v-.048h.024v-.024c.024.008.032,0,.024-.024h.036v-.048c.024.008.032,0,.024-.024h.048v-.036h.024v-.024c.024.008.032,0,.024-.024h.06v-.024h.048l.006-.024h.066l.006-.024h.126Z" transform="translate(-1194.491 -1105.593)" fill="#fff"/>
    <path id="rgba_254_254_254_1_7" data-name="rgba(254,254,254,1)" d="M1329,1121h.941l.006.006v.246h-.683v.251h.024l.006.024h.581v.24h-.611v.479H1329Z" transform="translate(-1314.04 -1107.569)" fill="#fff"/>
    <path id="rgba_254_254_254_1_8" data-name="rgba(254,254,254,1)" d="M2337.719,1562h.425l.012.024h.084l.012.024h.072l.005.024h.049v.024h.048c-.008.024,0,.032.024.024v.036h.06v.024h.024v.024h.024v.024h.024v.024c.024-.008.032,0,.024.024h-.024c.008.024,0,.032-.024.024.01.033,0,.045-.024.036v.048c-.024-.008-.032,0-.024.024h-.036v.024h-.023v.024h-.024c.008.024,0,.032-.024.024v.06h-.048v-.036c-.024.008-.032,0-.024-.024h-.06v-.024c-.024.008-.032,0-.024-.024h-.048v-.024h-.048v-.024h-.06l-.006-.024h-.132l-.006-.024h-.024l-.006.024h-.144l-.012.024h-.078v.024c-.024-.008-.032,0-.024.024h-.048v.024h-.024v.024h-.024c.008.024,0,.032-.024.024.012.036,0,.048-.036.036v.048h-.024c.008.024,0,.032-.024.024v.048l-.024.006v.078l-.024.006v.318h.024v.078l.024.006v.048h.024v.048c.024-.008.032,0,.024.024h.036v.06h.024v.024c.024-.008.032,0,.024.024h.048v.024c.024-.008.032,0,.024.024h.06l.006.024h.066l.006.024h.269v-.024h.078l.006-.024h.048v-.024c.024.008.031,0,.024-.024h.048v-.024c.024.008.032,0,.024-.024h.035v-.036h.049c-.008-.024,0-.032.024-.024-.008.024,0,.032.024.024v.036h.024v.024c.023-.008.032,0,.023.024h.036v.024h.024v.024h.024v.024h.024c-.008.024,0,.032.024.024v.084h-.024v.024h-.024v.024h-.024v.024c-.024-.008-.032,0-.024.024h-.06c.008.024,0,.032-.024.024v.036h-.048v.024h-.049v.024h-.06v.024h-.072v.024h-.126l-.012.024h-.293v-.024h-.126l-.006-.024h-.072v-.024h-.06v-.024h-.042l-.006-.024h-.048v-.036h-.024v-.024c-.024.008-.032,0-.024-.024h-.06v-.024h-.024v-.024h-.024v-.024h-.024c.008-.024,0-.032-.024-.024v-.06h-.024c.008-.024,0-.032-.024-.024v-.048c-.024.008-.032,0-.024-.024h-.036v-.048h-.024v-.084h-.024v-.072l-.024-.006v-.12l-.024-.012v-.246l.024-.006v-.12l.024-.006v-.072h.024v-.084h.024v-.048h.036v-.048h.024c-.008-.024,0-.032.024-.024v-.048c.027.009.035,0,.024-.036h.024v-.024h.024v-.024h.024v-.024c.024.008.032,0,.024-.024h.036v-.024c.024.008.032,0,.024-.024h.048v-.036h.048v-.024c.024.008.032,0,.024-.024h.06l.006-.024h.066l.006-.024h.1Z" transform="translate(-2309.957 -1543.285)" fill="#fff"/>
    <path id="rgba_254_254_254_1_9" data-name="rgba(254,254,254,1)" d="M2505.742,1562h.354l.005.024h.024v.072h.024v.06h.024v.048h.024v.066l.024.006v.06h.036v.048l.024.006v.066h.024v.048l.024.006v.078h.023v.048h.025v.048h.023v.084h.024v.048h.036v.072h.024v.06h.024v.048h.024v.066l.024.006v.054l.023.006v.048h.025v.072h.023v.048h.036v.084h.024v.048h.023v.048h.024v.084h.024v.048l.024.006v.066l.024.006v.054h.036v.048c.025-.008.032,0,.025.024h-.408v-.048h-.036v-.048h-.024v-.084h-.023v-.048h-.025v-.072h-.023v-.06h-.024c0-.031,0-.047-.006-.048h-.761v.048l-.024.006v.054l-.024.006v.066h-.036v.048h-.024v.078l-.024.006v.048h-.023v.048H2505v-.048h.023v-.048l.024-.006v-.078h.036v-.048h.024v-.048l.024-.006v-.078h.024v-.048h.024v-.048h.024v-.078l.024-.006v-.048h.024v-.072h.036v-.06h.024v-.048l.024-.006v-.066h.023v-.048h.025v-.084h.023v-.048h.024v-.048h.024v-.084h.036v-.048l.024-.006v-.066l.024-.006v-.054h.024v-.048h.023v-.066l.025-.006v-.06h.024v-.048h.036v-.066l.024-.006v-.06h.024v-.066l.023-.006Zm.156.479v.084h-.024v.048h-.036v.072h-.024v.06l-.024.012v.06h-.024v.048l-.024.012v.072h-.023v.048h-.024v.072h.455v-.072h-.024v-.048h-.024v-.084h-.024v-.048h-.036v-.072h-.024v-.06h-.024v-.072h-.023v-.048h-.024v-.084Z" transform="translate(-2475.943 -1543.285)" fill="#fff"/>
    <path id="rgba_254_254_254_1_10" data-name="rgba(254,254,254,1)" d="M2844.707,1562h.437l.012.024h.084l.012.024h.072l.006.024h.048v.024h.047v.024h.048v.036c.033-.01.045,0,.036.024h.048v.024l.024.006v.066h-.024c.008.024,0,.032-.024.024v.036c-.024-.008-.032,0-.024.024h-.036v.048h-.024v.024h-.024v.024h-.024v.024c-.024-.008-.032,0-.024.024h-.048v-.024c-.033.01-.044,0-.036-.024h-.048v-.024c-.024.008-.032,0-.024-.024h-.048v-.024h-.078l-.012-.024h-.156l-.006-.024h-.036l-.006.024h-.132l-.006.024h-.054l-.006.024h-.049v.024h-.023v.024h-.024v.024h-.024c.008.024,0,.032-.023.024v.036h-.036c.008.024,0,.032-.024.024v.048h-.025c.009.024,0,.032-.023.024v.072l-.024.006v.1l-.024.012v.2l.024.006v.1l.024.006v.072h.023c-.007.024,0,.032.025.024v.048c.024-.008.032,0,.024.024h.036v.036h.023v.024h.024v.024c.024-.008.032,0,.024.024h.048v.024c.024-.008.032,0,.024.024h.078l.012.024h.354v-.024h.072v-.024h.048v-.024h.024c-.009-.024,0-.032.024-.024v-.251h-.371v-.335h.731v.791h-.048v.024h-.024v.024c-.024-.008-.032,0-.024.024h-.048v.024h-.06v.036h-.048v.024h-.048v.024h-.06v.024h-.072l-.006.024h-.12l-.012.024h-.318l-.006-.024h-.12l-.006-.024h-.065l-.006-.024h-.078l-.005-.024h-.048c.008-.024,0-.032-.024-.024v-.036h-.048v-.024c-.024.008-.032,0-.024-.024h-.035v-.024h-.025v-.024h-.024v-.024h-.023v-.024h-.025c.008-.024,0-.032-.024-.024v-.036h-.024v-.048c-.024.008-.032,0-.024-.024h-.036v-.048l-.024-.006v-.054l-.024-.006v-.066l-.024-.006v-.09l-.024-.006v-.414l.024-.006v-.09h.024v-.048h.024v-.084h.024v-.048h.036c-.008-.024,0-.032.024-.024v-.048h.024c-.008-.024,0-.032.024-.024v-.036h.025v-.024h.023v-.024h.024v-.024c.025.008.032,0,.025-.024h.035v-.024c.024.008.032,0,.024-.024h.048v-.036c.024.008.032,0,.024-.024h.048l.005-.024h.054l.006-.024h.066l.006-.024h.09Z" transform="translate(-2810.88 -1543.285)" fill="#fff"/>
    <path id="rgba_254_254_254_1_11" data-name="rgba(254,254,254,1)" d="M3021.731,1562h.354l.006.024h.024v.048h.036v.084h.024v.048h.024v.066l.024.006v.054l.024.006v.048h.024v.072h.024v.048h.024v.06h.036v.072h.024v.048l.024.006v.078h.024v.048h.024v.048h.024v.078l.024.006v.048h.024v.072h.036v.06h.024v.048l.024.006v.066h.024v.048l.024.006v.054h.024v.072h.023v.048h.036v.084h.024v.048h.024v.048h.024v.084h.024v.048c.024-.008.032,0,.024.024h-.408v-.048l-.024-.006v-.078h-.024v-.048h-.024v-.072h-.024v-.048h-.036v-.078l-.024-.006-.006-.024h-.761v.048l-.024.006v.078h-.024v.048h-.024v.048h-.024v.078l-.024.006v.048h-.024v.048H3021v-.048h.024v-.048h.024v-.06h.024v-.072h.024v-.048h.024v-.084h.024v-.048h.036v-.048l.024-.006v-.078h.024v-.048h.024v-.048h.024v-.078l.024-.006v-.048h.024v-.072h.024v-.048h.036v-.06l.024-.006v-.066h.024v-.048h.024v-.084h.024v-.048h.024v-.048h.024v-.084h.035v-.048h.024v-.048h.024v-.084h.023v-.048h.024v-.066l.024-.006v-.054l.024-.006v-.048h.024Zm.18.479c.008.024,0,.032-.024.024v.06h-.024v.072h-.024v.048h-.024v.084h-.024v.048h-.024v.072h-.036v.06h-.024v.048h-.024v.072h.467v-.072h-.036v-.072h-.024v-.06h-.024v-.072h-.024v-.048h-.024v-.084h-.024v-.048h-.024v-.072h-.036v-.06Z" transform="translate(-2985.758 -1543.285)" fill="#fff"/>
    <path id="rgba_254_254_254_1_12" data-name="rgba(254,254,254,1)" d="M2701,1564h.377l.006.006v1.42h.9v.36H2701Z" transform="translate(-2669.594 -1545.261)" fill="#fff"/>
    <path id="rgba_254_254_254_1_13" data-name="rgba(254,254,254,1)" d="M3217,1564h.989l.012.024h.084l.012.024h.078v.024h.048c-.008.024,0,.032.024.024v.036c.024-.008.032,0,.024.024h.048v.048h.036v.024h.023c-.008.024,0,.032.024.024v.06l.024.006v.066l.024.006v.12l.024.012v.138l-.024.006v.12l-.024.006v.066l-.024.006v.06h-.024v.024c-.023-.008-.032,0-.023.024h-.036v.024h-.024v.024h-.024v.024c-.024-.008-.032,0-.024.024h-.047v.036c-.024-.008-.032,0-.024.024h-.084v.048h.024c-.008.024,0,.032.024.024v.048h.036c-.008.024,0,.032.024.024v.06h.024c-.008.024,0,.032.024.024v.048h.024c-.008.024,0,.032.024.024v.06c.024-.008.032,0,.024.024h.036v.048h.023c-.008.024,0,.032.024.024v.048h.024c-.008.024,0,.032.024.024v.06h.024c-.008.024,0,.032.024.024v.048h-.431c.008-.024,0-.032-.024-.024v-.048h-.024c.008-.024,0-.032-.024-.024v-.06c-.024.008-.032,0-.024-.024h-.036v-.048h-.024c.008-.024,0-.032-.024-.024v-.048h-.024c.01-.032,0-.045-.024-.036v-.048h-.024c.008-.024,0-.032-.024-.024v-.048l-.024-.006v-.054h-.036v-.024h-.024v-.024c-.024.008-.032,0-.024-.024h-.3v.587H3217Zm.384.335v.527h.5l.012-.024h.072c-.008-.024,0-.032.024-.024v-.024h.024v-.024h.024v-.024h.024v-.072l.024-.012v-.108l-.024-.012v-.084c-.024.008-.032,0-.024-.024h-.024v-.024h-.024v-.024h-.06v-.024h-.084l-.012-.024Z" transform="translate(-3179.409 -1545.261)" fill="#fff"/>
    <path id="rgba_254_254_254_1_14" data-name="rgba(254,254,254,1)" d="M3374,1564h.426l.006.024h.036v.048h.023v.054l.024.006v.048h.024c-.008.024,0,.032.024.024v.048h.024v.06c.024-.008.032,0,.024.024h.036v.042l.024.006v.048h.024c-.008.024,0,.032.023.024v.06h.024v.042l.024.006v.048h.024c-.008.024,0,.032.024.024v.048h.036c-.011.033,0,.045.023.036v-.06h.024v-.048h.025c-.008-.024,0-.032.023-.024v-.048l.024-.006v-.054h.024c-.009-.024,0-.032.023-.024v-.048h.036v-.048h.025c-.008-.024,0-.032.023-.024v-.054l.024-.006v-.048h.024c-.008-.024,0-.032.023-.024v-.048l.024-.006v-.054h.036c-.008-.024,0-.032.024-.024v-.048c.024.008.032,0,.024-.024h.431v.024h-.024c.008.024,0,.032-.024.024v.048c-.026-.009-.034,0-.024.036h-.036v.042l-.024.006v.048h-.024c.008.024,0,.032-.024.024v.06h-.024c.008.024,0,.032-.024.024v.042l-.024.006v.048c-.024-.008-.032,0-.024.024h-.037v.06h-.023c.008.024,0,.032-.024.024v.048h-.024c.007.024,0,.032-.024.024v.048l-.024.006v.054h-.024c.008.024,0,.032-.024.024v.048h-.036c.007.024,0,.032-.024.024v.048l-.023.006v.054h-.024c.007.024,0,.032-.024.024v.048h-.023c.008.024,0,.032-.025.024v.767h-.383v-.719h-.024v-.048h-.036c.008-.024,0-.032-.024-.024v-.048h-.024v-.048h-.024c.011-.033,0-.045-.024-.036v-.048h-.024c.008-.024,0-.032-.023-.024v-.048h-.036v-.06h-.024c.008-.024,0-.032-.024-.024v-.048h-.024c.008-.024,0-.032-.024-.024v-.048l-.024-.006v-.054h-.024c.008-.024,0-.032-.023-.024v-.048h-.036c.008-.024,0-.032-.024-.024v-.048l-.024-.006v-.054h-.024c.008-.024,0-.032-.024-.024v-.048h-.023c.008-.024,0-.032-.024-.024v-.048l-.024-.006v-.054h-.036c.009-.024,0-.032-.023-.024Z" transform="translate(-3334.527 -1545.261)" fill="#fff"/>
    <path id="rgba_254_254_254_1_15" data-name="rgba(254,254,254,1)" d="M153.752,42.568v.024l-.024.012v1.677h1.51l.012-.024h.144l.012-.024h.084V44.2h.072v-.024h.06V44.15h.048q-.012-.036.024-.024V44.1h.048q-.012-.036.024-.024v-.024h.036q-.012-.036.024-.024v-.036q.036.012.024-.024h.024v-.024h.024v-.024h.024v-.048h.024v-.06h.036v-.048h.024v-.072h.024v-.1l.024-.012v-.312l-.024-.012v-.12l-.024-.012v-.06l-.024-.012V43h-.036v-.048q-.036.012-.024-.024H155.9V42.9h-.024v-.06q-.036.012-.024-.024h-.024V42.8h-.06q.012-.036-.024-.024v-.024h-.048q.012-.036-.024-.024V42.7h-.048v-.024h-.084V42.64h-.072v-.024h-.072v-.024h-.168l-.012-.024Zm6.617.359v.048l-.024.012v.072h-.024v.048l-.024.012v.06h-.036v.048l-.024.012v.072h-.024v.048h-.024v.048h-.024v.084h-.024v.048h-.024v.072h-.036v.06l-.024.012v.06h-.024v.048h-.024v.084h-.024v.048h-.024v.048h-.024v.084h-.024V44.1h-.036v.072h-.024v.06l-.024.012v.06h-.024v.048l-.024.012v.072h-.024v.048h-.024v.048h-.024v.084h-.036v.048l-.024.012v.06h-.024v.048H159.6v.06h1.558v-.06h-.024v-.072h-.024v-.048h-.024v-.084h-.036v-.048h-.024v-.072H161V44.4h-.024v-.072h-.024v-.048h-.024v-.048h-.024V44.15h-.024V44.1h-.036V44.03h-.024v-.06H160.8V43.9h-.024V43.85h-.024v-.084h-.024v-.048H160.7V43.67h-.036v-.084h-.024v-.048h-.024v-.072H160.6v-.06h-.024v-.072h-.024v-.048h-.024V43.2H160.5v-.048h-.036v-.048h-.024v-.084h-.024v-.048h-.024v-.048Z" transform="translate(-133.71 -29.472)" fill="#3e4095"/>
    <path id="rgba_254_254_254_1_16" data-name="rgba(254,254,254,1)" d="M1208,997h2.7l.012.024h.192l.012.024h.108c.007,0,.009.012.006.036h.1l.012.024h.084l.012.024h.072l.006.024h.072v.024h.048v.024h.084v.024h.042l.006.024h.048v.036h.06v.024c.024-.008.032,0,.024.024h.042l.006.024h.048v.024c.024-.008.032,0,.024.024h.036v.024h.048v.036h.024v.024h.024v.024c.024-.008.032,0,.024.024h.047v.024h.036v.024h.024v.024h.024c-.008.024,0,.032.024.024v.06h.024v.024h.024v.024h.024v.024c.024-.008.032,0,.024.024h.036v.048h.024q-.016.049.024.036v.042l.024.006v.048h.024c-.008.024,0,.032.024.024v.06h.024v.042l.024.006v.048h.036v.072h.024v.06l.024.006v.066l.024.006v.1l.024.012v.084l.024.012v.144l.024.012v.629l-.024.006v.144l-.024.012v.1l-.024.012v.084l-.024.006v.066l-.024.006v.06h-.024v.072h-.036v.048h-.024v.054l-.024.006v.048h-.024c.008.024,0,.032-.024.024v.048h-.024c.008.024,0,.032-.024.024v.06q-.036-.012-.024.024h-.036v.048h-.024v.024h-.024v.024h-.024c.008.024,0,.032-.024.024v.036h-.024v.024h-.024v.024q-.036-.012-.024.024h-.036v.024H1212v.024h-.024v.024h-.024c.008.024,0,.032-.024.024v.036h-.048v.024c-.024-.008-.032,0-.024.024-.033-.01-.045,0-.036.024h-.048v.024c-.024-.008-.032,0-.024.024h-.048l-.006.024h-.054v.036h-.048v.024h-.048v.024h-.048v.024h-.06v.024h-.048l-.006.024h-.066l-.006.024h-.072l-.006.024h-.072c0,.024,0,.036-.006.036h-.1l-.006.024h-.09l-.012.024h-.12l-.012.024h-.168l-.012.024h-1.372v1.761H1208v-2.888h2.439l.012-.024h.168l.012-.024h.078v-.024h.072v-.024h.048v-.024h.054l.006-.024h.048v-.036c.024.008.032,0,.024-.024h.048v-.024h.024v-.024c.024.008.032,0,.024-.024h.036v-.024h.024v-.024h.024q-.012-.036.024-.024v-.06h.024q-.012-.036.024-.024v-.042l.024-.006v-.048h.036v-.06l.024-.006v-.084l.024-.012v-.461h-.024v-.1h-.024v-.048h-.036v-.06h-.024v-.042l-.024-.006v-.048h-.024v-.024h-.024q.012-.036-.024-.024v-.036c-.024.008-.032,0-.024-.024h-.036v-.024c-.024.008-.032,0-.024-.024h-.048v-.024c-.024.008-.032,0-.024-.024h-.048v-.024h-.054l-.006-.024h-.048v-.036h-.072l-.006-.024h-.1l-.012-.024h-.144l-.012-.024H1208Zm.563,1.713v.024h-.072l-.012.024h-.048c.008.024,0,.032-.024.024v.024h-.024v.036c-.024-.008-.032,0-.024.024h-.024v.048h-.036v.048h-.024v.288h.024v.048h.036v.048c.024-.008.032,0,.024.024h.024v.024h.024v.036c.024-.008.032,0,.024.024h.024v.024h.084v.024h.252v-.024h.048v-.024h.048c-.008-.024,0-.032.036-.024V999.4q.036.012.024-.024h.024v-.048c.024.008.032,0,.024-.024h.024v-.1l.024-.012v-.168l-.024-.012v-.06l-.024-.012v-.048c-.024.008-.032,0-.024-.024h-.024v-.024h-.024v-.036h-.036c.008-.024,0-.032-.024-.024v-.024h-.048v-.024h-.048v-.024Z" transform="translate(-1194.491 -985.054)" fill="#fff"/>
    <path id="rgba_0_168_89_1_8" data-name="rgba(0,168,89,1)" d="M607.087,473h4.165l.006.006V486.1h-.2l-.012.024h-.33V473.545l-.006-.006h-3.872c-.008,0-.01-.017-.006-.048h.024v-.054l.024-.006v-.048h.036v-.048l.024-.006v-.054h.024v-.048h.024v-.048h.024v-.048l.024-.006v-.054h.024v-.048C607.087,473.032,607.1,473.024,607.087,473Z" transform="translate(-600.53 -467.333)" fill="#05a859"/>
    <path id="rgba_254_254_254_1_17" data-name="rgba(254,254,254,1)" d="M100.2,0h.833l.006.006V4.6h4.381l.006.024H105.4v.048h-.024v.048h-.024v.048h-.024v.054l-.024.006v.048h-.036v.048h-.024v.048h-.024v.06h-.024V5.08h-.024q.006.047-.006.048h-4.123l-.006.006v7.033l-.024.012v6.584h.725l.012.024h1.247l.012.024h.731l.012.024h.539l.012.036h.479l.012.024h.4l.012.024h.372l.012.024h.348l.012.024h.288l.012.024h.3l.012.024h.264l.012.036h.276l.012.024h.216l.012.024h.24l.012.024h.216l.012.024h.192l.012.024h.2l.012.024h.192l.012.024h.192l.012.036h.168l.012.024h.156L109,19.3h.168l.012.024h.168l.012.024h.144l.012.024h.168l.012.024h.144l.012.024H110l.012.036h.132l.006.024h.126l.012.024h.144l.006.024h.114l.012.024h.144l.012.024h.12l.012.024h.108l.012.036h.12l.006.024h.1l.012.024h.108l.012.024h.12l.006.024h.09l.012.024h.12l.012.024h.1l.012.024h.09q0,.036.006.036h.1l.012.024h.084l.012.024h.1l.006.024h.09l.012.024h.1l.006.024h.09l.012.024h.1l.006.024h.072v.036h.1l.006.024h.072l.006.024h.1l.006.024h.072v.024h.072l.006.024h.1l.006.024h.072v.036h.078l.006.024h.072v.024h.072V20.3h.078l.006.024h.072v.024h.084v.024h.066l.006.024h.072v.036h.084v.024h.048v.024h.072l.006.024h.078v.024h.048l.006.024h.078v.024h.048V20.6h.072v.036h.048v.024h.084v.024h.048V20.7h.048v.024h.078l.006.024h.048v.024h.048v.036h.06l.006.024h.066v.024h.048v.024h.048v.024h.06v.024h.048v.024h.042l.006.024h.048v.036h.06v.024h.042l.006.024h.048v.024q.036-.012.024.024h.06v.024h.048v.024h.042l.006.024h.048v.036q.049-.016.036.024h.048v.024h.048v.024q.036-.012.024.024h.048v.024q.049-.016.036.024h.048V21.4q.036-.012.024.024h.048v.024q.036-.012.024.024h.06V21.5q.036-.012.024.024h.048v.024h.024q-.012.036.024.024V21.6h.06v.024h.024v.024q.036-.012.024.024h.048V21.7h.024v.024h.024v.024q.036-.012.024.024h.06v.036h.024v.024h.024v.024h.024v.024h.024V21.9q.036-.012.024.024h.036q-.012.036.024.024v.036h.024v.024h.024v.024h.024v.024h.024v.024h.024v.024q.036-.012.024.024h.036q-.012.036.024.024v.036q.036-.012.024.024h-.462l-.012.024h-.288l-.012.024h-.168l-.012.024h-.144l-.012.024h-.084l-.012.024h-.1l-.012.024h-.09v.036h-.078l-.006.024h-.072v.024h-.084v.024h-.048v.024h-.066l-.006.024h-.048v.024h-.06v.036H115V22.6q-.036-.012-.024.024h-.048v.024h-.06v.024q-.036-.012-.024.024h-.072v-.024q-.036.012-.024-.024h-.06v-.024h-.024V22.6h-.024q.012-.036-.024-.024v-.036h-.024v-.024q-.036.012-.024-.024h-.048v-.024h-.036v-.024h-.024v-.024q-.036.012-.024-.024h-.048v-.036h-.024v-.024q-.036.012-.024-.024h-.06v-.024h-.024v-.024q-.036.012-.024-.024h-.048v-.024q-.036.012-.024-.024h-.06v-.036q-.036.012-.024-.024h-.048v-.024q-.036.012-.024-.024h-.048v-.024q-.036.012-.024-.024h-.054l-.006-.024h-.048q.012-.036-.024-.024V21.95h-.048l-.006-.024h-.054V21.9q-.036.012-.024-.024h-.048v-.024h-.048v-.024h-.054l-.006-.024h-.048v-.036q-.036.012-.024-.024h-.048v-.024h-.048V21.7h-.06v-.024h-.048v-.024h-.048v-.024h-.048V21.6h-.06v-.036h-.048v-.024h-.048v-.024h-.06l-.006-.024h-.066v-.024h-.048v-.024h-.048v-.024H112.7L112.7,21.4h-.048v-.036h-.066l-.006-.024h-.06v-.024h-.072v-.024H112.4l-.006-.024h-.054v-.024h-.072V21.22h-.048v-.036h-.084V21.16h-.072v-.024h-.048v-.024h-.078l-.006-.024h-.072v-.024h-.048V21.04h-.078l-.006-.024h-.072V20.98h-.072v-.024h-.078l-.006-.024h-.072v-.024h-.078l-.006-.024h-.072V20.86H111.2v-.024h-.078l-.006-.024h-.072q0-.036-.006-.036h-.1l-.006-.024h-.072v-.024h-.072l-.006-.024h-.1l-.006-.024h-.072l-.006-.024h-.1v-.024h-.072q0-.036-.006-.036h-.1l-.006-.024h-.09l-.006-.024h-.078l-.012-.024h-.084l-.012-.024h-.1l-.006-.024h-.09l-.012-.024h-.1l-.012-.024h-.084l-.012-.036h-.12l-.006-.024h-.09l-.012-.024h-.1l-.012-.024h-.12l-.006-.024h-.09l-.012-.024h-.12l-.006-.024h-.09l-.012-.024h-.12l-.012-.036h-.12l-.012-.024h-.108l-.012-.024h-.12l-.012-.024h-.12l-.012-.024h-.132l-.006-.024h-.126l-.012-.024h-.144l-.012-.036h-.144l-.006-.024H107.5l-.012-.024h-.144l-.012-.024h-.168l-.012-.024h-.144L107,19.89h-.168l-.012-.024h-.132l-.012-.024h-.168l-.012-.036h-.168l-.012-.024h-.192l-.012-.024h-.168l-.012-.024h-.192l-.012-.024h-.192l-.012-.024h-.216l-.012-.024h-.228l-.012-.024h-.216l-.012-.036h-.24l-.012-.024h-.24l-.012-.024h-.252l-.012-.024h-.288l-.012-.024h-.3l-.012-.024h-.324l-.012-.024h-.336l-.012-.036H102.4l-.012-.024h-.432l-.012-.024h-.467l-.012-.024h-.575l-.012-.024h-.731l-.012-.024h-.8l-.012-.024h-.246l-.006.024h-.174l-.006-.024h-1.96l-.006.024H95.623l-.012.024h-.8l-.012.024h-.851l-.012.024H93.07l-.012.024h-.575l-.012.024h-.491l-.012.036h-.408l-.012.024h-.36l-.012.024h-.324l-.012.024h-.3l-.012.024h-.288l-.012.024h-.276l-.012.024H89.7l-.012.036h-.24l-.012.024h-.216l-.012.024H89l.006-.024h.168l.012-.024h.168q.011,0,.006-.036h.15l.012-.024h.168l.012-.024h.168l.012-.024h.168l.012-.024h.192l.012-.024h.168l.012-.024h.168l.012-.036h.192l.012-.024h.192l.012-.024h.192l.012-.024h.216l.012-.024h.192l.012-.024h.216l.012-.024h.216l.012-.024h.228l.012-.036h.216l.012-.024h.24l.012-.024h.24l.012-.024h.252l.012-.024h.264l.012-.024H93.9l.012-.024h.276l.012-.024h.288l.012-.036h.324l.012-.024h.348l.012-.024h.348l.012-.024h.4l.012-.024h.4l.012-.024h.443l.012-.024h.527l.012-.036h.6l.012-.024h.779l.012-.024h1.295l.012-.024h.09V5.1H95.755l-.006-.024h.024V5.032H95.8v-.06h.024V4.924h.024V4.883l.024-.006V4.829H95.9v-.06h.024V4.721h.024V4.679l.024-.006V4.625H96q-.012-.036.024-.024V4.547l.006-.006H100.2Z" transform="translate(-88.904)" fill="#fff"/>
    <path id="rgba_254_254_254_1_18" data-name="rgba(254,254,254,1)" d="M1209.184,1002.569v.024h-.072l-.012.024h-.048c.008.024,0,.032-.024.024v.024H1209v.036c-.024-.008-.032,0-.024.024h-.024v.048h-.036v.048h-.024v.288h.024v.048h.036v.048c.024-.008.032,0,.024.024H1209v.024h.024v.036c.024-.008.032,0,.024.024h.024v.024h.084v.024h.251v-.024h.048v-.024h.048c-.008-.024,0-.032.036-.024v-.036c.024.008.032,0,.024-.024h.024v-.048c.024.008.032,0,.024-.024h.024v-.1l.024-.012v-.168l-.024-.012v-.06l-.024-.012v-.048c-.024.008-.032,0-.024-.024h-.024v-.024h-.024v-.036h-.036c.008-.024,0-.032-.024-.024v-.024h-.048v-.024h-.048v-.024Z" transform="translate(-1195.11 -988.91)" fill="#3e4095"/>
  </g>
</svg>
