<svg xmlns="http://www.w3.org/2000/svg" xmlns:xlink="http://www.w3.org/1999/xlink" width="247.349" height="53.276" viewBox="0 0 247.349 53.276">
  <defs>
    <clipPath id="clip-path">
      <path id="Path_16039" data-name="Path 16039" d="M45.776,6.354v14.22c0,16.021-4.858,16.764-19.078,24.972C12.478,37.338,7.62,36.59,7.62,20.574V6.354c12.719-7.118,25.437-7.5,38.151,0Z" transform="translate(-7.62 -0.872)" clip-rule="evenodd"/>
    </clipPath>
  </defs>
  <g id="ic-acad-logo" transform="translate(-160 -24)">
    <g id="Horizontal_Logo_2" data-name="Horizontal Logo 2" transform="translate(300.319 36.252)">
      <path id="Path_14381" data-name="Path 14381" d="M28.788,7.68V22.05H.05V7.68H9.508v7.185l4.91-7.185,4.9,7.185V7.68Z" transform="translate(-0.045 -6.919)" fill="#87c530"/>
      <path id="Path_14382" data-name="Path 14382" d="M28.738,183.22v11.338H19.27v-7.185H9.458v7.185H0V183.22Z" transform="translate(0 -165.063)" fill="#87c530"/>
      <path id="Path_14383" data-name="Path 14383" d="M362.24,9.08h2.378V22.034H362.24v-5.29h-8.492v5.29H351.37V9.08h2.378v5.289h8.492Z" transform="translate(-316.549 -8.18)" fill="#333"/>
      <path id="Path_14384" data-name="Path 14384" d="M509.786,34.49h2.357v7.952a2.486,2.486,0,0,1-2.482,2.483H504.03a2.378,2.378,0,0,1-1.763-.728,2.406,2.406,0,0,1-.719-1.755V34.49H503.9v7.952a.112.112,0,0,0,.126.126h5.631a.112.112,0,0,0,.126-.127Z" transform="translate(-451.843 -31.072)" fill="#333"/>
      <path id="Path_14385" data-name="Path 14385" d="M636.5,37.013v.45H634.14v-.45a.112.112,0,0,0-.126-.126h-5.627a.111.111,0,0,0-.126.126v1.44c0,.072.042.108.126.108h5.632a2.472,2.472,0,0,1,2.482,2.478v1.439a2.41,2.41,0,0,1-.719,1.755,2.385,2.385,0,0,1-1.763.728h-5.632a2.487,2.487,0,0,1-2.482-2.483v-.444h2.357v.449a.112.112,0,0,0,.126.126h5.632a.112.112,0,0,0,.126-.127V41.043c0-.071-.043-.108-.126-.108h-5.632a2.486,2.486,0,0,1-2.487-2.482v-1.44a2.488,2.488,0,0,1,2.482-2.478h5.632a2.378,2.378,0,0,1,1.763.729A2.4,2.4,0,0,1,636.5,37.013Z" transform="translate(-563.872 -31.113)" fill="#333"/>
      <path id="Path_14386" data-name="Path 14386" d="M759.643,3.418A2.506,2.506,0,0,1,762.127,5.9v7.953h-2.358V5.9a.111.111,0,0,0-.126-.126h-5.631a.111.111,0,0,0-.126.126v7.953H751.53V0h2.357V3.418Z" transform="translate(-677.052)" fill="#333"/>
      <path id="Path_14387" data-name="Path 14387" d="M362.24,166.79h2.378v12.954H362.24v-5.289h-8.492v5.289H351.37V166.79h2.378v5.289h8.492Z" transform="translate(-316.549 -150.261)" fill="#333"/>
      <path id="Path_14388" data-name="Path 14388" d="M507.292,192.2h5.631a2.488,2.488,0,0,1,2.483,2.483v5.469a2.486,2.486,0,0,1-2.483,2.482h-5.631a2.486,2.486,0,0,1-2.482-2.482v-5.469A2.488,2.488,0,0,1,507.292,192.2Zm5.631,2.359h-5.631a.111.111,0,0,0-.126.126v5.469a.111.111,0,0,0,.126.126h5.631a.112.112,0,0,0,.127-.126v-5.47a.112.112,0,0,0-.127-.125Z" transform="translate(-454.783 -173.153)" fill="#333"/>
      <path id="Path_14389" data-name="Path 14389" d="M643.934,192.2a2.49,2.49,0,0,1,2.483,2.483v7.952h-2.336v-7.952c0-.084-.048-.126-.144-.126h-3.925c-.072,0-.108.042-.108.126v7.952h-2.378v-7.952c0-.084-.036-.126-.108-.126h-3.94a.111.111,0,0,0-.126.126v7.952H631V192.2Z" transform="translate(-568.467 -173.153)" fill="#333"/>
      <path id="Path_14390" data-name="Path 14390" d="M809.059,192.2a2.489,2.489,0,0,1,2.484,2.483v3.922H803.3v1.547a.111.111,0,0,0,.126.126h8.115v2.357h-8.11a2.487,2.487,0,0,1-2.483-2.482v-5.469a2.488,2.488,0,0,1,2.483-2.483Zm-5.757,4.03h5.883v-1.547a.111.111,0,0,0-.126-.126h-5.627a.111.111,0,0,0-.126.126Z" transform="translate(-721.575 -173.153)" fill="#333"/>
      <path id="Path_14391" data-name="Path 14391" d="M933,194.683v.45h-2.357v-.45a.111.111,0,0,0-.126-.126h-5.632a.111.111,0,0,0-.126.126v1.439c0,.072.043.108.126.108h5.632A2.472,2.472,0,0,1,933,198.713v1.44a2.472,2.472,0,0,1-2.478,2.482h-5.632a2.486,2.486,0,0,1-2.477-2.482v-.45h2.357v.45a.111.111,0,0,0,.126.126h5.632a.111.111,0,0,0,.126-.126v-1.44c0-.071-.043-.107-.126-.107h-5.637a2.488,2.488,0,0,1-2.477-2.483v-1.439a2.488,2.488,0,0,1,2.477-2.483h5.632A2.478,2.478,0,0,1,933,194.683Z" transform="translate(-830.998 -173.153)" fill="#333"/>
      <path id="Path_14392" data-name="Path 14392" d="M1045.68,192h1.518v.17h-.672v1.346h-.17v-1.351h-.674Z" transform="translate(-942.052 -172.973)" fill="#333"/>
      <path id="Path_14393" data-name="Path 14393" d="M1063.425,192.7l.629-.75h.234v1.516h-.17v-1.322l-.694.824-.694-.824v1.322h-.17v-1.511h.233Z" transform="translate(-957.259 -172.928)" fill="#333"/>
    </g>
    <line id="Line_725" data-name="Line 725" y2="53" transform="translate(292 24)" fill="none" stroke="#e7e8e9" stroke-width="1"/>
    <g id="Layer_x0020_1" transform="translate(160.01 24.992)">
      <g id="_2512899561280" transform="translate(-0.01 0.008)">
        <path id="Path_16028" data-name="Path 16028" d="M2.665,54.51,12.349,56.2,9.57,65.374H6.176C7.94,64.092,5.54,62.75,5.54,61.1s-1.309-3.415-3.58-4.826l.711-1.758Z" transform="translate(-0.907 -25.384)" fill="#033" fill-rule="evenodd"/>
        <path id="Path_16029" data-name="Path 16029" d="M2.238,53.589l10.207,1.78L9.41,65.383H5.669l-.273-.85c.732-.534.353-1.17-.069-1.865a4,4,0,0,1-.764-2.031,3.8,3.8,0,0,0-.844-2.228,9.08,9.08,0,0,0-2.512-2.2L.87,56l1-2.469.369.064Zm9,2.517L2.452,54.577,2.03,55.625a9.656,9.656,0,0,1,2.437,2.228A4.707,4.707,0,0,1,5.5,60.637a3.3,3.3,0,0,0,.625,1.544c.476.786.919,1.523.577,2.261H8.715l2.528-8.331Z" transform="translate(-0.4 -24.928)" fill="#063"/>
        <path id="Path_16030" data-name="Path 16030" d="M75.045,54.5l-9.7,1.689,2.779,9.176h3.393c-1.764-1.283.438-2.576.438-4.227s1.507-3.468,3.784-4.879Z" transform="translate(-30.417 -25.38)" fill="#033" fill-rule="evenodd"/>
        <path id="Path_16031" data-name="Path 16031" d="M74.234,54.568,65.422,56.1l2.528,8.331h2c-.358-.737.043-1.464.47-2.244a3.386,3.386,0,0,0,.55-1.512,4.579,4.579,0,0,1,1.1-2.763,10.529,10.529,0,0,1,2.581-2.3l-.411-1.047Zm-9.491.7L74.827,53.51l.973,2.48-.331.208a10.132,10.132,0,0,0-2.661,2.287,3.7,3.7,0,0,0-.9,2.191,4.076,4.076,0,0,1-.668,1.961c-.385.7-.727,1.331.037,1.886l-.273.85H67.265L64.23,55.359l.524-.091Z" transform="translate(-29.9 -24.919)" fill="#063"/>
        <path id="Path_16032" data-name="Path 16032" d="M46.047,70.342c-3.677,12.345-37.739,12.371-42.217,0,1.507-1.272,2.3-1.416,2.581-2.832a30.433,30.433,0,0,0,37.055,0C43.856,68.958,44.61,69.086,46.047,70.342Z" transform="translate(-1.778 -31.437)" fill="#093" fill-rule="evenodd"/>
        <path id="Path_16033" data-name="Path 16033" d="M46.012,69.712c-1.042,3.49-4.355,6.028-8.732,7.61A37.223,37.223,0,0,1,25.55,79.3a40.481,40.481,0,0,1-12.061-1.528c-5.125-1.528-9.2-4.206-10.586-8.043l-.112-.31.251-.208c.406-.342.764-.609,1.079-.839.743-.55,1.17-.866,1.347-1.731l.155-.775.6.508a26.754,26.754,0,0,0,8.411,4.537,30.1,30.1,0,0,0,19.634,0,26.662,26.662,0,0,0,8.406-4.537l.561-.47.192.711a2.893,2.893,0,0,0,1.363,1.742c.3.23.652.492,1.069.86l.224.2L46,69.707ZM36.959,76.44c3.981-1.443,7.017-3.682,8.059-6.712-.289-.24-.55-.438-.786-.615a4.016,4.016,0,0,1-1.475-1.587,28.308,28.308,0,0,1-8.187,4.286,31.084,31.084,0,0,1-20.243,0,28.332,28.332,0,0,1-8.16-4.264,3.8,3.8,0,0,1-1.5,1.587c-.23.171-.486.358-.775.588,1.384,3.367,5.136,5.75,9.854,7.156A39.5,39.5,0,0,0,25.529,78.37,36.238,36.238,0,0,0,36.954,76.44Z" transform="translate(-1.294 -30.674)" fill="#063"/>
        <path id="Path_16034" data-name="Path 16034" d="M1.405,84.583a.136.136,0,0,1,.053.118.162.162,0,0,1-.053.123.177.177,0,0,1-.128.053.192.192,0,0,1-.128-.048.16.16,0,0,1-.059-.123.178.178,0,0,1,.048-.123.174.174,0,0,1,.128-.053.2.2,0,0,1,.134.048Zm.732.615a.143.143,0,0,1,.069.112.172.172,0,0,1-.037.128.205.205,0,0,1-.118.069.2.2,0,0,1-.134-.032.168.168,0,0,1-.075-.118.16.16,0,0,1,.037-.128A.219.219,0,0,1,2,85.161a.191.191,0,0,1,.139.037Zm.818.582a.143.143,0,0,1,.069.112.2.2,0,0,1-.037.128.205.205,0,0,1-.118.069.2.2,0,0,1-.134-.032.188.188,0,0,1-.075-.118.179.179,0,0,1,.032-.128.219.219,0,0,1,.123-.069A.191.191,0,0,1,2.955,85.78Zm.6.508.46-.679a.465.465,0,0,0,.075-.144.147.147,0,0,0-.027-.118l.005-.011.064.037c.032.016.069.037.107.059a.389.389,0,0,0,.1.048.091.091,0,0,0,.064.005l.011.005-.118.176a.349.349,0,0,1,.246-.048.8.8,0,0,1,.262.107l-.15.219a.177.177,0,0,0-.1-.118.383.383,0,0,0-.112-.048c-.128-.027-.251.037-.363.2l-.283.417a.334.334,0,0,0-.059.128.224.224,0,0,0,.027.123l-.005.011-.422-.251L3.34,86.4a.178.178,0,0,0,.128-.027.426.426,0,0,0,.086-.1ZM4.4,86.7a.386.386,0,0,1,.406-.182,1.194,1.194,0,0,1,.214.037c.1.021.171.043.224.053a.357.357,0,0,0,.15.005.113.113,0,0,0,.059-.027.152.152,0,0,0,.048-.053.129.129,0,0,0-.016-.15.4.4,0,0,0-.15-.118.987.987,0,0,0-.411-.08l.315-.16a.368.368,0,0,0,.043.016l.053.016a.369.369,0,0,1,.043.016c.011.005.027.011.048.021a.655.655,0,0,1,.31.273.35.35,0,0,1-.016.353l-.24.428a.278.278,0,0,0-.048.187q.016.072.144.144l-.214.112a.551.551,0,0,1-.219-.208.24.24,0,0,1,.021-.23l.219-.385a1.286,1.286,0,0,1-.273-.037,1,1,0,0,0-.267-.037.182.182,0,0,0-.144.1.172.172,0,0,0-.005.182.408.408,0,0,0,.171.155,1.032,1.032,0,0,0,.219.064l-.257.107c-.059-.021-.1-.037-.139-.053a.5.5,0,0,1-.273-.262.327.327,0,0,1,.005-.3Zm2.421-.47a.154.154,0,0,1,.091.1.15.15,0,0,1-.016.134.17.17,0,0,1-.112.086.194.194,0,0,1-.144-.011.169.169,0,0,1-.091-.1.166.166,0,0,1,.011-.134.173.173,0,0,1,.107-.086.194.194,0,0,1,.144.011Zm-.892,1.336.411-.727a.211.211,0,0,0,.016-.246l.005-.011c.064.032.112.059.139.075.107.043.176.064.214.048l.011.005-.524.925a.594.594,0,0,0-.069.16.157.157,0,0,0,.037.128l-.011.005-.438-.214.005-.011a.243.243,0,0,0,.208-.144Zm1.031-.326a.322.322,0,0,1,.289-.2.953.953,0,0,1,.422.08,1.38,1.38,0,0,1,.283.15l-.1.219a.792.792,0,0,0-.31-.219c-.171-.069-.273-.059-.31.032a.127.127,0,0,0,.032.118,1.616,1.616,0,0,0,.187.176,1.914,1.914,0,0,1,.192.171.388.388,0,0,1,.1.182.281.281,0,0,1-.016.187.384.384,0,0,1-.331.224.926.926,0,0,1-.465-.069,1.058,1.058,0,0,1-.337-.208l.027-.283a.986.986,0,0,0,.433.347c.2.075.326.064.385-.027a.133.133,0,0,0,.005-.134.446.446,0,0,0-.128-.15c-.059-.053-.123-.107-.192-.166a.9.9,0,0,1-.171-.214.246.246,0,0,1,.011-.219Zm1.9-.171a.18.18,0,0,1,.1.1.167.167,0,0,1-.005.134.171.171,0,0,1-.1.091.222.222,0,0,1-.144,0,.17.17,0,0,1-.1-.1.191.191,0,0,1,0-.134.171.171,0,0,1,.1-.091.223.223,0,0,1,.144,0Zm-.786,1.395.353-.754a.213.213,0,0,0-.005-.246l.005-.011a1.045,1.045,0,0,1,.144.064.365.365,0,0,0,.219.032l.011.005-.449.957a.7.7,0,0,0-.059.166.169.169,0,0,0,.048.128l-.011.005-.454-.187.005-.011a.226.226,0,0,0,.192-.155Zm.839.267.278-.721.011-.032a.21.21,0,0,0-.027-.246l.005-.011a1.209,1.209,0,0,1,.171.064.625.625,0,0,0,.2.027H9.55l-.08.2a.478.478,0,0,1,.2-.091.484.484,0,0,1,.273.021c.331.118.438.321.326.62l-.2.513a.317.317,0,0,1-.021.043q-.056.176.032.257l-.005.011-.465-.155.005-.011a.2.2,0,0,0,.123-.059.572.572,0,0,0,.075-.144l.155-.4c.107-.278.048-.454-.182-.529a.3.3,0,0,0-.273.005.469.469,0,0,0-.16.224l-.2.513a.333.333,0,0,0-.032.139.191.191,0,0,0,.059.112l-.005.011-.465-.155.005-.011a.239.239,0,0,0,.123-.059.587.587,0,0,0,.069-.134Zm1.833-.043a.42.42,0,0,1,.144-.2.521.521,0,0,1,.273-.1,1.1,1.1,0,0,1,.363.032l.839.224a.78.78,0,0,1-.166.166l-.075-.011q-.048-.016-.257-.112a.569.569,0,0,1,.107.187.329.329,0,0,1,0,.176c-.075.251-.326.337-.753.267-.075-.011-.123,0-.139.043,0,.032.032.059.107.08a1.738,1.738,0,0,1,.577.246.311.311,0,0,1,.118.374.4.4,0,0,1-.134.187.617.617,0,0,1-.3.112,1.612,1.612,0,0,1-1.026-.3c-.144-.112-.2-.23-.166-.347.043-.144.155-.192.337-.15a.408.408,0,0,1,.155.086.116.116,0,0,0-.091.021.192.192,0,0,0-.059.075.244.244,0,0,0,.064.214.66.66,0,0,0,.326.171.891.891,0,0,0,.417.027.237.237,0,0,0,.192-.171.2.2,0,0,0-.118-.23,1.539,1.539,0,0,0-.422-.166l-.182-.048a.173.173,0,0,1-.107-.075.17.17,0,0,1-.037-.139.1.1,0,0,1,.069-.08.8.8,0,0,1,.214-.027.457.457,0,0,1-.224-.235.433.433,0,0,1-.021-.294Zm.337.3a.45.45,0,0,0,.214.166.362.362,0,0,0,.24-.021.267.267,0,0,0,.139-.166.282.282,0,0,0-.032-.224.378.378,0,0,0-.219-.166.4.4,0,0,0-.251,0,.267.267,0,0,0-.139.155.306.306,0,0,0,.043.257Zm2.186,1,.208-.775a.5.5,0,0,0,.021-.16.192.192,0,0,0-.064-.107l.005-.011.075.016c.037.005.075.016.123.027a.556.556,0,0,0,.112.016c.027,0,.048,0,.059-.011h.011l-.053.2a.358.358,0,0,1,.219-.118.778.778,0,0,1,.283.027l-.069.251c-.016-.037-.059-.064-.134-.08a.649.649,0,0,0-.123-.011c-.134.011-.224.107-.278.3l-.128.481a.26.26,0,0,0-.011.139.176.176,0,0,0,.069.107l-.005.011-.486-.112.005-.011a.167.167,0,0,0,.118-.064.328.328,0,0,0,.048-.123Zm1.149-.2a.661.661,0,0,1,.283-.428.772.772,0,0,1,.593-.1.726.726,0,0,1,.321.139.579.579,0,0,1,.192.262.615.615,0,0,1,.016.342l-1.079-.192a.53.53,0,0,0,.059.369.523.523,0,0,0,.353.246.25.25,0,0,1,.075.021,1.352,1.352,0,0,0,.257.005.646.646,0,0,0,.251-.064h.005l-.2.23a1.4,1.4,0,0,1-.422,0,.992.992,0,0,1-.556-.283A.577.577,0,0,1,14.413,89.788Zm.369-.134.759.134a.276.276,0,0,0-.075-.23.412.412,0,0,0-.235-.118.477.477,0,0,0-.273.032.311.311,0,0,0-.176.182Zm1.245.732c.016-.144.123-.246.315-.3a2.125,2.125,0,0,1,.214-.032,1.877,1.877,0,0,0,.23-.021A.57.57,0,0,0,16.93,90a.083.083,0,0,0,.043-.043A.165.165,0,0,0,17,89.89a.129.129,0,0,0-.075-.139.392.392,0,0,0-.187-.064.932.932,0,0,0-.417.053l.235-.251H16.7a.221.221,0,0,1,.053.005.743.743,0,0,1,.39.155.356.356,0,0,1,.112.342l-.075.481a.3.3,0,0,0,.021.192.267.267,0,0,0,.187.091l-.16.171a.539.539,0,0,1-.283-.128.243.243,0,0,1-.059-.224l.064-.433a1.15,1.15,0,0,1-.273.048,1.1,1.1,0,0,0-.267.048.169.169,0,0,0-.1.144.2.2,0,0,0,.059.176.416.416,0,0,0,.219.1,1.093,1.093,0,0,0,.23-.005l-.2.182a1.085,1.085,0,0,1-.15-.011.6.6,0,0,1-.353-.16.332.332,0,0,1-.1-.283Zm1.731.262L17.9,89.4a.412.412,0,0,0,0-.166.141.141,0,0,0-.08-.091v-.005c.037,0,.086.005.144.011a.481.481,0,0,0,.118.005.3.3,0,0,0,.069-.005.072.072,0,0,0,.048-.027h.005l-.192,1.625a.643.643,0,0,0,0,.144c.005.037.037.069.086.107v.011l-.5-.048v-.011a.2.2,0,0,0,.107-.086,1.057,1.057,0,0,0,.037-.208Zm1.63-.155a.643.643,0,0,1,.224-.454.759.759,0,0,1,.572-.171.794.794,0,0,1,.337.1.586.586,0,0,1,.23.24.6.6,0,0,1,.059.337l-1.1-.064a.525.525,0,0,0,.107.358.543.543,0,0,0,.385.2.279.279,0,0,1,.075.011,1.465,1.465,0,0,0,.257-.021.753.753,0,0,0,.246-.091h.005l-.166.251a1.429,1.429,0,0,1-.417.048.987.987,0,0,1-.588-.219.6.6,0,0,1-.224-.524Zm.347-.176.775.048a.266.266,0,0,0-.107-.219.448.448,0,0,0-.251-.091.516.516,0,0,0-.267.059.29.29,0,0,0-.15.2Zm1.448-.005a.294.294,0,0,1,.2-.273.978.978,0,0,1,.428-.059,1.248,1.248,0,0,1,.321.053l-.016.24a.767.767,0,0,0-.374-.107c-.187-.011-.278.032-.278.128a.134.134,0,0,0,.069.1,1.636,1.636,0,0,0,.24.107,1.939,1.939,0,0,1,.246.1.41.41,0,0,1,.16.139.289.289,0,0,1,.053.182.362.362,0,0,1-.23.315.976.976,0,0,1-.465.086,1.1,1.1,0,0,1-.39-.091l-.08-.278a1.048,1.048,0,0,0,.534.187q.321.008.353-.144a.133.133,0,0,0-.043-.128.528.528,0,0,0-.176-.1q-.112-.048-.24-.1a.851.851,0,0,1-.235-.15.256.256,0,0,1-.069-.208Zm1.539.588.016-.689-.2-.005v-.1c.235-.027.358-.187.363-.486h.118l-.011.411.219.005a.621.621,0,0,0,.176-.011h.005l-.005.257H23.4a.219.219,0,0,0-.171-.059l-.23-.005-.011.572a.384.384,0,0,0,.118.347.313.313,0,0,0,.144.037.475.475,0,0,0,.134-.027l-.16.2a.757.757,0,0,1-.123.005.345.345,0,0,1-.294-.134.511.511,0,0,1-.091-.315Zm.93.086c-.011-.15.08-.262.257-.342a.981.981,0,0,1,.208-.064c.1-.021.171-.043.224-.053a.626.626,0,0,0,.134-.059.188.188,0,0,0,.037-.048.148.148,0,0,0,.016-.069.124.124,0,0,0-.1-.123.5.5,0,0,0-.2-.037,1.012,1.012,0,0,0-.4.118l.187-.283a.133.133,0,0,0,.043-.005.182.182,0,0,1,.053-.005c.021,0,.037-.005.048-.005h.053a.7.7,0,0,1,.411.1.349.349,0,0,1,.171.315l.016.486a.261.261,0,0,0,.059.187.279.279,0,0,0,.2.059l-.128.2a.541.541,0,0,1-.3-.08.263.263,0,0,1-.1-.208l-.011-.433a1.125,1.125,0,0,1-.257.091.914.914,0,0,0-.257.091.16.16,0,0,0-.075.155.182.182,0,0,0,.091.16.437.437,0,0,0,.235.059,1.042,1.042,0,0,0,.224-.043l-.171.208a.894.894,0,0,1-.15.016.585.585,0,0,1-.374-.1.332.332,0,0,1-.15-.267Zm1.828-.1-.021-.689-.2.005-.005-.1c.235-.037.353-.2.342-.5h.118l.011.411.219-.005a.49.49,0,0,0,.176-.021h.005l.005.257h-.005a.227.227,0,0,0-.171-.053l-.23.005.016.572c.005.176.048.289.134.342a.418.418,0,0,0,.15.032.694.694,0,0,0,.134-.032l-.155.2c-.027.005-.069.005-.123.011a.335.335,0,0,1-.3-.123.541.541,0,0,1-.107-.31Zm.946-.294a.6.6,0,0,1,.166-.476.763.763,0,0,1,.545-.235.835.835,0,0,1,.347.059.59.59,0,0,1,.257.214.659.659,0,0,1,.107.331l-1.1.059a.538.538,0,0,0,.15.342.546.546,0,0,0,.406.16h.075A1.113,1.113,0,0,0,27.634,91a.669.669,0,0,0,.23-.118h.005l-.128.267a1.445,1.445,0,0,1-.406.1,1.024,1.024,0,0,1-.615-.15.607.607,0,0,1-.289-.492Zm.321-.214.775-.043a.275.275,0,0,0-.134-.2.426.426,0,0,0-.262-.064.48.48,0,0,0-.257.091A.281.281,0,0,0,26.746,90.382Zm2.426,1.01-.144-1.3-.005-.048a.264.264,0,0,0-.144-.235V89.8c.086-.005.144-.011.182-.011a.4.4,0,0,0,.192-.059h.005l.021.2a.465.465,0,0,1,.2-.171.77.77,0,0,1,.294-.075.671.671,0,0,1,.353.064.618.618,0,0,1,.267.23.668.668,0,0,1,.107.374.632.632,0,0,1-.171.46.694.694,0,0,1-.46.219.728.728,0,0,1-.24-.011L29.45,90.8a.789.789,0,0,0,.331.048.5.5,0,0,0,.3-.134.4.4,0,0,0,.112-.31.524.524,0,0,0-.15-.4.429.429,0,0,0-.363-.128.463.463,0,0,0-.294.139.305.305,0,0,0-.086.246l.112,1.021a.7.7,0,0,0,.043.208.2.2,0,0,0,.107.086v.011l-.5.048v-.011a.2.2,0,0,0,.091-.214v-.027Zm1.87-.786-.128-.791a.559.559,0,0,0-.043-.155.2.2,0,0,0-.1-.075v-.011l.075-.011c.037-.005.075-.016.128-.021a1.067,1.067,0,0,0,.112-.021.154.154,0,0,0,.053-.032h.011l.032.208a.341.341,0,0,1,.155-.187.825.825,0,0,1,.273-.08l.043.257a.176.176,0,0,0-.155-.027,1.038,1.038,0,0,0-.118.032c-.118.059-.16.182-.128.374l.08.492a.3.3,0,0,0,.043.128.212.212,0,0,0,.107.075v.011l-.5.069v-.011a.156.156,0,0,0,.08-.1.354.354,0,0,0-.005-.128Zm.973-.55a.658.658,0,0,1,.021-.337.639.639,0,0,1,.2-.3.918.918,0,0,1,.406-.182.74.74,0,0,1,.374.011.664.664,0,0,1,.321.182.611.611,0,0,1,.176.326.588.588,0,0,1-.032.358.7.7,0,0,1-.23.3.881.881,0,0,1-.353.16.79.79,0,0,1-.593-.1A.618.618,0,0,1,32.016,90.056Zm.294-.091a.611.611,0,0,0,.112.246.588.588,0,0,0,.2.16.471.471,0,0,0,.24.032.04.04,0,0,1,.021-.011.419.419,0,0,0,.294-.2.482.482,0,0,0,.043-.337.579.579,0,0,0-.2-.337.424.424,0,0,0-.374-.091.488.488,0,0,0-.273.166.4.4,0,0,0-.069.369Zm1.731.1-.214-.812-.139.032.091-.208-.048-.176a.326.326,0,0,1,.107-.347.782.782,0,0,1,.385-.2c.043-.011.118-.021.23-.043l-.15.251a.329.329,0,0,0-.176,0c-.123.027-.171.118-.134.262l.053.192.331-.075.048-.027h.011l.064.24H34.49c-.027-.027-.075-.027-.144-.011l-.027.005-.224.053.187.721a1.078,1.078,0,0,0,.08.219.21.21,0,0,0,.134.1v.005l-.5.112-.005-.011a.192.192,0,0,0,.059-.214l-.016-.053Zm.732-.577a.608.608,0,0,1,.069-.5.722.722,0,0,1,.492-.321.786.786,0,0,1,.353,0,.621.621,0,0,1,.294.166.651.651,0,0,1,.166.3l-1.063.246a.566.566,0,0,0,.214.31.55.55,0,0,0,.433.086.419.419,0,0,1,.075-.011,1.09,1.09,0,0,0,.235-.1.661.661,0,0,0,.2-.155h.005l-.075.283a1.093,1.093,0,0,1-.385.16,1.027,1.027,0,0,1-.636-.043A.62.62,0,0,1,34.773,89.489Zm.273-.267.754-.171a.294.294,0,0,0-.171-.176.473.473,0,0,0-.5.118.274.274,0,0,0-.08.235Zm1.315-.406a.278.278,0,0,1,.08-.321.979.979,0,0,1,.379-.2,1.332,1.332,0,0,1,.321-.053l.075.23a.816.816,0,0,0-.39.021c-.176.048-.246.118-.214.208a.138.138,0,0,0,.107.075,2.019,2.019,0,0,0,.262.021,1.554,1.554,0,0,1,.267.016.515.515,0,0,1,.2.075.283.283,0,0,1,.118.155.348.348,0,0,1-.1.369.88.88,0,0,1-.4.23,1.167,1.167,0,0,1-.4.043l-.176-.23a1.038,1.038,0,0,0,.572,0c.2-.064.294-.15.273-.251a.152.152,0,0,0-.091-.107.619.619,0,0,0-.2-.037c-.086-.005-.171-.005-.262-.011a1.04,1.04,0,0,1-.278-.059.261.261,0,0,1-.144-.171Zm1.331-.406a.282.282,0,0,1,.059-.326.9.9,0,0,1,.363-.214,1.4,1.4,0,0,1,.315-.075l.091.224a.831.831,0,0,0-.39.043c-.176.059-.24.134-.2.219a.135.135,0,0,0,.112.064,1.32,1.32,0,0,0,.267.005,2.146,2.146,0,0,1,.267,0,.455.455,0,0,1,.208.064.318.318,0,0,1,.128.15.342.342,0,0,1-.075.374.912.912,0,0,1-.385.251,1.067,1.067,0,0,1-.4.064l-.192-.219A1.057,1.057,0,0,0,38.434,89c.2-.075.283-.166.257-.267a.141.141,0,0,0-.1-.1.692.692,0,0,0-.2-.027c-.086,0-.171,0-.262.005a1.22,1.22,0,0,1-.283-.043.266.266,0,0,1-.155-.166Zm1.25-1.315a.193.193,0,0,1,.144.005.17.17,0,0,1,.1.1.166.166,0,0,1-.005.134.181.181,0,0,1-.107.091.193.193,0,0,1-.144-.005.17.17,0,0,1-.1-.1.154.154,0,0,1,.005-.128.167.167,0,0,1,.107-.091Zm.47,1.512-.3-.77c-.043-.107-.1-.166-.187-.171l-.005-.011.15-.048c.107-.043.166-.08.182-.118l.011-.005.39.978a.728.728,0,0,0,.08.16.182.182,0,0,0,.128.059v.011l-.465.16-.005-.011a.212.212,0,0,0,.021-.24Z" transform="translate(-0.502 -39.362)"/>
        <path id="Path_16035" data-name="Path 16035" d="M73.748,87.469a.7.7,0,0,1-.059-.331.557.557,0,0,1,.134-.331.819.819,0,0,1,.353-.257.784.784,0,0,1,.369-.069.724.724,0,0,1,.358.112.682.682,0,0,1,.251.283.617.617,0,0,1,.053.353.673.673,0,0,1-.155.337.761.761,0,0,1-.31.224.782.782,0,0,1-.6.027.656.656,0,0,1-.39-.353Zm.262-.15a.693.693,0,0,0,.171.219.506.506,0,0,0,.235.112.478.478,0,0,0,.246-.016.074.074,0,0,1,.021-.016.392.392,0,0,0,.24-.257.44.44,0,0,0-.037-.337.607.607,0,0,0-.278-.289.442.442,0,0,0-.385-.016.5.5,0,0,0-.23.219.408.408,0,0,0,.021.374Zm1.678-.3-.4-.668-.016-.027a.247.247,0,0,0-.219-.144l-.005-.011a1.508,1.508,0,0,1,.16-.075.413.413,0,0,0,.15-.123h.005l.112.192a.407.407,0,0,1,.064-.2.442.442,0,0,1,.192-.176.484.484,0,0,1,.716.182l.283.476a.16.16,0,0,1,.021.043.276.276,0,0,0,.23.15l.005.011-.433.224-.005-.011a.188.188,0,0,0,.032-.128.564.564,0,0,0-.069-.15l-.224-.374c-.15-.257-.337-.331-.545-.224-.112.059-.166.123-.176.2a.434.434,0,0,0,.075.257l.283.476a.388.388,0,0,0,.091.118.213.213,0,0,0,.134.032l.005.011-.433.224-.005-.011a.2.2,0,0,0,.032-.123.41.41,0,0,0-.064-.134Zm1.368-.844a.333.333,0,0,1,.027-.417,1.111,1.111,0,0,1,.144-.155c.069-.064.123-.118.16-.155a.33.33,0,0,0,.08-.118.183.183,0,0,0,.005-.059.165.165,0,0,0-.027-.064.142.142,0,0,0-.15-.059.555.555,0,0,0-.187.064.824.824,0,0,0-.278.294l.005-.331c.011-.005.021-.016.037-.027s.027-.021.043-.032.027-.021.037-.027A.493.493,0,0,0,77,85.064a.709.709,0,0,1,.406-.118.381.381,0,0,1,.321.187l.283.406a.316.316,0,0,0,.155.134.284.284,0,0,0,.208-.048v.23a.546.546,0,0,1-.3.075.284.284,0,0,1-.2-.134l-.251-.363a.942.942,0,0,1-.171.2.881.881,0,0,0-.166.2.162.162,0,0,0,.027.171.218.218,0,0,0,.171.1.4.4,0,0,0,.23-.064,1.112,1.112,0,0,0,.171-.144l-.027.262c-.048.037-.085.064-.118.086a.566.566,0,0,1-.379.091.376.376,0,0,1-.278-.155Zm1.454-.882-.855-.973a.464.464,0,0,0-.128-.118.181.181,0,0,0-.123-.011l-.005-.005c.032-.027.064-.053.107-.085a.967.967,0,0,0,.091-.075.347.347,0,0,0,.043-.048.086.086,0,0,0,.016-.048l.005-.005,1.112,1.261a.6.6,0,0,0,.112.1.2.2,0,0,0,.144.016l.005.011-.39.3-.005-.011a.154.154,0,0,0,.005-.128.881.881,0,0,0-.134-.171Zm.2-.957a.281.281,0,0,1-.059-.326.907.907,0,0,1,.267-.315,1.283,1.283,0,0,1,.273-.166l.166.187a.808.808,0,0,0-.353.16c-.144.112-.182.2-.112.267a.167.167,0,0,0,.128.032,1.586,1.586,0,0,0,.251-.075,2.014,2.014,0,0,1,.251-.08.505.505,0,0,1,.219,0,.3.3,0,0,1,.171.1.344.344,0,0,1,.064.374.849.849,0,0,1-.278.358,1.01,1.01,0,0,1-.353.182l-.262-.15a1.1,1.1,0,0,0,.529-.2c.16-.134.208-.246.15-.331a.146.146,0,0,0-.128-.064.6.6,0,0,0-.2.037c-.08.027-.16.053-.246.086a.847.847,0,0,1-.283.043.285.285,0,0,1-.2-.107Z" transform="translate(-34.304 -38.896)"/>
        <path id="Path_16036" data-name="Path 16036" d="M46.229,53.236c-4.11,3.49-12.681,5.889-22.594,5.889S5.15,56.726,1.04,53.236a9.909,9.909,0,0,0,.7-3.655,9.428,9.428,0,0,0-.1-1.411c4.307,2.87,12.542,4.81,22,4.81s17.683-1.94,22-4.81a10.193,10.193,0,0,0-.1,1.411,9.761,9.761,0,0,0,.7,3.655Z" transform="translate(-0.479 -22.432)" fill="#093" fill-rule="evenodd"/>
        <path id="Path_16037" data-name="Path 16037" d="M46.044,52.751a24.558,24.558,0,0,1-9.5,4.4,53.843,53.843,0,0,1-13.4,1.6,53.843,53.843,0,0,1-13.4-1.6,24.481,24.481,0,0,1-9.5-4.4l-.257-.219.123-.31a9.368,9.368,0,0,0,.5-1.7,9.665,9.665,0,0,0,.166-1.78c0-.235-.005-.46-.021-.673S.711,47.616.685,47.4L.535,46.36l.871.582A27.509,27.509,0,0,0,10.512,50.4,59.758,59.758,0,0,0,23.14,51.677a60.091,60.091,0,0,0,12.628-1.272,27.509,27.509,0,0,0,9.106-3.458l.871-.583L45.6,47.4c-.032.219-.053.444-.069.668s-.021.438-.021.673a9.753,9.753,0,0,0,.166,1.78,9.368,9.368,0,0,0,.5,1.7l.123.31-.257.219Zm-9.737,3.495a24.15,24.15,0,0,0,8.876-4,10.123,10.123,0,0,1-.428-1.555,10.284,10.284,0,0,1-.187-1.956c0-.171.005-.342.011-.513a30.542,30.542,0,0,1-8.614,3.089,60.884,60.884,0,0,1-12.826,1.3,60.533,60.533,0,0,1-12.826-1.3A30.6,30.6,0,0,1,1.7,48.22q.016.257.016.513a10.228,10.228,0,0,1-.187,1.951A10.292,10.292,0,0,1,1.1,52.238a24.15,24.15,0,0,0,8.876,4A52.937,52.937,0,0,0,23.14,57.812,52.937,52.937,0,0,0,36.3,56.241Z" transform="translate(0.01 -21.59)" fill="#063"/>
        <path id="Path_16038" data-name="Path 16038" d="M45.776,6.354v14.22c0,16.021-4.858,16.764-19.078,24.972C12.478,37.338,7.62,36.59,7.62,20.574V6.354c12.719-7.118,25.437-7.5,38.151,0Z" transform="translate(-3.543 -0.41)" fill="#fff" fill-rule="evenodd"/>
        <g id="Group_7389" data-name="Group 7389" transform="translate(4.077 0.462)" clip-path="url(#clip-path)">
          <g id="Group_7388" data-name="Group 7388" transform="translate(-1.486 9.823)">
            <path id="_1" data-name="1" d="M45.978,25.162V40.494c0,17.272-5.237,18.073-20.569,26.928C10.077,58.572,4.84,57.765,4.84,40.494V25.162C18.553,17.488,32.265,17.082,45.978,25.162Z" transform="translate(-4.84 -19.253)" fill="#093" fill-rule="evenodd"/>
          </g>
        </g>
        <path id="Path_16040" data-name="Path 16040" d="M45.776,6.354v14.22c0,16.021-4.858,16.764-19.078,24.972C12.478,37.338,7.62,36.59,7.62,20.574V6.354c12.719-7.118,25.437-7.5,38.151,0Z" transform="translate(-3.543 -0.41)" fill="none" fill-rule="evenodd"/>
        <path id="Path_16041" data-name="Path 16041" d="M45.837,5.952v14.22c0,14.536-3.912,16.727-14.968,22.92-1.357.759-2.822,1.582-4.345,2.458l-.235.134-.235-.134c-1.528-.882-2.993-1.7-4.345-2.458C10.657,36.9,6.74,34.708,6.74,20.172V5.679l.24-.134A39.963,39.963,0,0,1,26.283.009,37.082,37.082,0,0,1,45.6,5.551l.235.139v.267ZM44.9,20.172V6.219a36.031,36.031,0,0,0-18.6-5.28A38.942,38.942,0,0,0,7.686,6.224V20.167c0,13.985,3.789,16.107,14.488,22.1,1.261.705,2.619,1.47,4.12,2.335,1.5-.866,2.859-1.625,4.12-2.33,10.7-5.991,14.488-8.112,14.488-22.1Z" transform="translate(-3.133 -0.008)" fill="#063"/>
        <path id="Path_16042" data-name="Path 16042" d="M42.136,32.542V40.9a1.554,1.554,0,0,1-1.55,1.55H28.958a1.554,1.554,0,0,1-1.55-1.55V32.408l-1.5,1.277a.574.574,0,0,1-.433.139.6.6,0,0,1-.406-.2l-.005-.005a.583.583,0,0,1-.139-.428.6.6,0,0,1,.2-.406l9.16-7.818a.6.6,0,0,1,.8.016l.069.037a.648.648,0,0,1,.075.053L40.2,29.309V27.337a.559.559,0,0,1,.556-.556h.887a.559.559,0,0,1,.556.556v3.377a.706.706,0,0,1-.053.251L44.4,32.894a.6.6,0,0,1,.2.406.583.583,0,0,1-.139.428l-.005.005a.6.6,0,0,1-.406.2.62.62,0,0,1-.433-.139l-1.47-1.25ZM37.1,34.156V36.3a.766.766,0,0,1-.764.764H33.377a.766.766,0,0,1-.764-.764V33.562l1.876-1.6a.517.517,0,0,1,.166-.1l.005-.005a.547.547,0,0,1,.187-.027h.005a.522.522,0,0,1,.176.037.6.6,0,0,1,.112.064A22.615,22.615,0,0,1,37.1,33.594v.556Zm-3.468-.069v1.94h2.453v-1.9l-1.25-1.063-1.208,1.031Zm6.188-.834v5.269a1.332,1.332,0,0,1-1.336,1.336H31.234A1.332,1.332,0,0,1,29.9,38.522V32.05l4.4-3.762a.709.709,0,0,1,.246-.139.8.8,0,0,1,.278-.043h.005a.773.773,0,0,1,.262.059.7.7,0,0,1,.192.112,54.551,54.551,0,0,1,4.542,3.858v1.117Zm-8.5-.417V38.3a.1.1,0,0,0,.021.053.082.082,0,0,0,.053.021h6.942a.073.073,0,0,0,.075-.075V32.921l-3.6-3.067ZM28.5,31.478v9.053a.714.714,0,0,0,.711.711H40.346a.714.714,0,0,0,.711-.711V31.612L34.7,26.182l-6.2,5.3Z" transform="translate(-11.601 -11.56)" fill="#fff" fill-rule="evenodd"/>
        <path id="Path_16043" data-name="Path 16043" d="M41.952,68.26l.369,1.149,1.208-.005-.978.711.374,1.149-.973-.716-.978.716.374-1.149L40.37,69.4l1.208.005Z" transform="translate(-18.791 -31.786)" fill="#fff" fill-rule="evenodd"/>
        <path id="Path_16044" data-name="Path 16044" d="M30.832,62.43l.369,1.149h1.208l-.978.705.374,1.149-.973-.711-.978.711.379-1.149-.983-.705h1.208Z" transform="translate(-13.614 -29.072)" fill="#fff" fill-rule="evenodd"/>
        <path id="Path_16045" data-name="Path 16045" d="M53.066,62.43l.374,1.149h1.208l-.978.705.374,1.149-.978-.711-.973.711.374-1.149-.978-.705H52.7Z" transform="translate(-23.969 -29.072)" fill="#fff" fill-rule="evenodd"/>
        <path id="Path_16046" data-name="Path 16046" d="M28.617,11.09l-1.635.4-.107.823-1.475.358L26.239,7.9l1.427-.347,2.923,3.853-1.5.363-.47-.679Zm-.652-.951-.679-.983-.155,1.186.839-.2Zm4.671-.027-.4.037.1,1.112-1.486.139-.411-4.414,2.127-.2a2.623,2.623,0,0,1,1.085.1,1.523,1.523,0,0,1,1.079,1.373,1.563,1.563,0,0,1-.139.844,1.532,1.532,0,0,1-.566.62L35.078,11l-1.587.15Zm.593-1.71a.48.48,0,0,0-.187-.369.681.681,0,0,0-.465-.1l-.54.048.1,1.031.54-.048a.654.654,0,0,0,.444-.176.491.491,0,0,0,.118-.4Zm6.1,1.764-.086,1.122-3.671-.278L35.9,6.59l3.591.273-.086,1.122-2.127-.16-.037.518,1.87.139-.08,1.074-1.87-.139L37.119,10Zm3.607,1.272L41.309,11l-.486.668-1.464-.4L42.383,7.5l1.416.385.711,4.783-1.491-.4-.086-.823Zm-.118-1.149L42.693,9.1l-.705.962.834.224Z" transform="translate(-11.821 -3.073)" fill="#063"/>
        <path id="Path_16047" data-name="Path 16047" d="M113.661,28.856H109.1l-.807,2.095h-4.12l5.253-12.013H113.4l5.253,12.013h-4.19l-.807-2.095Zm-1.117-2.918-1.165-3.019-1.165,3.019h2.335Zm11.57,5.285a12.5,12.5,0,0,1-2.907-.337,7.73,7.73,0,0,1-2.325-.9l1.3-2.95a8.21,8.21,0,0,0,1.924.8,7.611,7.611,0,0,0,2.041.3,3.09,3.09,0,0,0,1.2-.166.521.521,0,0,0,.358-.492c0-.251-.155-.438-.47-.566a10.023,10.023,0,0,0-1.555-.411,17.828,17.828,0,0,1-2.314-.625,3.97,3.97,0,0,1-1.614-1.1,2.964,2.964,0,0,1-.684-2.068,3.562,3.562,0,0,1,.636-2.057,4.146,4.146,0,0,1,1.9-1.459,7.9,7.9,0,0,1,3.062-.529,11.14,11.14,0,0,1,2.426.267,7.556,7.556,0,0,1,2.1.78l-1.218,2.934a7.474,7.474,0,0,0-3.345-.892c-1.042,0-1.56.251-1.56.754,0,.24.155.422.465.54a9.727,9.727,0,0,0,1.528.385,15.582,15.582,0,0,1,2.319.593,4.063,4.063,0,0,1,1.641,1.09,2.916,2.916,0,0,1,.695,2.057,3.545,3.545,0,0,1-.636,2.052,4.255,4.255,0,0,1-1.9,1.459,7.792,7.792,0,0,1-3.062.54Zm15.31-2.367H134.86l-.807,2.095h-4.12l5.253-12.013h3.981l5.253,12.013h-4.19l-.807-2.095Zm-1.117-2.918-1.165-3.019-1.165,3.019h2.335Zm16.7-1.272a3.564,3.564,0,0,1,1.646,1.149,2.879,2.879,0,0,1,.582,1.817,2.775,2.775,0,0,1-1.3,2.448,6.83,6.83,0,0,1-3.773.866H145.4V18.933h6.418a6.326,6.326,0,0,1,3.629.86,2.657,2.657,0,0,1,1.229,2.282,2.769,2.769,0,0,1-.422,1.512,2.994,2.994,0,0,1-1.245,1.079Zm-5.627-2.9V23.55h1.886c.882,0,1.32-.3,1.32-.892s-.438-.892-1.32-.892Zm2.437,6.349c.892,0,1.336-.315,1.336-.946s-.444-.946-1.336-.946H149.38v1.886h2.437Zm15.364.737h-4.564l-.807,2.095h-4.12l5.253-12.013h3.981l5.253,12.013h-4.19Zm-1.117-2.918L164.9,22.914l-1.165,3.019h2.335Z" transform="translate(-48.496 -8.693)"/>
        <path id="Path_16048" data-name="Path 16048" d="M107.307,53.063H106.2v1.908H104.17V47.8h3.281a4.1,4.1,0,0,1,1.689.321,2.491,2.491,0,0,1,1.106.925,2.732,2.732,0,0,1,.027,2.768,2.449,2.449,0,0,1-1.042.908l1.544,2.255h-2.17l-1.3-1.908Zm1.283-2.613a.991.991,0,0,0-.315-.78,1.411,1.411,0,0,0-.941-.278h-1.128v2.1h1.128a1.4,1.4,0,0,0,.941-.273.955.955,0,0,0,.315-.775ZM117.1,53.4v1.566h-5.761V47.794h5.627v1.566h-3.618v1.208h3.185v1.518h-3.185v1.309H117.1Zm5.52.176h-3.035l-.566,1.395h-2.068l3.164-7.172h2l3.174,7.172h-2.111l-.561-1.395Zm-.593-1.5-.924-2.293-.924,2.293h1.844ZM125.45,47.8h2.031v5.563h3.42v1.609H125.45ZM140.023,53.4v1.566h-5.761V47.8h5.627v1.566h-3.618v1.208h3.185V52.09h-3.185V53.4h3.751Zm3.233,1.71a6.559,6.559,0,0,1-1.689-.214,4.278,4.278,0,0,1-1.331-.572l.668-1.5a4.211,4.211,0,0,0,1.117.513,4.286,4.286,0,0,0,1.25.192c.78,0,1.17-.192,1.17-.582a.483.483,0,0,0-.331-.454,6.152,6.152,0,0,0-1.069-.315,10.428,10.428,0,0,1-1.352-.374,2.244,2.244,0,0,1-.93-.641,1.717,1.717,0,0,1-.39-1.186,2.027,2.027,0,0,1,.358-1.181,2.4,2.4,0,0,1,1.069-.834,4.446,4.446,0,0,1,1.747-.31,6.138,6.138,0,0,1,1.395.16,4.309,4.309,0,0,1,1.208.465l-.625,1.507a4.187,4.187,0,0,0-1.988-.556,1.645,1.645,0,0,0-.882.182.539.539,0,0,0-.278.465.462.462,0,0,0,.326.433,6.265,6.265,0,0,0,1.058.3,10.065,10.065,0,0,1,1.357.374,2.356,2.356,0,0,1,.93.636,1.7,1.7,0,0,1,.4,1.181,2.018,2.018,0,0,1-.358,1.17,2.467,2.467,0,0,1-1.074.834,4.342,4.342,0,0,1-1.742.31Zm5.12-5.707h-2.2V47.8H152.6v1.609h-2.191v5.563h-2.031Zm9.01,4.168H154.35l-.561,1.395h-2.068l3.164-7.172h2l3.174,7.172h-2.111l-.561-1.395Zm-.593-1.5-.924-2.293-.925,2.293h1.844Zm4.6-2.672h-2.2V47.8h6.423v1.609h-2.191v5.563h-2.031Zm10.325,4v1.566h-5.761V47.8h5.627v1.566h-3.618v1.208h3.185V52.09h-3.185V53.4h3.751Z" transform="translate(-48.496 -22.195)"/>
        <path id="Path_16049" data-name="Path 16049" d="M109.99,72.426h-3.42L105.917,74H104.17l3.281-7.364h1.683L112.426,74h-1.79l-.652-1.576Zm-.534-1.293-1.17-2.822-1.17,2.822h2.335Zm8.956,3a4.248,4.248,0,0,1-2.036-.492,3.649,3.649,0,0,1-1.432-1.357,3.969,3.969,0,0,1,0-3.922A3.649,3.649,0,0,1,116.376,67a4.261,4.261,0,0,1,2.047-.492,4.314,4.314,0,0,1,1.731.337,3.484,3.484,0,0,1,1.3.967l-1.1,1.01a2.347,2.347,0,0,0-1.854-.86,2.479,2.479,0,0,0-1.218.3,2.169,2.169,0,0,0-.839.834,2.63,2.63,0,0,0,0,2.437,2.147,2.147,0,0,0,.839.839,2.479,2.479,0,0,0,1.218.3,2.348,2.348,0,0,0,1.854-.871l1.1,1.01a3.431,3.431,0,0,1-1.3.978,4.321,4.321,0,0,1-1.737.337Zm10.683-1.7h-3.42L125.022,74h-1.747l3.281-7.364h1.683L131.531,74h-1.79l-.652-1.576Zm-.534-1.293-1.17-2.822-1.17,2.822h2.335Zm5.536-4.494h3.345a4.712,4.712,0,0,1,2.122.46A3.42,3.42,0,0,1,141,68.386a3.9,3.9,0,0,1,0,3.869,3.42,3.42,0,0,1-1.432,1.288,4.712,4.712,0,0,1-2.122.46H134.1V66.638Zm3.26,5.964a2.471,2.471,0,0,0,1.764-.615,2.443,2.443,0,0,0,0-3.335,2.471,2.471,0,0,0-1.764-.615H135.8V72.6Zm12.922.032V74h-5.7V66.638h5.563v1.368H146.27v1.6h3.42v1.325h-3.42v1.7ZM160.127,74l-.011-4.419-2.17,3.639h-.77l-2.159-3.543V74h-1.6V66.638h1.411l2.757,4.574,2.715-4.574h1.4L161.725,74h-1.6Zm8.673-2.608V74h-1.7V71.373l-2.854-4.735h1.812l1.967,3.271,1.967-3.271h1.673Z" transform="translate(-48.496 -30.972)"/>
      </g>
    </g>
  </g>
</svg>
