<svg id="ic-call" xmlns="http://www.w3.org/2000/svg" width="71" height="71" viewBox="0 0 71 71">
  <g id="Ellipse_6177" data-name="Ellipse 6177" fill="#ff5f5f" stroke="#1e1f21" stroke-width="4">
    <circle cx="35.5" cy="35.5" r="35.5" stroke="none"/>
    <circle cx="35.5" cy="35.5" r="33.5" fill="none"/>
  </g>
  <path id="phone-d" d="M26.983,1.845,21.3.533a1.321,1.321,0,0,0-1.5.76L17.166,7.418a1.309,1.309,0,0,0,.377,1.531l3.314,2.712a20.268,20.268,0,0,1-9.69,9.69L8.455,18.038a1.311,1.311,0,0,0-1.531-.377L.8,20.286A1.328,1.328,0,0,0,.033,21.8l1.312,5.687A1.312,1.312,0,0,0,2.625,28.5,25.372,25.372,0,0,0,28,3.125,1.311,1.311,0,0,0,26.983,1.845Z" transform="translate(22 20.5)" fill="#fff"/>
</svg>
