<svg xmlns="http://www.w3.org/2000/svg" width="18.625" height="18.625" viewBox="0 0 18.625 18.625">
  <path id="ic-dribbble" d="M9.625.813A9.027,9.027,0,0,0,4.969,2.07a9.41,9.41,0,0,0-3.4,3.4A9.027,9.027,0,0,0,.313,10.125,9.027,9.027,0,0,0,1.57,14.781a9.41,9.41,0,0,0,3.4,3.4,9.027,9.027,0,0,0,4.656,1.258,9.027,9.027,0,0,0,4.656-1.258,9.41,9.41,0,0,0,3.4-3.4,9.027,9.027,0,0,0,1.258-4.656,9.027,9.027,0,0,0-1.258-4.656,9.41,9.41,0,0,0-3.4-3.4A9.027,9.027,0,0,0,9.625.813Zm6.158,4.281A7.713,7.713,0,0,1,17.1,7.4a8.478,8.478,0,0,1,.488,2.647q-.826-.15-1.877-.263a16.3,16.3,0,0,0-3.68.038Q11.69,9,11.352,8.247a12.169,12.169,0,0,0,3.267-1.953A7.316,7.316,0,0,0,15.783,5.093Zm-.9-.9A5.292,5.292,0,0,1,13.83,5.318a10.135,10.135,0,0,1-3.117,1.727A36.034,36.034,0,0,0,7.747,2.39a7.931,7.931,0,0,1,3.792.019A7.751,7.751,0,0,1,14.882,4.192ZM6.245,2.953A42.077,42.077,0,0,1,9.174,7.534,27.621,27.621,0,0,1,4.255,8.4q-1.389.113-2.4.113a7.717,7.717,0,0,1,1.54-3.3A7.827,7.827,0,0,1,6.245,2.953ZM1.664,10.125V9.9q1.164,0,2.741-.113A27.655,27.655,0,0,0,9.85,8.773a10.98,10.98,0,0,1,.638,1.352,10.7,10.7,0,0,0-3.98,2.14,11.448,11.448,0,0,0-2.779,3.192A8.177,8.177,0,0,1,2.209,13,7.71,7.71,0,0,1,1.664,10.125ZM4.743,16.4A8.412,8.412,0,0,1,7,13.692a11.915,11.915,0,0,1,4.055-2.253,31.165,31.165,0,0,1,1.69,6.008,8.057,8.057,0,0,1-4.112.582A7.418,7.418,0,0,1,4.743,16.4Zm9.312.338a32.729,32.729,0,0,0-1.54-5.67,10.445,10.445,0,0,1,3.3,0,8.3,8.3,0,0,1,1.652.338,7.77,7.77,0,0,1-1.164,3.042A7.861,7.861,0,0,1,14.056,16.733Z" transform="translate(-0.313 -0.813)" fill="#1e1f21"/>
</svg>
