<svg xmlns="http://www.w3.org/2000/svg" width="59" height="59" viewBox="0 0 59 59">
  <g id="ic-fb" transform="translate(-256 -196)">
    <g id="Ellipse_27" data-name="Ellipse 27" transform="translate(256 196)" fill="none" stroke="#8cc53f" stroke-width="1">
      <circle cx="29.5" cy="29.5" r="29.5" stroke="none"/>
      <circle cx="29.5" cy="29.5" r="29" fill="none"/>
    </g>
    <circle id="Ellipse_28" data-name="Ellipse 28" cx="24" cy="24" r="24" transform="translate(262 201)" fill="#f1ffef"/>
    <path id="ic-facebook" d="M19.843-18.393V-.765a1.1,1.1,0,0,1-.31.775,1.042,1.042,0,0,1-.8.332H13.686V-7.364h2.569l.4-2.968H13.686v-1.9a1.646,1.646,0,0,1,.266-1.063,1.535,1.535,0,0,1,1.2-.4h1.595v-2.7q-.93-.089-2.3-.089a3.865,3.865,0,0,0-2.79,1.019,3.86,3.86,0,0,0-1.063,2.923v2.215H8.017v2.968h2.569V.343H1.107A1.042,1.042,0,0,1,.31.011,1.1,1.1,0,0,1,0-.765V-18.393a1.079,1.079,0,0,1,.31-.8,1.079,1.079,0,0,1,.8-.31H18.735a1.1,1.1,0,0,1,.775.31A1.042,1.042,0,0,1,19.843-18.393Z" transform="translate(275.598 235.236)" fill="#8cc53f"/>
  </g>
</svg>
