<svg xmlns="http://www.w3.org/2000/svg" width="34.618" height="34.882" viewBox="0 0 34.618 34.882">
  <g id="ic-hrt" transform="translate(18.59 34.882) rotate(-133)" fill="#fb6c6c">
    <path d="M 25.70761680603027 20.41040992736816 C 25.0329761505127 20.36943435668945 23.23229598999023 20.01006126403809 19.12665367126465 17.92436790466309 C 16.58768272399902 16.63454818725586 14.43173313140869 15.32319736480713 14.41025352478027 15.31009769439697 L 13.62929344177246 14.83399772644043 L 12.84829330444336 15.31016731262207 C 12.82694339752197 15.32318782806396 10.67112350463867 16.63443756103516 8.132223129272461 17.92419815063477 C 4.0268874168396 20.00971603393555 2.22594141960144 20.36930656433105 1.551055192947388 20.41038703918457 C 1.765158295631409 19.5093822479248 2.840628385543823 16.81550598144531 8.019213676452637 9.716217041015625 C 10.17234802246094 6.764500617980957 12.34566116333008 3.996891736984253 13.62933349609375 2.389285326004028 C 14.91300582885742 3.996891736984253 17.08631896972656 6.764500617980957 19.23945426940918 9.716217041015625 C 24.41803932189941 16.81550598144531 25.49351501464844 19.5094051361084 25.70761680603027 20.41040992736816 Z" stroke="none"/>
    <path d="M 13.62933349609375 4.805519104003906 C 12.45329284667969 6.302953720092773 10.95923042297363 8.24205207824707 9.460014343261719 10.28712749481201 C 7.582183837890625 12.84866714477539 6.068214416503906 15.0664176940918 4.960172653198242 16.87875747680664 C 4.691293716430664 17.31854629516602 4.459157943725586 17.71389770507812 4.258657455444336 18.06864547729492 C 5.087671279907227 17.73041152954102 6.132164001464844 17.25728607177734 7.43629264831543 16.59527778625488 C 9.925634384155273 15.33162784576416 12.04662322998047 14.04212760925293 12.06726360321045 14.02954769134521 L 13.6292839050293 13.0768871307373 L 15.19133377075195 14.02950763702393 C 15.21217346191406 14.04221725463867 17.30354309082031 15.31472778320312 19.78961372375488 16.57853698730469 C 21.10889625549316 17.24920463562012 22.16408157348633 17.72750091552734 22.99996566772461 18.06856918334961 C 22.79946517944336 17.71382141113281 22.56737327575684 17.31854629516602 22.29849243164062 16.87875747680664 C 21.19045257568359 15.0664176940918 19.67648315429688 12.84866714477539 17.79865264892578 10.28712749481201 C 16.29943656921387 8.24205207824707 14.80537414550781 6.302953720092773 13.62933349609375 4.805519104003906 M 13.62933349609375 -1.9073486328125e-06 C 13.62933349609375 -1.9073486328125e-06 27.25866317749023 16.60754776000977 27.25866317749023 20.7552375793457 C 27.25866317749023 24.9029369354248 13.62933349609375 16.59078788757324 13.62933349609375 16.59078788757324 C 13.62933444976807 16.59078788757324 5.7220458984375e-06 24.90293502807617 3.814697265625e-06 20.7552375793457 C 3.814697265625e-06 16.60754776000977 13.62933349609375 -1.9073486328125e-06 13.62933349609375 -1.9073486328125e-06 Z" stroke="none" fill="#1e1f21"/>
  </g>
</svg>
