<svg xmlns="http://www.w3.org/2000/svg" width="18.625" height="18.625" viewBox="0 0 18.625 18.625">
  <path id="ic-instagram" d="M9.312,6.281a4.652,4.652,0,0,0-2.39.644A4.8,4.8,0,0,0,5.176,8.672a4.756,4.756,0,0,0,0,4.781A4.8,4.8,0,0,0,6.922,15.2a4.756,4.756,0,0,0,4.781,0,4.8,4.8,0,0,0,1.746-1.746,4.756,4.756,0,0,0,0-4.781A4.8,4.8,0,0,0,11.7,6.926,4.652,4.652,0,0,0,9.312,6.281Zm0,7.9a3.123,3.123,0,0,1-3.118-3.118A3.123,3.123,0,0,1,9.312,7.944a3.123,3.123,0,0,1,3.118,3.118A3.123,3.123,0,0,1,9.312,14.18Zm6.111-8.107a1.3,1.3,0,0,1-.353.79A1.012,1.012,0,0,1,14.3,7.2a1.117,1.117,0,0,1-.79-1.912,1.122,1.122,0,0,1,1.912.79ZM18.583,7.2a8.458,8.458,0,0,0-.374-2.079,4.866,4.866,0,0,0-2.952-2.952A7.84,7.84,0,0,0,13.2,1.812Q12.014,1.75,9.312,1.75t-3.887.062a7.84,7.84,0,0,0-2.058.353A4.866,4.866,0,0,0,.416,5.117,7.84,7.84,0,0,0,.062,7.175Q0,8.36,0,11.062t.062,3.887a7.84,7.84,0,0,0,.353,2.058,4.845,4.845,0,0,0,1.143,1.808,4.431,4.431,0,0,0,1.808,1.1,6.788,6.788,0,0,0,2.058.395q1.185.062,3.887.062t3.887-.062a7.84,7.84,0,0,0,2.058-.353,4.866,4.866,0,0,0,2.952-2.952,7.84,7.84,0,0,0,.353-2.058q.062-1.185.062-3.887T18.583,7.2Zm-2,9.354A3.152,3.152,0,0,1,14.8,18.337a8.342,8.342,0,0,1-2.245.333q-.873.042-2.578.042H8.647q-1.663,0-2.577-.042a8.753,8.753,0,0,1-2.245-.333A3.152,3.152,0,0,1,2.037,16.55,8.753,8.753,0,0,1,1.7,14.3q-.042-.915-.042-2.577V10.4q0-1.663.042-2.577a8.342,8.342,0,0,1,.333-2.245A3,3,0,0,1,3.825,3.787,8.753,8.753,0,0,1,6.07,3.454q.915-.042,2.577-.042h1.33q1.663,0,2.578.042a8.342,8.342,0,0,1,2.245.333,3,3,0,0,1,1.788,1.788A8.342,8.342,0,0,1,16.92,7.82q.042.873.042,2.577v1.33q0,1.663-.042,2.577A8.753,8.753,0,0,1,16.587,16.55Z" transform="translate(0 -1.75)" fill="#1e1f21"/>
</svg>
