<svg xmlns="http://www.w3.org/2000/svg" width="59" height="59" viewBox="0 0 59 59">
  <g id="ic-linkedin" transform="translate(-160 -196)">
    <g id="Ellipse_23" data-name="Ellipse 23" transform="translate(160 196)" fill="none" stroke="#8cc53f" stroke-width="1">
      <circle cx="29.5" cy="29.5" r="29.5" stroke="none"/>
      <circle cx="29.5" cy="29.5" r="29" fill="none"/>
    </g>
    <circle id="Ellipse_24" data-name="Ellipse 24" cx="24.5" cy="24.5" r="24.5" transform="translate(165 201)" fill="#f1ffef"/>
    <path id="ic-linkedin-2" data-name="ic-linkedin" d="M18.425-19.5H1.417a1.362,1.362,0,0,0-1,.421,1.362,1.362,0,0,0-.421,1V-1.075a1.362,1.362,0,0,0,.421,1,1.362,1.362,0,0,0,1,.421H18.425a1.362,1.362,0,0,0,1-.421,1.362,1.362,0,0,0,.421-1V-18.083a1.362,1.362,0,0,0-.421-1A1.362,1.362,0,0,0,18.425-19.5ZM5.979-2.492H3.056V-11.97H6.024v9.478ZM4.518-13.255a1.59,1.59,0,0,1-1.2-.509,1.674,1.674,0,0,1-.487-1.2,1.674,1.674,0,0,1,.487-1.2,1.59,1.59,0,0,1,1.2-.509,1.662,1.662,0,0,1,1.218.509,1.637,1.637,0,0,1,.509,1.2,1.637,1.637,0,0,1-.509,1.2A1.662,1.662,0,0,1,4.518-13.255ZM17.008-2.492H14.085V-7.1a4.693,4.693,0,0,0-.221-1.683,1.269,1.269,0,0,0-1.329-.842,1.562,1.562,0,0,0-1.462.753,3.634,3.634,0,0,0-.31,1.683v4.695H7.84V-11.97h2.835v1.284h.044a2.478,2.478,0,0,1,.974-1.019,3.412,3.412,0,0,1,1.816-.487,3.179,3.179,0,0,1,2.879,1.284,6.438,6.438,0,0,1,.62,3.233Z" transform="translate(179.736 235.236)" fill="#8cc53f"/>
  </g>
</svg>
