<svg id="ic-pointograph" xmlns="http://www.w3.org/2000/svg" width="16.494" height="25.592" viewBox="0 0 16.494 25.592">
  <path id="Path_1321" d="M11.525,4.447h0l-.454-.182h0L4.9,1.906,0,0,.091,9.892a5.991,5.991,0,0,0,.091,1.271,8.53,8.53,0,0,0,3.993,6.353,8.2,8.2,0,0,0,8.621,0,9.448,9.448,0,0,0,2.269-2,6.811,6.811,0,0,0,0-8.349A7.958,7.958,0,0,0,11.525,4.447ZM5.99,10.527Z" fill="#fff"/>
  <ellipse id="Ellipse_260" cx="2.723" cy="2.813" rx="2.723" ry="2.813" transform="translate(0 19.965)" fill="#fff"/>
  <g id="Group_1790" transform="translate(4.997 7.503)">
    <path id="Path_15847" data-name="Path 15847" d="M3.232,5.864A2.632,2.632,0,1,1,5.864,3.232,2.634,2.634,0,0,1,3.232,5.864Zm0-4.719A2.111,2.111,0,0,0,1.145,3.232,2.054,2.054,0,0,0,3.232,5.319,2.111,2.111,0,0,0,5.319,3.232,2.111,2.111,0,0,0,3.232,1.145Z" transform="translate(0.217 0.217)" fill="#1e1f21"/>
    <g id="Group_1270" transform="translate(3.178 0)">
      <path id="Path_15848" data-name="Path 15848" d="M-.028,1.969A.241.241,0,0,1-.3,1.7V-.028A.241.241,0,0,1-.028-.3a.241.241,0,0,1,.272.272V1.7A.241.241,0,0,1-.028,1.969Z" transform="translate(0.3 0.3)" fill="#1e1f21"/>
      <path id="Path_15849" data-name="Path 15849" d="M-.028,7.069A.241.241,0,0,1-.3,6.8V5.072A.241.241,0,0,1-.028,4.8a.241.241,0,0,1,.272.272V6.8A.241.241,0,0,1-.028,7.069Z" transform="translate(0.3 -0.172)" fill="#1e1f21"/>
    </g>
    <g id="Group_1271" transform="translate(0 3.178)">
      <path id="Path_15850" data-name="Path 15850" d="M1.7.245H-.028A.241.241,0,0,1-.3-.028.241.241,0,0,1-.028-.3H1.7a.241.241,0,0,1,.272.272A.241.241,0,0,1,1.7.245Z" transform="translate(0.3 0.3)" fill="#1e1f21"/>
      <path id="Path_15851" data-name="Path 15851" d="M6.8.245H5.072A.241.241,0,0,1,4.8-.028.241.241,0,0,1,5.072-.3H6.8a.241.241,0,0,1,.272.272A.241.241,0,0,1,6.8.245Z" transform="translate(-0.172 0.3)" fill="#1e1f21"/>
    </g>
  </g>
</svg>
