<svg xmlns="http://www.w3.org/2000/svg" width="13.998" height="14.001" viewBox="0 0 13.998 14.001">
  <g id="ic-phone" transform="translate(0.001 0.001)">
    <path id="Path_16009" data-name="Path 16009" d="M13.584,12.494s-3.188,4.55-9.9-2.167C-3.067,3.562,1.524.417,1.524.417A1.419,1.419,0,0,1,3.666.569L4.958,2.3a1.424,1.424,0,0,1-.132,1.86L3.688,5.3s0,1.006,2.01,3.019,3.015,2.013,3.015,2.013l1.138-1.14a1.42,1.42,0,0,1,1.858-.132l1.722,1.294a1.425,1.425,0,0,1,.153,2.14Z" fill="#8cc53f"/>
  </g>
</svg>
