<svg xmlns="http://www.w3.org/2000/svg" width="48" height="48" viewBox="0 0 48 48">
  <g id="ic-wip-global-app" transform="translate(-0.179 -0.103)">
    <rect id="Rectangle_4053" data-name="Rectangle 4053" width="48" height="48" rx="24" transform="translate(0.179 0.103)" fill="#e8f5ee"/>
    <g id="Group_13522" data-name="Group 13522" transform="translate(11.855 11.872)">
      <path id="rgba_33_112_67_0.99_" data-name="rgba(33,112,67,0.99)" d="M11.492,0h1.664l.1.1,1.456.1,2.392.728a12.732,12.732,0,0,1,4.42,3.172A12.978,12.978,0,0,1,23.92,8.06l.624,2.5.1,2.6-.1.1-.1,1.456-.728,2.392a12.732,12.732,0,0,1-3.172,4.42,12.978,12.978,0,0,1-3.952,2.392l-2.5.624-2.6.1-.1-.1-1.456-.1L7.54,23.712a12.787,12.787,0,0,1-4.524-3.276A12.218,12.218,0,0,1,.728,16.588L.1,14.092l-.1-2.6.1-.1.1-1.456L.936,7.54A12.732,12.732,0,0,1,4.108,3.12,13.173,13.173,0,0,1,7.54.936L9.932.208,11.388.1Zm-.156,1.456-1.56.312-.208.208V3.328l1.872-.416h1.872l2.5.624a10.8,10.8,0,0,1,3.016,1.976A11.726,11.726,0,0,1,20.9,8.736l.416,1.352.1,1.144.1.1V13l-.312,1.664A9.769,9.769,0,0,1,19.24,18.3a9.025,9.025,0,0,1-5.72,3.016H11.232l-1.456-.312A7.992,7.992,0,0,1,6.24,19.032a1.578,1.578,0,0,1-.832-.936l6.864-5.824h.208l4.576,3.952.416.312h.208V6.656H16.328l-.208.208v6.448l.1.1-3.848-3.224L8.424,13.52,8.32,2.288A8.868,8.868,0,0,0,5.408,4.056,10.254,10.254,0,0,0,2.6,7.8l-.728,2.288-.1,1.56-.1.1.1,1.976L2.184,15.5A12.569,12.569,0,0,0,4.16,19.032a11.25,11.25,0,0,0,3.12,2.5l1.976.832,2.08.416h2.08l2.08-.416a9.769,9.769,0,0,0,3.64-1.976,9.372,9.372,0,0,0,2.392-2.808l1.04-2.392.416-2.08V11.232l-.624-2.7A9.866,9.866,0,0,0,20.384,5.2a10.7,10.7,0,0,0-3.848-2.912l-1.144-.416-1.976-.416Zm-.52,13.416v1.456h1.456V14.872Zm1.976,0v1.456h1.56V14.872Zm-1.976,1.872V18.3h1.456v-1.56Zm2.184,0-.208.208V18.3h1.56V16.952l-.1-.208Z" fill="#229c56"/>
      <path id="rgba_33_112_67_0.99_2" data-name="rgba(33,112,67,0.99)" d="M33.588,46l.052,10.036L31.3,58.064a9.226,9.226,0,0,1-1.092-2.652l-.1-1.352-.1-.1V52.708l.416-2.184.728-1.664A9.556,9.556,0,0,1,33.588,46Z" transform="translate(-26.88 -41.216)" fill="#229c56"/>
    </g>
  </g>
</svg>
