<svg xmlns="http://www.w3.org/2000/svg" width="18.625" height="18.625" viewBox="0 0 18.625 18.625">
  <path id="ic-whatsapp" d="M15.84-13.548a9.687,9.687,0,0,0-3.014-2,8.988,8.988,0,0,0-3.513-.707A8.94,8.94,0,0,0,4.7-15,9.339,9.339,0,0,0,1.33-11.635,8.94,8.94,0,0,0,.083-7.021,8.94,8.94,0,0,0,1.33-2.406L0,2.375,4.906,1.086A8.985,8.985,0,0,0,9.313,2.209,9.051,9.051,0,0,0,13.948.961a9.453,9.453,0,0,0,3.409-3.367,8.829,8.829,0,0,0,1.268-4.615,8.766,8.766,0,0,0-.728-3.513A9.64,9.64,0,0,0,15.84-13.548ZM9.313.67A7.413,7.413,0,0,1,5.4-.41L5.114-.577,2.2.172l.79-2.827-.166-.291A7.375,7.375,0,0,1,1.621-7.021a7.45,7.45,0,0,1,1.039-3.846,7.782,7.782,0,0,1,2.806-2.806,7.45,7.45,0,0,1,3.846-1.039,7.525,7.525,0,0,1,2.931.582,7.7,7.7,0,0,1,2.494,1.684,8.223,8.223,0,0,1,1.725,2.515,7.14,7.14,0,0,1,.624,2.91,7.339,7.339,0,0,1-1.06,3.846A7.9,7.9,0,0,1,13.179-.369,7.561,7.561,0,0,1,9.313.67Zm4.2-5.779q-1.247-.624-1.58-.748a1.221,1.221,0,0,0-.291-.042q-.125,0-.208.166-.208.291-.748.915-.166.208-.5.042A10.652,10.652,0,0,1,8.439-5.815a5.377,5.377,0,0,1-1.372-1.7q-.125-.125-.083-.229a.931.931,0,0,1,.208-.27,2.863,2.863,0,0,0,.54-.748.458.458,0,0,0-.042-.416l-.707-1.7A.57.57,0,0,0,6.8-11.2a.52.52,0,0,0-.27-.062h-.5a.874.874,0,0,0-.624.291l-.042.042a2.629,2.629,0,0,0-.748,1.871,4.2,4.2,0,0,0,.915,2.37l.083.083A9.4,9.4,0,0,0,9.479-3.2a8.634,8.634,0,0,0,1.663.582,3.808,3.808,0,0,0,1.122,0,2.1,2.1,0,0,0,.894-.395,1.734,1.734,0,0,0,.665-.707A2.154,2.154,0,0,0,13.99-4.4a1.069,1.069,0,0,0-.021-.416.737.737,0,0,0-.333-.208Z" transform="translate(0 16.25)" fill="#1e1f21"/>
</svg>
