<svg id="kudicast-logo-w" xmlns="http://www.w3.org/2000/svg" width="115.372" height="25.597" viewBox="0 0 115.372 25.597">
  <path id="Path_14417" data-name="Path 14417" d="M903.249,13.328h0a.035.035,0,0,1,0,.012v5.648a.771.771,0,1,1-1.543,0V15.238l-7.226,7.226a.772.772,0,0,1-1.091,0l-2.715-2.715-7.143,7.141a.769.769,0,0,1-.868.155,12.38,12.38,0,1,0,20.586-13.717ZM893.27,8.27a12.385,12.385,0,0,0-11.048,17.976.76.76,0,0,1,.22-.449l7.688-7.687a.771.771,0,0,1,.545-.226h0a.771.771,0,0,1,.545.226l2.713,2.714,6.687-6.687H896.87a.772.772,0,0,1,0-1.543h5.614a.652.652,0,0,1,.078,0,.381.381,0,0,1,.069.01l.036.008a.193.193,0,0,1,.035.009h0a12.345,12.345,0,0,0-9.436-4.352ZM890.6,16.429a1.749,1.749,0,1,1,1.749-1.749A1.749,1.749,0,0,1,890.6,16.429Z" transform="translate(-790.264 -7.419)" fill="#fff"/>
  <path id="Path_14414" data-name="Path 14414" d="M2.8,16.507l7.427-8.6h.941L6.817,12.794l5.366,10.251H9.13L4.884,14.981,2.8,17.321v5.724H0V1.272L2.8,0ZM15.489,7.885V19.178a3.69,3.69,0,0,0,.8,2.607,2.63,2.63,0,0,0,2.073.823,4.907,4.907,0,0,0,2.006-.467,5.014,5.014,0,0,0,1.707-1.359V9.156l2.8-1.272v15.16l-2.8-1.272v-.663a5.432,5.432,0,0,1-1.857,1.625,5.711,5.711,0,0,1-2.67.56,7.319,7.319,0,0,1-1.768-.216,4.779,4.779,0,0,1-1.564-.686,3.7,3.7,0,0,1-1.106-1.183,3.3,3.3,0,0,1-.42-1.7V9.156Zm18.134-.228a5.836,5.836,0,0,1,3.74,1.17,13.984,13.984,0,0,0-.327-3.218,8.436,8.436,0,0,0-.941-2.4c-.712.309,2.989,1.009,3.422,2.111a10.536,10.536,0,0,1,.648,3.866V23.045L37.646,21.9A5.269,5.269,0,0,1,35.9,22.942a6.665,6.665,0,0,1-2.277.356,7.526,7.526,0,0,1-3.268-.674,6.936,6.936,0,0,1-2.339-1.767,7.5,7.5,0,0,1-1.4-2.505,9.012,9.012,0,0,1,0-5.749A7.367,7.367,0,0,1,28.032,10.1a7.121,7.121,0,0,1,2.336-1.764,7.4,7.4,0,0,1,3.255-.674Zm8.572,1.5,2.8-1.272v15.16H42.2ZM33.981,22.633a5.827,5.827,0,0,0,1.691-.267,7.1,7.1,0,0,0,1.691-.776V9.259a4.808,4.808,0,0,0-1.411-.674,6.13,6.13,0,0,0-1.488-.243,4.469,4.469,0,0,0-2.4.585,5.18,5.18,0,0,0-1.691,1.6,7.354,7.354,0,0,0-.992,2.29,11.026,11.026,0,0,0-.344,2.633,10.548,10.548,0,0,0,.309,2.632,7.709,7.709,0,0,0,.954,2.3,5.507,5.507,0,0,0,1.548,1.63A3.712,3.712,0,0,0,33.981,22.633Zm25.357-2.87a6.98,6.98,0,0,1-2.2,2.607,5.808,5.808,0,0,1-3.395.926,7.438,7.438,0,0,1-3.255-.674,7.121,7.121,0,0,1-2.34-1.765,7.385,7.385,0,0,1-1.411-2.505,9.012,9.012,0,0,1,0-5.749,7.491,7.491,0,0,1,1.4-2.505,6.936,6.936,0,0,1,2.339-1.764,8.134,8.134,0,0,1,4.977-.487,6.875,6.875,0,0,1,1.5.534,5.144,5.144,0,0,1,1.2.814,3.232,3.232,0,0,1,.763,1.029l-1.425,1.806a3.8,3.8,0,0,0-.33-1.646,3.431,3.431,0,0,0-.865-1.157,3.658,3.658,0,0,0-1.2-.686,4.019,4.019,0,0,0-1.322-.229,3.448,3.448,0,0,0-2.047.623A5.265,5.265,0,0,0,50.25,10.56a7.856,7.856,0,0,0-.891,2.3,11.021,11.021,0,0,0,.1,5.252A7.633,7.633,0,0,0,50.479,20.4a5.253,5.253,0,0,0,1.7,1.615,4.449,4.449,0,0,0,2.4.585,5.493,5.493,0,0,0,2.572-.712,5.316,5.316,0,0,0,2.058-2.137Zm.382-.712a4.157,4.157,0,0,1,.508-2.137,5.078,5.078,0,0,1,1.31-1.475,7.942,7.942,0,0,1,1.831-1.029q1.029-.42,2.086-.776t2.022-.738a7.208,7.208,0,0,0,1.679-.916v-.229a3.542,3.542,0,0,0-.839-2.581,2.751,2.751,0,0,0-2.035-.853,3.955,3.955,0,0,0-1.3.229,3.669,3.669,0,0,0-1.2.685,3.6,3.6,0,0,0-.873,1.158,3.686,3.686,0,0,0-.343,1.646l-1.577-2.015a2.838,2.838,0,0,1,.788-1.005,5.057,5.057,0,0,1,1.247-.75,7.14,7.14,0,0,1,1.564-.458,9.7,9.7,0,0,1,1.717-.152,9.313,9.313,0,0,1,2.058.228,5.894,5.894,0,0,1,1.819.72A3.962,3.962,0,0,1,71.47,9.869a3.292,3.292,0,0,1,.484,1.806v11.37l-2.8-1.272v-.663a5.188,5.188,0,0,1-1.741,1.625,5.328,5.328,0,0,1-2.607.56,10.478,10.478,0,0,1-1.5-.127,5.041,5.041,0,0,1-1.666-.56,3.814,3.814,0,0,1-1.361-1.272,4.071,4.071,0,0,1-.56-2.289Zm9.436-6.868a4.819,4.819,0,0,1-1.05.865q-.648.412-1.4.839t-1.5.916a6.921,6.921,0,0,0-1.348,1.132,5.7,5.7,0,0,0-.979,1.475,4.3,4.3,0,0,0-.356,1.921,4.588,4.588,0,0,0,.166,1.235,3,3,0,0,0,.521,1.056,2.545,2.545,0,0,0,.9.72,3.029,3.029,0,0,0,1.337.267,4.741,4.741,0,0,0,3.714-1.852ZM74.65,18.9a4,4,0,0,0,.318,1.667,3.16,3.16,0,0,0,.878,1.157,3.789,3.789,0,0,0,1.314.686,5.5,5.5,0,0,0,1.615.229,4.565,4.565,0,0,0,2.353-.687,2.7,2.7,0,0,0,.839-.823,2.01,2.01,0,0,0,.318-1.107,1.881,1.881,0,0,0-.636-1.462,6.988,6.988,0,0,0-1.589-1.043Q79.105,17.044,78,16.6a12.983,12.983,0,0,1-2.058-1.043,5.886,5.886,0,0,1-1.589-1.44A3.52,3.52,0,0,1,73.693,12a3.586,3.586,0,0,1,.47-1.971,4.224,4.224,0,0,1,1.288-1.36,5.761,5.761,0,0,1,1.844-.789,8.9,8.9,0,0,1,2.111-.254,8.127,8.127,0,0,1,2.675.432,2.008,2.008,0,0,1-.394-1.4,1.654,1.654,0,0,1,.657-1.005,5.113,5.113,0,0,1,1.411-.72q.864-.309,1.844-.572t1.955-.522a13.022,13.022,0,0,0,1.767-.584l.389-.182v.28a9.029,9.029,0,0,1-.166,1.4,4.559,4.559,0,0,1-.484,1.337A3.736,3.736,0,0,1,88.117,7.2a3.611,3.611,0,0,1-1.513.686h7.147V8.4H89.2V19.513a2.4,2.4,0,0,0,.242,1.17,1.819,1.819,0,0,0,.6.662,2.124,2.124,0,0,0,.75.309,3.806,3.806,0,0,0,.7.077,5.06,5.06,0,0,0,.636-.051,3.85,3.85,0,0,0,.8-.206,4.822,4.822,0,0,0,.84-.406,3.151,3.151,0,0,0,.75-.636l.05.05a8.977,8.977,0,0,1-.584,1.081,3.822,3.822,0,0,1-.789.9,3.664,3.664,0,0,1-1.068.611,4.115,4.115,0,0,1-1.45.228,4.361,4.361,0,0,1-3.116-1.094A4.009,4.009,0,0,1,86.4,19.133V8.394H85.38V7.879a1.3,1.3,0,0,0,.712-.178,1.337,1.337,0,0,0,.471-.585,3.535,3.535,0,0,0,.267-1.08,15.5,15.5,0,0,0,.076-1.692q-1.094.332-2.111.675a6.268,6.268,0,0,0-1.653.8A1.83,1.83,0,0,0,82.366,6.9a2.03,2.03,0,0,0,.522,1.543,4.763,4.763,0,0,1,1.029.776,3.409,3.409,0,0,1,.7,1.005L83.192,12.03a4.08,4.08,0,0,0-.309-1.646,3.292,3.292,0,0,0-.814-1.156,3.573,3.573,0,0,0-1.15-.688,3.837,3.837,0,0,0-1.36-.242,4.307,4.307,0,0,0-1.145.152,2.964,2.964,0,0,0-.992.47,2.378,2.378,0,0,0-.687.789,2.243,2.243,0,0,0-.254,1.08,2.28,2.28,0,0,0,.636,1.667A6.032,6.032,0,0,0,78.7,13.58a20.909,20.909,0,0,0,2.073.9,12.568,12.568,0,0,1,2.073.992,5.718,5.718,0,0,1,1.6,1.411,3.434,3.434,0,0,1,.648,2.16,3.368,3.368,0,0,1-.6,2.149,4.367,4.367,0,0,1-1.577,1.3,6.98,6.98,0,0,1-2.1.636,15.207,15.207,0,0,1-2.16.165,9.167,9.167,0,0,1-1.743-.165,7.476,7.476,0,0,1-1.577-.484,4.884,4.884,0,0,1-1.284-.814,3.261,3.261,0,0,1-.839-1.132Z" fill="#fff"/>
</svg>
