<svg xmlns="http://www.w3.org/2000/svg" width="175.769" height="19.127" viewBox="0 0 175.769 19.127">
  <g id="nairametrics" transform="translate(-611 -144)">
    <path id="rgba_246_247_249_1_" data-name="rgba(246,247,249,1)" d="M251.208,3l.659.094V21.631h-1.6l-.282-.282-9.5-13.079-.094,13.361h-3.105L237,21.348V3.47l.282-.282q1.506-.282,1.788.659l9.127,12.7.094-12.985Z" transform="translate(374 141)" fill="#85938c"/>
    <path id="rgba_246_247_249_1_2" data-name="rgba(246,247,249,1)" d="M863.946,4l1.506.376h1.788V9.74l.282.282h3.387q.207.019.094,1.035l-.282.282H867.24V22.348l-.094.094h-3.293V11.433l-.094-.094h-1.882q-.565-.3-.282-1.317h1.976l.282-.282Z" transform="translate(-132.976 140.188)" fill="#85938c"/>
    <path id="rgba_246_247_249_1_3" data-name="rgba(246,247,249,1)" d="M428.035,5.6a3.857,3.857,0,0,1,2.917.376,3.424,3.424,0,0,1,.188,2.164l-.47.659a4.591,4.591,0,0,1-2.635.188l-.847-.659L427,6.635l.659-.847Z" transform="translate(219.756 138.964)" fill="#85938c"/>
    <path id="rgba_246_247_249_1_4" data-name="rgba(246,247,249,1)" d="M986.538,5.5q2.07-.376,2.917.47l.376.941L989.266,8.7a5.607,5.607,0,0,1-2.729.188L985.5,8.041q-.414-1.92.659-2.352Z" transform="translate(-233.549 139.064)" fill="#85938c"/>
    <path id="rgba_246_247_249_1_5" data-name="rgba(246,247,249,1)" d="M338.622,32l.376.188h2.446l2.07.565,2.352,1.6.753,2.07v8.751l-3.67-.376-1.882.565h-4.517l-2.258-.565-2.352-1.317-.753-1.6-.188-4.7.376-2.07,1.223-1.6,2.823-1.129,3.011-.188Zm-.47,1.317-1.505.376-.941.565-.941,1.129-.376,2.07.188,4.328.565,1.129,2.07,1.129.941.188,3.2-.188,1.882-.753V36.517l-.565-1.506-1.505-1.317-1.694-.376Z" transform="translate(297.69 117.457)" fill="#85938c"/>
    <path id="rgba_246_247_249_1_6" data-name="rgba(246,247,249,1)" d="M470.245,32l.188.188h1.6v1.129h-2.164l-2.07.753-.847.847-.565,1.506v8.751h-3.293L463,45.079V32.565h1.223l.188.188h2.258l1.506-.565h1.882Z" transform="translate(190.531 117.457)" fill="#85938c"/>
    <path id="rgba_246_247_249_1_7" data-name="rgba(246,247,249,1)" d="M775.272,32l.188.188h2.258l2.258.565,2.352,1.6.753,1.882v3.481H770.943q-.188,0-.094.847.471.282.188,1.317l1.035,1.411,1.505.753,2.823.188,3.011-.753,1.411-1.035q-.132-.414.282-.282l1.223.565a.722.722,0,0,1-.471.941L779.977,44.8l-1.505.188-.753.376h-4.7l-2.258-.565-1.317-.565-1.035-.847q-1.43-2.239-.941-6.4l.376-2.07.847-1.035.565-.376,2.635-1.129a7.192,7.192,0,0,1,3.2-.188Zm-.659,1.317-1.505.376-.941.565-.941,1.129-.376,1.882q-.188,1.129.188,1.129h8.657a4.914,4.914,0,0,0-.565-3.2l-.376-.565A4.771,4.771,0,0,0,774.613,33.317Z" transform="translate(-56.534 117.457)" fill="#85938c"/>
    <path id="rgba_246_247_249_1_8" data-name="rgba(246,247,249,1)" d="M524.175,33h5.081l.941.188,2.635,1.129,1.223,1.223.565,2.258v8.186l-3.67-.376-1.882.565h-4.516l-2.446-.565L519.941,44.2l-.565-.753L519,41.939V37.422l.565-2.07,1.035-1.035,1.506-.753Zm1.976,1.129-1.506.376-.941.565-1.129,1.506-.188,2.823-.188.188.376,3.2.376.753,1.317.941,1.882.565,3.2-.188,1.506-.565.376-.376V38.081l-.376-1.694-.565-1.129-1.694-.941Z" transform="translate(145.069 116.646)" fill="#85938c"/>
    <path id="rgba_246_247_249_1_9" data-name="rgba(246,247,249,1)" d="M622.116,33h3.011l2.446.565,1.694.753a6.373,6.373,0,0,1,2.823-1.129L636.23,33l2.446.565a4.533,4.533,0,0,1,2.352,1.6l.376.753.188,2.07.188.188V45.7l-.282.282h-3.011l-.282-.282V37.046l-.376-1.317-.847-.847-1.129-.565h-3.2l-2.164.847V45.891l-.094.094h-3.105V38.552l-.188-.188V36.481l-1.223-1.6-1.129-.565q-1.167.32-1.505-.188l-.188.188-2.635.188-.847.376-.188.47V45.985h-3.105L616,45.7V33.659q.056-.226,1.223-.094l1.694.376,1.317-.565Z" transform="translate(66.324 116.646)" fill="#85938c"/>
    <path id="rgba_246_247_249_1_10" data-name="rgba(246,247,249,1)" d="M931.363,33h3.576l.282.282q.151.715-.282.847l-2.823.188-1.788,1.035-.565.753-.188,2.446-.188.188v7.245h-3.293L926,45.891V33.376l3.67.188Z" transform="translate(-185.338 116.646)" fill="#85938c"/>
    <path id="rgba_246_247_249_1_11" data-name="rgba(246,247,249,1)" d="M1026.363,33h5.081l2.635.753,1.6,1.223-1.411.847-.753-.753-1.317-.565-2.07-.376h-2.07l-1.506.376-1.411,1.223-.565,1.317v5.081a2.673,2.673,0,0,0,1.411,2.164l2.258.753h1.882l2.823-.753,1.882-1.317,1.223.847a6.2,6.2,0,0,1-3.105,1.976,2.151,2.151,0,0,0-1.694.376h-4.516l-2.823-.753-2.164-1.6-.565-1.694-.188-3.2.188-.188.188-2.635,1.411-1.788.941-.565Z" transform="translate(-262.46 116.646)" fill="#85938c"/>
    <path id="rgba_246_247_249_1_12" data-name="rgba(246,247,249,1)" d="M1118.1,34h3.011l2.447.565.47.47-.847.847-.188-.188-2.07-.565H1119.6l-.941.188-1.035.847-.565,1.317.565,1.035,4.987,1.694,1.788,1.6.188.376v2.446l-1.035,1.411q-2.127,1.637-6.4,1.129l-2.07-.565-1.035-.659q-.132-.414.282-.282l.753-.565,1.694.753,2.258.188,1.317-.376.847-.847.188-1.506-.188-.47-1.411-.753h-.565l-3.011-1.129-1.788-1.411a3,3,0,0,1-.565-2.446l1.223-1.976.941-.565Z" transform="translate(-337.821 115.834)" fill="#85938c"/>
    <path id="rgba_246_247_249_1_13" data-name="rgba(246,247,249,1)" d="M429,35l3.387.376V47.515l-.094.094H429Z" transform="translate(218.132 115.022)" fill="#85938c"/>
    <path id="rgba_246_247_249_1_14" data-name="rgba(246,247,249,1)" d="M988,35l3.387.376V47.515l-.094.094H988Z" transform="translate(-235.67 115.022)" fill="#85938c"/>
  </g>
</svg>
