<svg id="paxity-w" xmlns="http://www.w3.org/2000/svg" width="83.19" height="25.598" viewBox="0 0 83.19 25.598">
  <path id="Path_214" data-name="Path 214" d="M280.108,269.937h-.669l-1.056-1.457a7.685,7.685,0,0,1-1.727,1.18,4.748,4.748,0,0,1-.984.352,3.921,3.921,0,0,1-1.02.129,6.079,6.079,0,0,1-2.115-.369,5,5,0,0,1-2.911-2.879,6.4,6.4,0,0,1-.427-2.379,6.159,6.159,0,0,1,.427-2.28,5.464,5.464,0,0,1,1.171-1.788,5.338,5.338,0,0,1,1.744-1.163,5.448,5.448,0,0,1,2.115-.4,3.773,3.773,0,0,1,1.02.125,6.247,6.247,0,0,1,.982.352,5.449,5.449,0,0,1,.908.534,7.075,7.075,0,0,1,.819.665l1.058-1.256h.667Zm-2.765-5.423a2.62,2.62,0,0,0-.222-1.07,2.831,2.831,0,0,0-.591-.923,2.781,2.781,0,0,0-.872-.646,2.338,2.338,0,0,0-1.056-.239,2.918,2.918,0,0,0-1.058.19,2.484,2.484,0,0,0-.853.553,2.826,2.826,0,0,0-.57.9,3.267,3.267,0,0,0-.205,1.235,3.61,3.61,0,0,0,.205,1.237,2.459,2.459,0,0,0,1.429,1.457,2.939,2.939,0,0,0,1.056.19,2.348,2.348,0,0,0,1.058-.239,2.96,2.96,0,0,0,.87-.646,3.421,3.421,0,0,0,.595-.922A2.36,2.36,0,0,0,277.344,264.514Z" transform="translate(-233.093 -252.999)" fill="#fff"/>
  <path id="Path_215" data-name="Path 215" d="M342.663,271.477h-3.336l-2.134-3.266-2.155,3.266H331.7l3.914-5.461L331.7,260.78h3.337l2.151,3.04,2.134-3.04h3.337l-3.914,5.239Z" transform="translate(-283.719 -254.54)" fill="#fff"/>
  <path id="Path_216" data-name="Path 216" d="M395.738,238.125a1.756,1.756,0,0,1-.15.7,1.72,1.72,0,0,1-.39.57,1.621,1.621,0,0,1-.593.38,1.9,1.9,0,0,1-.724.148,1.958,1.958,0,0,1-.72-.148,1.835,1.835,0,0,1-.963-.96,1.733,1.733,0,0,1,0-1.4,1.835,1.835,0,0,1,.963-.95,1.913,1.913,0,0,1,.722-.146,1.959,1.959,0,0,1,.722.146,1.849,1.849,0,0,1,.595.38,1.759,1.759,0,0,1,.39.57A1.855,1.855,0,0,1,395.738,238.125Zm-.483,13.54H392.51v-10.64h2.746Z" transform="translate(-332.602 -234.728)" fill="#fff"/>
  <path id="Path_217" data-name="Path 217" d="M422.167,253.617a4.775,4.775,0,0,1-3.376-1.385,4.675,4.675,0,0,1-1.02-1.52,4.761,4.761,0,0,1-.37-1.845v-3.181h-1.33v-2.694h1.33V238.73h2.727v4.262h4.135V245.7h-4.135v3.148a1.9,1.9,0,0,0,.167.792,2.292,2.292,0,0,0,.445.646,2.122,2.122,0,0,0,.669.441,1.986,1.986,0,0,0,.819.165H424.3v2.715Z" transform="translate(-352.058 -236.68)" fill="#fff"/>
  <path id="Path_218" data-name="Path 218" d="M469.119,275.771v-2.73l1.52.019a2.2,2.2,0,0,0,.76-.129,3,3,0,0,0,.686-.352,3.042,3.042,0,0,0,.557-.536,2.483,2.483,0,0,0,.38-.682c-.3.129-.612.258-.91.369a2.385,2.385,0,0,1-.927.19,4.776,4.776,0,0,1-1.855-.352,4.435,4.435,0,0,1-1.52-1,4.181,4.181,0,0,1-1.02-1.568,5.526,5.526,0,0,1-.38-2.065V261.07h2.727v5.89a2.775,2.775,0,0,0,.167,1,2.041,2.041,0,0,0,.445.7,1.865,1.865,0,0,0,.648.426,2.255,2.255,0,0,0,.8.146,1.767,1.767,0,0,0,.8-.2,2.194,2.194,0,0,0,.65-.517,2.635,2.635,0,0,0,.445-.72,2.218,2.218,0,0,0,.167-.83v-5.89h2.768v9.3a4.957,4.957,0,0,1-.445,2.1,5.461,5.461,0,0,1-5.009,3.3Z" transform="translate(-392.832 -254.775)" fill="#fff"/>
  <path id="Path_8708" data-name="Path 8708" d="M208.1,258.27a5.776,5.776,0,0,0-3.23.977V258.5H202V273.51h2.869v-4.651a5.782,5.782,0,1,0,3.23-10.58Zm.07,8.989a3.133,3.133,0,1,1,2.224-.914A3.141,3.141,0,0,1,208.166,267.259Z" transform="translate(-178.663 -252.507)" fill="#fff"/>
  <path id="Path_219" data-name="Path 219" d="M90.057,234.559c-1.275-.146-2.316-1.108-3.625-1.032a2.392,2.392,0,0,0-1.822,3.61c1.055,2.153,2.563,5.092,3.639,7.232a5.106,5.106,0,0,1-1.611,6.812c-.41.293-.538.211-.737-.19-1.815-3.661-4.142-8.115-5.921-11.82a7.465,7.465,0,0,1,2.628-9.633,7.635,7.635,0,0,1,10.937,9.622c-.19.445-.4.551-.853.4a8.985,8.985,0,0,1-3.321-1.71C88.024,236.573,88.328,235.19,90.057,234.559Z" transform="translate(-79.181 -228.338)" fill="#fff"/>
  <ellipse id="Ellipse_342" data-name="Ellipse 342" cx="0.255" cy="0.255" rx="0.255" ry="0.255" transform="translate(6.958 6.677)" fill="#fff"/>
  <rect id="Rectangle_1661" data-name="Rectangle 1661" width="0.122" height="25.598" transform="translate(18.313 0)" fill="#fff"/>
</svg>
