<svg id="rccg-logo-w" xmlns="http://www.w3.org/2000/svg" width="4.407" height="4.405" viewBox="0 0 4.407 4.405">
  <ellipse id="Ellipse_212" data-name="Ellipse 212" cx="2.203" cy="2.202" rx="2.203" ry="2.202" transform="translate(0)" fill="#fff"/>
  <path id="Path_14742" data-name="Path 14742" d="M2.738-1023.376a2.132,2.132,0,0,0-.626.108,2.08,2.08,0,0,0-.69.394,2.123,2.123,0,0,0-.419.5,2.293,2.293,0,0,0-.136.269l-.026.07a2.086,2.086,0,0,0-.121.9c0,.023.006.051.007.062s0,.037.008.058.007.043.008.05c0,.029.023.113.036.162a2.06,2.06,0,0,0,.279.617,1.909,1.909,0,0,0,.254.307,1.955,1.955,0,0,0,.543.392,2.017,2.017,0,0,0,.812.211,2.071,2.071,0,0,0,.453-.03,2.032,2.032,0,0,0,.932-.427,2.713,2.713,0,0,0,.3-.3,2.086,2.086,0,0,0,.347-.623,2.307,2.307,0,0,0,.079-.306c0-.008,0-.029.008-.047.006-.034.006-.036.016-.136a2.094,2.094,0,0,0-.027-.547,2.051,2.051,0,0,0-.226-.627,2.184,2.184,0,0,0-.21-.307,2.08,2.08,0,0,0-.54-.461c-.052-.031-.171-.093-.217-.112a1.847,1.847,0,0,0-.174-.066,1.985,1.985,0,0,0-.529-.1A1.413,1.413,0,0,0,2.738-1023.376Zm.165.033a2.043,2.043,0,0,1,.655.158,2.2,2.2,0,0,1,.406.234,2.084,2.084,0,0,1,.484.51,2.008,2.008,0,0,1,.332.955,2.874,2.874,0,0,1,0,.322,2,2,0,0,1-.2.725,2,2,0,0,1-.488.636,2.021,2.021,0,0,1-1.17.493,2.75,2.75,0,0,1-.319,0,2.01,2.01,0,0,1-.554-.125,2.036,2.036,0,0,1-1.06-.923,2.057,2.057,0,0,1-.185-.464,2.078,2.078,0,0,1-.046-.764,2.026,2.026,0,0,1,.63-1.218,2.011,2.011,0,0,1,.732-.437,2.042,2.042,0,0,1,.5-.1C2.683-1023.348,2.832-1023.348,2.9-1023.343Z" transform="translate(-0.558 1023.549)" fill="#ed3337"/>
  <path id="Path_14743" data-name="Path 14743" d="M30.873-994.814c-.073.005-.1.008-.159.016a1.941,1.941,0,0,0-1.253.734,1.923,1.923,0,0,0-.382.893,1.643,1.643,0,0,0-.018.17,1.93,1.93,0,0,0,.014.38c.009.06.009.062.018.108a1.925,1.925,0,0,0,.547,1.009,1.926,1.926,0,0,0,.419.314,2.056,2.056,0,0,0,.456.181,2.195,2.195,0,0,0,.264.048l.07.006a2.632,2.632,0,0,0,.284,0l.072-.006c.031,0,.131-.018.176-.027a1.946,1.946,0,0,0,1.473-1.368,2.065,2.065,0,0,0,.062-.314c0-.013,0-.044.006-.068a2.661,2.661,0,0,0,0-.288c0-.024-.005-.056-.006-.07s0-.042-.008-.062-.006-.043-.008-.052a1.908,1.908,0,0,0-.056-.235,1.946,1.946,0,0,0-.687-.982,1.926,1.926,0,0,0-1.173-.39C30.948-994.817,30.9-994.815,30.873-994.814Zm.281.032a1.892,1.892,0,0,1,.78.243,1.916,1.916,0,0,1,.867,1.054,1.946,1.946,0,0,1,.075.305,1.753,1.753,0,0,1,.021.346,1.287,1.287,0,0,1-.015.207,1.911,1.911,0,0,1-.921,1.385,1.913,1.913,0,0,1-1.334.23,1.925,1.925,0,0,1-.771-.343,1.914,1.914,0,0,1-.7-1.019,1.93,1.93,0,0,1-.058-.3,2.237,2.237,0,0,1,0-.436c.01-.073.01-.075.02-.129a1.9,1.9,0,0,1,.526-.991,1.908,1.908,0,0,1,1.232-.557A2.576,2.576,0,0,1,31.155-994.782Z" transform="translate(-28.789 995.106)" fill="#ed3337"/>
  <path id="Path_14744" data-name="Path 14744" d="M478.083-949.8H478v.273h.167v-.057h-.094v-.053h.089v-.057h-.089v-.049h.094v-.031a.263.263,0,0,0,0-.03Z" transform="translate(-475.934 950.274)" fill="#05a859"/>
  <path id="Path_14745" data-name="Path 14745" d="M533.529-948.985c0,.009-.005.039-.009.068s-.009.073-.012.1-.007.056-.007.069v.024l.035,0a.448.448,0,0,0,.142,0,.109.109,0,0,0,.064-.054.134.134,0,0,0-.065-.2,1.029,1.029,0,0,0-.14-.025S533.53-948.993,533.529-948.985Zm.122.067a.058.058,0,0,1,.035.063.093.093,0,0,1-.01.046c-.013.026-.03.035-.067.035a.144.144,0,0,1-.031,0,.2.2,0,0,1,0-.043c0-.022.007-.054.008-.069,0-.044,0-.044.025-.042A.123.123,0,0,1,533.651-948.918Z" transform="translate(-531.212 949.475)" fill="#05a859"/>
  <path id="Path_14746" data-name="Path 14746" d="M382.141-944.891l-.033.008,0,.068c0,.037,0,.079,0,.094s0,.025,0,.02l-.037-.065-.042-.076-.009-.017-.028.006c-.047.01-.044.005-.041.05.009.126.017.229.02.233s.01,0,.034,0,.031-.008.029-.016,0-.025,0-.045c0-.043-.01-.107-.013-.117s.005-.009.009,0,.021.042.043.081c.044.079.037.073.073.064l.015,0,0-.068c0-.037,0-.079.006-.092l0-.024.03.083.031.084a.624.624,0,0,0,.066-.016s-.1-.26-.1-.26Z" transform="translate(-380.256 945.392)" fill="#05a859"/>
  <path id="Path_14747" data-name="Path 14747" d="M315.075-918.968a.482.482,0,0,0-.074.035c0,.005.1.243.105.247a.372.372,0,0,0,.075-.027c.04-.017.074-.031.076-.031l0,0s-.021-.052-.023-.054a.343.343,0,0,0-.045.017c-.033.014-.045.017-.047.013a.145.145,0,0,1-.015-.041l.038-.017.04-.018a.064.064,0,0,0-.008-.028l-.011-.025-.042.018-.041.018-.006-.015c-.015-.035-.018-.031.028-.05l.044-.019a.146.146,0,0,0-.021-.053Z" transform="translate(-313.588 919.597)" fill="#05a859"/>
  <path id="Path_14748" data-name="Path 14748" d="M641.615-917.474a.15.15,0,0,0-.106.088.154.154,0,0,0-.009.062.1.1,0,0,0,.014.064.143.143,0,0,0,.117.072l.029,0,.013-.035c.007-.019.013-.035.013-.036a.066.066,0,0,0-.024,0c-.024.006-.024.006-.048-.006a.064.064,0,0,1-.033-.028.087.087,0,0,1,.059-.123.079.079,0,0,1,.078.044l.005.013.014-.038.015-.037-.014-.012a.148.148,0,0,0-.07-.034l-.026,0A.108.108,0,0,0,641.615-917.474Z" transform="translate(-638.779 918.08)" fill="#05a859"/>
  <path id="Path_14749" data-name="Path 14749" d="M690.893-894.856l-.07.109-.046.071c0,.005,0,.01.025.026l.031.019a.3.3,0,0,0,.033-.047l.03-.047.021.014c.05.032.063.041.063.044a.488.488,0,0,1-.028.047c-.016.024-.028.045-.028.046a.171.171,0,0,0,.029.021c.024.015.03.018.034.013s.145-.221.145-.224a.317.317,0,0,0-.054-.038s-.016.012-.035.043l-.029.045-.042-.027a.334.334,0,0,1-.043-.03.512.512,0,0,1,.028-.047l.028-.044-.029-.019-.031-.019A.475.475,0,0,0,690.893-894.856Z" transform="translate(-687.859 895.595)" fill="#05a859"/>
  <path id="Path_14750" data-name="Path 14750" d="M259.264-890.858a.812.812,0,0,0-.068.046.138.138,0,0,0,.016.03l.07.111.056.089a1.108,1.108,0,0,0,.142-.086.145.145,0,0,0-.015-.026c-.014-.023-.015-.023-.024-.017s-.07.043-.072.043a.1.1,0,0,1-.015-.02l-.012-.021.037-.023.039-.024a.181.181,0,0,0-.029-.047.318.318,0,0,0-.04.023c-.04.025-.037.025-.055-.007l-.008-.014.039-.024.04-.026a.174.174,0,0,0-.03-.049Z" transform="translate(-258.007 891.612)" fill="#05a859"/>
  <path id="Path_14751" data-name="Path 14751" d="M752.852-842.664l-.093.1-.059.062.024.025.024.024.037-.039a.493.493,0,0,1,.039-.039.344.344,0,0,1-.011.061l-.014.061.03.028.03.028,0-.015c0-.008.006-.037.01-.063.007-.048.007-.049.017-.048.055.007.064,0,.09-.02a.081.081,0,0,0,.016-.1.3.3,0,0,0-.055-.062c-.026-.024-.048-.044-.05-.044A.285.285,0,0,0,752.852-842.664Zm.067.068c.018.02.019.032,0,.051s-.033.019-.055,0l-.016-.014.01-.012a.265.265,0,0,1,.041-.042A.081.081,0,0,1,752.919-842.6Z" transform="translate(-749.535 843.597)" fill="#05a859"/>
  <path id="Path_14752" data-name="Path 14752" d="M193.142-840.774a.306.306,0,0,0-.105.074l-.037.036.074.079.094.1.02.021.041-.038a.238.238,0,0,0,.082-.111.084.084,0,0,0,0-.05A.145.145,0,0,0,193.142-840.774Zm.046.068a.1.1,0,0,1,.057.082.122.122,0,0,1-.033.057l-.012.011-.055-.057-.055-.057.014-.012A.082.082,0,0,1,193.188-840.706Z" transform="translate(-192.076 841.681)" fill="#05a859"/>
  <path id="Path_14753" data-name="Path 14753" d="M184.679-840.655a1.353,1.353,0,0,0-.316.06,1.315,1.315,0,0,0-.809.735,1.376,1.376,0,0,0-.082.267,1.363,1.363,0,0,0,0,.489,1.32,1.32,0,0,0,.211.5,1.48,1.48,0,0,0,.258.276,1.3,1.3,0,0,0,.688.279,1.6,1.6,0,0,0,.3,0,1.311,1.311,0,0,0,.6-.236,1.316,1.316,0,0,0,.536-.9,1.841,1.841,0,0,0,0-.331,1.328,1.328,0,0,0-.276-.647,1.737,1.737,0,0,0-.2-.2,1.3,1.3,0,0,0-.672-.285A2.085,2.085,0,0,0,184.679-840.655Zm.155.03a1.268,1.268,0,0,1,.837.384,1.272,1.272,0,0,1,.309,1.267,1.343,1.343,0,0,1-.139.3,1.29,1.29,0,0,1-.711.545,1.188,1.188,0,0,1-.251.05,1.271,1.271,0,0,1-1.016-.359,1.273,1.273,0,0,1-.348-1.227,1.292,1.292,0,0,1,.744-.866,1.277,1.277,0,0,1,.372-.094A1.017,1.017,0,0,1,184.834-840.625Z" transform="translate(-182.553 841.572)" fill="#05a859"/>
  <path id="Path_14754" data-name="Path 14754" d="M217.569-807.881a1.193,1.193,0,0,0-.495.16,1.261,1.261,0,0,0-.328.289,1.2,1.2,0,0,0-.232.529,1.028,1.028,0,0,0-.014.193,1.057,1.057,0,0,0,.06.372,1.181,1.181,0,0,0,1,.8,1.819,1.819,0,0,0,.236,0,1.18,1.18,0,0,0,1.006-.831,1.143,1.143,0,0,0,.048-.394.906.906,0,0,0-.02-.167,1.179,1.179,0,0,0-.606-.815A1.169,1.169,0,0,0,217.569-807.881Zm0,.594.017.009.024-.007a.123.123,0,0,1,.1,0l.024.012.019-.009a.089.089,0,0,1,.053-.008.106.106,0,0,1,.061.016l.027.014.026-.014a.087.087,0,0,1,.052-.013.093.093,0,0,1,.071.028l.012.012-.03.071c-.082.191-.106.249-.106.254s.011.005.045.006l.086,0,.041,0-.02.014c-.048.032-.036.039.054.032a.512.512,0,0,1,.073,0c.006,0,0,.005-.008.021s-.017.026-.008.035.038.008.089,0,.075-.008.075,0a.1.1,0,0,1-.015.022c-.02.024-.026.036-.023.044s.01.007.137,0l.042,0-.019.02a.094.094,0,0,0-.019.025s0,.006.01.009.019,0,.054,0l.074-.01.03,0-.017.019a.082.082,0,0,0-.017.024c0,.022.076.014.19-.021a.161.161,0,0,1,.034-.008s-.1.1-.155.15a.789.789,0,0,1-.507.253.416.416,0,0,1-.243-.078l-.034-.021-.012.021a.448.448,0,0,1-.119.143c-.017.012-.023.019-.042.058l-.022.044-.018-.043c-.017-.041-.019-.043-.037-.053a.239.239,0,0,1-.04-.029.514.514,0,0,1-.083-.118l-.011-.023-.02.017a.376.376,0,0,1-.147.078.39.39,0,0,1-.16,0,1.066,1.066,0,0,1-.451-.268c-.063-.055-.157-.144-.155-.145l.041.008.081.017c.114.022.141.013.083-.028a.1.1,0,0,1-.024-.02.227.227,0,0,1,.107.011c.059.013.084.017.089.011s0-.017-.022-.039l-.015-.019h.018a.429.429,0,0,1,.063.01.454.454,0,0,0,.059.01c.027,0,.028-.02,0-.057s-.021-.025.042-.016a.187.187,0,0,0,.1,0c.007-.008,0-.021-.014-.042s-.012-.018-.01-.019a.356.356,0,0,1,.046,0,.849.849,0,0,0,.146.013c.006,0,.01-.005.01-.008s-.026-.027-.046-.037-.013-.008-.013-.009a.126.126,0,0,1,.035-.007l.078-.01.044-.006s-.025-.058-.086-.192a1.058,1.058,0,0,1-.048-.118.049.049,0,0,1,.025-.041.121.121,0,0,1,.085.008l.028.01.027-.014a.068.068,0,0,1,.051-.012A.116.116,0,0,1,217.564-807.287Z" transform="translate(-215.468 808.934)" fill="#3e4095"/>
  <path id="Path_14755" data-name="Path 14755" d="M152.278-793.9l-.053.064-.025.031.035.028.142.116a.337.337,0,0,0,.035.026s.017-.012.034-.033l.051-.065.023-.029-.019-.015-.023-.018s-.016.011-.033.033a.335.335,0,0,1-.032.037.114.114,0,0,1-.035-.029.272.272,0,0,1,.026-.037l.027-.033-.02-.017c-.011-.01-.021-.017-.024-.016a.316.316,0,0,0-.047.054l-.011.013-.019-.015a.083.083,0,0,1-.019-.018.576.576,0,0,1,.052-.066c.006-.007.005-.008-.01-.021S152.309-793.94,152.278-793.9Z" transform="translate(-151.43 795.023)" fill="#05a859"/>
  <path id="Path_14756" data-name="Path 14756" d="M797.739-791.753l-.069.056-.043.035-.038.031s0,.01.017.034l.023.029.058-.047.108-.087.05-.04-.024-.029-.024-.029Z" transform="translate(-794.241 792.9)" fill="#05a859"/>
  <path id="Path_14757" data-name="Path 14757" d="M819.964-749.962a.1.1,0,0,0-.043.034.127.127,0,0,0,0,.085c.007.028.008.035,0,.044a.032.032,0,0,1-.041.012c-.018-.01-.025-.027-.023-.061v-.029h-.032l-.032,0,0,.033a.116.116,0,0,0,.107.121.1.1,0,0,0,.075-.038c.015-.02.016-.04,0-.09s-.009-.044.006-.053.048.022.048.056c0,.015,0,.016.01.013l.028,0,.018,0,0-.016a.14.14,0,0,0-.064-.1A.136.136,0,0,0,819.964-749.962Z" transform="translate(-816.374 751.232)" fill="#05a859"/>
  <path id="Path_14758" data-name="Path 14758" d="M115.192-734.934c-.02.011-.03.025-.064.09l-.028.055.121.062.124.062a.334.334,0,0,0,.031-.059.443.443,0,0,0-.048-.026c-.056-.028-.057-.027.028-.031l.052,0,.018-.036c.013-.025.016-.036.012-.036l-.066.008-.062.008a.1.1,0,0,1,0-.016.071.071,0,0,0-.045-.076A.089.089,0,0,0,115.192-734.934Zm.057.073a.039.039,0,0,1,.016.018.082.082,0,0,1-.015.049.118.118,0,0,1-.037-.014l-.033-.016.007-.013C115.2-734.869,115.223-734.876,115.249-734.861Z" transform="translate(-114.481 736.269)" fill="#05a859"/>
  <path id="Path_14759" data-name="Path 14759" d="M850.473-706.6a.108.108,0,0,0-.026.014.256.256,0,0,0,.013.027c.007.013.011.026.009.028l-.094.046-.093.044a.19.19,0,0,0,.013.033c.012.027.015.031.023.029l.1-.043.089-.04a.111.111,0,0,1,.015.025l.014.027.03-.011.028-.013-.008-.015-.041-.088a.647.647,0,0,0-.038-.074A.137.137,0,0,0,850.473-706.6Z" transform="translate(-846.732 708.047)" fill="#05a859"/>
  <path id="Path_14760" data-name="Path 14760" d="M83.622-643.924l-.022.08s.262.081.264.079l.023-.08.022-.079-.027-.009a.069.069,0,0,0-.029-.006.289.289,0,0,0-.014.043.431.431,0,0,1-.013.044.051.051,0,0,1-.025,0l-.023-.006.012-.041a.291.291,0,0,0,.01-.045.075.075,0,0,0-.026-.011l-.025-.007-.008.027c0,.015-.01.034-.012.043l0,.017-.024-.006c-.013,0-.024-.009-.024-.011s.006-.022.012-.044.012-.042.012-.043a.208.208,0,0,0-.052-.016A.513.513,0,0,0,83.622-643.924Z" transform="translate(-83.109 645.692)" fill="#05a859"/>
  <path id="Path_14761" data-name="Path 14761" d="M866.547-643.9l-.116.037-.122.038-.009,0,.01.033a.083.083,0,0,0,.015.034l.1-.028.127-.038a.092.092,0,0,0,.035-.016.257.257,0,0,0-.01-.033c-.007-.021-.011-.029-.017-.03A.015.015,0,0,0,866.547-643.9Z" transform="translate(-862.685 645.597)" fill="#05a859"/>
  <path id="Path_14762" data-name="Path 14762" d="M875.26-595.993s0,.018,0,.03c0,.035,0,.037.022.037.034,0,.034,0,.042.055,0,.027.007.051.007.054s-.01.01-.022.016l-.023.011,0,.027c.005.051-.009.052.128-.017l.13-.068c.009-.006.009-.006,0-.052l-.007-.045-.019,0-.14-.027-.125-.024S875.258-596,875.26-595.993Zm.189.092a.292.292,0,0,1,.058.012s0,0,0,0a.5.5,0,0,0-.058.024l-.056.024s-.007-.013-.01-.048S875.369-595.914,875.449-595.9Z" transform="translate(-871.608 597.883)" fill="#05a859"/>
  <path id="Path_14763" data-name="Path 14763" d="M73.7-576.98c0,.011,0,.027,0,.036l0,.017.015,0,.034,0,.038,0,.02,0,0,.049a.254.254,0,0,1-.006.052.13.13,0,0,1-.042,0l-.051,0h-.013l0,.027c0,.016,0,.031,0,.036s.005.01.091.016l.1.009a.6.6,0,0,0,.076,0,.2.2,0,0,0,0-.036v-.034l-.047,0-.055,0c-.008,0-.008,0,0-.086,0-.006,0-.012,0-.013a.6.6,0,0,1,.107,0c.006,0,.007,0,.009-.033a.215.215,0,0,0,0-.037l-.024,0-.107-.009-.114-.01-.028,0Z" transform="translate(-73.234 578.96)" fill="#05a859"/>
  <path id="Path_14764" data-name="Path 14764" d="M880.141-516.066a.339.339,0,0,0,0,.035,1.051,1.051,0,0,0,.135.009.252.252,0,0,1,.05,0,.054.054,0,0,1-.02.011c-.011,0-.055.03-.1.057l-.078.048,0,.034a.159.159,0,0,0,0,.036s.05.006.168.014l.086.006.021,0,0-.034a.191.191,0,0,0,0-.035s-.134-.013-.163-.014h-.024l.022-.01a2.039,2.039,0,0,0,.173-.107.21.21,0,0,0,0-.036l0-.033-.014,0c-.012,0-.075-.007-.23-.017l-.033,0Z" transform="translate(-876.454 518.303)" fill="#05a859"/>
  <path id="Path_14765" data-name="Path 14765" d="M74.516-495l-.016,0,0,.071c0,.039.006.082.007.1l0,.026h.025c.035,0,.037,0,.034-.034a.077.077,0,0,1,0-.029s.151-.015.183-.015a.061.061,0,0,0,.027,0,.292.292,0,0,0-.007-.068s-.128,0-.183.009l-.027,0,0-.031,0-.031h-.015Z" transform="translate(-74.046 497.289)" fill="#05a859"/>
  <path id="Path_14766" data-name="Path 14766" d="M101.376-398.85c-.022.01-.024.033-.006.071s.016.048-.028.015c-.025-.019-.033-.022-.047-.022a.035.035,0,0,0-.016.068.107.107,0,0,0,.053,0c.033,0,.038,0,.038,0s-.011.013-.026.021c-.038.021-.047.031-.047.05a.039.039,0,0,0,.062.029.138.138,0,0,0,.028-.069.019.019,0,0,1,.007-.013c.009-.007.012,0,.02.037s.03.062.064.048a.033.033,0,0,0,.019-.042c-.005-.012-.018-.022-.053-.043-.012-.007-.022-.015-.02-.017a.089.089,0,0,1,.039,0,.129.129,0,0,0,.052,0,.03.03,0,0,0,.019-.041c-.007-.02-.016-.027-.035-.027s-.022,0-.051.024-.035.023-.037.021a.076.076,0,0,1,.011-.035c.021-.046.018-.068-.011-.076A.037.037,0,0,0,101.376-398.85Z" transform="translate(-100.695 401.529)" fill="#05a859"/>
  <path id="Path_14767" data-name="Path 14767" d="M855.3-395.144a.04.04,0,0,0-.012.022.185.185,0,0,0,.014.042.377.377,0,0,1,.014.035c0,.008-.015,0-.032-.013a.113.113,0,0,0-.059-.032.04.04,0,0,0-.029.059c.009.014.028.018.072.015s.047,0,.012.022-.058.043-.049.065a.036.036,0,0,0,.037.022c.025,0,.036-.013.048-.061,0-.018.009-.027.013-.027s.007,0,.018.043.019.044.042.044.041-.014.041-.035-.01-.027-.049-.05-.037-.026.009-.024.077,0,.077-.034a.039.039,0,0,0-.03-.039c-.016,0-.028,0-.061.028s-.035.023-.035.014a.259.259,0,0,1,.015-.037c.013-.029.014-.034.01-.048A.04.04,0,0,0,855.3-395.144Z" transform="translate(-851.619 397.844)" fill="#05a859"/>
  <path id="Path_14768" data-name="Path 14768" d="M156.306-299.674a.155.155,0,0,0-.107.173.156.156,0,0,0,.059.084.081.081,0,0,0,.026.013l.033-.024.028-.022-.017,0a.085.085,0,0,1-.062-.061.091.091,0,0,1,.052-.087.089.089,0,0,1,.067,0,.084.084,0,0,1,.04.076c0,.012,0,.012.028-.011a.105.105,0,0,0,.031-.03.159.159,0,0,0-.015-.035.136.136,0,0,0-.066-.067A.175.175,0,0,0,156.306-299.674Z" transform="translate(-155.419 302.748)" fill="#05a859"/>
  <path id="Path_14769" data-name="Path 14769" d="M789.345-298.784a.144.144,0,0,0-.056.029.76.76,0,0,0-.092.107.542.542,0,0,0,.048.043c.125.1.157.13.16.13a.763.763,0,0,0,.091-.117.13.13,0,0,0,.006-.1.161.161,0,0,0-.092-.084A.1.1,0,0,0,789.345-298.784Zm.044.075a.119.119,0,0,1,.05.05.055.055,0,0,1,0,.03.146.146,0,0,1-.036.061.729.729,0,0,1-.062-.048l-.059-.049s.035-.039.05-.046A.053.053,0,0,1,789.389-298.709Z" transform="translate(-785.885 301.861)" fill="#05a859"/>
  <path id="Path_14770" data-name="Path 14770" d="M186.094-264.7c-.052.055-.094.1-.094.1l.025.026.026.024.038-.04a.258.258,0,0,1,.041-.039l.039.035.036.033-.04.041-.04.041.026.024a.122.122,0,0,0,.03.023s.046-.045.1-.1l.093-.1-.025-.026-.025-.025-.039.039-.039.039-.035-.033a.25.25,0,0,1-.035-.038.278.278,0,0,1,.037-.042l.037-.037-.028-.024-.028-.025Z" transform="translate(-185.105 268.008)" fill="#05a859"/>
  <path id="Path_14771" data-name="Path 14771" d="M748.709-245.8a.161.161,0,0,0-.1.087.115.115,0,0,0-.011.06.1.1,0,0,0,.011.058.144.144,0,0,0,.168.076.149.149,0,0,0,.056-.259A.155.155,0,0,0,748.709-245.8Zm.07.074a.092.092,0,0,1,.044.087.078.078,0,0,1-.071.061.094.094,0,0,1-.086-.089A.071.071,0,0,1,748.779-245.729Z" transform="translate(-745.451 249.093)" fill="#05a859"/>
  <path id="Path_14772" data-name="Path 14772" d="M253.266-217.922c-.055.085-.061.1-.064.126s.018.067.062.1a.113.113,0,0,0,.126.015c.016-.01.026-.022.074-.094l.057-.089s-.009-.013-.028-.024-.03-.018-.034-.013c-.028.045-.093.141-.1.15s-.043.02-.068,0a.054.054,0,0,1-.015-.024.365.365,0,0,1,.053-.1.448.448,0,0,0,.048-.079.219.219,0,0,0-.057-.037A.754.754,0,0,0,253.266-217.922Z" transform="translate(-252.037 221.387)" fill="#05a859"/>
  <path id="Path_14773" data-name="Path 14773" d="M682.492-198.408a.173.173,0,0,0-.115.09.132.132,0,0,0-.009.09.146.146,0,0,0,.152.111.2.2,0,0,0,.1-.048.112.112,0,0,0,.038-.092.113.113,0,0,0-.015-.066l-.015-.032-.058.035-.063.038s0,.006,0,.019c.018.034.016.034.052.012a.108.108,0,0,1,.034-.017.072.072,0,0,1,0,.022.046.046,0,0,1-.013.035.081.081,0,0,1-.094.028.13.13,0,0,1-.055-.079.075.075,0,0,1,.089-.082l.017,0,.017-.026a.147.147,0,0,0,.017-.029C682.574-198.405,682.521-198.413,682.492-198.408Z" transform="translate(-679.48 201.877)" fill="#05a859"/>
  <path id="Path_14774" data-name="Path 14774" d="M311.4-182.977l-.057.125c-.026.056-.047.1-.046.1s.057.026.06.026,0,0,.006-.008a.478.478,0,0,1,.042-.084s0,.007.007.055c.006.069,0,.063.042.081a.2.2,0,0,0,.036.015s-.012-.1-.017-.12,0-.009.018-.009a.063.063,0,0,0,.053-.023.086.086,0,0,0,.025-.06.075.075,0,0,0-.033-.065.906.906,0,0,0-.123-.059A.079.079,0,0,0,311.4-182.977Zm.073.065c.021.012.027.024.022.043s-.015.028-.032.028-.042-.008-.042-.015a.318.318,0,0,1,.031-.067Z" transform="translate(-309.897 186.53)" fill="#05a859"/>
  <path id="Path_14775" data-name="Path 14775" d="M607.476-163.477l-.08.026s.079.257.081.259a.263.263,0,0,0,.064-.018.235.235,0,0,0-.013-.053c-.009-.028-.015-.051-.015-.052l.043-.014a.188.188,0,0,0,.042-.015.108.108,0,0,0-.019-.05.321.321,0,0,0-.042.012.174.174,0,0,1-.04.01.088.088,0,0,1-.01-.047.364.364,0,0,1,.045-.016l.042-.013-.006-.021C607.556-163.507,607.566-163.505,607.476-163.477Z" transform="translate(-604.812 167.107)" fill="#05a859"/>
  <path id="Path_14776" data-name="Path 14776" d="M377.3-154.586a.147.147,0,0,0-.106.125.1.1,0,0,0,0,.055.135.135,0,0,0,.074.092.16.16,0,0,0,.077.014l.017,0,.011-.035a.31.31,0,0,0,.01-.036.044.044,0,0,0-.016,0,.082.082,0,0,1-.082-.013.092.092,0,0,1-.023-.052.109.109,0,0,1,.029-.067.074.074,0,0,1,.12.023c0,.007,0,.007,0,0a.332.332,0,0,1,.011-.039l.011-.032-.009-.008A.164.164,0,0,0,377.3-154.586Z" transform="translate(-375.532 158.235)" fill="#05a859"/>
  <path id="Path_14777" data-name="Path 14777" d="M436.428-147.181s-.007.044-.013.088-.014.1-.018.128-.007.049-.006.05a.6.6,0,0,0,.07.008s.005-.026.01-.057.01-.055.013-.054l.05.007c.052.006.048,0,.039.063s-.007.058,0,.058l.037,0,.031,0v-.012a.138.138,0,0,1,0-.02s0-.03.008-.057c.006-.044.019-.137.024-.172l0-.013-.024,0-.036,0c-.007,0-.013,0-.013,0s-.012.084-.015.094,0,.009-.013.009a.715.715,0,0,1-.088-.013.319.319,0,0,1,0-.051.272.272,0,0,0,0-.052.2.2,0,0,0-.035-.007C436.43-147.189,436.429-147.188,436.428-147.181Z" transform="translate(-434.492 150.863)" fill="#05a859"/>
  <path id="Path_14778" data-name="Path 14778" d="M538.383-146.741a.152.152,0,0,0-.1.109.144.144,0,0,0,.08.158.117.117,0,0,0,.062.011.115.115,0,0,0,.062-.011.154.154,0,0,0,.074-.072.1.1,0,0,0,.013-.061.113.113,0,0,0-.011-.057.139.139,0,0,0-.125-.084A.142.142,0,0,0,538.383-146.741Zm.07.059a.065.065,0,0,1,.04.041.079.079,0,0,1-.072.119.086.086,0,0,1-.043-.145A.066.066,0,0,1,538.453-146.682Z" transform="translate(-535.973 150.425)" fill="#05a859"/>
</svg>
