<svg id="suba-b" xmlns="http://www.w3.org/2000/svg" width="45.006" height="25.597" viewBox="0 0 45.006 25.597">
  <path id="Path_1956" data-name="Path 1956" d="M303.48,567.857a7.717,7.717,0,0,1,5,1.59l-1.683,2.342a6.15,6.15,0,0,0-3.4-1.18c-.815,0-1.214.342-1.214.769v.034c0,.547.416.786,2.1,1.163,2.794.6,4.528,1.487,4.528,3.727v.034a3.491,3.491,0,0,1-1.291,2.819h4.561a5.2,5.2,0,0,1-1.8-4.374v-6.72H313.7v6.651c0,1.727.885,2.548,2.238,2.548s2.238-.787,2.238-2.462v-6.737h3.418V574.7a5.279,5.279,0,0,1-1.828,4.46h3.823V568.062h6.229a4.517,4.517,0,0,1,3.314,1.077,2.607,2.607,0,0,1,.78,1.932v.034a2.773,2.773,0,0,1-1.873,2.667c1.475.479,2.412,1.3,2.412,2.924v.034a2.856,2.856,0,0,1-1.22,2.425H335.4l4.795-11.179h3.244l2.331,5.435v-13.1H300.82v8.117A5.885,5.885,0,0,1,303.48,567.857Z" transform="translate(-300.76 -560.31)" fill="#1e1f21"/>
  <path id="Path_1957" data-name="Path 1957" d="M1547.83,929h2.724l-1.353-3.4Z" transform="translate(-1508.174 -914.124)" fill="#1e1f21"/>
  <path id="Path_1958" data-name="Path 1958" d="M1500.55,1115.332h5.719l-.522-1.262h-4.685Z" transform="translate(-1462.396 -1096.657)" fill="#1e1f21"/>
  <path id="Path_1959" data-name="Path 1959" d="M1121.1,1030.115h2.6c1.024,0,1.613-.393,1.613-1.094v-.034c0-.65-.521-1.077-1.648-1.077H1121.1Z" transform="translate(-1094.994 -1013.212)" fill="#1e1f21"/>
  <path id="Path_1960" data-name="Path 1960" d="M1124.812,889.5v-.034c0-.649-.52-1.026-1.527-1.026H1121.1v2.1h2.117C1124.24,890.543,1124.812,890.2,1124.812,889.5Z" transform="translate(-1094.994 -878.125)" fill="#1e1f21"/>
  <path id="Path_1961" data-name="Path 1961" d="M305.405,1015.675v-.034c0-.5-.4-.769-2.047-1.146a13.112,13.112,0,0,1-2.538-.776v1.853a6.106,6.106,0,0,0,3.2.923C304.92,1016.5,305.405,1016.188,305.405,1015.675Z" transform="translate(-300.76 -999.472)" fill="#1e1f21"/>
  <path id="Path_1962" data-name="Path 1962" d="M301.268,1230.765a2.291,2.291,0,0,1-2.328-2.335v-.012a2.307,2.307,0,0,1,2.367-2.348,2.341,2.341,0,0,1,1.79.7l-.635.733a1.673,1.673,0,0,0-1.161-.513,1.344,1.344,0,0,0-1.316,1.414v.013a1.348,1.348,0,0,0,1.316,1.427,1.638,1.638,0,0,0,1.193-.532l.635.642A2.32,2.32,0,0,1,301.268,1230.765Z" transform="translate(-298.94 -1205.168)" fill="#1e1f21"/>
  <path id="Path_1963" data-name="Path 1963" d="M533.069,1232.042l-.415-1.018h-1.921l-.415,1.018H529.3l1.945-4.573h.921l1.945,4.573Zm-1.375-3.372-.6,1.472H532.3Z" transform="translate(-521.985 -1206.524)" fill="#1e1f21"/>
  <path id="Path_1964" data-name="Path 1964" d="M790.218,1231.649h-.759v1.362h-1v-4.541h1.855a1.555,1.555,0,0,1,1.738,1.569v.013A1.623,1.623,0,0,1,790.218,1231.649Zm.823-1.588c0-.447-.311-.687-.811-.687h-.772v1.388h.791a.7.7,0,0,0,.791-.687Z" transform="translate(-772.916 -1207.492)" fill="#1e1f21"/>
  <path id="Path_1965" data-name="Path 1965" d="M1011.88,1233.01v-4.541h1v4.541Z" transform="translate(-989.242 -1207.492)" fill="#1e1f21"/>
  <path id="Path_1966" data-name="Path 1966" d="M1156.81,1229.431v3.62h-1v-3.62h-1.381v-.921h3.761v.921Z" transform="translate(-1127.266 -1207.531)" fill="#1e1f21"/>
  <path id="Path_1967" data-name="Path 1967" d="M1355.707,1232.042l-.415-1.018h-1.92l-.415,1.018h-1.018l1.946-4.573h.921l1.945,4.573Zm-1.375-3.372-.6,1.472h1.206Z" transform="translate(-1318.504 -1206.524)" fill="#1e1f21"/>
  <path id="Path_1968" data-name="Path 1968" d="M1611.08,1233.01v-4.541h1v3.632h2.263v.908Z" transform="translate(-1569.415 -1207.492)" fill="#1e1f21"/>
</svg>
