<svg xmlns="http://www.w3.org/2000/svg" width="109.116" height="20.188" viewBox="0 0 109.116 20.188">
  <g id="tusore-logo" transform="translate(-523.352 -815.352)">
    <path id="Path_8711" data-name="Path 8711" d="M6.86-22.491h4a.416.416,0,0,0,.448-.388V-35.722h3.64a.416.416,0,0,0,.448-.388v-2.956a.416.416,0,0,0-.448-.388H2.772a.39.39,0,0,0-.42.388v2.956a.39.39,0,0,0,.42.388H6.44v12.844A.39.39,0,0,0,6.86-22.491Zm19.1.315c4.536,0,7.812-2.4,7.812-7.149v-9.742a.416.416,0,0,0-.448-.388h-4a.416.416,0,0,0-.448.388v9.717c0,1.914-.98,3.029-2.912,3.029s-2.912-1.115-2.912-3.029v-9.717a.416.416,0,0,0-.448-.388h-4a.39.39,0,0,0-.42.388v9.742C18.172-24.575,21.42-22.176,25.956-22.176Zm17.22-.024c3.248,0,6.776-1.478,6.776-5.137,0-2.932-2.24-4.071-4.284-4.9l-1.9-.727c-1.4-.557-2.156-.751-2.156-1.624,0-.7.616-1.212,1.792-1.212a5.452,5.452,0,0,1,3.192,1.26.436.436,0,0,0,.588-.145l2.072-2.157a.343.343,0,0,0-.028-.533,8.693,8.693,0,0,0-5.992-2.278c-3.472,0-6.328,1.745-6.328,5.016,0,2.738,2.072,4.023,4.144,4.847l2.38.945c1.092.412,1.792.654,1.792,1.478,0,.969-.924,1.309-2.156,1.309A5.612,5.612,0,0,1,39.34-27.6a.453.453,0,0,0-.644.1l-2.1,2.06a.367.367,0,0,0-.028.533A8.736,8.736,0,0,0,43.176-22.2Zm42.056-.291h4.256c.336,0,.476-.17.28-.436l-4.228-5.84a5.038,5.038,0,0,0,3.5-5.065c0-3.344-2.268-5.622-7.084-5.622H75.8a.39.39,0,0,0-.42.388v16.188a.39.39,0,0,0,.42.388h4a.416.416,0,0,0,.448-.388V-28.21h.616l3.864,5.477A.555.555,0,0,0,85.232-22.491Zm-4.984-9.451v-3.78h1.6c1.288,0,2.548.291,2.548,1.89s-1.26,1.89-2.548,1.89ZM92.9-22.491h10.22a.416.416,0,0,0,.448-.388v-2.956a.416.416,0,0,0-.448-.388H97.356v-2.932h5.432c.252,0,.448-.145.448-.363V-32.5a.416.416,0,0,0-.448-.388H97.356v-2.835h5.8a.39.39,0,0,0,.42-.388v-2.956a.39.39,0,0,0-.42-.388H92.9a.39.39,0,0,0-.42.388v16.188A.39.39,0,0,0,92.9-22.491Z" transform="translate(521 856.5)" fill="#1c1844"/>
    <path id="Path_8713" data-name="Path 8713" d="M112.252-19.46A10.062,10.062,0,0,0,122.36-29.54a10.068,10.068,0,0,0-10.108-10.108A10.068,10.068,0,0,0,102.144-29.54,10.062,10.062,0,0,0,112.252-19.46Zm-5.18-10.08a5.133,5.133,0,0,1,5.18-5.32,5.11,5.11,0,0,1,5.152,5.32,5.1,5.1,0,0,1-5.152,5.292A5.126,5.126,0,0,1,107.072-29.54Z" transform="translate(471.104 855)" fill="#1c1844"/>
    <path id="Path_8712" data-name="Path 8712" d="M212.492-4.7a2.689,2.689,0,0,0,2.688-2.688,2.719,2.719,0,0,0-2.688-2.744,2.725,2.725,0,0,0-2.716,2.744A2.7,2.7,0,0,0,212.492-4.7Z" transform="translate(417.288 838.744)" fill="#d50f0f"/>
  </g>
</svg>
