<svg xmlns="http://www.w3.org/2000/svg" width="103.068" height="34" viewBox="0 0 103.068 34">
  <g id="vuche-logo" transform="translate(-80 -43)">
    <path id="Path_14628" data-name="Path 14628" d="M.37,5.051A8.872,8.872,0,0,1,3.018-1.608a9.669,9.669,0,0,1,7.037-2.573,9.15,9.15,0,0,1,6.886,2.573,9.16,9.16,0,0,1,2.5,6.659,9.362,9.362,0,0,1-2.5,6.81,9.15,9.15,0,0,1-6.886,2.573,9.669,9.669,0,0,1-7.037-2.573A9.062,9.062,0,0,1,.37,5.051Z" transform="translate(79.63 59.259)" fill="#e8e8e8"/>
    <path id="Path_14621" data-name="Path 14621" d="M.37,5.051A8.872,8.872,0,0,1,3.018-1.608a9.669,9.669,0,0,1,7.037-2.573,9.15,9.15,0,0,1,6.886,2.573,9.16,9.16,0,0,1,2.5,6.659,9.362,9.362,0,0,1-2.5,6.81,9.15,9.15,0,0,1-6.886,2.573,9.669,9.669,0,0,1-7.037-2.573A9.062,9.062,0,0,1,.37,5.051Z" transform="translate(99.63 60.874)" fill="#e8e8e8"/>
    <path id="Path_14622" data-name="Path 14622" d="M.37,5.051A8.872,8.872,0,0,1,3.018-1.608a9.669,9.669,0,0,1,7.037-2.573,9.15,9.15,0,0,1,6.886,2.573,9.16,9.16,0,0,1,2.5,6.659,9.362,9.362,0,0,1-2.5,6.81,9.15,9.15,0,0,1-6.886,2.573,9.669,9.669,0,0,1-7.037-2.573A9.062,9.062,0,0,1,.37,5.051Z" transform="translate(121.63 60.874)" fill="#e8e8e8"/>
    <path id="Path_14623" data-name="Path 14623" d="M.37,5.051A8.872,8.872,0,0,1,3.018-1.608a9.669,9.669,0,0,1,7.037-2.573,9.15,9.15,0,0,1,6.886,2.573,9.16,9.16,0,0,1,2.5,6.659,9.362,9.362,0,0,1-2.5,6.81,9.15,9.15,0,0,1-6.886,2.573,9.669,9.669,0,0,1-7.037-2.573A9.062,9.062,0,0,1,.37,5.051Z" transform="translate(142.63 60.874)" fill="#e8e8e8"/>
    <path id="Path_14624" data-name="Path 14624" d="M.37,5.051A8.872,8.872,0,0,1,3.018-1.608a9.669,9.669,0,0,1,7.037-2.573,9.15,9.15,0,0,1,6.886,2.573,9.16,9.16,0,0,1,2.5,6.659,9.362,9.362,0,0,1-2.5,6.81,9.15,9.15,0,0,1-6.886,2.573,9.669,9.669,0,0,1-7.037-2.573A9.062,9.062,0,0,1,.37,5.051Z" transform="translate(163.63 60.874)" fill="#e8e8e8"/>
    <path id="Path_14625" data-name="Path 14625" d="M0-22.156H4.25L11.123-3.707l6.43-18.449h1.219L10.717-.3H7.982Zm24.316,0V-5.871A5.3,5.3,0,0,0,25.48-2.111,3.849,3.849,0,0,0,28.492-.919,7.193,7.193,0,0,0,31.411-1.6,7.285,7.285,0,0,0,33.887-3.56V-20.322l4.065-1.834V-.3L33.887-2.13v-.954a7.893,7.893,0,0,1-2.7,2.347,8.357,8.357,0,0,1-3.88.807,10.775,10.775,0,0,1-2.568-.312,6.928,6.928,0,0,1-2.273-.99,5.333,5.333,0,0,1-1.608-1.706,4.728,4.728,0,0,1-.61-2.457V-20.322ZM60.457-.3V-9.905q-.3.954-.647,2.072a19.543,19.543,0,0,1-.85,2.219,14.032,14.032,0,0,1-1.2,2.127,8.213,8.213,0,0,1-1.7,1.816A8.161,8.161,0,0,1,53.731-.406a9.07,9.07,0,0,1-3.067.477A10.849,10.849,0,0,1,45.934-.9a10.328,10.328,0,0,1-3.4-2.549,10.614,10.614,0,0,1-2.051-3.613,12.937,12.937,0,0,1-.684-4.145,12.937,12.937,0,0,1,.684-4.145,10.778,10.778,0,0,1,2.032-3.613,10.079,10.079,0,0,1,3.4-2.549,10.971,10.971,0,0,1,4.749-.972,10.743,10.743,0,0,1,1.792.147,12.479,12.479,0,0,1,1.681.4A4.861,4.861,0,0,1,52.9-24.8a4.167,4.167,0,0,1,.758-2.457A8.286,8.286,0,0,1,55.8-29.344a28.419,28.419,0,0,1,2.919-1.779q1.552-.825,3.1-1.522t2.7-1.284v14.561a7.893,7.893,0,0,1,2.7-2.347,8.357,8.357,0,0,1,3.88-.807,10.775,10.775,0,0,1,2.568.312,6.928,6.928,0,0,1,2.273.99,5.333,5.333,0,0,1,1.607,1.706,4.728,4.728,0,0,1,.61,2.457V-.3H74.093V-16.581a5.3,5.3,0,0,0-1.164-3.759,3.849,3.849,0,0,0-3.012-1.192A7.193,7.193,0,0,0,67-20.853a7.285,7.285,0,0,0-2.476,1.962V-.3ZM58.166-18.781l-2.069,2.6a5.448,5.448,0,0,0-.48-2.366,4.948,4.948,0,0,0-1.256-1.669,5.331,5.331,0,0,0-1.737-.99,5.882,5.882,0,0,0-1.922-.33,5.032,5.032,0,0,0-2.975.9,7.542,7.542,0,0,0-2.143,2.366,11.534,11.534,0,0,0-1.293,3.319,15.586,15.586,0,0,0-.388,3.8,15.687,15.687,0,0,0,.536,3.8,10.91,10.91,0,0,0,1.478,3.3,7.431,7.431,0,0,0,2.476,2.311,6.622,6.622,0,0,0,3.492.825,6.154,6.154,0,0,0,3.455-.99,8.522,8.522,0,0,0,2.328-2.4,16.289,16.289,0,0,0,1.589-3.173q.647-1.724,1.2-3.3V-31.618q-1.848.88-3.548,1.907a9.241,9.241,0,0,0-2.642,2.274,3.775,3.775,0,0,0-.795,2.732,5.9,5.9,0,0,0,2,3.319A5.788,5.788,0,0,1,58.166-18.781Zm39.91,3.338H84.625a15.511,15.511,0,0,0-.5,4.878,13.989,13.989,0,0,0,1.035,4.731,8.928,8.928,0,0,0,2.624,3.558A6.46,6.46,0,0,0,92.09-.919a8.012,8.012,0,0,0,3.732-1.027,7.719,7.719,0,0,0,2.993-3.081H99a10.1,10.1,0,0,1-3.2,3.759A8.5,8.5,0,0,1,90.87.071,10.849,10.849,0,0,1,86.14-.9a10.328,10.328,0,0,1-3.4-2.549,10.614,10.614,0,0,1-2.051-3.613,12.937,12.937,0,0,1-.684-4.145,12.937,12.937,0,0,1,.684-4.145,10.778,10.778,0,0,1,2.032-3.613,10.079,10.079,0,0,1,3.4-2.549,10.971,10.971,0,0,1,4.749-.972,11.51,11.51,0,0,1,2.55.312,8.579,8.579,0,0,1,2.55,1.027,6.166,6.166,0,0,1,1.977,1.926,5.3,5.3,0,0,1,.795,2.971,2.016,2.016,0,0,1-.148.55Q98.483-15.444,98.076-15.444Zm-7.169-.734a3.908,3.908,0,0,0,1.885-.4,3.086,3.086,0,0,0,1.127-.99,2.172,2.172,0,0,0,.37-1.284,2.49,2.49,0,0,0-.388-1.284,2.9,2.9,0,0,0-1.127-.99,3.932,3.932,0,0,0-1.866-.4,5.29,5.29,0,0,0-2.069.4,5.7,5.7,0,0,0-1.718,1.119,7.464,7.464,0,0,0-1.33,1.706,11.066,11.066,0,0,0-.942,2.127Z" transform="translate(80 76.929)" fill="#1e1f21"/>
  </g>
</svg>
